<svg height="492pt" viewBox="0 -12 492.00324 492" width="492pt" xmlns="http://www.w3.org/2000/svg"><path d="m486 362.242188c0 55.226562-44.773438 100-100 100s-100-44.773438-100-100c0-55.230469 44.773438-100 100-100s100 44.769531 100 100zm0 0" fill="#6fe3ff"/><path d="m386 6v256.242188c-55.226562 0-100 44.769531-100 100h-222.171875v-356.242188zm-53.699219 178.121094c0-59.308594-48.082031-107.390625-107.390625-107.390625s-107.390625 48.082031-107.390625 107.390625 48.082031 107.390625 107.390625 107.390625 107.390625-48.082031 107.390625-107.390625zm0 0" fill="#f8ec7d"/><path d="m224.910156 76.730469c59.308594 0 107.390625 48.082031 107.390625 107.390625s-48.082031 107.390625-107.390625 107.390625-107.390625-48.082031-107.390625-107.390625 48.082031-107.390625 107.390625-107.390625zm41.308594 110.140625c-.003906-23.570313-19.113281-42.671875-42.683594-42.667969-23.570312.003906-42.675781 19.113281-42.675781 42.683594.003906 23.570312 19.109375 42.675781 42.679687 42.675781 23.574219-.003906 42.683594-19.117188 42.679688-42.691406zm0 0" fill="#e48e66"/><path d="m223.539062 144.191406c23.578126-.003906 42.691407 19.109375 42.691407 42.683594s-19.113281 42.6875-42.6875 42.6875-42.6875-19.117188-42.683594-42.691406c0-23.570313 19.109375-42.679688 42.679687-42.679688zm12.332032 42.679688c-.003906-6.8125-5.527344-12.332032-12.339844-12.328125-6.8125 0-12.335938 5.527343-12.332031 12.339843.003906 6.8125 5.527343 12.332032 12.339843 12.328126 6.816407 0 12.335938-5.527344 12.332032-12.339844zm0 0" fill="#6fe3ff"/><path d="m223.539062 174.542969c6.8125 0 12.332032 5.527343 12.332032 12.339843-.003906 6.8125-5.527344 12.332032-12.339844 12.328126-6.8125-.003907-12.335938-5.527344-12.332031-12.339844 0-6.8125 5.527343-12.335938 12.339843-12.328125zm0 0" fill="#cc7350"/><path d="m6 6h57.828125v356.242188h-57.828125zm0 0" fill="#e48e66"/><g fill="#63316d"><path d="m224.910156 297.511719c62.625 0 113.390625-50.765625 113.390625-113.390625 0-62.621094-50.765625-113.390625-113.390625-113.390625s-113.390625 50.769531-113.390625 113.390625c.070313 62.59375 50.796875 113.320312 113.390625 113.390625zm0-214.78125c55.996094 0 101.390625 45.394531 101.390625 101.390625s-45.394531 101.390625-101.390625 101.390625-101.390625-45.394531-101.390625-101.390625c.0625-55.96875 45.421875-101.324219 101.390625-101.390625zm0 0"/><path d="m223.539062 235.5625c26.890626 0 48.6875-21.792969 48.691407-48.679688.003906-26.890624-21.792969-48.6875-48.679688-48.691406-26.890625-.003906-48.6875 21.792969-48.691406 48.679688.027344 26.875 21.804687 48.65625 48.679687 48.691406zm0-85.371094c20.261719-.003906 36.691407 16.421875 36.691407 36.683594s-16.425781 36.6875-36.6875 36.6875-36.6875-16.429688-36.683594-36.691406c.023437-20.246094 16.433594-36.65625 36.679687-36.679688zm0 0"/><path d="m224.90625 265.839844c3.316406 0 6-2.683594 6-6 0-3.3125-2.683594-6-6-6-37.714844-.066406-68.273438-30.625-68.34375-68.339844 0-3.316406-2.683594-6-6-6-3.3125 0-6 2.683594-6 6 .078125 44.339844 36.003906 80.265625 80.34375 80.339844zm0 0"/><path d="m224.90625 117.152344c37.722656.066406 68.285156 30.628906 68.355469 68.351562 0 3.3125 2.683593 6 6 6 3.3125 0 6-2.6875 6-6-.082031-44.339844-36.007813-80.265625-80.347657-80.347656-3.316406 0-6 2.6875-6 6 0 3.316406 2.683594 6 6 6zm0 0"/><path d="m223.539062 205.210938c10.125-.003907 18.332032-8.210938 18.332032-18.335938-.003906-10.125-8.210938-18.332031-18.335938-18.332031-10.125-.003907-18.332031 8.203125-18.335937 18.328125.007812 10.125 8.214843 18.332031 18.339843 18.339844zm0-24.667969c3.5 0 6.332032 2.839843 6.332032 6.339843-.003906 3.496094-2.84375 6.332032-6.339844 6.328126-3.5-.003907-6.335938-2.839844-6.332031-6.339844.003906-3.496094 2.84375-6.332032 6.339843-6.328125zm0 0"/><path d="m392 256.414062v-250.414062c0-3.3125-2.6875-6-6-6h-380c-3.3125 0-6 2.6875-6 6v356.242188c0 3.3125 2.6875 6 6 6h274.171875c3.226563 56.894531 50.855469 101.058593 107.832031 99.984374 56.976563-1.074218 102.90625-47.003906 103.980469-103.980468 1.074219-56.976563-43.089844-104.609375-99.984375-107.832032zm-12 0c-53.789062 3.117188-96.707031 46.039063-99.828125 99.828126h-210.34375v-344.242188h310.171875zm-368-244.414062h45.828125v344.242188h-45.828125zm374 444.242188c-51.914062.019531-94.015625-42.046876-94.039062-93.960938-.019532-51.914062 42.046874-94.019531 93.960937-94.039062h.078125.078125c51.914063.019531 93.980469 42.125 93.960937 94.039062-.023437 51.914062-42.125 93.980469-94.039062 93.960938zm0 0"/><path d="m446 356.242188h-54v-54c0-3.3125-2.6875-6-6-6s-6 2.6875-6 6v54h-54c-3.3125 0-6 2.6875-6 6s2.6875 6 6 6h54v54c0 3.3125 2.6875 6 6 6s6-2.6875 6-6v-54h54c3.3125 0 6-2.6875 6-6s-2.6875-6-6-6zm0 0"/></g></svg>