<svg height="427pt" viewBox="0 0 427.68075 427" width="427pt" xmlns="http://www.w3.org/2000/svg"><path d="m313.839844 226.890625c-.050782-30.34375-20.199219-56.984375-49.382813-65.292969-29.1875-8.304687-60.34375 3.730469-76.367187 29.503906v-90.300781c69.230468 0 125.75 56.519531 125.75 126.089844zm0 0" fill="#f8ec7d"/><path d="m150.960938 253.308594c20.503906 0 37.128906 16.621094 37.128906 37.125s-16.621094 37.128906-37.125 37.125c-20.503906 0-37.125-16.625-37.125-37.128906.003906-20.5 16.621094-37.117188 37.121094-37.121094zm0 0" fill="#f8ec7d"/><path d="m87.550781 380.621094-23.078125 31.320312-11.421875-65.890625 66.308594-8.609375-31.507813 42.769532zm0 0" fill="#e48e66"/><g fill="#63316d"><path d="m18.351562 293.152344c1.957032 0 3.792969-.957032 4.914063-2.558594 1.125-1.605469 1.394531-3.65625.722656-5.496094-7.960937-21.871094-12.019531-44.972656-11.988281-68.246094 0-109.824218 89.347656-199.171874 199.171875-199.171874 22.320313-.027344 44.488281 3.707031 65.570313 11.046874 3.128906 1.089844 6.546874-.5625 7.640624-3.691406 1.089844-3.128906-.5625-6.550781-3.691406-7.640625-77.035156-26.769531-162.597656-6.820312-219.851562 51.253907-57.257813 58.074218-75.984375 143.910156-48.128906 220.554687.863281 2.371094 3.117187 3.949219 5.640624 3.949219zm0 0"/><path d="m211.171875 416.019531c-41.300781.128907-81.601563-12.707031-115.222656-36.691406l28.242187-38.328125c1.425782-1.9375 1.558594-4.535156.339844-6.605469-1.21875-2.070312-3.558594-3.210937-5.941406-2.902343l-66.308594 8.609374c-1.621094.207032-3.089844 1.074219-4.058594 2.390626-.972656 1.316406-1.363281 2.976562-1.082031 4.589843l11.421875 65.886719c.410156 2.367188 2.191406 4.265625 4.53125 4.816406 2.339844.550782 4.78125-.347656 6.210938-2.28125l19.527343-26.507812c76.839844 54.550781 180.523438 51.609375 254.140625-7.21875 73.621094-58.824219 99.367188-159.300782 63.113282-246.28125-1.277344-3.058594-4.792969-4.5-7.847657-3.21875-3.058593 1.277344-4.5 4.792968-3.21875 7.851562 10.164063 24.296875 15.375 50.382813 15.320313 76.722656 0 109.820313-89.347656 199.167969-199.167969 199.167969zm-143.191406-18.957031-7.949219-45.867188 46.160156-5.996093-23.265625 31.582031c-.144531.171875-.277343.351562-.398437.539062zm0 0"/><path d="m421.679688 49.171875h-42.828126v-42.832031c0-3.3125-2.6875-6-6-6-3.316406 0-6 2.6875-6 6v42.832031h-45.171874c-3.3125 0-6 2.683594-6 6 0 3.3125 2.6875 6 6 6h45.171874v45.167969c0 3.3125 2.683594 6 6 6 3.3125 0 6-2.6875 6-6v-45.167969h42.828126c3.316406 0 6-2.6875 6-6 0-3.316406-2.683594-6-6-6zm0 0"/><path d="m188.089844 94.800781c-3.3125 0-6 2.6875-6 6v159.832031c-14.292969-14.894531-37.144532-17.5625-54.484375-6.355468-17.335938 11.207031-24.292969 33.136718-16.578125 52.289062 7.710937 19.148438 27.921875 30.140625 48.1875 26.203125 20.265625-3.933593 34.894531-21.691406 34.875-42.335937v-97.570313c15.066406-22.832031 43.3125-33.09375 69.519531-25.253906s44.179687 31.925781 44.230469 59.28125c0 3.3125 2.6875 6 6 6 3.316406 0 6-2.6875 6-6 0-72.835937-59.097656-132.089844-131.75-132.089844zm-37.128906 226.757813c-17.1875 0-31.121094-13.9375-31.121094-31.125s13.9375-31.121094 31.125-31.125c17.1875 0 31.125 13.933594 31.125 31.121094-.015625 17.1875-13.941406 31.113281-31.128906 31.128906zm94.988281-168.558594c-19.382813-.074219-38.015625 7.488281-51.859375 21.054688v-67.105469c42.191406 2.183593 80.117187 26.417969 99.832031 63.78125-13.355469-11.457031-30.375-17.746094-47.972656-17.730469zm0 0"/></g></svg>