<svg height="452pt" viewBox="-55 0 452 452" width="452pt" xmlns="http://www.w3.org/2000/svg"><path d="m184.019531 150.261719h142.511719c5.523438 0 10 4.476562 10 10v275.738281c0 5.523438-4.476562 10-10 10h-310.53125c-5.523438 0-10-4.476562-10-10v-275.738281c0-5.523438 4.476562-10 10-10zm82.242188 147.867187c.003906-52.476562-42.53125-95.023437-95.011719-95.023437-52.476562-.003907-95.019531 42.539062-95.015625 95.015625.003906 52.476562 42.546875 95.015625 95.027344 95.007812 52.46875.011719 95.011719-42.527344 95-95zm0 0" fill="#f8ec7d"/><path d="m315.519531 150.261719h-90.648437c-1.003906-30.929688-26.363282-55.480469-57.304688-55.480469-30.945312 0-56.304687 24.550781-57.304687 55.480469h-83.261719c0-79.675781 64.585938-144.261719 144.261719-144.261719 79.671875 0 144.257812 64.585938 144.257812 144.261719zm0 0" fill="#e48e66"/><path d="m216.328125 214.480469c42.230469 22.726562 60.910156 73.359375 43.558594 118.066406-17.351563 44.707031-65.296875 69.480469-111.800781 57.769531-46.507813-11.710937-77-56.238281-71.105469-103.832031 5.890625-47.59375 46.324219-83.339844 94.28125-83.355469 15.730469-.007812 31.214843 3.894532 45.066406 11.351563zm-15.378906 99.257812 29.691406-28.9375-41.03125-5.960937-18.347656-37.179688-18.351563 37.179688-41.019531 5.960937 29.679687 28.9375-7 40.863281 36.691407-19.292968 36.699219 19.292968zm0 0" fill="#6fe3ff"/><path d="m230.640625 284.800781-29.691406 28.9375 7.011719 40.863281-36.699219-19.292968-36.691407 19.292968 7-40.863281-29.679687-28.9375 41.019531-5.960937 18.351563-37.179688 18.347656 37.179688zm0 0" fill="#e48e66"/><path d="m224.871094 150.261719h-40.851563c-.941406-8.378907-8.027343-14.707031-16.453125-14.707031-8.429687 0-15.511718 6.328124-16.457031 14.707031h-40.847656c1-30.929688 26.359375-55.480469 57.304687-55.480469 30.941406 0 56.300782 24.550781 57.304688 55.480469zm0 0" fill="#6fe3ff"/><path d="m184.019531 150.261719h-32.910156c.945313-8.378907 8.027344-14.707031 16.457031-14.707031 8.425782 0 15.511719 6.328124 16.453125 14.707031zm0 0" fill="#e48e66"/><g fill="#63316d"><path d="m326.53125 144.261719h-5.140625c-3.164063-80.082031-69.289063-144.261719-150.128906-144.261719-80.84375 0-146.96875 64.179688-150.132813 144.261719h-5.128906c-8.832031.007812-15.9882812 7.167969-16 16v275.738281c.0117188 8.832031 7.167969 15.988281 16 16h310.53125c8.832031-.011719 15.988281-7.167969 16-16v-275.738281c-.011719-8.832031-7.167969-15.992188-16-16zm-155.269531-132.261719c74.222656 0 134.96875 58.800781 138.121093 132.261719h-78.972656c-3.960937-31.695313-30.902344-55.480469-62.84375-55.480469s-58.886718 23.785156-62.847656 55.480469h-71.582031c3.152343-73.460938 63.898437-132.261719 138.125-132.261719zm17.4375 132.261719c-3.277344-8.84375-11.707031-14.710938-21.136719-14.710938s-17.859375 5.867188-21.136719 14.710938h-29.589843c3.871093-25.023438 25.410156-43.484375 50.730468-43.484375 25.316406 0 46.855469 18.460937 50.730469 43.484375zm-14.0625 0h-14.152344c4.023437-3.613281 10.125-3.613281 14.152344 0zm155.894531 291.738281c0 2.210938-1.792969 4-4 4h-310.53125c-2.210938 0-4-1.789062-4-4v-275.738281c0-2.210938 1.789062-4 4-4h310.53125c2.207031 0 4 1.789062 4 4zm0 0"/><path d="m169.410156 56.390625c9.136719-.007813 18.222656 1.324219 26.972656 3.945313 2.0625.648437 4.316407.136718 5.894532-1.335938 1.582031-1.476562 2.246094-3.6875 1.742187-5.792969-.507812-2.101562-2.105469-3.769531-4.183593-4.363281-9.871094-2.960938-20.121094-4.460938-30.425782-4.453125-3.3125 0-6 2.6875-6 6s2.6875 6 6 6zm0 0"/><path d="m213.699219 67.484375c25.035156 13.339844 42.664062 37.316406 47.9375 65.1875.628906 3.242187 3.761719 5.367187 7.007812 4.75 3.25-.617187 5.382813-3.742187 4.78125-6.992187-5.941406-31.429688-25.820312-58.46875-54.046875-73.515626-2.917968-1.566406-6.558594-.472656-8.125 2.445313-1.566406 2.921875-.472656 6.558594 2.445313 8.125zm0 0"/><path d="m219.179688 209.199219c-46.457032-25.058594-104.375-10.121094-132.917969 34.28125-28.546875 44.402343-18.085938 103.296875 24 135.15625 17.523437 13.359375 38.964843 20.5625 61 20.492187 46.265625-.003906 86.613281-31.441406 97.933593-76.300781 11.316407-44.859375-9.289062-91.675781-50.015624-113.628906zm-47.917969 177.929687c-19.414063.0625-38.304688-6.28125-53.742188-18.050781-34.769531-26.332031-45.335937-73.976563-24.960937-112.539063 20.378906-38.558593 65.695312-56.675781 107.035156-42.789062 41.34375 13.886719 66.535156 55.6875 59.5 98.730469-7.03125 43.042969-44.21875 74.648437-87.832031 74.648437zm0 0"/><path d="m193.59375 273.355469-16.953125-34.351563c-1.011719-2.046875-3.097656-3.34375-5.378906-3.34375-2.285157 0-4.371094 1.296875-5.382813 3.34375l-16.953125 34.351563-37.898437 5.507812c-2.261719.328125-4.140625 1.910157-4.847656 4.082031-.703126 2.171876-.117188 4.554688 1.519531 6.152344l27.421875 26.738282-6.460938 37.75c-.386718 2.25.539063 4.527343 2.386719 5.867187 1.847656 1.34375 4.296875 1.519531 6.320313.457031l33.898437-17.820312 33.910156 17.820312c2.019531 1.0625 4.46875.886719 6.316407-.457031 1.847656-1.339844 2.773437-3.617187 2.386718-5.867187l-6.476562-37.75 27.433594-26.738282c1.632812-1.59375 2.222656-3.980468 1.515624-6.152344-.703124-2.171874-2.582031-3.753906-4.84375-4.082031zm3.167969 36.085937c-1.414063 1.378906-2.0625 3.367188-1.726563 5.3125l4.953125 28.878906-25.9375-13.632812c-1.746093-.917969-3.835937-.917969-5.582031 0l-25.933594 13.632812 4.949219-28.878906c.332031-1.945312-.3125-3.929687-1.722656-5.308594l-20.980469-20.457031 28.992188-4.210937c1.953124-.285156 3.644531-1.511719 4.515624-3.28125l12.972657-26.277344 12.96875 26.28125c.871093 1.769531 2.5625 3 4.515625 3.28125l29 4.214844zm0 0"/></g></svg>