<svg height="472pt" viewBox="-49 0 472 472.00048" width="472pt" xmlns="http://www.w3.org/2000/svg"><path d="m157.960938 306.390625c24.933593-50.300781 83.605468-73.925781 136.4375-54.933594 52.828124 18.988281 83.039062 74.558594 70.242187 129.222657-12.792969 54.660156-64.527344 91.054687-120.300781 84.621093-55.769532-6.429687-97.863282-53.640625-97.878906-109.78125 0-17.042969 3.933593-33.855469 11.5-49.128906zm0 0" fill="#6fe3ff"/><path d="m206.980469 454.089844h-192.109375c0-15 12.160156-27.160156 27.160156-27.160156h130.617188c9.523437 11.25 21.195312 20.484374 34.332031 27.160156zm0 0" fill="#cc7350"/><path d="m58.082031 178.980469v-104.980469c0-37.554688 30.441407-68 68-68h2.886719c37.558594 0 68 30.445312 68 68v116.171875c-.003906 37.550781-30.445312 67.996094-68 68h-2.886719c-37.554687-.003906-67.996093-30.449219-68-68zm0 0" fill="#f8ec7d"/><g fill="#63316d"><path d="m126.082031 264.171875h2.886719c40.851562-.046875 73.957031-33.152344 74-74v-116.171875c-.042969-40.851562-33.148438-73.953125-74-74h-2.886719c-40.851562.046875-73.957031 33.148438-74 74v116.171875c.042969 40.847656 33.148438 73.953125 74 74zm-62-79.191406h30.457031c3.316407 0 6-2.6875 6-6s-2.683593-6-6-6h-30.457031v-12.300781h30.457031c3.316407 0 6-2.6875 6-6s-2.683593-6-6-6h-30.457031v-12.308594h30.457031c3.316407 0 6-2.6875 6-6 0-3.316406-2.683593-6-6-6h-30.457031v-12.300782h30.457031c3.316407 0 6-2.6875 6-6s-2.683593-6-6-6h-30.457031v-26.070312c.035157-34.226562 27.773438-61.960938 62-62h2.886719c34.226562.039062 61.964844 27.773438 62 62v26.070312h-30.457031c-3.316407 0-6 2.6875-6 6s2.683593 6 6 6h30.457031v12.300782h-30.457031c-3.316407 0-6 2.683594-6 6 0 3.3125 2.683593 6 6 6h30.457031v12.308594h-30.457031c-3.316407 0-6 2.6875-6 6s2.683593 6 6 6h30.457031v12.300781h-30.457031c-3.316407 0-6 2.6875-6 6s2.683593 6 6 6h30.457031v5.191406c-.035156 34.222656-27.773438 61.960937-62 62h-2.886719c-34.226562-.039063-61.964843-27.777344-62-62zm0 0"/><path d="m256.941406 239.039062c-4.140625 0-8.277344.21875-12.390625.65625 7.019531-16.070312 10.597657-33.429687 10.5-50.964843 0-3.3125-2.6875-6-6-6-3.316406 0-6 2.6875-6 6 0 19.339843-4.542969 37.785156-13.125 53.46875-32.589843 7.90625-60.246093 29.355469-76.015625 58.953125-8.65625 1.992187-17.507812 3.03125-26.390625 3.101562-63.769531-.074218-115.449219-51.753906-115.519531-115.523437 0-3.3125-2.6875-6-6-6s-6 2.6875-6 6c0 68.300781 53.980469 124.230469 121.519531 127.375v104.824219h-79.488281c-18.304688.023437-33.140625 14.855468-33.160156 33.160156 0 3.3125 2.683594 6 6 6h190.71875c15.96875 7.886718 33.542968 11.960937 51.351562 11.910156 64.328125 0 116.480469-52.148438 116.480469-116.480469 0-64.328125-52.152344-116.480469-116.480469-116.480469zm-123.421875 77.042969c4.8125-.253906 9.609375-.773437 14.363281-1.554687-13.28125 35.421875-8.554687 75.089844 12.683594 106.398437h-27.046875zm-91.488281 116.847657h127.878906c4.9375 5.5625 10.398438 10.640624 16.304688 15.160156h-164.480469c2.671875-8.984375 10.925781-15.148438 20.296875-15.160156zm214.910156 27.070312c-30.722656.039062-59.894531-13.484375-79.71875-36.953125-26.949218-31.824219-32.40625-76.621094-13.890625-113.984375 22.910157-46.164062 76.058594-68.734375 125.183594-53.15625s79.558594 64.648438 71.679687 115.578125c-7.882812 50.933594-51.71875 88.511719-103.253906 88.515625zm0 0"/><path d="m298.65625 319.457031-59.386719 59.402344-24.046875-24.039063c-2.34375-2.34375-6.144531-2.34375-8.484375 0-2.34375 2.34375-2.34375 6.144532 0 8.488282l28.289063 28.277344c2.34375 2.34375 6.144531 2.34375 8.484375 0l63.632812-63.640626c1.535157-1.511718 2.140625-3.730468 1.589844-5.8125-.550781-2.085937-2.179687-3.710937-4.261719-4.261718-2.085937-.554688-4.304687.054687-5.816406 1.589844zm0 0"/></g></svg>