<svg height="472pt" viewBox="-49 0 472 472.00048" width="472pt" xmlns="http://www.w3.org/2000/svg"><path d="m206.980469 454.089844c-10.40625-5.292969-19.90625-12.195313-28.160157-20.449219l.089844-.089844 156.058594-156.0625.089844-.089843c38.378906 38.40625 43.171875 99.003906 11.304687 142.960937-31.863281 43.960937-90.945312 58.257813-139.382812 33.730469zm0 0" fill="#6fe3ff"/><path d="m157.960938 306.390625c15.820312-31.859375 46.011718-54.15625 81.117187-59.902344 35.105469-5.746093 70.828125 5.761719 95.980469 30.910157l-.089844.089843-156.058594 156.0625-.089844.089844c-2.148437-2.152344-4.207031-4.386719-6.171874-6.710937-28.5-33.652344-34.273438-81.027344-14.6875-120.539063zm0 0" fill="#6fe3ff"/><path d="m206.980469 454.089844h-192.109375c0-15 12.160156-27.160156 27.160156-27.160156h130.617188c1.960937 2.320312 4.019531 4.558593 6.171874 6.710937 8.253907 8.253906 17.753907 15.15625 28.160157 20.449219zm0 0" fill="#cc7350"/><path d="m58.082031 178.980469v-104.980469c0-37.554688 30.441407-68 68-68h2.886719c37.558594 0 68 30.445312 68 68v116.171875c-.003906 37.550781-30.445312 67.996094-68 68h-2.886719c-37.554687-.003906-67.996093-30.449219-68-68zm0 0" fill="#f8ec7d"/><g fill="#63316d"><path d="m121.519531 316.105469v104.824219h-79.488281c-18.304688.023437-33.140625 14.855468-33.160156 33.160156 0 3.3125 2.683594 6 6 6h190.71875c15.96875 7.886718 33.542968 11.960937 51.351562 11.910156 47.109375 0 89.582032-28.378906 107.613282-71.902344 18.027343-43.527344 8.0625-93.625-25.25-126.941406-21.796876-21.914062-51.453126-34.199219-82.363282-34.117188-4.140625 0-8.277344.21875-12.390625.65625 7.019531-16.070312 10.597657-33.429687 10.5-50.964843 0-3.3125-2.6875-6-6-6-3.316406 0-6 2.6875-6 6 0 19.339843-4.542969 37.785156-13.125 53.46875-32.585937 7.90625-60.246093 29.359375-76.015625 58.953125-8.65625 1.992187-17.507812 3.03125-26.390625 3.101562-63.769531-.074218-115.449219-51.753906-115.519531-115.523437 0-3.3125-2.6875-6-6-6s-6 2.6875-6 6c0 68.300781 53.980469 124.230469 121.519531 127.375zm12-.023438c4.8125-.253906 9.609375-.773437 14.363281-1.554687-13.28125 35.421875-8.554687 75.089844 12.683594 106.398437h-27.046875zm-91.488281 116.847657h127.910156c1.5 1.691406 3.042969 3.359374 4.636719 4.953124 3.664063 3.65625 7.566406 7.066407 11.683594 10.207032h-164.527344c2.671875-8.984375 10.925781-15.148438 20.296875-15.160156zm319.390625-77.410157c-.066406 57.675781-46.804687 104.414063-104.480469 104.480469-16.417968.054688-32.613281-3.804688-47.242187-11.257812-8.046875-4.097657-15.527344-9.21875-22.257813-15.234376l147.5-147.5c17.117188 19.097657 26.550782 43.863282 26.480469 69.511719zm-126.285156-102.199219c7.167969-1.519531 14.476562-2.28125 21.800781-2.28125 25.648438-.070312 50.414062 9.367188 69.511719 26.484376l-147.488281 147.492187c-.582032-.65625-1.171876-1.300781-1.738282-1.96875-23.765625-28.039063-31.046875-66.503906-19.179687-101.289063 11.871093-34.785156 41.148437-60.777343 77.09375-68.4375zm0 0"/><path d="m126.082031 264.171875h2.886719c40.851562-.046875 73.957031-33.152344 74-74v-116.171875c-.042969-40.851562-33.148438-73.953125-74-74h-2.886719c-40.851562.046875-73.957031 33.148438-74 74v116.171875c.042969 40.847656 33.148438 73.953125 74 74zm-62-79.191406h30.457031c3.316407 0 6-2.6875 6-6s-2.683593-6-6-6h-30.457031v-12.300781h30.457031c3.316407 0 6-2.6875 6-6s-2.683593-6-6-6h-30.457031v-12.308594h30.457031c3.316407 0 6-2.6875 6-6 0-3.316406-2.683593-6-6-6h-30.457031v-12.300782h30.457031c3.316407 0 6-2.6875 6-6s-2.683593-6-6-6h-30.457031v-26.070312c.035157-34.226562 27.773438-61.960938 62-62h2.886719c34.226562.039062 61.964844 27.773438 62 62v26.070312h-30.457031c-3.316407 0-6 2.6875-6 6s2.683593 6 6 6h30.457031v12.300782h-30.457031c-3.316407 0-6 2.683594-6 6 0 3.3125 2.683593 6 6 6h30.457031v12.308594h-30.457031c-3.316407 0-6 2.6875-6 6s2.683593 6 6 6h30.457031v12.300781h-30.457031c-3.316407 0-6 2.6875-6 6s2.683593 6 6 6h30.457031v5.191406c-.035156 34.222656-27.773438 61.960937-62 62h-2.886719c-34.226562-.039063-61.964843-27.777344-62-62zm0 0"/></g></svg>