<svg height="423pt" viewBox="-14 0 423 423.34106" width="423pt" xmlns="http://www.w3.org/2000/svg"><path d="m365.628906 280.769531c31.269532 31.234375 31.28125 81.90625.03125 113.160157-31.253906 31.25-81.925781 31.238281-113.160156-.03125l.28125-.277344zm0 0" fill="#6fe3ff"/><path d="m365.628906 280.769531-112.847656 112.851563-.28125.277344c-31.265625-31.234376-31.277344-81.90625-.027344-113.15625s81.921875-31.238282 113.15625.027343zm0 0" fill="#6fe3ff"/><path d="m154.191406 266.25c0-13.328125-12.992187-24.128906-29.011718-24.128906-16.019532 0-29.007813 10.800781-29.007813 24.128906s12.988281 24.121094 29.007813 24.121094c16.019531 0 29.011718-10.800782 29.011718-24.121094zm121.980469-52.050781c0-13.328125-12.980469-24.128907-29-24.128907s-29.011719 10.800782-29.011719 24.128907c0 13.332031 12.992188 24.121093 29.011719 24.121093s29-10.800781 29-24.121093zm0-84.847657v-47.710937l-121.980469 30.089844v47.710937zm90 56.648438c.046875 28.097656-6.515625 55.808594-19.160156 80.898438-28.441407-15.296876-63.292969-12.003907-88.363281 8.355468-25.070313 20.359375-35.445313 53.789063-26.308594 84.765625-74.5 19.78125-153.328125-10.066406-196.046875-74.234375-42.714844-64.164062-39.84375-148.40625 7.148437-209.507812 46.992188-61.105469 127.671875-85.507813 200.652344-60.695313s122.066406 93.335938 122.078125 170.417969zm0 0" fill="#f8ec7d"/><g fill="#e48e66"><path d="m276.171875 81.640625v47.710937l-121.980469 30.089844v-47.710937zm0 0"/><path d="m247.171875 190.070312c16.019531 0 29 10.800782 29 24.128907 0 13.332031-12.980469 24.121093-29 24.121093s-29.011719-10.800781-29.011719-24.121093c0-13.320313 12.992188-24.128907 29.011719-24.128907zm0 0"/><path d="m125.179688 242.121094c16.019531 0 29.011718 10.800781 29.011718 24.128906s-12.992187 24.121094-29.011718 24.121094c-16.019532 0-29.007813-10.800782-29.007813-24.121094s12.988281-24.128906 29.007813-24.128906zm0 0"/></g><path d="m282.171875 214.199219v-132.558594c0-1.84375-.851563-3.585937-2.300781-4.722656-1.453125-1.136719-3.347656-1.542969-5.136719-1.101563l-121.980469 30.089844c-2.679687.660156-4.5625 3.0625-4.5625 5.824219v131.839843c-6.664062-4.90625-14.738281-7.519531-23.011718-7.453124-19.304688 0-35.007813 13.519531-35.007813 30.132812s15.699219 30.117188 35.007813 30.117188c19.3125 0 35.011718-13.511719 35.011718-30.117188v-102.109375l109.980469-27.128906v54.507812c-6.660156-4.90625-14.730469-7.519531-23-7.449219-19.304687 0-35.011719 13.515626-35.011719 30.128907s15.699219 30.121093 35.011719 30.121093c19.308594 0 35-13.511718 35-30.121093zm-156.992187 70.171875c-12.6875 0-23.007813-8.128906-23.007813-18.121094s10.320313-18.128906 23.007813-18.128906 23.011718 8.132812 23.011718 18.128906-10.324218 18.121094-23.011718 18.121094zm35.011718-132.589844v-35.351562l109.980469-27.128907v35.351563zm63.96875 62.417969c0-10 10.324219-18.128907 23.011719-18.128907s23 8.132813 23 18.128907c0 9.996093-10.320313 18.121093-23 18.121093-12.683594 0-23.011719-8.128906-23.011719-18.121093zm0 0" fill="#63316d"/><path d="m354.828125 264.53125c11.503906-24.578125 17.425781-51.394531 17.34375-78.53125 0-102.558594-83.441406-186-186-186-102.5625 0-186 83.441406-186 186s83.4375 186 186 186c14.214844.003906 28.382813-1.613281 42.230469-4.824219 13.023437 35.210938 47.382812 57.90625 84.882812 56.0625 37.496094-1.84375 69.46875-27.800781 78.972656-64.121093 9.507813-36.316407-5.644531-74.609376-37.429687-94.585938zm-342.65625-78.53125c0-95.945312 78.054687-174 174-174s174 78.054688 174 174c.074219 25.15625-5.367187 50.023438-15.941406 72.851562-29.621094-13.246093-64.167969-8.703124-89.355469 11.75-25.1875 20.449219-36.726562 53.332032-29.847656 85.035157-12.746094 2.902343-25.78125 4.367187-38.855469 4.363281-95.953125 0-174-78.054688-174-174zm225.921875 172.3125c-9.320312-31.394531 3.113281-65.183594 30.5625-83.046875 27.449219-17.867187 63.378906-15.554687 88.3125 5.683594l-104.289062 104.285156c-6.6875-7.855469-11.65625-17.027344-14.585938-26.921875zm70.976562 53.027344c-17.558593.042968-34.554687-6.207032-47.898437-17.621094l104.277344-104.28125c18.683593 21.972656 22.894531 52.796875 10.785156 78.976562-12.105469 26.175782-38.324219 42.929688-67.164063 42.921876zm0 0" fill="#63316d"/></svg>