<svg height="452pt" viewBox="0 -3 452 451" width="452pt" xmlns="http://www.w3.org/2000/svg"><path d="m106.859375 335.25c.003906-7-5.671875-12.679688-12.671875-12.679688-7.003906 0-12.679688 5.675782-12.675781 12.675782 0 7.003906 5.675781 12.675781 12.679687 12.675781 6.996094-.003906 12.664063-5.675781 12.667969-12.671875zm223.460937-94.851562c-.003906-6.996094-5.679687-12.667969-12.675781-12.667969-7 0-12.671875 5.675781-12.675781 12.671875 0 7 5.671875 12.675781 12.671875 12.675781 7.003906.003906 12.683594-5.675781 12.679687-12.679687zm0-25.109376 54.53125-11.050781v-15.617187c-.003906-1.875-.847656-3.648438-2.296874-4.832032-1.453126-1.1875-3.359376-1.660156-5.195313-1.289062l-42.039063 8.519531c-2.910156.589844-5 3.152344-5 6.121094zm54.53125 39.472657c-.9375-6.75-7.054687-11.539063-13.832031-10.828125-6.773437.710937-11.765625 6.664062-11.28125 13.457031.480469 6.796875 6.265625 11.984375 13.070313 11.730469 6.808594-.253906 12.1875-5.859375 12.160156-12.671875 0-.566407-.039062-1.128907-.117188-1.6875zm-223.453124 44.316406v-15.609375c0-1.875-.839844-3.648438-2.292969-4.835938-1.449219-1.1875-3.355469-1.664062-5.195313-1.292968l-42.039062 8.519531c-2.914063.585937-5.011719 3.148437-5.011719 6.121094v18.148437zm0 50.601563c-.898438-6.757813-6.996094-11.582032-13.777344-10.898438s-11.796875 6.625-11.332032 13.421875c.464844 6.800781 6.242188 12.003906 13.050782 11.757813 6.8125-.246094 12.199218-5.855469 12.171875-12.671876.003906-.539062-.035157-1.074218-.113281-1.609374zm62.722656 20.359374c12.070312-.0625 22.28125-8.949218 24.007812-20.898437.070313-.480469.132813-.960937.171875-1.449219l2.230469-26.402344 7.648438-90.597656-1.25-.113281c16.730468-13.785156 23.054687-36.566406 15.824218-57.007813-7.226562-20.441406-26.46875-34.175781-48.148437-34.378906-21.679688-.203125-41.171875 13.171875-48.78125 33.472656-7.613281 20.304688-1.714844 43.195313 14.753906 57.296876l-.527344.617187 7.46875 90.75 2.160157 26.3125c.039062.5.101562 1 .179687 1.5 1.722656 12 12.007813 20.910156 24.128906 20.898437zm221.878906-225.050781v246.773438c-.003906 26.269531-21.300781 47.5625-47.570312 47.558593h-344.859376c-26.269531.003907-47.566406-21.289062-47.570312-47.558593v-246.773438c0-26.269531 21.296875-47.566406 47.570312-47.566406h22v.398437c0 17.402344 14.105469 31.507813 31.507813 31.507813 17.40625 0 31.511719-14.105469 31.511719-31.507813v-.398437h174.820312v.398437c0 17.402344 14.105469 31.507813 31.511719 31.507813 17.402344 0 31.507813-14.105469 31.507813-31.507813v-.398437h22c26.273437 0 47.570312 21.296875 47.570312 47.566406zm0 0" fill="#e48e66"/><path d="m433.21875 6.5v31.890625h-414.4375v-31.890625zm0 0" fill="#e48e66"/><path d="m384.851562 254.761719c.078126.558593.117188 1.121093.117188 1.6875.03125 6.863281-5.386719 12.511719-12.246094 12.769531-6.855468.257812-12.683594-4.96875-13.167968-11.8125-.488282-6.847656 4.542968-12.84375 11.367187-13.558594 6.824219-.710937 12.988281 4.113282 13.929687 10.914063zm0 0" fill="#6fe3ff"/><path d="m384.851562 188.621094v15.617187l-54.53125 11.050781v-18.148437c0-2.96875 2.089844-5.53125 5-6.121094l42.039063-8.519531c1.835937-.371094 3.742187.101562 5.195313 1.289062 1.449218 1.183594 2.292968 2.957032 2.296874 4.832032zm0 0" fill="#6fe3ff"/><path d="m376.429688 97.421875v.398437c0 17.402344-14.105469 31.507813-31.507813 31.507813-17.40625 0-31.511719-14.105469-31.511719-31.507813v-59.429687h63.019532zm0 0" fill="#f8ec7d"/><path d="m317.640625 227.730469c7-.003907 12.679687 5.671875 12.679687 12.671875 0 7.003906-5.675781 12.679687-12.675781 12.675781-7.003906 0-12.675781-5.675781-12.675781-12.679687.003906-6.996094 5.675781-12.664063 12.671875-12.667969zm0 0" fill="#6fe3ff"/><path d="m275.699219 190.78125h-103.160157c0-28.488281 23.09375-51.582031 51.582032-51.582031 28.484375 0 51.578125 23.09375 51.578125 51.582031zm0 0" fill="#f8ec7d"/><path d="m172.539062 190.78125h103.160157c0 28.484375-23.09375 51.578125-51.578125 51.578125-28.488282 0-51.582032-23.09375-51.582032-51.578125zm0 0" fill="#6fe3ff"/><path d="m258.179688 230.691406-7.648438 90.597656h-52.5l-.511719.039063-7.46875-90.75.527344-.617187c19.03125 16.296874 47.019531 16.558593 66.351563.617187zm0 0" fill="#f8ec7d"/><path d="m250.53125 321.289062-2.230469 26.402344c-.039062.488282-.101562.96875-.171875 1.449219h-48.269531c-.078125-.5-.140625-1-.179687-1.5l-2.160157-26.3125.511719-.039063zm0 0" fill="#6fe3ff"/><path d="m199.859375 349.140625h48.269531c-1.726562 11.949219-11.9375 20.835937-24.007812 20.898437h-.132813c-12.121093.011719-22.40625-8.898437-24.128906-20.898437zm0 0" fill="#6fe3ff"/><path d="m161.398438 349.679688c.078124.535156.117187 1.070312.113281 1.609374.03125 6.875-5.398438 12.535157-12.269531 12.785157-6.867188.25-12.695313-4.996094-13.164063-11.855469s4.589844-12.847656 11.429687-13.535156c6.839844-.6875 12.988282 4.183594 13.890626 10.996094zm0 0" fill="#6fe3ff"/><path d="m161.398438 283.46875v15.609375l-54.539063 11.050781v-18.148437c0-2.972657 2.097656-5.535157 5.011719-6.121094l42.039062-8.519531c1.839844-.371094 3.746094.105468 5.195313 1.292968 1.453125 1.1875 2.292969 2.960938 2.292969 4.835938zm0 0" fill="#6fe3ff"/><path d="m138.589844 97.421875v.398437c0 17.402344-14.105469 31.507813-31.511719 31.507813-17.402344 0-31.507813-14.105469-31.507813-31.507813v-59.429687h63.019532zm0 0" fill="#f8ec7d"/><path d="m94.191406 322.570312c6.996094.003907 12.667969 5.675782 12.667969 12.675782s-5.671875 12.671875-12.671875 12.675781c-7 0-12.675781-5.671875-12.675781-12.671875-.003907-7.003906 5.675781-12.683594 12.679687-12.679688zm0 0" fill="#6fe3ff"/><g fill="#63316d"><path d="m398.429688 91.421875h-16v-47.03125h50.789062c3.316406 0 6-2.6875 6-6v-31.890625c0-3.3125-2.683594-6-6-6h-414.4375c-3.316406 0-6 2.6875-6 6v31.890625c0 3.3125 2.683594 6 6 6h50.789062v47.03125h-16c-29.574218.03125-53.539062 23.996094-53.570312 53.566406v246.773438c.0351562 29.566406 24 53.527343 53.570312 53.558593h344.859376c29.570312-.03125 53.535156-23.992187 53.570312-53.558593v-246.773438c-.03125-29.570312-23.996094-53.535156-53.570312-53.566406zm-91.019532 0h-162.820312v-47.03125h162.820312zm12-47.03125h51.019532v53.429687c0 14.089844-11.421876 25.507813-25.507813 25.507813-14.089844 0-25.511719-11.417969-25.511719-25.507813zm-294.628906-31.890625h402.4375v19.890625h-402.4375zm107.808594 31.890625v53.429687c0 14.089844-11.421875 25.507813-25.511719 25.507813-14.085937 0-25.507813-11.417969-25.507813-25.507813v-53.429687zm307.410156 347.371094c-.027344 22.945312-18.625 41.535156-41.570312 41.558593h-344.859376c-22.945312-.023437-41.542968-18.613281-41.570312-41.558593v-246.773438c.027344-22.945312 18.621094-41.542969 41.570312-41.566406h16.414063c2.765625 18.347656 18.535156 31.921875 37.09375 31.921875s34.328125-13.574219 37.09375-31.921875h163.652344c2.765625 18.347656 18.535156 31.921875 37.09375 31.921875 18.558593 0 34.328125-13.574219 37.09375-31.921875h16.417969c22.949218.023437 41.542968 18.621094 41.570312 41.566406zm0 0"/><path d="m224.121094 262.609375c-3.316406 0-6 2.6875-6 6v21.289063c0 3.316406 2.683594 6 6 6 3.3125 0 6-2.683594 6-6v-21.289063c0-3.3125-2.6875-6-6-6zm0 0"/><path d="m309.117188 313.738281c-17.171876.074219-31.070313 13.980469-31.136719 31.152344v27.097656c-.035157 12.539063-9.742188 22.925781-22.25 23.808594-12.507813.878906-23.574219-8.042969-25.367188-20.449219 12.390625-2.71875 21.820313-12.800781 23.699219-25.34375.089844-.605468.164062-1.210937.214844-1.8125l9.792968-115.980468c16.902344-16.296876 22.214844-41.222657 13.429688-62.996094-8.789062-21.773438-29.917969-36.027344-53.398438-36.023438-23.476562.003906-44.601562 14.265625-53.386718 36.039063-8.78125 21.773437-3.460938 46.699219 13.445312 62.992187l9.539063 115.894532c.050781.636718.128906 1.28125.230469 1.917968 1.855468 12.820313 11.644531 23.054688 24.371093 25.476563 1.90625 19.050781 18.417969 33.257812 37.542969 32.304687 19.121094-.953125 34.136719-16.734375 34.140625-35.882812v-27.03125c-.011719-7.75 4.652344-14.742188 11.8125-17.707032 7.160156-2.964843 15.398437-1.316406 20.871094 4.171876 3.605469 3.574218 5.632812 8.445312 5.628906 13.523437v34.429687c0 3.3125 2.683594 6 6 6 3.3125 0 6-2.6875 6-6v-34.4375c-.039063-17.195312-13.980469-31.121093-31.175781-31.144531zm-64.101563 1.550781h-41.976563l-6.066406-73.734374c16.953125 9.074218 37.316406 9.074218 54.269532 0zm-39.6875 27.851563-1.296875-15.851563h39.96875l-1.339844 15.851563zm47.78125-117.1875c-12.773437 10.53125-30.257813 13.308594-45.667969 7.246094-15.40625-6.0625-26.316406-20.003907-28.488281-36.417969h90.335937c-1.5 11.421875-7.28125 21.847656-16.179687 29.171875zm-28.988281-80.753906c22.839844.03125 42.140625 16.941406 45.171875 39.582031h-90.347657c3.035157-22.640625 22.335938-39.550781 45.175782-39.582031zm-15.867188 209.941406h31.445313c-3.304688 5.460937-9.199219 8.828125-15.582031 8.898437h-.132813c-6.449219.023438-12.429687-3.359374-15.734375-8.898437zm0 0"/><path d="m390.851562 204.28125v-15.660156c-.003906-3.675782-1.65625-7.152344-4.5-9.480469-2.84375-2.324219-6.582031-3.25-10.183593-2.519531l-42.039063 8.519531c-5.699218 1.171875-9.792968 6.179687-9.808594 12v25.84375c-7.582031-2.910156-16.175781-.582031-21.257812 5.757813-5.078125 6.335937-5.476562 15.230468-.980469 21.996093 4.492188 6.769531 12.84375 9.851563 20.65625 7.628907 7.8125-2.222657 13.292969-9.238282 13.550781-17.355469.019532-.203125.03125-.40625.03125-.617188v-20.199219l42.53125-8.617187v27.398437c-7.648437-2.863281-16.265624-.425781-21.28125 6.019532-5.015624 6.441406-5.261718 15.398437-.605468 22.105468 4.652344 6.707032 13.125 9.613282 20.917968 7.171876 7.792969-2.441407 13.09375-9.660157 13.085938-17.824219 0-.667969-.042969-1.332031-.117188-1.992188zm-73.210937 42.796875c-3.6875 0-6.671875-2.988281-6.671875-6.675781.003906-3.683594 2.988281-6.671875 6.675781-6.671875 3.683594 0 6.671875 2.984375 6.675781 6.667969 0 3.691406-2.992187 6.679687-6.679687 6.679687zm18.679687-39.125v-10.8125c0-.117187.078126-.214844.191407-.238281l42.035156-8.519532c.074219-.019531.15625 0 .214844.050782.058593.042968.09375.113281.089843.1875v10.714844zm35.96875 55.175781c-3.535156.007813-6.460937-2.746094-6.671874-6.273437-.210938-3.527344 2.363281-6.609375 5.871093-7.027344 3.507813-.421875 6.738281 1.96875 7.363281 5.445313v.945312c0 .316406.027344.632812.078126.941406-.367188 3.394532-3.226563 5.964844-6.640626 5.96875zm0 0"/><path d="m167.398438 299.121094v-15.652344c0-3.675781-1.648438-7.15625-4.492188-9.480469-2.847656-2.328125-6.585938-3.257812-10.1875-2.527343l-42.035156 8.519531c-5.707032 1.164062-9.808594 6.175781-9.824219 12v25.84375c-7.582031-2.910157-16.175781-.585938-21.253906 5.75-5.078125 6.335937-5.480469 15.230469-.988281 21.996093 4.488281 6.769532 12.835937 9.855469 20.648437 7.640626 7.8125-2.21875 13.296875-9.230469 13.5625-17.347657.019531-.199219.03125-.40625.03125-.613281v-20.214844l42.539063-8.617187v27.398437c-7.644532-2.867187-16.269532-.4375-21.289063 6.007813-5.019531 6.441406-5.269531 15.398437-.617187 22.109375 4.652343 6.714844 13.125 9.625 20.921874 7.183594 7.792969-2.4375 13.097657-9.660157 13.097657-17.828126-.003907-.632812-.039063-1.265624-.113281-1.898437zm-73.207032 42.800781c-3.6875 0-6.679687-2.988281-6.679687-6.675781-.003907-3.6875 2.988281-6.675782 6.675781-6.675782s6.675781 2.992188 6.671875 6.679688c-.007813 3.679688-2.988281 6.664062-6.667969 6.671875zm18.667969-39.128906v-10.8125c0-.117188.085937-.21875.199219-.238281l42.035156-8.519532c.074219-.019531.152344 0 .210938.050782.0625.046874.097656.121093.09375.195312v10.703125zm35.980469 55.175781c-3.539063.011719-6.472656-2.746094-6.679688-6.28125-.207031-3.535156 2.378906-6.617188 5.894532-7.023438 3.519531-.40625 6.742187 2.003907 7.34375 5.492188v.898438c.003906.304687.03125.605468.078124.90625-.347656 3.40625-3.210937 6.003906-6.636718 6.007812zm0 0"/></g></svg>