<svg height="392pt" viewBox="-39 0 392 392" width="392pt" xmlns="http://www.w3.org/2000/svg"><path d="m247.070312 197.929688c0-10.371094-10.101562-18.769532-22.558593-18.769532-12.460938 0-22.5625 8.398438-22.5625 18.769532 0 10.371093 10.101562 18.761718 22.5625 18.761718 12.457031 0 22.558593-8.402344 22.558593-18.761718zm-94.878906 40.480468c0-10.359375-10.101562-18.769531-22.5625-18.769531-12.457031 0-22.558594 8.410156-22.558594 18.769531s10.101563 18.761719 22.558594 18.761719c12.460938 0 22.5625-8.402344 22.5625-18.761719zm0-83.070312 94.878906-23.410156v-37.101563l-94.878906 23.402344zm155.949219-149.339844v294.53125h-237.019531v-294.53125zm0 0" fill="#6fe3ff"/><path d="m308 300.53125v85.46875h-259.539062c-23.441407-.027344-42.433594-19.019531-42.460938-42.460938-.070312-11.425781 4.4375-22.40625 12.515625-30.484374 8.078125-8.082032 19.058594-12.59375 30.484375-12.523438zm0 0" fill="#e48e66"/><g fill="#f8ec7d"><path d="m247.070312 94.828125v37.101563l-94.878906 23.410156v-37.109375zm0 0"/><path d="m224.511719 179.160156c12.457031 0 22.558593 8.398438 22.558593 18.769532 0 10.371093-10.101562 18.761718-22.558593 18.761718-12.460938 0-22.5625-8.402344-22.5625-18.761718 0-10.359376 10.101562-18.769532 22.5625-18.769532zm0 0"/><path d="m129.628906 219.640625c12.460938 0 22.5625 8.410156 22.5625 18.769531s-10.101562 18.761719-22.5625 18.761719c-12.457031 0-22.558594-8.402344-22.558594-18.761719s10.101563-18.769531 22.558594-18.769531zm0 0"/><path d="m71.121094 6v294.53125h-22.121094c-11.425781-.070312-22.40625 4.441406-30.484375 12.523438-8.078125 8.078124-12.585937 19.058593-12.515625 30.484374v-295.078124c.027344-23.4375 19.023438-42.433594 42.460938-42.460938zm0 0"/></g><path d="m0 48.460938v295.078124c.0273438 26.753907 21.707031 48.433594 48.460938 48.460938h259.539062c3.3125 0 6-2.6875 6-6v-84.175781c.09375-.425781.140625-.859375.140625-1.292969v-294.53125c0-3.3125-2.6875-6-6-6h-259.679687c-26.753907.03125-48.429688 21.707031-48.460938 48.460938zm12 0c.023438-20.128907 16.332031-36.4375 36.460938-36.460938h16.660156v282.53125h-16.121094c-13.015625-.070312-25.519531 5.070312-34.722656 14.277344-.789063.789062-1.546875 1.601562-2.277344 2.433594zm36.460938 331.539062c-20.125-.027344-36.433594-16.335938-36.460938-36.460938-.109375-9.84375 3.753906-19.320312 10.71875-26.285156 6.960938-6.964844 16.433594-10.828125 26.28125-10.722656h253v16.417969h-261.300781c-3.3125 0-6 2.6875-6 6 0 3.316406 2.6875 6 6 6h261.300781v13.402343h-261.300781c-3.3125 0-6 2.683594-6 6 0 3.3125 2.6875 6 6 6h261.300781v19.648438zm253.679687-85.46875h-225.019531v-282.53125h225.019531zm0 0" fill="#63316d"/><path d="m129.628906 263.171875c15.75 0 28.5625-11.109375 28.5625-24.761719v-78.371094l82.878906-20.449218v38.179687c-4.984374-3.046875-10.71875-4.640625-16.558593-4.609375-15.75 0-28.5625 11.113282-28.5625 24.769532 0 13.660156 12.8125 24.761718 28.5625 24.761718 15.746093 0 28.558593-11.109375 28.558593-24.761718v-103.101563c0-1.84375-.847656-3.585937-2.296874-4.726563-1.453126-1.136718-3.347657-1.542968-5.140626-1.101562l-94.878906 23.398438c-2.679687.664062-4.5625 3.066406-4.5625 5.828124v100.019532c-4.984375-3.042969-10.71875-4.636719-16.5625-4.605469-15.746094 0-28.558594 11.113281-28.558594 24.769531s12.8125 24.761719 28.558594 24.761719zm94.882813-52.480469c-9.132813 0-16.5625-5.726562-16.5625-12.761718 0-7.035157 7.429687-12.769532 16.5625-12.769532 9.128906 0 16.558593 5.730469 16.558593 12.769532 0 7.042968-7.429687 12.761718-16.558593 12.761718zm16.558593-108.203125v24.742188l-82.878906 20.449219v-24.75zm-111.441406 123.152344c9.132813 0 16.5625 5.726563 16.5625 12.769531 0 7.039063-7.429687 12.761719-16.5625 12.761719-9.128906 0-16.558594-5.726563-16.558594-12.761719s7.429688-12.769531 16.558594-12.769531zm0 0" fill="#63316d"/></svg>