<svg height="490pt" viewBox="0 -35 490.56 490" width="490pt" xmlns="http://www.w3.org/2000/svg"><path d="m484.558594 65.261719v327.21875h-112.527344c-42.394531 0-84.460938 7.40625-124.300781 21.890625l-2.449219.890625-2.453125-.890625c-39.839844-14.484375-81.90625-21.890625-124.296875-21.890625h-112.53125v-327.21875h29.28125v286.75h98.757812c37.207032 0 74.125 6.503906 109.089844 19.21875l2.152344.78125 2.148438-.78125c34.964843-12.714844 71.886718-19.21875 109.089843-19.21875h98.761719v-286.75zm0 0" fill="#6fe3ff"/><path d="m455.28125 65.261719v286.75h-98.761719c-37.203125 0-74.125 6.503906-109.089843 19.21875l-2.148438.78125-2.152344-.78125c-34.964844-12.714844-71.882812-19.21875-109.089844-19.21875h-98.757812v-313.5h40v281.546875h79.949219c30.117187.003906 60.003906 5.269531 88.308593 15.5625l1.539063.558594.203125.070312 1.738281-.628906c28.304688-10.292969 58.191407-15.558594 88.308594-15.5625h79.953125v-281.546875h40zm0 0" fill="#f8ec7d"/><path d="m415.28125 65.261719v254.796875h-79.953125c-30.117187.003906-60.003906 5.269531-88.308594 15.5625l-1.738281.628906-.203125-.070312.203125-.558594v-313.152344l13.539062-4.929688c20.496094-7.449218 42.140626-11.257812 63.949219-11.257812h92.511719zm0 0" fill="#cc7350"/><path d="m245.28125 25.050781v310.570313l-.203125.558594-1.539063-.558594c-28.304687-10.292969-58.191406-15.558594-88.308593-15.5625h-79.949219v-313.777344h92.507812c21.8125 0 43.453126 3.808594 63.949219 11.257812l13.542969 4.929688zm0 0" fill="#e48e66"/><g fill="#63316d"><path d="m484.558594 59.261719h-23.277344v-20.75c0-3.316407-2.6875-6-6-6h-34v-26.230469c0-3.316406-2.6875-6-6-6h-92.511719c-22.507812-.011719-44.847656 3.921875-66 11.621094l-11.488281 4.183594-11.492188-4.183594c-21.152343-7.699219-43.488281-11.632813-66-11.621094h-92.507812c-3.316406 0-6 2.683594-6 6v26.230469h-34c-3.316406 0-6 2.683593-6 6v20.75h-23.28125c-3.3125 0-6 2.683593-6 6v327.21875c0 3.3125 2.6875 6 6 6h112.53125c41.695312-.019531 83.070312 7.265625 122.25 21.527343l2.449219.890626c1.324219.480468 2.773437.480468 4.097656 0l2.453125-.890626c39.179688-14.261718 80.554688-21.546874 122.25-21.527343h112.527344c3.316406 0 6-2.6875 6-6v-327.21875c0-3.316407-2.683594-6-6-6zm-223.6875-36.082031c19.835937-7.222657 40.789062-10.910157 61.898437-10.902344h86.511719v301.78125h-73.953125c-28.574219-.011719-56.960937 4.621094-84.046875 13.722656v-301.109375zm-179.589844-10.898438h86.507812c21.113282-.011719 42.0625 3.675781 61.902344 10.898438l9.589844 3.492187v301.109375c-27.089844-9.101562-55.476562-13.734375-84.050781-13.722656h-73.949219zm-40 32.230469h28v275.546875c0 3.316406 2.683594 6 6 6h79.949219c29.417969-.011719 58.613281 5.132812 86.257812 15.203125l1.816407.65625c1.300781.453125 2.71875.445312 4.015624-.023438l1.75-.632812c27.644532-10.070313 56.839844-15.214844 86.257813-15.203125h79.953125c3.3125 0 6-2.683594 6-6v-275.546875h28v301.5h-92.761719c-37.90625-.019531-75.523437 6.605469-111.140625 19.578125l-.097656.039062-.101562-.039062c-35.617188-12.972656-73.234376-19.597656-111.140626-19.578125h-92.757812zm437.277344 341.96875h-106.527344c-43.09375-.023438-85.859375 7.507812-126.351562 22.25l-.398438.144531-.402344-.144531c-40.492187-14.742188-83.253906-22.273438-126.347656-22.25h-106.53125v-315.21875h17.28125v280.75c0 3.3125 2.683594 6 6 6h98.757812c36.507813-.019531 72.738282 6.363281 107.039063 18.859375l2.152344.777344c1.320312.480468 2.769531.480468 4.09375 0l2.152343-.78125c34.304688-12.492188 70.535157-18.875 107.042969-18.855469h98.761719c3.3125 0 6-2.6875 6-6v-280.75h17.277344zm0 0"/><path d="m395.058594 79.921875h.222656c3.3125 0 6-2.6875 6-6 0-3.316406-2.6875-6-6-6h-.222656c-3.3125 0-6 2.683594-6 6 0 3.3125 2.6875 6 6 6zm0 0"/><path d="m274.5 79.921875h93.949219c3.316406 0 6-2.6875 6-6 0-3.316406-2.683594-6-6-6h-93.949219c-3.3125 0-6 2.683594-6 6 0 3.3125 2.6875 6 6 6zm0 0"/><path d="m395.28125 130.589844h-53.820312c-3.316407 0-6 2.6875-6 6s2.683593 6 6 6h53.820312c3.3125 0 6-2.6875 6-6s-2.6875-6-6-6zm0 0"/><path d="m315.109375 142.589844c3.3125 0 6-2.6875 6-6s-2.6875-6-6-6h-13.640625c-3.3125 0-6 2.6875-6 6s2.6875 6 6 6zm0 0"/><path d="m274.5 142.589844h.179688c3.3125 0 6-2.6875 6-6s-2.6875-6-6-6h-.179688c-3.3125 0-6 2.6875-6 6s2.6875 6 6 6zm0 0"/><path d="m395.28125 193.261719h-12.53125c-3.3125 0-6 2.683593-6 6 0 3.3125 2.6875 6 6 6h12.53125c3.3125 0 6-2.6875 6-6 0-3.316407-2.6875-6-6-6zm0 0"/><path d="m303.351562 205.261719h47.988282c3.3125 0 6-2.6875 6-6 0-3.316407-2.6875-6-6-6h-47.988282c-3.316406 0-6 2.683593-6 6 0 3.3125 2.683594 6 6 6zm0 0"/><path d="m274.5 205.261719h3.171875c3.3125 0 6-2.6875 6-6 0-3.316407-2.6875-6-6-6h-3.171875c-3.3125 0-6 2.683593-6 6 0 3.3125 2.6875 6 6 6zm0 0"/><path d="m395.28125 255.929688h-.761719c-3.3125 0-6 2.6875-6 6s2.6875 6 6 6h.761719c3.3125 0 6-2.6875 6-6s-2.6875-6-6-6zm0 0"/><path d="m368.738281 255.929688h-48.117187c-3.316406 0-6 2.6875-6 6s2.683594 6 6 6h48.117187c3.316407 0 6-2.6875 6-6s-2.683593-6-6-6zm0 0"/><path d="m274.5 267.929688h19.921875c3.3125 0 6-2.6875 6-6s-2.6875-6-6-6h-19.921875c-3.3125 0-6 2.6875-6 6s2.6875 6 6 6zm0 0"/><path d="m224.070312 79.921875h.21875c3.316407 0 6-2.6875 6-6 0-3.316406-2.683593-6-6-6h-.21875c-3.3125 0-6 2.683594-6 6 0 3.3125 2.6875 6 6 6zm0 0"/><path d="m103.511719 79.921875h93.957031c3.316406 0 6-2.6875 6-6 0-3.316406-2.683594-6-6-6h-93.957031c-3.316407 0-6 2.683594-6 6 0 3.3125 2.683593 6 6 6zm0 0"/><path d="m224.289062 130.589844h-53.820312c-3.3125 0-6 2.6875-6 6s2.6875 6 6 6h53.820312c3.316407 0 6-2.6875 6-6s-2.683593-6-6-6zm0 0"/><path d="m144.121094 142.589844c3.3125 0 6-2.6875 6-6s-2.6875-6-6-6h-13.632813c-3.3125 0-6 2.6875-6 6s2.6875 6 6 6zm0 0"/><path d="m103.511719 142.589844h.1875c3.316406 0 6-2.6875 6-6s-2.683594-6-6-6h-.1875c-3.316407 0-6 2.6875-6 6s2.683593 6 6 6zm0 0"/><path d="m224.289062 193.261719h-12.527343c-3.316407 0-6 2.683593-6 6 0 3.3125 2.683593 6 6 6h12.527343c3.316407 0 6-2.6875 6-6 0-3.316407-2.683593-6-6-6zm0 0"/><path d="m132.359375 205.261719h47.992187c3.3125 0 6-2.6875 6-6 0-3.316407-2.6875-6-6-6h-47.992187c-3.3125 0-6 2.683593-6 6 0 3.3125 2.6875 6 6 6zm0 0"/><path d="m103.511719 205.261719h3.179687c3.3125 0 6-2.6875 6-6 0-3.316407-2.6875-6-6-6h-3.179687c-3.316407 0-6 2.683593-6 6 0 3.3125 2.683593 6 6 6zm0 0"/><path d="m224.289062 255.929688h-.757812c-3.316406 0-6 2.6875-6 6s2.683594 6 6 6h.757812c3.316407 0 6-2.6875 6-6s-2.683593-6-6-6zm0 0"/><path d="m197.75 255.929688h-48.121094c-3.3125 0-6 2.6875-6 6s2.6875 6 6 6h48.121094c3.3125 0 6-2.6875 6-6s-2.6875-6-6-6zm0 0"/><path d="m103.511719 267.929688h19.917969c3.3125 0 6-2.6875 6-6s-2.6875-6-6-6h-19.917969c-3.316407 0-6 2.6875-6 6s2.683593 6 6 6zm0 0"/></g></svg>