<svg height="412pt" viewBox="0 -42 412 412" width="412pt" xmlns="http://www.w3.org/2000/svg"><path d="m406 36v255.78125c0 16.566406-13.429688 30-30 30h-39.03125v-135.78125h16v-180h23.03125c16.570312 0 30 13.429688 30 30zm0 0" fill="#e48e66"/><path d="m352.96875 6v180h-32v-180zm0 0" fill="#f8ec7d"/><path d="m336.96875 186v135.78125h-84.207031v-135.78125h16v-180h52.207031v180zm0 0" fill="#6fe3ff"/><path d="m268.761719 6v180h-32v-180zm0 0" fill="#f8ec7d"/><path d="m252.761719 186v135.78125h-84.222657v-135.78125h16v-180h52.222657v180zm0 0" fill="#e48e66"/><path d="m184.539062 6v180h-32v-180zm0 0" fill="#f8ec7d"/><path d="m168.539062 186v135.78125h-84.210937v-135.78125h16v-180h52.210937v180zm0 0" fill="#6fe3ff"/><path d="m100.328125 6v180h-32v-180zm0 0" fill="#f8ec7d"/><path d="m84.328125 186v135.78125h-48.328125c-16.570312 0-30-13.433594-30-30v-255.78125c0-16.570312 13.429688-30 30-30h32.328125v180zm0 0" fill="#e48e66"/><path d="m376 0h-23.03125c-3.3125 0-6 2.6875-6 6v174h-20v-174c0-3.3125-2.683594-6-6-6h-52.207031c-3.316407 0-6 2.6875-6 6v174h-20v-174c0-3.3125-2.6875-6-6-6h-52.222657c-3.3125 0-6 2.6875-6 6v174h-20v-174c0-3.3125-2.683593-6-6-6h-52.210937c-3.3125 0-6 2.6875-6 6v174h-20v-174c0-3.3125-2.683594-6-6-6h-32.328125c-19.871094.0234375-35.9765625 16.128906-36 36v255.78125c.0234375 19.871094 16.128906 35.976562 36 36h340c19.871094-.023438 35.976562-16.128906 36-36v-255.78125c-.023438-19.871094-16.128906-35.9765625-36-36zm-107.238281 192c3.3125 0 6-2.6875 6-6v-174h40.207031v174c0 3.3125 2.6875 6 6 6h10v123.78125h-72.207031v-123.78125zm-84.222657 0c3.316407 0 6-2.6875 6-6v-174h40.222657v174c0 3.3125 2.683593 6 6 6h10v123.78125h-72.222657v-123.78125zm-84.210937 0c3.316406 0 6-2.6875 6-6v-174h40.210937v174c0 3.3125 2.6875 6 6 6h10v123.78125h-72.210937v-123.78125zm-88.328125 99.78125v-255.78125c.015625-13.25 10.75-23.984375 24-24h26.328125v174c0 3.3125 2.6875 6 6 6h10v123.78125h-42.328125c-13.25-.015625-23.984375-10.753906-24-24zm388 0c-.015625 13.246094-10.75 23.984375-24 24h-33.03125v-123.78125h10c3.316406 0 6-2.6875 6-6v-174h17.03125c13.25.015625 23.984375 10.75 24 24zm0 0" fill="#63316d"/></svg>