<svg height="343.7pt" viewBox="0 0 343.7 343.7" width="343.7pt" xmlns="http://www.w3.org/2000/svg"><path d="m171.851562 6c91.59375 0 165.847657 74.253906 165.847657 165.851562 0 91.59375-74.253907 165.847657-165.847657 165.847657-91.597656 0-165.851562-74.253907-165.851562-165.847657-.003906-91.597656 74.253906-165.855468 165.851562-165.851562zm63.789063 170.101562c-.003906-36.402343-29.515625-65.914062-65.917969-65.910156-36.402344 0-65.910156 29.507813-65.914062 65.910156 0 36.40625 29.507812 65.914063 65.910156 65.917969 36.410156.003907 65.925781-29.511719 65.921875-65.917969zm0 0" fill="#f8ec7d"/><path d="m169.71875 110.191406c36.40625-.003906 65.921875 29.507813 65.921875 65.910156 0 36.40625-29.511719 65.917969-65.917969 65.917969s-65.914062-29.515625-65.914062-65.917969c.003906-36.402343 29.511718-65.910156 65.910156-65.910156zm19.050781 65.910156c-.003906-10.519531-8.527343-19.042968-19.046875-19.042968-10.515625.003906-19.042968 8.527344-19.042968 19.042968 0 10.519532 8.523437 19.046876 19.039062 19.046876 10.523438.003906 19.054688-8.527344 19.050781-19.046876zm0 0" fill="#e48e66"/><path d="m169.71875 157.058594c10.519531 0 19.050781 8.523437 19.050781 19.042968 0 10.519532-8.527343 19.050782-19.046875 19.046876-10.519531 0-19.046875-8.527344-19.042968-19.046876.003906-10.515624 8.527343-19.039062 19.039062-19.042968zm0 0" fill="#6fe3ff"/><g fill="#63316d"><path d="m171.851562 0c-94.757812 0-171.851562 77.09375-171.851562 171.851562 0 94.757813 77.09375 171.847657 171.851562 171.847657 94.757813 0 171.847657-77.089844 171.847657-171.847657 0-94.757812-77.089844-171.851562-171.847657-171.851562zm0 331.699219c-88.144531 0-159.851562-71.707031-159.851562-159.847657 0-88.144531 71.707031-159.851562 159.851562-159.851562 88.140626 0 159.847657 71.707031 159.847657 159.851562 0 88.140626-71.707031 159.847657-159.847657 159.847657zm0 0"/><path d="m169.71875 104.191406c-39.714844 0-71.910156 32.199219-71.910156 71.917969.003906 39.71875 32.203125 71.914063 71.921875 71.910156 39.71875-.003906 71.914062-32.203125 71.910156-71.917969-.046875-39.703124-32.21875-71.871093-71.921875-71.910156zm0 131.828125c-33.085938-.003906-59.910156-26.828125-59.910156-59.917969.003906-33.085937 26.824218-59.910156 59.914062-59.910156 33.089844-.003906 59.914063 26.820313 59.917969 59.910156-.035156 33.078126-26.84375 59.882813-59.921875 59.917969zm0 0"/><path d="m171.851562 282.800781c-60.054687-.117187-108.707031-48.769531-108.820312-108.824219 0-3.3125-2.6875-6-6-6-3.316406 0-6 2.6875-6 6 .03125 66.582032 54.226562 120.78125 120.820312 120.824219 3.3125 0 6-2.6875 6-6 0-3.316406-2.6875-6-6-6zm0 0"/><path d="m171.851562 53.148438c-3.316406 0-6 2.6875-6 6 0 3.316406 2.683594 6 6 6 60.054688.121093 108.707032 48.777343 108.820313 108.835937 0 3.3125 2.683594 6 6 6 3.3125 0 6-2.6875 6-6-.121094-66.679687-54.144531-120.707031-120.820313-120.835937zm0 0"/><path d="m169.71875 151.058594c-13.832031.003906-25.042969 11.21875-25.039062 25.050781.003906 13.832031 11.21875 25.042969 25.050781 25.039063 13.832031 0 25.042969-11.214844 25.039062-25.046876-.015625-13.828124-11.222656-25.03125-25.050781-25.042968zm0 38.089844c-7.203125 0-13.039062-5.84375-13.039062-13.046876 0-7.203124 5.839843-13.039062 13.042968-13.042968 7.203125 0 13.042969 5.839844 13.046875 13.042968-.003906 7.203126-5.84375 13.042969-13.050781 13.046876zm0 0"/></g></svg>