<svg height="452pt" viewBox="0 -14 452 452" width="452pt" xmlns="http://www.w3.org/2000/svg"><path d="m446 6v412.5h-373.039062v-412.5zm-62.171875 206.25c0-68.675781-55.671875-124.351562-124.347656-124.351562s-124.351563 55.675781-124.351563 124.351562 55.675782 124.351562 124.351563 124.351562c68.675781-.003906 124.347656-55.675781 124.347656-124.351562zm0 0" fill="#f8ec7d"/><path d="m259.480469 87.898438c68.675781 0 124.347656 55.675781 124.347656 124.351562s-55.671875 124.351562-124.347656 124.351562-124.351563-55.675781-124.351563-124.351562c.003906-68.675781 55.675782-124.347656 124.351563-124.351562zm47.820312 127.542968c0-27.296875-22.125-49.421875-49.421875-49.421875-27.292968 0-49.417968 22.125-49.417968 49.421875 0 27.292969 22.125 49.417969 49.417968 49.417969 27.296875.003906 49.425782-22.125 49.421875-49.417969zm0 0" fill="#e48e66"/><path d="m257.878906 166.019531c27.296875 0 49.421875 22.125 49.421875 49.421875 0 27.292969-22.125 49.417969-49.421875 49.417969-27.292968 0-49.417968-22.125-49.417968-49.417969-.003907-27.296875 22.125-49.425781 49.417968-49.421875zm14.28125 49.421875c-.003906-7.882812-6.394531-14.273437-14.277344-14.269531-7.882812 0-14.273437 6.390625-14.273437 14.269531 0 7.882813 6.386719 14.277344 14.269531 14.277344 7.886719.003906 14.285156-6.390625 14.28125-14.277344zm0 0" fill="#6fe3ff"/><path d="m257.878906 201.160156c7.890625-.003906 14.289063 6.386719 14.292969 14.273438 0 7.886718-6.390625 14.285156-14.277344 14.285156-7.890625.003906-14.285156-6.390625-14.285156-14.277344 0-7.886718 6.386719-14.277344 14.269531-14.28125zm0 0" fill="#cc7350"/><path d="m6 6h66.960938v412.5h-66.960938zm0 0" fill="#e48e66"/><g fill="#63316d"><path d="m446 0h-440c-3.3125 0-6 2.6875-6 6v412.5c0 3.3125 2.6875 6 6 6h440c3.3125 0 6-2.6875 6-6v-412.5c0-3.3125-2.6875-6-6-6zm-434 12h54.960938v400.5h-54.960938zm428 400.5h-361.039062v-400.5h361.039062zm0 0"/><path d="m259.480469 342.601562c71.988281 0 130.347656-58.359374 130.347656-130.351562s-58.359375-130.351562-130.347656-130.351562c-71.992188 0-130.351563 58.359374-130.351563 130.351562.082032 71.957031 58.394532 130.265625 130.351563 130.351562zm0-248.703124c65.363281 0 118.347656 52.988281 118.347656 118.351562s-52.984375 118.351562-118.347656 118.351562-118.351563-52.988281-118.351563-118.351562c.074219-65.332031 53.019532-118.277344 118.351563-118.351562zm0 0"/><path d="m257.878906 270.859375c30.609375 0 55.421875-24.8125 55.421875-55.417969 0-30.609375-24.8125-55.421875-55.421875-55.421875-30.605468 0-55.417968 24.8125-55.417968 55.421875.035156 30.59375 24.824218 55.382813 55.417968 55.417969zm0-98.839844c23.980469 0 43.421875 19.441407 43.421875 43.421875 0 23.980469-19.441406 43.417969-43.421875 43.417969-23.980468 0-43.417968-19.4375-43.417968-43.417969.027343-23.96875 19.449218-43.394531 43.417968-43.421875zm0 0"/><path d="m259.476562 305.929688c3.3125 0 6-2.6875 6-6s-2.6875-6-6-6c-44.195312-.089844-80.003906-35.894532-80.09375-80.09375 0-3.3125-2.6875-6-6-6s-6 2.6875-6 6c.097657 50.820312 41.273438 91.996093 92.09375 92.09375zm0 0"/><path d="m259.476562 133.761719c44.199219.078125 80.007813 35.886719 80.09375 80.082031 0 3.3125 2.6875 6 6 6s6-2.6875 6-6c-.097656-50.816406-41.269531-91.984375-92.085937-92.074219-3.316406 0-6 2.683594-6 6 0 3.3125 2.683594 6 6 6zm0 0"/><path d="m257.878906 235.71875c11.203125.007812 20.289063-9.070312 20.292969-20.273438 0-11.199218-9.078125-20.285156-20.277344-20.285156-11.203125-.003906-20.285156 9.078125-20.285156 20.28125.011719 11.191406 9.078125 20.261719 20.269531 20.277344zm0-28.558594c4.574219-.003906 8.289063 3.699219 8.292969 8.273438 0 4.574218-3.703125 8.285156-8.277344 8.285156-4.574219.003906-8.285156-3.703125-8.285156-8.277344.007813-4.566406 3.703125-8.269531 8.269531-8.28125zm0 0"/></g></svg>