<svg height="478pt" viewBox="0 0 478 478.02745" width="478pt" xmlns="http://www.w3.org/2000/svg"><path d="m289.957031 112.28125 52.160157 52.160156 28.871093 28.867188 58.878907 58.882812 7.78125 7.777344c3.898437 3.910156 3.898437 10.234375 0 14.140625l-194.980469 194.980469c-1.875 1.878906-4.417969 2.933594-7.070313 2.933594s-5.195312-1.054688-7.070312-2.933594l-219.582032-219.578125c-1.875-1.875-2.929687-4.417969-2.929687-7.070313s1.054687-5.195312 2.929687-7.070312l194.980469-194.980469c3.90625-3.898437 10.234375-3.898437 14.140625 0zm24.441407 179.109375c14.789062-22.269531 13.648437-47.460937-3.421876-64.53125-9.421874-9.417969-23.730468-15.917969-41.121093-18.6875-2.597657-17.882813-8.9375-32.019531-18.527344-41.613281-17.0625-17.058594-42.261719-18.199219-64.691406-2.917969-33.320313 22.589844-53.148438 76.878906-22.75 147.261719.335937.707031.773437 1.367187 1.300781 1.949218.585938.519532 1.242188.957032 1.949219 1.300782 71.03125 30.066406 124.988281 10.238281 147.261719-22.761719zm0 0" fill="#e48e66"/><path d="m429.867188 48.171875c56.328124 56.339844 56.328124 147.675781 0 204.019531l-58.878907-58.882812c21.171875-22.570313 20.609375-57.871094-1.273437-79.757813-21.882813-21.882812-57.1875-22.445312-79.757813-1.269531l-64.109375-64.109375c56.339844-56.332031 147.675782-56.332031 204.019532 0zm0 0" fill="#f8ec7d"/><path d="m369.707031 113.558594c21.878907 21.882812 22.445313 57.179687 1.28125 79.75l-28.871093-28.867188c5.257812-6.597656 4.722656-16.085937-1.242188-22.050781-5.960938-5.964844-15.453125-6.496094-22.046875-1.238281l-28.871094-28.871094c22.570313-21.167969 57.867188-20.601562 79.75 1.277344zm0 0" fill="#6fe3ff"/><path d="m310.976562 226.859375c17.070313 17.070313 18.210938 42.261719 3.421876 64.53125-22.273438 33-76.230469 52.828125-147.261719 22.761719-.707031-.34375-1.363281-.78125-1.949219-1.300782-.527344-.582031-.964844-1.242187-1.300781-1.949218-30.398438-70.382813-10.570313-124.671875 22.75-147.261719 22.429687-15.28125 47.628906-14.140625 64.691406 2.917969 9.589844 9.59375 15.929687 23.730468 18.527344 41.613281 17.390625 2.769531 31.699219 9.269531 41.121093 18.6875zm0 0" fill="#6fe3ff"/><g fill="#63316d"><path d="m434.109375 43.925781c-57.167969-57.15625-149.308594-58.53125-208.167969-4.148437l-3.636718-3.636719c-6.253907-6.226563-16.367188-6.222656-22.621094.007813l-194.980469 194.980468c-3 2.996094-4.6875 7.066406-4.6875 11.3125 0 4.242188 1.6875 8.3125 4.6875 11.3125l219.574219 219.574219c2.988281 3.015625 7.0625 4.707031 11.308594 4.699219h.007812c4.246094.011718 8.320312-1.679688 11.316406-4.691406l194.976563-194.980469c6.234375-6.253907 6.234375-16.367188 0-22.625l-3.628907-3.628907c54.382813-58.867187 53.007813-151.007812-4.148437-208.175781zm-.699219 225.941407-194.988281 194.980468c-.746094.753906-1.765625 1.179688-2.828125 1.175782-1.0625 0-2.078125-.421876-2.824219-1.175782l-219.585937-219.585937c-.75-.746094-1.171875-1.765625-1.171875-2.824219s.421875-2.074219 1.171875-2.824219l194.984375-194.980469c1.5625-1.558593 4.089843-1.558593 5.652343 0l219.578126 219.574219c1.5625 1.5625 1.566406 4.097657.007812 5.664063zm-83.742187-106.359376c3.929687-8.570312 2.117187-18.683593-4.550781-25.351562-6.667969-6.667969-16.78125-8.480469-25.351563-4.550781l-20.917969-20.917969c20.425782-14.960938 48.710938-12.789062 66.613282 5.113281 17.90625 17.90625 20.078124 46.191407 5.117187 66.617188zm-19.964844-19.964843c5.414063.289062 9.734375 4.613281 10.023437 10.027343zm49.445313 49.445312c19.613281-25.210937 17.382812-61.082031-5.207032-83.667969-22.585937-22.585937-58.457031-24.820312-83.667968-5.203124l-55.84375-55.847657c54.179687-49.707031 138.707031-48.332031 191.195312 4.144531 52.488281 52.476563 53.851562 137.015626 4.144531 191.199219zm0 0"/><path d="m379.359375 58.257812c-2.917969-1.570312-6.554687-.480468-8.125 2.4375-1.570313 2.917969-.480469 6.558594 2.4375 8.128907 8.046875 4.339843 15.414063 9.828125 21.875 16.292969 2.34375 2.339843 6.144531 2.339843 8.484375-.003907 2.34375-2.347656 2.339844-6.144531-.003906-8.488281-7.285156-7.289062-15.597656-13.476562-24.667969-18.367188zm0 0"/><path d="m359.835938 50.15625c-30.597657-9.324219-63.773438-4.261719-90.199219 13.765625-1.785157 1.199219-2.789063 3.265625-2.632813 5.410156.152344 2.144531 1.445313 4.042969 3.386719 4.976563 1.9375.929687 4.226563.75 6-.46875 23.433594-15.980469 52.851563-20.46875 79.984375-12.199219 3.167969.945313 6.503906-.855469 7.457031-4.019531.953125-3.167969-.835937-6.507813-3.996093-7.46875zm0 0"/><path d="m275.089844 203.011719c-3.144532-17.199219-9.699219-30.875-19.519532-40.691407-19.113281-19.117187-47.496093-20.542968-72.300781-3.644531-35.292969 23.925781-56.679687 81.011719-24.890625 154.605469.039063.085938.078125.175781.121094.261719.636719 1.320312 1.472656 2.53125 2.484375 3.59375 1.023437.949219 2.179687 1.746093 3.433594 2.363281.125.0625.25.121094.378906.175781 25.21875 10.675781 48.449219 15.242188 69.0625 15.242188 39.878906 0 69.945313-17.109375 85.511719-40.171875l.023437-.035156c16.464844-24.792969 14.824219-53.089844-4.175781-72.09375-9.546875-9.546876-23.351562-16.28125-40.128906-19.605469zm34.320312 85.042969c-28.910156 42.8125-90.949218 41.230468-139.710937 20.664062-.097657-.054688-.183594-.097656-.253907-.144531-.039062-.066407-.078124-.140625-.121093-.21875-28.96875-67.214844-10.5-118.613281 20.691406-139.757813 20.128906-13.710937 42-12.863281 57.070313 2.203125 8.753906 8.753907 14.417968 21.617188 16.832031 38.230469.378906 2.597656 2.402343 4.648438 4.996093 5.0625 16.199219 2.578125 29.273438 8.460938 37.820313 17.003906 15.007813 15.011719 16.03125 36.832032 2.675781 56.957032zm0 0"/></g></svg>