<svg height="492pt" viewBox="0 0 492.00046 492" width="492pt" xmlns="http://www.w3.org/2000/svg"><path d="m485.859375 109.546875c.835937 6.132813-2.222656 12.144531-7.671875 15.078125-5.453125 2.9375-12.152344 2.183594-16.816406-1.890625-4.664063-4.074219-6.308594-10.613281-4.132813-16.40625 2.175781-5.796875 7.71875-9.636719 13.910157-9.632813 7.425781.007813 13.707031 5.492188 14.710937 12.851563zm0 0" fill="#6fe3ff"/><path d="m485.859375 13.316406v18.300782l-63.898437 12.949218v-21.269531c-.003907-3.480469 2.449218-6.480469 5.859374-7.171875l49.269532-9.980469c2.152344-.4375 4.386718.117188 6.085937 1.507813 1.699219 1.386718 2.683594 3.46875 2.683594 5.664062zm0 0" fill="#6fe3ff"/><path d="m407.101562 77.894531c8.203126 0 14.859376 6.648438 14.859376 14.855469 0 8.203125-6.652344 14.855469-14.859376 14.855469-8.203124 0-14.855468-6.65625-14.851562-14.859375.003906-8.199219 6.648438-14.847656 14.851562-14.851563zm0 0" fill="#6fe3ff"/><path d="m353.960938 165.785156c.839843 6.136719-2.214844 12.148438-7.667969 15.089844-5.449219 2.9375-12.152344 2.1875-16.816407-1.886719-4.667968-4.070312-6.316406-10.609375-4.140624-16.40625 2.175781-5.800781 7.722656-9.640625 13.914062-9.636719 7.417969.019532 13.6875 5.496094 14.710938 12.839844zm0 0" fill="#f8ec7d"/><path d="m353.960938 69.566406v18.300782l-63.902344 12.949218v-21.269531c0-3.480469 2.449218-6.480469 5.863281-7.171875l49.269531-9.980469c2.148438-.433593 4.382813.121094 6.082032 1.507813 1.699218 1.390625 2.683593 3.46875 2.6875 5.664062zm0 0" fill="#f8ec7d"/><path d="m275.199219 134.144531c8.207031 0 14.859375 6.648438 14.859375 14.855469.003906 8.203125-6.648438 14.855469-14.855469 14.855469s-14.855469-6.65625-14.851563-14.859375c0-8.199219 6.648438-14.847656 14.847657-14.851563zm0 0" fill="#f8ec7d"/><path d="m161.488281 175.015625c85.875 0 155.492188 69.613281 155.492188 155.488281s-69.617188 155.492188-155.492188 155.492188c-85.871093 0-155.488281-69.617188-155.488281-155.492188.003906-85.871094 69.617188-155.484375 155.488281-155.488281zm59.800781 159.480469c0-34.132813-27.667968-61.800782-61.800781-61.800782-34.128906 0-61.796875 27.667969-61.796875 61.800782 0 34.128906 27.667969 61.800781 61.796875 61.800781 34.132813 0 61.800781-27.671875 61.800781-61.800781zm0 0" fill="#e48e66"/><path d="m159.488281 272.695312c34.132813-.003906 61.808594 27.660157 61.8125 61.792969.003907 34.132813-27.664062 61.804688-61.796875 61.808594-34.132812 0-61.804687-27.667969-61.804687-61.800781 0-34.128906 27.664062-61.796875 61.789062-61.800782zm17.863281 61.800782c0-9.863282-7.992187-17.859375-17.851562-17.859375-9.859375-.003907-17.855469 7.988281-17.859375 17.847656-.003906 9.863281 7.988281 17.859375 17.847656 17.859375 9.863281.003906 17.855469-7.988281 17.863281-17.847656zm0 0" fill="#f8ec7d"/><path d="m159.488281 316.636719c9.863281-.003907 17.859375 7.988281 17.863281 17.847656 0 9.863281-7.992187 17.859375-17.851562 17.859375-9.859375.003906-17.855469-7.988281-17.859375-17.847656 0-9.859375 7.988281-17.855469 17.847656-17.859375zm0 0" fill="#6fe3ff"/><g fill="#63316d"><path d="m161.488281 491.996094c89.046875 0 161.492188-72.445313 161.492188-161.492188 0-89.042968-72.445313-161.488281-161.492188-161.488281-89.042969 0-161.488281 72.445313-161.488281 161.488281 0 89.046875 72.445312 161.492188 161.488281 161.492188zm0-310.980469c82.429688 0 149.492188 67.0625 149.492188 149.488281 0 82.429688-67.0625 149.492188-149.492188 149.492188-82.425781 0-149.488281-67.0625-149.488281-149.492188 0-82.425781 67.0625-149.488281 149.488281-149.488281zm0 0"/><path d="m159.488281 402.296875c37.449219.003906 67.808594-30.347656 67.8125-67.792969.003907-37.449218-30.351562-67.804687-67.796875-67.808594-37.445312 0-67.804687 30.355469-67.804687 67.800782.042969 37.421875 30.367187 67.75 67.789062 67.800781zm0-123.601563c30.820313-.003906 55.808594 24.976563 55.8125 55.792969.003907 30.820313-24.980469 55.804688-55.796875 55.808594-30.820312 0-55.804687-24.984375-55.804687-55.800781.035156-30.800782 24.992187-55.761719 55.789062-55.800782zm0 0"/><path d="m161.488281 446.144531c3.3125 0 6-2.683593 6-6 0-3.3125-2.6875-6-6-6-56.09375-.109375-101.535156-45.550781-101.648437-101.644531 0-3.3125-2.6875-6-6-6s-6 2.6875-6 6c.121094 62.714844 50.933594 113.527344 113.648437 113.644531zm0 0"/><path d="m161.488281 230.855469c56.09375.105469 101.539063 45.558593 101.640625 101.652343 0 3.316407 2.6875 6 6 6 3.316406 0 6-2.683593 6-6-.109375-62.714843-50.917968-113.535156-113.636718-113.652343-3.3125 0-6 2.6875-6 6s2.6875 6 6 6zm0 0"/><path d="m159.488281 358.34375c13.179688.003906 23.859375-10.675781 23.863281-23.851562 0-13.175782-10.683593-23.859376-23.859374-23.855469-13.175782 0-23.855469 10.683593-23.851563 23.859375.015625 13.164062 10.683594 23.832031 23.847656 23.847656zm0-35.707031c6.550781-.003907 11.859375 5.300781 11.863281 11.847656 0 6.546875-5.304687 11.859375-11.851562 11.859375-6.546875.003906-11.855469-5.300781-11.859375-11.847656.007813-6.542969 5.304687-11.847656 11.847656-11.859375zm0 0"/><path d="m491.859375 31.65625v-18.339844c0-3.996094-1.792969-7.78125-4.886719-10.308594-3.09375-2.53125-7.15625-3.535156-11.074218-2.742187l-49.269532 9.980469c-6.199218 1.269531-10.65625 6.71875-10.667968 13.050781v50.597656c-8.339844-3.917969-18.265626-1.898437-24.40625 4.972657-6.144532 6.871093-7.042969 16.960937-2.214844 24.8125 4.828125 7.847656 14.238281 11.597656 23.140625 9.214843 8.902343-2.378906 15.183593-10.324219 15.449219-19.535156.019531-.203125.03125-.410156.03125-.617187v-43.269532l51.898437-10.519531v53.679687c-2.726563-1.273437-5.699219-1.933593-8.710937-1.9375-8.726563-.058593-16.578126 5.285157-19.726563 13.421876-3.144531 8.140624-.929687 17.378906 5.566406 23.203124 6.5 5.828126 15.921875 7.027344 23.671875 3.015626 7.75-4.015626 12.207032-12.402344 11.199219-21.070313zm-84.757813 69.949219c-4.890624-.003907-8.851562-3.96875-8.851562-8.855469 0-4.890625 3.964844-8.851562 8.851562-8.855469 4.890626 0 8.855469 3.960938 8.859376 8.851563-.003907 4.890625-3.96875 8.855468-8.859376 8.859375zm20.859376-64.378907v-13.929687c0-.625.4375-1.164063 1.050781-1.292969l49.269531-9.976562c.386719-.082032.789062.019531 1.09375.269531.308594.25.484375.625.484375 1.019531v13.394532zm43.1875 83.179688c-4.695313.007812-8.585938-3.652344-8.855469-8.34375-.273438-4.691406 3.167969-8.777344 7.835937-9.308594 4.667969-.535156 8.9375 2.671875 9.730469 7.300782v1.222656c0 .355468.035156.714844.101563 1.066406-.414063 4.558594-4.230469 8.054688-8.8125 8.0625zm0 0"/><path d="m275.199219 169.855469c11.273437-.015625 20.492187-8.980469 20.828125-20.246094.023437-.199219.03125-.40625.03125-.613281v-43.273438l51.902344-10.519531v53.679687c-2.730469-1.273437-5.703126-1.933593-8.710938-1.9375-11.519531-.003906-20.855469 9.332032-20.859375 20.851563-.003906 11.515625 9.332031 20.855469 20.847656 20.859375 11.519531.003906 20.859375-9.332031 20.863281-20.851562-.003906-.769532-.050781-1.535157-.140624-2.300782v-95.9375c0-3.996094-1.796876-7.777344-4.886719-10.308594-3.09375-2.527343-7.160157-3.535156-11.074219-2.742187l-49.269531 9.980469c-6.199219 1.273437-10.65625 6.71875-10.671875 13.050781v50.597656c-7.734375-3.636719-16.910156-2.179687-23.140625 3.675781-6.230469 5.855469-8.253907 14.921876-5.101563 22.871094 3.148438 7.945313 10.832032 13.164063 19.382813 13.164063zm64.050781 6.800781c-4.695312.007812-8.582031-3.652344-8.855469-8.339844-.273437-4.691406 3.160157-8.777344 7.828125-9.3125 4.664063-.535156 8.9375 2.664063 9.738282 7.292969v1.230469c0 .355468.035156.714844.097656 1.066406-.410156 4.558594-4.230469 8.054688-8.808594 8.0625zm-42.140625-98.402344 49.273437-9.976562c.386719-.078125.789063.023437 1.09375.269531.304688.25.480469.625.484376 1.019531v13.394532l-51.902344 10.515624v-13.929687c0-.625.441406-1.164063 1.050781-1.292969zm-21.910156 61.890625c4.890625 0 8.859375 3.960938 8.859375 8.855469.003906 4.890625-3.964844 8.855469-8.855469 8.855469s-8.855469-3.96875-8.851563-8.859375c.007813-4.886719 3.964844-8.84375 8.847657-8.851563zm0 0"/></g></svg>