<svg height="492pt" viewBox="0 -5 492 492" width="492pt" xmlns="http://www.w3.org/2000/svg"><path d="m486 35.621094v135.648437c.003906 12.121094-9.820312 21.949219-21.941406 21.949219h-219.429688c-12.117187 0-21.941406-9.828125-21.9375-21.949219v-8.929687c.039063-3.652344-2.535156-6.8125-6.121094-7.511719-28.230468-4.988281-34.460937-24.6875-34.460937-24.6875-.238281-.152344-.070313-.289063.410156-.421875 3.582031-1 13.621094-.679688 22.769531-3.917969 9.152344-3.242187 17.402344-10.019531 17.402344-25.25v-64.929687c-.003906-12.117188 9.820313-21.941406 21.9375-21.941406h219.429688c12.121094 0 21.945312 9.824218 21.941406 21.941406zm0 0" fill="#f8ec7d"/><path d="m486 476.800781h-168.800781c0-46.613281 37.789062-84.402343 84.402343-84.402343 46.609376 0 84.398438 37.789062 84.398438 84.402343zm0 0" fill="#e48e66"/><path d="m452.238281 308c0 27.96875-22.671875 50.640625-50.636719 50.640625-27.96875 0-50.640624-22.671875-50.640624-50.640625s22.671874-50.640625 50.640624-50.640625c27.964844 0 50.636719 22.671875 50.636719 50.640625zm0 0" fill="#e48e66"/><path d="m225.199219 389.269531c0-7.398437-7.210938-13.410156-16.109375-13.410156-8.898438 0-16.121094 6.011719-16.121094 13.410156 0 7.402344 7.222656 13.402344 16.121094 13.402344 8.898437 0 16.109375-6 16.109375-13.402344zm-67.769531 28.910157c0-7.398438-7.210938-13.398438-16.109376-13.398438-8.898437 0-16.121093 6-16.121093 13.398438 0 7.398437 7.222656 13.410156 16.121093 13.410156 8.898438 0 16.109376-6 16.109376-13.410156zm0-59.328126 67.769531-16.722656v-26.507812l-67.769531 16.71875zm152.050781 37.449219c.480469.140625.648437.277344.410156.429688 0 0-6.230469 19.699219-34.460937 24.679687-3.585938.707032-6.15625 3.867188-6.121094 7.519532v8.929687c.003906 12.117187-9.820313 21.941406-21.9375 21.941406h-219.429688c-12.121094 0-21.945312-9.824219-21.941406-21.941406v-135.648437c-.003906-12.121094 9.820312-21.949219 21.941406-21.949219h219.429688c12.117187 0 21.941406 9.828125 21.9375 21.949219v64.917968c0 15.230469 8.25 22.019532 17.402344 25.261719 9.148437 3.238281 19.1875 2.910156 22.769531 3.910156zm0 0" fill="#f8ec7d"/><path d="m225.199219 315.621094v26.507812l-67.769531 16.722656v-26.511718zm0 0" fill="#6fe3ff"/><path d="m209.089844 375.859375c8.898437 0 16.109375 6.011719 16.109375 13.410156 0 7.402344-7.210938 13.402344-16.109375 13.402344-8.898438 0-16.121094-6-16.121094-13.402344 0-7.398437 7.222656-13.410156 16.121094-13.410156zm0 0" fill="#6fe3ff"/><path d="m174.800781 225.441406h-168.800781c0-46.613281 37.789062-84.402344 84.398438-84.402344 46.613281 0 84.402343 37.789063 84.402343 84.402344zm0 0" fill="#e48e66"/><path d="m141.320312 404.78125c8.898438 0 16.109376 6 16.109376 13.398438 0 7.398437-7.210938 13.410156-16.109376 13.410156-8.898437 0-16.121093-6-16.121093-13.410156 0-7.410157 7.222656-13.398438 16.121093-13.398438zm0 0" fill="#6fe3ff"/><path d="m141.039062 56.640625c0 27.96875-22.671874 50.640625-50.640624 50.640625-27.964844 0-50.636719-22.671875-50.636719-50.640625s22.671875-50.640625 50.636719-50.640625c27.96875 0 50.640624 22.671875 50.640624 50.640625zm0 0" fill="#e48e66"/><g fill="#63316d"><path d="m458.238281 308c0-31.28125-25.355469-56.640625-56.636719-56.640625s-56.640624 25.359375-56.640624 56.640625 25.359374 56.640625 56.640624 56.640625c31.265626-.035156 56.605469-25.371094 56.636719-56.640625zm-101.277343 0c0-24.652344 19.984374-44.640625 44.640624-44.640625 24.652344 0 44.636719 19.988281 44.636719 44.640625s-19.984375 44.640625-44.636719 44.640625c-24.644531-.027344-44.613281-20-44.640624-44.640625zm0 0"/><path d="m401.601562 386.398438c-49.90625.058593-90.347656 40.496093-90.402343 90.402343 0 3.3125 2.6875 6 6 6h168.800781c3.3125 0 6-2.6875 6-6-.054688-49.90625-40.496094-90.34375-90.398438-90.402343zm-78.175781 84.402343c3.117188-40.867187 37.1875-72.4375 78.175781-72.4375 40.984376 0 75.054688 31.570313 78.171876 72.4375zm0 0"/><path d="m90.398438 113.28125c31.28125 0 56.640624-25.359375 56.640624-56.640625s-25.359374-56.640625-56.640624-56.640625-56.636719 25.359375-56.636719 56.640625c.03125 31.265625 25.371093 56.605469 56.636719 56.640625zm0-101.28125c24.65625 0 44.640624 19.984375 44.640624 44.640625 0 24.652344-19.984374 44.640625-44.640624 44.640625-24.652344 0-44.636719-19.988281-44.636719-44.640625.027343-24.644531 19.996093-44.613281 44.636719-44.640625zm0 0"/><path d="m6 231.441406h168.800781c3.3125 0 6-2.6875 6-6 0-49.929687-40.472656-90.402344-90.402343-90.402344-49.925782 0-90.398438 40.472657-90.398438 90.402344 0 3.3125 2.6875 6 6 6zm84.398438-84.402344c40.953124.050782 74.988281 31.570313 78.175781 72.402344h-156.347657c3.1875-40.832031 37.21875-72.351562 78.171876-72.402344zm0 0"/><path d="m315.9375 395.753906c-.394531-2.566406-2.3125-4.636718-4.84375-5.230468-2.234375-.507813-4.503906-.832032-6.789062-.964844-4.355469-.40625-10.316407-.960938-15.589844-2.824219-9.269532-3.28125-13.402344-9.328125-13.402344-19.601563v-64.921874c-.015625-15.425782-12.511719-27.929688-27.941406-27.949219h-219.429688c-15.425781.019531-27.925781 12.523437-27.941406 27.949219v135.648437c.0195312 15.425781 12.515625 27.921875 27.941406 27.941406h219.429688c15.421875-.019531 27.921875-12.515625 27.9375-27.941406v-8.929687c-.03125-.742188.449218-1.410157 1.164062-1.609376 28.285156-4.992187 37.109375-23.519531 38.816406-27.886718.597657-1.128906.824219-2.414063.648438-3.679688zm-41.5625 19.746094c-6.457031 1.199219-11.121094 6.863281-11.066406 13.429688v8.929687c-.007813 8.800781-7.140625 15.929687-15.9375 15.941406h-219.429688c-8.800781-.011719-15.933594-7.140625-15.941406-15.941406v-135.648437c.007812-8.804688 7.136719-15.9375 15.941406-15.949219h219.429688c8.800781.011719 15.933594 7.144531 15.9375 15.949219v64.917968c0 15.269532 7.402344 25.960938 21.402344 30.917969 5.105468 1.6875 10.398437 2.761719 15.757812 3.199219-3.96875 5.078125-11.738281 11.726562-26.09375 14.253906zm0 0"/><path d="m464.058594 7.679688h-219.429688c-15.421875.015624-27.921875 12.515624-27.9375 27.941406v64.929687c0 10.277344-4.132812 16.320313-13.402344 19.59375-5.285156 1.871094-11.246093 2.429688-15.597656 2.835938-2.269531.132812-4.519531.449219-6.734375.949219-2.535156.558593-4.472656 2.613281-4.886719 5.179687-.1875 1.285156.039063 2.601563.652344 3.746094 1.71875 4.390625 10.550782 22.886719 38.8125 27.882812.710938.199219 1.191406.863281 1.160156 1.601563v8.929687c.011719 15.425781 12.511719 27.929688 27.9375 27.949219h219.425782c15.425781-.019531 27.925781-12.523438 27.941406-27.949219v-135.648437c-.015625-15.425782-12.515625-27.925782-27.941406-27.941406zm15.941406 163.589843c-.007812 8.800781-7.136719 15.9375-15.941406 15.949219h-219.429688c-8.800781-.011719-15.933594-7.148438-15.9375-15.949219v-8.929687c.058594-6.570313-4.613281-12.234375-11.078125-13.417969-14.355469-2.539063-22.117187-9.191406-26.085937-14.257813 5.363281-.441406 10.652344-1.515624 15.761718-3.207031 14-4.941406 21.398438-15.628906 21.398438-30.90625v-64.929687c.011719-8.800782 7.140625-15.929688 15.941406-15.941406h219.429688c8.800781.011718 15.929687 7.140624 15.941406 15.941406zm0 0"/><path d="m271.171875 91.078125h92.46875c3.3125 0 6-2.683594 6-6 0-3.3125-2.6875-6-6-6h-92.46875c-3.316406 0-6 2.6875-6 6 0 3.316406 2.683594 6 6 6zm0 0"/><path d="m435.75 79.078125h-49.269531c-3.3125 0-6 2.6875-6 6 0 3.316406 2.6875 6 6 6h49.269531c3.3125 0 6-2.683594 6-6 0-3.3125-2.6875-6-6-6zm0 0"/><path d="m271.171875 127.820312h26.648437c3.3125 0 6-2.6875 6-6s-2.6875-6-6-6h-26.648437c-3.316406 0-6 2.6875-6 6s2.683594 6 6 6zm0 0"/><path d="m435.75 115.820312h-114.738281c-3.316407 0-6 2.6875-6 6s2.683593 6 6 6h114.738281c3.3125 0 6-2.6875 6-6s-2.6875-6-6-6zm0 0"/><path d="m352.859375 152.550781h-81.6875c-3.316406 0-6 2.683594-6 6 0 3.3125 2.683594 6 6 6h81.6875c3.3125 0 6-2.6875 6-6 0-3.316406-2.6875-6-6-6zm0 0"/><path d="m435.75 152.550781h-58.890625c-3.3125 0-6 2.683594-6 6 0 3.3125 2.6875 6 6 6h58.890625c3.3125 0 6-2.6875 6-6 0-3.316406-2.6875-6-6-6zm0 0"/><path d="m271.171875 54.339844h57.089844c3.3125 0 6-2.6875 6-6s-2.6875-6-6-6h-57.089844c-3.316406 0-6 2.6875-6 6s2.683594 6 6 6zm0 0"/><path d="m435.75 42.339844h-84.191406c-3.3125 0-6 2.6875-6 6s2.6875 6 6 6h84.191406c3.3125 0 6-2.6875 6-6s-2.6875-6-6-6zm0 0"/><path d="m102.140625 362.398438h-61.890625c-3.3125 0-6 2.6875-6 6 0 3.316406 2.6875 6 6 6h61.890625c3.3125 0 6-2.683594 6-6 0-3.3125-2.6875-6-6-6zm0 0"/><path d="m109.140625 325.660156h-68.890625c-3.3125 0-6 2.6875-6 6s2.6875 6 6 6h68.890625c3.3125 0 6-2.6875 6-6s-2.6875-6-6-6zm0 0"/><path d="m102.140625 402.398438h-21.890625c-3.3125 0-6 2.6875-6 6 0 3.316406 2.6875 6 6 6h21.890625c3.3125 0 6-2.683594 6-6 0-3.3125-2.6875-6-6-6zm0 0"/><path d="m56.140625 402.398438h-15.890625c-3.3125 0-6 2.6875-6 6 0 3.316406 2.6875 6 6 6h15.890625c3.3125 0 6-2.683594 6-6 0-3.3125-2.6875-6-6-6zm0 0"/><path d="m228.898438 310.898438c-1.453126-1.132813-3.34375-1.539063-5.136719-1.097657l-67.769531 16.71875c-2.679688.660157-4.5625 3.066407-4.5625 5.824219v68.601562c-3.175782-1.429687-6.625-2.164062-10.109376-2.15625-12.199218 0-22.121093 8.699219-22.121093 19.398438 0 10.703125 9.921875 19.410156 22.121093 19.410156 12.195313 0 22.109376-8.707031 22.109376-19.410156v-54.636719l55.769531-13.761719v22.226563c-3.175781-1.429687-6.625-2.164063-10.109375-2.15625-12.199219 0-22.121094 8.707031-22.121094 19.410156s9.925781 19.402344 22.121094 19.402344c12.195312 0 22.109375-8.703125 22.109375-19.402344v-73.648437c0-1.84375-.847657-3.585938-2.300781-4.722656zm-87.578126 114.691406c-5.484374 0-10.121093-3.394532-10.121093-7.410156 0-4.015626 4.636719-7.398438 10.121093-7.398438 5.484376 0 10.109376 3.386719 10.109376 7.398438 0 4.011718-4.628907 7.410156-10.109376 7.410156zm22.109376-74.398438v-14.152344l55.769531-13.757812v14.148438zm45.660156 45.480469c-5.484375 0-10.121094-3.390625-10.121094-7.402344s4.636719-7.410156 10.121094-7.410156 10.109375 3.394531 10.109375 7.410156-4.628907 7.402344-10.109375 7.402344zm0 0"/></g></svg>