<svg height="402pt" viewBox="0 -59 402.00719 402" width="402pt" xmlns="http://www.w3.org/2000/svg"><path d="m240.824219 197.011719c0-8.859375-8.628907-16.039063-19.277344-16.039063-10.652344 0-19.28125 7.179688-19.28125 16.039063 0 8.863281 8.628906 16.042969 19.28125 16.042969 10.648437 0 19.277344-7.179688 19.277344-16.042969zm0-76.398438v-31.710937l-81.078125 31.972656v31.707031zm-81.078125 99.03125c0-8.851562-8.628906-16.03125-19.28125-16.03125-10.648438 0-19.277344 7.179688-19.277344 16.03125 0 8.847657 8.628906 16.039063 19.277344 16.039063 10.652344 0 19.28125-7.179688 19.28125-16.039063zm175.441406-123.640625c36.882812 14.039063 61.140625 49.542969 60.816406 89.007813-.398437 49.011719-38.769531 88.730469-86.707031 93.160156-2.941406.269531-5.917969.40625-8.929687.410156h-209.191407c-47.699219 0-86.710937-39.039062-85.121093-86.707031 1.3125-38.78125 29.050781-71.597656 67.070312-79.351562-.019531-.558594-.019531-1.121094-.019531-1.679688-.007813-44.976562 28.675781-84.941406 71.289062-99.332031 42.609375-14.386719 89.652344.007812 116.910157 35.78125 16.21875-7.28125 35.027343-5.847657 49.953124 3.8125 14.925782 9.660156 23.9375 26.226562 23.9375 44.007812 0 .300781 0 .601563-.007812.890625zm0 0" fill="#e48e66"/><g fill="#f8ec7d"><path d="m240.824219 88.902344v31.710937l-81.078125 31.96875v-31.707031zm0 0"/><path d="m240.824219 197.011719c0-8.855469-8.628907-16.039063-19.277344-16.039063s-19.28125 7.183594-19.28125 16.039063c0 8.859375 8.632813 16.042969 19.28125 16.042969s19.277344-7.183594 19.277344-16.042969zm0 0"/><path d="m140.464844 203.613281c10.652344 0 19.28125 7.179688 19.28125 16.03125 0 8.847657-8.628906 16.039063-19.28125 16.039063-10.648438 0-19.277344-7.179688-19.277344-16.039063s8.628906-16.03125 19.277344-16.03125zm0 0"/></g><path d="m91.175781 284.582031h209.191407c3.144531 0 6.332031-.144531 9.480468-.433593 24.8125-2.289063 47.929688-13.574219 65-31.726563 17.238282-18.214844 26.941406-42.28125 27.15625-67.359375.210938-40.449219-23.761718-77.109375-60.898437-93.132812-1.007813-18.390626-10.625-35.230469-25.957031-45.4375-15.328126-10.210938-34.574219-12.59375-51.933594-6.433594-29.460938-35.507813-77.839844-49.042969-121.453125-33.988282-43.613281 15.058594-73.335938 55.558594-74.617188 101.679688-38.460937 10.0625-65.746093 44.191406-67.0898435 83.921875-.8515625 24.191406 8.2382815 47.671875 25.1523435 64.984375 17.328125 17.816406 41.113281 27.886719 65.96875 27.925781zm-79.125-92.511719c1.222657-36 26.972657-66.464843 62.265625-73.664062 2.878906-.585938 4.910156-3.164062 4.804688-6.097656-.015625-.488282-.015625-.976563-.015625-1.464844-.007813-42.402344 27.035156-80.082031 67.207031-93.648438 40.171875-13.5625 84.523438.007813 110.222656 33.734376 1.691406 2.21875 4.6875 2.980468 7.230469 1.835937 14.363281-6.449219 31.015625-5.175781 44.234375 3.378906 13.21875 8.554688 21.195312 23.226563 21.195312 38.96875 0 .230469 0 .464844-.003906.6875-.085937 2.5625 1.464844 4.898438 3.859375 5.808594 34.472657 13.238281 57.152344 46.429687 56.953125 83.355469-.195312 22.054687-8.734375 43.21875-23.898437 59.234375-15.0625 16.019531-35.464844 25.976562-57.363281 28-2.78125.253906-5.597657.382812-8.378907.382812h-209.1875c-21.628906.089844-42.347656-8.679687-57.339843-24.269531-14.644532-14.980469-22.515626-35.304688-21.785157-56.242188zm0 0" fill="#63316d"/><path d="m140.464844 241.683594c13.941406 0 25.28125-9.886719 25.28125-22.039063v-62.976562l69.078125-27.238281v48.839843c-4.082031-2.183593-8.644531-3.316406-13.277344-3.300781-13.941406 0-25.28125 9.890625-25.28125 22.042969 0 12.152343 11.339844 22.039062 25.28125 22.039062 13.9375 0 25.277344-9.886719 25.277344-22.039062v-108.109375c0-1.984375-.980469-3.839844-2.621094-4.957032-1.640625-1.117187-3.730469-1.351562-5.578125-.625l-81.082031 31.972657c-2.289063.902343-3.796875 3.117187-3.796875 5.582031v80.035156c-4.085938-2.183594-8.648438-3.320312-13.28125-3.300781-13.9375 0-25.28125 9.882813-25.28125 22.03125 0 12.144531 11.34375 22.042969 25.28125 22.042969zm81.082031-34.628906c-7.199219 0-13.28125-4.601563-13.28125-10.042969 0-5.4375 6.082031-10.039063 13.28125-10.039063s13.277344 4.601563 13.277344 10.039063c0 5.441406-6.082031 10.042969-13.277344 10.042969zm13.277344-109.335938v18.8125l-69.078125 27.238281v-18.8125zm-94.359375 111.894531c7.199218 0 13.28125 4.59375 13.28125 10.03125s-6.082032 10.039063-13.28125 10.039063c-7.199219 0-13.277344-4.601563-13.277344-10.039063 0-5.441406 6.082031-10.03125 13.277344-10.03125zm0 0" fill="#63316d"/></svg>