<svg height="478pt" viewBox="-37 0 478 478" width="478pt" xmlns="http://www.w3.org/2000/svg"><path d="m398.71875 319.070312v33.53125c.003906 20.976563-17 37.980469-37.980469 37.976563h-316.757812c-20.976563.003906-37.984375-17-37.980469-37.976563v-33.53125zm0 0" fill="#e48e66"/><path d="m398.71875 120.730469v198.339843h-82.429688v-236.320312h44.449219c20.980469-.003906 37.984375 17.003906 37.980469 37.980469zm0 0" fill="#f8ec7d"/><path d="m316.289062 82.75v236.320312h-227.859374v-235.421874h46.941406c16.960937 0 30.707031-13.746094 30.707031-30.707032v-46.941406h119.5c16.960937 0 30.710937 13.75 30.710937 30.710938zm-127.019531 99.371094c-.722656-5.378906-5.582031-9.210938-10.980469-8.664063-5.398437.546875-9.390624 5.277344-9.019531 10.691407.367188 5.410156 4.964844 9.554687 10.386719 9.363281 5.421875-.1875 9.714844-4.644531 9.703125-10.070313 0-.441406-.027344-.882812-.089844-1.320312zm0-46.570313v-12.429687c0-1.492188-.671875-2.902344-1.828125-3.847656-1.152344-.941407-2.667968-1.320313-4.132812-1.023438l-39.796875 6.78125c-2.320313.464844-3.992188 2.503906-3.992188 4.867188v14.429687zm-49.75 54.21875c0-5.566406-4.511719-10.078125-10.078125-10.078125-5.570312 0-10.082031 4.511719-10.082031 10.078125 0 5.566407 4.511719 10.082031 10.082031 10.082031 5.566406-.003906 10.074219-4.515624 10.078125-10.082031zm0 0" fill="#6fe3ff"/><path d="m189.269531 182.121094c.0625.4375.089844.878906.089844 1.320312.015625 5.449219-4.300781 9.933594-9.75 10.125s-10.066406-3.972656-10.4375-9.414062c-.371094-5.4375 3.640625-10.191406 9.066406-10.742188 5.421875-.546875 10.304688 3.304688 11.03125 8.710938zm0 0" fill="#f8ec7d"/><path d="m189.269531 123.121094v12.429687l-49.75 8.777344v-14.429687c0-2.363282 1.671875-4.402344 3.992188-4.867188l39.796875-6.78125c1.464844-.296875 2.980468.082031 4.132812 1.023438 1.15625.945312 1.828125 2.355468 1.828125 3.847656zm0 0" fill="#f8ec7d"/><path d="m166.078125 6v46.941406c0 16.960938-13.746094 30.707032-30.707031 30.707032h-46.941406l.160156-.148438zm0 0" fill="#f8ec7d"/><path d="m129.441406 179.679688c5.570313-.003907 10.085938 4.511718 10.089844 10.082031 0 5.566406-4.511719 10.085937-10.082031 10.089843-5.570313 0-10.085938-4.511718-10.089844-10.082031-.003906-5.570312 4.511719-10.085937 10.082031-10.089843zm0 0" fill="#f8ec7d"/><path d="m88.589844 83.5-.160156.148438v235.421874h-82.429688v-198.339843c-.003906-20.976563 17.003906-37.984375 37.980469-37.980469h43.859375zm0 0" fill="#f8ec7d"/><g fill="#63316d"><path d="m360.738281 76.75h-38.449219v-40.039062c-.023437-20.265626-16.445312-36.6875005-36.710937-36.710938h-119.5c-.199219 0-.398437.0117188-.597656.03125-.140625.0117188-.28125.0390625-.421875.0625-.050782.007812-.105469.011719-.160156.023438-.164063.03125-.324219.074218-.484376.121093-.027343.007813-.054687.015625-.085937.023438-.160156.046875-.316406.105469-.472656.167969-.023438.011718-.050781.019531-.078125.03125-.144532.058593-.285156.128906-.425782.199218-.035156.015625-.070312.03125-.097656.050782-.128906.066406-.25.144531-.371094.222656-.046874.027344-.09375.050781-.136718.078125-.113282.078125-.21875.164062-.328125.246093-.046875.035157-.101563.066407-.144531.105469-.128907.109375-.25.222657-.371094.339844-.019532.019531-.042969.035156-.058594.054687l-74.984375 74.992188h-42.878906c-24.277344.027344-43.9531252 19.703125-43.980469 43.980469v231.871093c.0273438 24.277344 19.703125 43.953126 43.980469 43.976563h152.378906v69.421875h-72.449219c-3.3125 0-6 2.6875-6 6s2.6875 6 6 6h161.441406c3.3125 0 6-2.6875 6-6s-2.6875-6-6-6h-76.992187v-69.421875h152.378906c24.28125-.023437 43.953125-19.699219 43.980469-43.976563v-231.871093c-.027344-24.277344-19.699219-43.953125-43.980469-43.980469zm-50.449219-40.039062v276.359374h-215.859374v-223.421874h40.941406c20.265625-.019532 36.6875-16.445313 36.707031-36.707032v-40.941406h113.5c13.640625.015625 24.695313 11.070312 24.710937 24.710938zm-207.363281 40.9375 57.152344-57.160157v32.453125c-.011719 13.640625-11.066406 24.691406-24.707031 24.707032zm-58.945312 11.101562h38.449219v224.320312h-70.429688v-192.339843c.019531-17.652344 14.328125-31.960938 31.980469-31.980469zm316.757812 295.828125h-316.757812c-17.652344-.019531-31.960938-14.324219-31.980469-31.976563v-27.53125h380.71875v27.53125c-.019531 17.652344-14.324219 31.957032-31.980469 31.976563zm31.980469-71.507813h-70.429688v-224.320312h38.449219c17.65625.019531 31.960938 14.328125 31.980469 31.980469zm0 0"/><path d="m232.320312 148h60.039063c3.3125 0 6-2.6875 6-6s-2.6875-6-6-6h-60.039063c-3.3125 0-6 2.6875-6 6s2.6875 6 6 6zm0 0"/><path d="m208.359375 148h.25c3.3125 0 6-2.6875 6-6s-2.6875-6-6-6h-.25c-3.3125 0-6 2.6875-6 6s2.6875 6 6 6zm0 0"/><path d="m292.359375 179.328125h-25.339844c-3.3125 0-6 2.6875-6 6 0 3.316406 2.6875 6 6 6h25.339844c3.3125 0 6-2.683594 6-6 0-3.3125-2.6875-6-6-6zm0 0"/><path d="m208.359375 191.328125h34.421875c3.3125 0 6-2.683594 6-6 0-3.3125-2.6875-6-6-6h-34.421875c-3.3125 0-6 2.6875-6 6 0 3.316406 2.6875 6 6 6zm0 0"/><path d="m108.359375 228.671875c0 3.3125 2.6875 6 6 6h88c3.3125 0 6-2.6875 6-6 0-3.316406-2.6875-6-6-6h-88c-3.3125 0-6 2.683594-6 6zm0 0"/><path d="m252.109375 222.671875h-26.75c-3.3125 0-6 2.683594-6 6 0 3.3125 2.6875 6 6 6h26.75c3.3125 0 6-2.6875 6-6 0-3.316406-2.6875-6-6-6zm0 0"/><path d="m292.359375 222.671875h-17c-3.3125 0-6 2.683594-6 6 0 3.3125 2.6875 6 6 6h17c3.3125 0 6-2.6875 6-6 0-3.316406-2.6875-6-6-6zm0 0"/><path d="m142.359375 266h-28c-3.3125 0-6 2.6875-6 6s2.6875 6 6 6h28c3.3125 0 6-2.6875 6-6s-2.6875-6-6-6zm0 0"/><path d="m252.109375 266h-87c-3.3125 0-6 2.6875-6 6s2.6875 6 6 6h87c3.3125 0 6-2.6875 6-6s-2.6875-6-6-6zm0 0"/><path d="m292.359375 266h-17c-3.3125 0-6 2.6875-6 6s2.6875 6 6 6h17c3.3125 0 6-2.6875 6-6s-2.6875-6-6-6zm0 0"/><path d="m142.503906 119.113281-.183594.035157c-5.109374 1.046874-8.785156 5.535156-8.800781 10.75v44.328124c-6.601562-1.742187-13.578125.875-17.40625 6.527344s-3.671875 13.101563.390625 18.589844c4.0625 5.484375 11.144532 7.804688 17.664063 5.789062 6.523437-2.015624 11.0625-7.929687 11.320312-14.75.019531-.199218.03125-.40625.03125-.613281v-40.40625l37.75-6.664062v25.179687c-6.652343-1.703125-13.65625 1.011719-17.421875 6.757813-3.765625 5.746093-3.464844 13.246093.75 18.671875 4.214844 5.421875 11.410156 7.570312 17.90625 5.339844 6.496094-2.226563 10.859375-8.339844 10.855469-15.207032-.003906-.535156-.03125-1.070312-.089844-1.601562v-58.71875c0-3.273438-1.460937-6.371094-3.984375-8.457032-2.523437-2.082031-5.839844-2.929687-9.054687-2.316406zm-13.0625 74.738281c-2.257812 0-4.089844-1.828124-4.089844-4.085937-.003906-2.257813 1.828126-4.085937 4.085938-4.085937s4.085938 1.832031 4.082031 4.089843c0 2.253907-1.828125 4.078125-4.078125 4.082031zm49.839844-6.332031c-2.160156.011719-3.953125-1.660156-4.09375-3.816406-.140625-2.152344 1.421875-4.042969 3.5625-4.3125 2.144531-.265625 4.125 1.179687 4.519531 3.300781v.558594c0 .226562.015625.453125.042969.675781-.242188 2.046875-1.972656 3.585938-4.03125 3.59375zm3.988281-57-37.75 6.664063v-6.40625l37.75-6.429688zm0 0"/></g></svg>