<svg height="425pt" viewBox="0 -1 425.66 425" width="425pt" xmlns="http://www.w3.org/2000/svg"><path d="m419.660156 255.25v35.320312c0 22.089844-17.910156 40-40 40h-333.660156c-22.089844 0-40-17.910156-40-40v-35.320312zm0 0" fill="#e48e66"/><path d="m190.441406 183.488281c0-9.328125-9.089844-16.886719-20.300781-16.886719s-20.300781 7.558594-20.300781 16.886719c0 9.332031 9.089844 16.882813 20.300781 16.882813s20.300781-7.5625 20.300781-16.882813zm0-74.75 85.378906-21.058593v-33.390626l-85.378906 21.0625zm85.378906 38.320313c0-9.320313-9.089843-16.878906-20.300781-16.878906-11.210937 0-20.300781 7.558593-20.300781 16.878906 0 9.320312 9.089844 16.890625 20.300781 16.890625 11.210938 0 20.300781-7.558594 20.300781-16.890625zm143.839844-100.730469v208.921875h-413.660156v-208.921875c0-22.089844 17.910156-40 40-40h333.660156c22.089844 0 40 17.910156 40 40zm0 0" fill="#f8ec7d"/><path d="m275.820312 54.289062v33.390626l-85.378906 21.058593v-33.386719zm0 0" fill="#e48e66"/><path d="m255.519531 130.179688c11.210938 0 20.300781 7.558593 20.300781 16.878906 0 9.320312-9.089843 16.890625-20.300781 16.890625-11.210937 0-20.300781-7.558594-20.300781-16.890625 0-9.328125 9.089844-16.878906 20.300781-16.878906zm0 0" fill="#e48e66"/><path d="m170.140625 166.601562c11.210937 0 20.300781 7.558594 20.300781 16.886719 0 9.332031-9.089844 16.882813-20.300781 16.882813s-20.300781-7.5625-20.300781-16.882813c0-9.316406 9.089844-16.886719 20.300781-16.886719zm0 0" fill="#e48e66"/><g fill="#63316d"><path d="m379.660156.328125h-333.660156c-25.394531.03125-45.9726562 20.609375-46 46v244.242187c.0273438 25.394532 20.605469 45.96875 46 46h160.828125v73.757813h-76.628906c-3.3125 0-6 2.6875-6 6 0 3.316406 2.6875 6 6 6h170.039062c3.316407 0 6-2.683594 6-6 0-3.3125-2.683593-6-6-6h-81.410156v-73.757813h160.832031c25.394532-.03125 45.96875-20.605468 46-46v-244.242187c-.03125-25.390625-20.605468-45.96875-46-46zm0 324.242187h-333.660156c-18.769531-.019531-33.980469-15.230468-34-34v-29.320312h401.660156v29.320312c-.019531 18.769532-15.230468 33.980469-34 34zm34-75.320312h-401.660156v-202.921875c.019531-18.765625 15.230469-33.976563 34-34h333.660156c18.769532.023437 33.980469 15.234375 34 34zm0 0"/><path d="m342.828125 103.121094h-44.796875c-3.316406 0-6 2.683594-6 6 0 3.3125 2.683594 6 6 6h44.796875c3.316406 0 6-2.6875 6-6 0-3.316406-2.683594-6-6-6zm0 0"/><path d="m82.828125 115.121094h88.792969c3.3125 0 6-2.6875 6-6 0-3.316406-2.6875-6-6-6h-88.792969c-3.3125 0-6 2.683594-6 6 0 3.3125 2.6875 6 6 6zm0 0"/><path d="m342.828125 30.289062h-260c-3.3125 0-6 2.6875-6 6 0 3.316407 2.6875 6 6 6h260c3.316406 0 6-2.683593 6-6 0-3.3125-2.683594-6-6-6zm0 0"/><path d="m342.828125 139.539062h-44.796875c-3.316406 0-6 2.6875-6 6 0 3.316407 2.683594 6 6 6h44.796875c3.316406 0 6-2.683593 6-6 0-3.3125-2.683594-6-6-6zm0 0"/><path d="m205.53125 139.539062c-3.316406 0-6 2.6875-6 6 0 3.316407 2.683594 6 6 6h14.757812c3.316407 0 6-2.683593 6-6 0-3.3125-2.683593-6-6-6zm0 0"/><path d="m82.828125 151.539062h88.792969c3.3125 0 6-2.683593 6-6 0-3.3125-2.6875-6-6-6h-88.792969c-3.3125 0-6 2.6875-6 6 0 3.316407 2.6875 6 6 6zm0 0"/><path d="m342.828125 212.371094h-260c-3.3125 0-6 2.683594-6 6 0 3.3125 2.6875 6 6 6h260c3.316406 0 6-2.6875 6-6 0-3.316406-2.683594-6-6-6zm0 0"/><path d="m342.828125 175.949219h-132.296875c-3.316406 0-6 2.6875-6 6 0 3.316406 2.683594 6 6 6h132.296875c3.316406 0 6-2.683594 6-6 0-3.3125-2.683594-6-6-6zm0 0"/><path d="m82.828125 187.949219h45.410156c3.316407 0 6-2.683594 6-6 0-3.3125-2.683593-6-6-6h-45.410156c-3.3125 0-6 2.6875-6 6 0 3.316406 2.6875 6 6 6zm0 0"/><path d="m342.828125 66.710938h-44.796875c-3.316406 0-6 2.683593-6 6 0 3.3125 2.683594 6 6 6h44.796875c3.316406 0 6-2.6875 6-6 0-3.316407-2.683594-6-6-6zm0 0"/><path d="m82.828125 78.710938h88.792969c3.3125 0 6-2.6875 6-6 0-3.316407-2.6875-6-6-6h-88.792969c-3.3125 0-6 2.683593-6 6 0 3.3125 2.6875 6 6 6zm0 0"/><path d="m255.519531 124.179688c-14.5 0-26.300781 10.265624-26.300781 22.878906 0 12.617187 11.800781 22.890625 26.300781 22.890625s26.300781-10.265625 26.300781-22.890625v-92.769532c0-1.84375-.847656-3.585937-2.300781-4.722656-1.449219-1.136718-3.34375-1.542968-5.136719-1.101562l-85.378906 21.058594c-2.679687.660156-4.5625 3.066406-4.5625 5.828124v88.941407c-4.371094-2.441407-9.296875-3.714844-14.300781-3.691407-14.5 0-26.300781 10.265626-26.300781 22.886719 0 12.625 11.800781 22.882813 26.300781 22.882813s26.300781-10.265625 26.300781-22.882813v-70.046875l73.378906-18.101562v32.53125c-4.367187-2.441406-9.292968-3.714844-14.300781-3.691406zm0 33.769531c-7.75 0-14.300781-4.984375-14.300781-10.890625 0-5.902344 6.550781-10.878906 14.300781-10.878906 7.753907 0 14.300781 4.980468 14.300781 10.878906 0 5.898437-6.550781 10.890625-14.300781 10.890625zm-85.378906 36.421875c-7.75 0-14.300781-4.984375-14.300781-10.882813 0-5.894531 6.550781-10.886719 14.300781-10.886719s14.300781 4.984376 14.300781 10.886719c0 5.90625-6.550781 10.882813-14.300781 10.882813zm26.300781-93.292969v-21.027344l73.378906-18.101562v21.03125zm0 0"/></g></svg>