<svg height="463pt" viewBox="-5 0 463 463" width="463pt" xmlns="http://www.w3.org/2000/svg"><path d="m446 376.699219v60.300781c.003906 11.046875-8.953125 20.003906-20 20h-400c-11.046875.003906-20.003906-8.953125-20-20v-60.300781zm-43.449219 40.699219c0-9.109376-7.386719-16.5-16.5-16.5s-16.5 7.390624-16.5 16.5c0 9.113281 7.386719 16.5 16.5 16.5s16.5-7.386719 16.5-16.5zm-80.03125 0c0-9.109376-7.386719-16.5-16.5-16.5s-16.5 7.390624-16.5 16.5c0 9.113281 7.386719 16.5 16.5 16.5s16.5-7.386719 16.5-16.5zm-80.019531 0c0-9.109376-7.386719-16.5-16.5-16.5s-16.5 7.390624-16.5 16.5c0 9.113281 7.386719 16.5 16.5 16.5s16.5-7.386719 16.5-16.5zm-80.019531 0c0-9.109376-7.386719-16.5-16.5-16.5s-16.5 7.390624-16.5 16.5c0 9.113281 7.386719 16.5 16.5 16.5s16.5-7.386719 16.5-16.5zm-80.03125-.546876c0-9.113281-7.386719-16.5-16.5-16.5s-16.5 7.386719-16.5 16.5c0 9.109376 7.386719 16.5 16.5 16.5s16.5-7.390624 16.5-16.5zm0 0" fill="#f8ec7d"/><path d="m95.828125 273.800781h33.371094v-33h-66v33zm260.703125-18h-33.730469v33h66v-33zm-174.171875-59h33.371094v-33h-66v33zm87.640625-102h-33.730469v33h66v-33zm176-68.800781v350.699219h-440v-350.699219c-.003906-11.046875 8.953125-20.003906 20-20h400c11.046875-.003906 20.003906 8.953125 20 20zm0 0" fill="#e48e66"/><path d="m402.550781 417.398438c0 9.113281-7.386719 16.5-16.5 16.5s-16.5-7.386719-16.5-16.5c0-9.109376 7.386719-16.5 16.5-16.5s16.5 7.390624 16.5 16.5zm0 0" fill="#6fe3ff"/><path d="m355.429688 288.800781h-32.628907v-33h66v33zm0 0" fill="#f8ec7d"/><path d="m322.519531 417.398438c0 9.113281-7.386719 16.5-16.5 16.5s-16.5-7.386719-16.5-16.5c0-9.109376 7.386719-16.5 16.5-16.5s16.5 7.390624 16.5 16.5zm0 0" fill="#6fe3ff"/><path d="m268.898438 127.800781h-32.628907v-33h66v33zm0 0" fill="#f8ec7d"/><path d="m242.5 417.398438c0 9.113281-7.386719 16.5-16.5 16.5s-16.5-7.386719-16.5-16.5c0-9.109376 7.386719-16.5 16.5-16.5s16.5 7.390624 16.5 16.5zm0 0" fill="#6fe3ff"/><path d="m182.359375 196.800781h-32.628906v-33h66v33zm0 0" fill="#f8ec7d"/><path d="m162.480469 417.398438c0 9.113281-7.386719 16.5-16.5 16.5s-16.5-7.386719-16.5-16.5c0-9.109376 7.386719-16.5 16.5-16.5s16.5 7.390624 16.5 16.5zm0 0" fill="#6fe3ff"/><path d="m95.828125 273.800781h-32.628906v-33h66v33zm0 0" fill="#f8ec7d"/><path d="m82.449219 416.851562c0 9.109376-7.386719 16.5-16.5 16.5s-16.5-7.390624-16.5-16.5c0-9.113281 7.386719-16.5 16.5-16.5s16.5 7.386719 16.5 16.5zm0 0" fill="#6fe3ff"/><g fill="#63316d"><path d="m236.269531 133.800781h26.640625l.359375 196.191407c.007813 3.308593 2.691407 5.988281 6 5.988281h.011719c3.3125-.007813 5.996094-2.699219 5.988281-6.011719l-.359375-196.167969h27.359375c3.3125 0 6-2.6875 6-6v-33c0-3.316406-2.6875-6-6-6h-26.371093l-.628907-37.28125c-.054687-3.273437-2.722656-5.902343-6-5.902343h-.097656c-3.316406.054687-5.957031 2.789062-5.902344 6.101562l.628907 37.082031h-27.628907c-3.3125 0-6 2.683594-6 6v33c0 3.3125 2.6875 6 6 6zm6-33h54v21h-54zm0 0"/><path d="m149.730469 202.800781h26.648437l.351563 127.199219c.007812 3.308594 2.691406 5.984375 6 5.984375h.015625c3.316406-.011719 5.992187-2.703125 5.984375-6.019531l-.351563-127.164063h27.351563c3.3125 0 6-2.6875 6-6v-33c0-3.316406-2.6875-6-6-6h-26.308594l-.691406-106.21875c-.023438-3.300781-2.703125-5.960937-6-5.960937h-.039063c-3.316406.019531-5.984375 2.722656-5.960937 6.039062l.691406 106.140625h-27.691406c-3.3125 0-6 2.683594-6 6v33c0 3.3125 2.6875 6 6 6zm6-33h54v21h-54zm0 0"/><path d="m63.199219 279.800781h26.667969l.332031 50.21875c.023437 3.296875 2.703125 5.960938 6 5.960938h.039062c3.316407-.023438 5.984375-2.726563 5.960938-6.039063l-.328125-50.140625h27.328125c3.316406 0 6-2.6875 6-6v-33c0-3.316406-2.683594-6-6-6h-26.292969l-.707031-183.199219c-.011719-3.304687-2.695313-5.980468-6-5.980468h-.023438c-3.3125.015625-5.988281 2.710937-5.976562 6.023437l.707031 183.160157h-27.707031c-3.3125 0-6 2.683593-6 6v33c.003906 3.3125 2.6875 5.996093 6 5.996093zm6-33h54v21h-54zm0 0"/><path d="m322.800781 294.800781h26.683594l.316406 35.234375c.027344 3.292969 2.707031 5.945313 6 5.945313h.054688c3.3125-.03125 5.976562-2.742188 5.945312-6.054688l-.316406-35.125h27.316406c3.3125 0 6-2.6875 6-6v-33c0-3.316406-2.6875-6-6-6h-26.292969l-.707031-198.199219c-.011719-3.308593-2.695312-5.980468-6-5.980468h-.023437c-3.3125.011718-5.988282 2.707031-5.976563 6.023437l.707031 198.15625h-27.707031c-3.316406 0-6 2.6875-6 6v33c0 3.3125 2.6875 6 6 6zm6-33h54v21h-54zm0 0"/><path d="m426 0h-400c-14.351562.015625-25.984375 11.648438-26 26v411c.015625 14.351562 11.648438 25.984375 26 26h400c14.351562-.015625 25.984375-11.648438 26-26v-411c-.015625-14.351562-11.648438-25.984375-26-26zm-400 12h400c7.730469.007812 13.992188 6.269531 14 14v344.699219h-428v-344.699219c.007812-7.730469 6.269531-13.992188 14-14zm400 439h-400c-7.730469-.007812-13.992188-6.269531-14-14v-54.300781h428v54.300781c-.007812 7.730469-6.269531 13.992188-14 14zm0 0"/><path d="m65.949219 394.351562c-12.425781 0-22.5 10.070313-22.5 22.5 0 12.425782 10.074219 22.5 22.5 22.5s22.5-10.074218 22.5-22.5c-.011719-12.421874-10.078125-22.488281-22.5-22.5zm0 33c-5.796875 0-10.5-4.703124-10.5-10.5 0-5.800781 4.703125-10.5 10.5-10.5 5.800781 0 10.5 4.699219 10.5 10.5-.003907 5.792969-4.703125 10.492188-10.5 10.5zm0 0"/><path d="m145.980469 394.898438c-12.425781 0-22.5 10.074218-22.5 22.5 0 12.429687 10.074219 22.5 22.5 22.5s22.5-10.070313 22.5-22.5c-.015625-12.417969-10.078125-22.484376-22.5-22.5zm0 33c-5.800781 0-10.5-4.699219-10.5-10.5 0-5.796876 4.699219-10.5 10.5-10.5 5.796875 0 10.5 4.703124 10.5 10.5-.007813 5.796874-4.703125 10.496093-10.5 10.5zm0 0"/><path d="m226 394.898438c-12.425781 0-22.5 10.074218-22.5 22.5 0 12.429687 10.074219 22.5 22.5 22.5s22.5-10.070313 22.5-22.5c-.015625-12.417969-10.078125-22.484376-22.5-22.5zm0 33c-5.800781 0-10.5-4.699219-10.5-10.5 0-5.796876 4.699219-10.5 10.5-10.5s10.5 4.703124 10.5 10.5c-.007812 5.796874-4.703125 10.496093-10.5 10.5zm0 0"/><path d="m306.019531 394.898438c-12.425781 0-22.5 10.074218-22.5 22.5 0 12.429687 10.074219 22.5 22.5 22.5s22.5-10.070313 22.5-22.5c-.011719-12.417969-10.078125-22.484376-22.5-22.5zm0 33c-5.796875 0-10.5-4.699219-10.5-10.5 0-5.796876 4.703125-10.5 10.5-10.5 5.800781 0 10.5 4.703124 10.5 10.5-.007812 5.796874-4.703125 10.496093-10.5 10.5zm0 0"/><path d="m386.050781 394.898438c-12.425781 0-22.5 10.074218-22.5 22.5 0 12.429687 10.074219 22.5 22.5 22.5s22.5-10.070313 22.5-22.5c-.015625-12.417969-10.082031-22.484376-22.5-22.5zm0 33c-5.800781 0-10.5-4.699219-10.5-10.5 0-5.796876 4.699219-10.5 10.5-10.5 5.796875 0 10.5 4.703124 10.5 10.5-.007812 5.796874-4.703125 10.496093-10.5 10.5zm0 0"/></g></svg>