<svg height="451pt" viewBox="0 0 451.84 451" width="451pt" xmlns="http://www.w3.org/2000/svg"><path d="m445.839844 389.441406v27.617188c-.003906 15.253906-12.367188 27.617187-27.621094 27.621094h-82.867188c-15.257812.003906-27.628906-12.363282-27.632812-27.621094v-27.617188zm0 0" fill="#e48e66"/><path d="m360.890625 353.339844c.003906-5.96875-4.832031-10.808594-10.800781-10.808594-5.96875-.003906-10.808594 4.832031-10.808594 10.796875-.003906 5.96875 4.832031 10.808594 10.796875 10.8125 5.96875.003906 10.8125-4.832031 10.8125-10.800781zm53.289063-8.269532c-.789063-5.777343-6.015626-9.890624-11.820313-9.296874-5.800781.589843-10.089844 5.671874-9.699219 11.488281.390625 5.820312 5.320313 10.28125 11.148438 10.09375 5.828125-.191407 10.460937-4.964844 10.472656-10.796875 0-.398438-.019531-.796875-.0625-1.199219-.007812-.085937-.019531-.171875-.039062-.257813.011718-.011718 0-.023437 0-.03125zm0-49.820312v-13.308594c.003906-1.597656-.714844-3.113281-1.949219-4.125-1.238281-1.011718-2.863281-1.414062-4.429688-1.097656l-42.652343 7.261719c-2.476563.5-4.261719 2.679687-4.257813 5.210937v15.46875zm31.660156 45.839844v48.351562h-138.121094v-160.910156h138.121094zm0 0" fill="#f8ec7d"/><path d="m445.839844 223.699219v4.832031h-138.121094v-4.832031c0-15.257813 12.371094-27.628907 27.632812-27.628907h82.867188c15.257812.003907 27.621094 12.375 27.621094 27.628907zm0 0" fill="#e48e66"/><path d="m414.21875 345.359375c.042969.402344.0625.800781.0625 1.199219-.015625 5.808594-4.625 10.558594-10.429688 10.746094-5.800781.1875-10.707031-4.257813-11.097656-10.046876-.386718-5.792968 3.882813-10.851562 9.65625-11.441406 5.777344-.589844 10.980469 3.503906 11.769532 9.253906 0 .007813.011718.019532 0 .03125.019531.085938.03125.171876.039062.257813zm0 0" fill="#6fe3ff"/><path d="m414.179688 281.941406v13.308594l-53.289063 9.410156v-15.46875c-.003906-2.53125 1.78125-4.710937 4.257813-5.210937l42.652343-7.261719c1.566407-.316406 3.191407.085938 4.429688 1.097656 1.234375 1.011719 1.953125 2.527344 1.949219 4.125zm0 0" fill="#6fe3ff"/><path d="m172.089844 163.121094c.003906-7.957032-6.445313-14.410156-14.402344-14.410156s-14.410156 6.449218-14.40625 14.40625c0 7.957031 6.453125 14.40625 14.410156 14.402343 7.949219-.003906 14.394532-6.449219 14.398438-14.398437zm0-64.910156 71.058594-12.550782v-17.75c0-2.128906-.953126-4.144531-2.601563-5.492187-1.644531-1.347657-3.808594-1.886719-5.898437-1.46875l-56.867188 9.679687c-3.3125.671875-5.691406 3.582032-5.691406 6.960938zm71.058594 53.898437c-1.039063-7.710937-8.007813-13.207031-15.75-12.429687-7.742188.777343-13.472657 7.550781-12.960938 15.3125.511719 7.765624 7.085938 13.726562 14.863281 13.480468 7.777344-.246094 13.960938-6.613281 13.980469-14.394531.003906-.53125-.023438-1.066406-.082031-1.597656-.007813-.121094-.027344-.242188-.050781-.359375zm137.582031-109.460937v153.421874h-45.378907c-15.261718 0-27.632812 12.371094-27.632812 27.628907v8.210937h-301.71875v-189.261718c0-20.011719 16.226562-36.234376 36.238281-36.226563h302.25c20.015625-.007813 36.242188 16.214844 36.242188 36.226563zm0 0" fill="#f8ec7d"/><path d="m350.078125 342.539062c5.964844 0 10.800781 4.835938 10.800781 10.800782s-4.835937 10.800781-10.800781 10.800781c-5.960937 0-10.796875-4.835937-10.796875-10.800781s4.835938-10.800782 10.796875-10.800782zm0 0" fill="#6fe3ff"/><path d="m307.71875 275.03125v25.117188h-265.480469c-20.011719 0-36.238281-16.222657-36.238281-36.238282v-32h301.71875zm0 0" fill="#e48e66"/><path d="m243.199219 152.480469c.058593.53125.085937 1.066406.082031 1.597656-.023438 7.738281-6.171875 14.066406-13.90625 14.3125-7.734375.242187-14.269531-5.6875-14.78125-13.40625-.507812-7.722656 5.191406-14.457031 12.890625-15.230469 7.699219-.777344 14.625 4.6875 15.664063 12.355469v.011719c.023437.117187.042968.238281.050781.359375zm0 0" fill="#6fe3ff"/><path d="m243.148438 67.910156v17.75l-71.058594 12.550782v-20.621094c0-3.378906 2.378906-6.289063 5.691406-6.960938l56.867188-9.679687c2.089843-.417969 4.253906.121093 5.898437 1.46875 1.648437 1.347656 2.601563 3.363281 2.601563 5.492187zm0 0" fill="#6fe3ff"/><path d="m157.691406 148.710938c7.953125 0 14.398438 6.453124 14.398438 14.40625 0 7.953124-6.449219 14.402343-14.402344 14.402343-7.957031 0-14.40625-6.445312-14.40625-14.398437-.003906-7.960938 6.449219-14.414063 14.410156-14.410156zm0 0" fill="#6fe3ff"/><g fill="#63316d"><path d="m418.21875 190.070312h-31.488281v-147.421874c-.03125-23.3125-18.925781-42.203126-42.242188-42.226563h-302.25c-23.3125.023437-42.2109372 18.914063-42.238281 42.226563v221.261718c.0273438 23.316406 18.921875 42.214844 42.238281 42.238282h145.121094v65.679687h-68.847656c-3.316407 0-6 2.6875-6 6 0 3.316406 2.683593 6 6 6h154.039062c3.3125 0 6-2.683594 6-6 0-3.3125-2.6875-6-6-6h-73.191406v-65.679687h102.359375v110.910156c.023438 18.5625 15.070312 33.601562 33.632812 33.621094h82.867188c18.558594-.019532 33.601562-15.0625 33.621094-33.621094v-193.359375c-.019532-18.5625-15.058594-33.605469-33.621094-33.628907zm-104.5 44.460938h126.121094v148.910156h-126.121094zm126.089844-12h-126.054688c.632813-11.46875 10.113282-20.449219 21.597656-20.460938h82.867188c11.484375.015626 20.957031 8.996094 21.589844 20.460938zm-397.570313-210.109375h302.25c16.691407.015625 30.21875 13.539063 30.242188 30.226563v147.421874h-39.378907c-18.566406.019532-33.609374 15.066407-33.632812 33.628907v2.210937h-289.71875v-183.261718c.023438-16.6875 13.550781-30.210938 30.238281-30.226563zm0 281.726563c-16.691406-.019532-30.21875-13.546876-30.238281-30.238282v-26h289.71875v56.238282zm375.980469 144.53125h-82.867188c-11.9375-.011719-21.613281-9.683594-21.632812-21.621094v-21.617188h126.121094v21.617188c-.011719 11.9375-9.683594 21.609375-21.621094 21.621094zm0 0"/><path d="m389.558594 411.058594h-25.546875c-3.316407 0-6 2.6875-6 6 0 3.316406 2.683593 6 6 6h25.546875c3.316406 0 6-2.683594 6-6 0-3.3125-2.683594-6-6-6zm0 0"/><path d="m157.691406 183.519531c11.015625-.015625 20.03125-8.773437 20.367188-19.785156.019531-.199219.03125-.40625.03125-.613281v-59.878906l59.058594-10.429688v42.652344c-2.597657-1.171875-5.417969-1.78125-8.269532-1.785156-8.402344.035156-15.914062 5.242187-18.898437 13.097656-2.984375 7.851562-.824219 16.734375 5.433593 22.339844 6.257813 5.609374 15.320313 6.785156 22.800782 2.960937 7.480468-3.828125 11.835937-11.863281 10.953125-20.21875 0-.046875-.011719-.089844-.019531-.136719v-83.8125c.003906-3.910156-1.742188-7.617187-4.757813-10.105468-3.015625-2.488282-6.988281-3.5-10.824219-2.753907l-56.792968 9.664063-.183594.035156c-6.101563 1.25-10.484375 6.613281-10.5 12.839844v66.953125c-7.589844-3.445313-16.515625-1.921875-22.535156 3.84375-6.023438 5.765625-7.929688 14.613281-4.816407 22.347656 3.109375 7.734375 10.617188 12.796875 18.953125 12.785156zm71.1875-21.039062c-4.488281-.003907-8.179687-3.535157-8.382812-8.019531-.207032-4.480469 3.148437-8.332032 7.621094-8.746094 4.46875-.410156 8.46875 2.761718 9.089843 7.207031.007813.070313.019531.140625.027344.199219v.027344c.03125.308593.046875.617187.042969.929687-.003906 4.636719-3.761719 8.394531-8.398438 8.402344zm-49.957031-85.957031 56.734375-9.660157c.066406-.007812.125-.019531.1875-.035156.320312-.066406.652344.019531.902344.226563.257812.207031.40625.523437.398437.855468v12.71875l-59.058593 10.429688v-13.46875c0-.503906.34375-.945313.835937-1.066406zm-21.230469 78.1875c4.640625 0 8.398438 3.765624 8.398438 8.40625 0 4.640624-3.761719 8.402343-8.402344 8.402343s-8.40625-3.757812-8.40625-8.398437c0-4.644532 3.765625-8.410156 8.410156-8.410156zm0 0"/><path d="m420.183594 344.710938c0-.011719 0-.03125 0-.042969v-62.726563c.003906-3.378906-1.503906-6.585937-4.109375-8.734375-2.605469-2.152343-6.035157-3.027343-9.355469-2.386719l-42.570312 7.246094c-.058594.007813-.121094.019532-.179688.03125-5.273438 1.078125-9.0625 5.710938-9.074219 11.09375v48.058594c-6.886719-2.0625-14.320312.484375-18.496093 6.332031-4.175782 5.847657-4.167969 13.707031.019531 19.546875 4.1875 5.84375 11.625 8.375 18.503906 6.300782 6.882813-2.078126 11.679687-8.296876 11.941406-15.480469.019531-.203125.03125-.40625.03125-.613281v-43.644532l41.289063-7.289062v28.042968c-1.527344-.453124-3.109375-.683593-4.699219-.683593-9.277344 0-16.800781 7.519531-16.800781 16.796875 0 9.28125 7.523437 16.800781 16.800781 16.800781s16.800781-7.519531 16.800781-16.800781c-.003906-.617188-.035156-1.234375-.101562-1.847656zm-70.097656 13.429687c-2.652344-.007813-4.792969-2.15625-4.789063-4.808594 0-2.648437 2.152344-4.792969 4.800781-4.792969 2.648438.003907 4.796875 2.152344 4.796875 4.800782-.003906 2.65625-2.160156 4.804687-4.816406 4.800781zm16.808593-60.632813v-7.738281l41.289063-7.027343v7.476562zm36.589844 53.851563c-2.546875 0-4.648437-1.992187-4.789063-4.535156-.140624-2.542969 1.726563-4.75 4.257813-5.035157 2.53125-.28125 4.84375 1.460938 5.269531 3.972657.011719.105469.023438.214843.042969.324219.011719.15625.019531.316406.019531.476562-.003906 2.648438-2.152344 4.796875-4.804687 4.796875zm0 0"/></g></svg>