<svg height="477pt" viewBox="-29 0 477 477.3" width="477pt" xmlns="http://www.w3.org/2000/svg"><path d="m347.96875 248.109375c1.242188 7.632813 1.863281 15.351563 1.859375 23.082031.007813 8.441406-.75 16.871094-2.257813 25.179688l-.039062-.011719c-34.441406-3.757813-39.902344-19.097656-83.492188-19.097656-50.039062 0-50.039062 19.628906-100.089843 19.628906-47.820313 0-50.027344-17.96875-93.988281-19.601563-.089844-2.019531-.132813-4.050781-.132813-6.097656-.011719-13.984375 2.082031-27.890625 6.210937-41.25 40.5625 1.539063 42.621094 18.179688 87.121094 18.179688 46.667969 0 46.667969-18.300782 93.339844-18.300782 46.03125 0 46.648438 17.808594 91.460938 18.289063zm0 0" fill="#e48e66"/><path d="m347.53125 296.359375.039062.011719c-3.046874 16.777344-9.152343 32.851562-18.011718 47.417968l-1.9375-.898437c-26.339844-4.601563-33.492188-16.859375-71.121094-16.859375-46.671875 0-46.671875 18.296875-93.339844 18.296875-42.46875 0-46.351562-15.1875-82.03125-17.957031h-.007812c-6.667969-15.546875-10.449219-32.179688-11.160156-49.082032 43.960937 1.632813 46.167968 19.601563 93.988281 19.601563 50.050781 0 50.050781-19.628906 100.089843-19.628906 43.589844 0 49.050782 15.339843 83.492188 19.097656zm0 0" fill="#f8ec7d"/><path d="m329.878906 198.730469c9.113282 15.160156 15.25 31.917969 18.082032 49.378906-44.8125-.480469-45.429688-18.289063-91.460938-18.289063-46.671875 0-46.671875 18.300782-93.339844 18.300782-44.5 0-46.558594-16.640625-87.121094-18.179688 5.023438-16.257812 12.980469-31.457031 23.472657-44.851562 20.410156 5.359375 29.617187 14.929687 63.648437 14.929687 46.667969 0 46.667969-18.300781 93.339844-18.300781 38.898438 0 45.421875 12.75 73.378906 17.011719zm0 0" fill="#f8ec7d"/><path d="m327.621094 342.890625 1.9375.898437c-8.664063 14.25-19.789063 26.84375-32.859375 37.199219-9.890625-3.707031-21.128907-6.859375-40.199219-6.859375-46.671875 0-46.671875 18.3125-93.339844 18.3125-9.535156.140625-19.050781-.875-28.339844-3.019531h-.011718c-23.816406-15.152344-42.523438-37.125-53.6875-63.050781h.007812c35.679688 2.769531 39.5625 17.957031 82.03125 17.957031 46.667969 0 46.667969-18.296875 93.339844-18.296875 37.628906 0 44.78125 12.257812 71.121094 16.859375zm0 0" fill="#e48e66"/><path d="m254.671875 138.511719c31.460937 10.433593 58.144531 31.796875 75.207031 60.21875-27.957031-4.261719-34.480468-17.011719-73.378906-17.011719-46.671875 0-46.671875 18.300781-93.339844 18.300781-34.03125 0-43.238281-9.570312-63.648437-14.929687 16.90625-21.6875 39.847656-37.894532 65.9375-46.578125v-43h89.222656zm0 0" fill="#6fe3ff"/><path d="m256.5 374.128906c19.070312 0 30.308594 3.152344 40.199219 6.859375-46.6875 36.921875-111.609375 40.300781-161.878907 8.433594 9.289063 2.144531 18.804688 3.160156 28.339844 3.019531 46.667969 0 46.667969-18.3125 93.339844-18.3125zm0 0" fill="#f8ec7d"/><path d="m233.160156 94.589844v.921875h-46.660156v-43.921875h46.660156zm0 0" fill="#f8ec7d"/><g fill="#63316d"><path d="m334.6875 346.90625c9.25-15.191406 15.617188-31.957031 18.785156-49.457031 1.574219-8.664063 2.359375-17.453125 2.355469-26.257813 0-8.054687-.648437-16.09375-1.9375-24.042968 0-.039063-.015625-.074219-.019531-.109376-.015625-.085937-.03125-.167968-.050782-.253906-8.480468-51.566406-44.074218-94.570312-93.148437-112.542968v-38.730469c0-3.316407-2.6875-6-6-6h-15.511719v-37.921875c0-3.3125-2.6875-6-6-6h-19.621094v-39.589844c0-3.3125-2.683593-6-6-6-3.3125 0-6 2.6875-6 6v39.589844h-15.039062c-3.3125 0-6 2.6875-6 6v37.921875h-15.050781c-3.3125 0-6 2.683593-6 6v38.730469c-57.449219 21.066406-95.636719 75.757812-95.621094 136.949218 0 2.230469.046875 4.3125.136719 6.355469 2.03125 47.703125 27.292968 91.382813 67.625 116.933594.027344.019531.058594.03125.089844.050781 33.136718 20.984375 73.316406 27.757812 111.5 18.800781 38.183593-8.957031 71.160156-32.898437 91.507812-66.425781zm-7.90625-10.273438c-8.578125-1.683593-14.957031-4.226562-21.6875-6.910156-11.953125-4.761718-24.316406-9.691406-48.59375-9.691406-24.46875 0-36.867188 4.859375-48.859375 9.5625-11.457031 4.492188-22.28125 8.734375-44.480469 8.734375-22.199218 0-33.039062-4.253906-44.523437-8.753906-9.125-3.582031-18.550781-7.265625-33.351563-8.84375-4.71875-11.855469-7.710937-24.332031-8.875-37.042969 15.792969 1.332031 25.285156 5.042969 35.253906 8.953125 12.855469 5.039063 26.144532 10.25 52.285157 10.25 26.160156 0 39.421875-5.199219 52.242187-10.230469 12.324219-4.835937 23.964844-9.398437 47.847656-9.398437 23.652344 0 35.242188 4.621093 47.515626 9.511719 8.261718 3.296874 16.78125 6.679687 28.847656 8.664062-2.835938 12.320312-7.421875 24.171875-13.621094 35.195312zm-250.953125-65.441406c-.003906-11.816406 1.558594-23.582031 4.648437-34.988281 15.34375 1.121094 24.359376 4.640625 33.832032 8.355469 11.988281 4.699218 24.386718 9.5625 48.851562 9.5625s36.867188-4.863282 48.859375-9.566406c11.457031-4.492188 22.28125-8.734376 44.480469-8.734376s33.011719 4.242188 44.46875 8.734376c10.765625 4.222656 21.878906 8.578124 41.773438 9.417968.71875 5.710938 1.082031 11.460938 1.085937 17.21875.003906 6.167969-.417969 12.328125-1.257813 18.441406-10.902343-1.765624-18.550781-4.808593-26.574218-8-12.78125-5.101562-26-10.367187-51.957032-10.367187-26.152343 0-39.410156 5.199219-52.230468 10.226563-12.324219 4.835937-23.964844 9.402343-47.859375 9.402343-23.871094 0-35.546875-4.578125-47.898438-9.421875-10.695312-4.191406-21.722656-8.511718-40.210937-9.863281-.011719-.144531-.011719-.277344-.011719-.417969zm116.671875-213.601562h34.660156v31.921875h-34.660156zm-25.171875 86.617187c2.460937-.8125 4.121094-3.109375 4.117187-5.699219v-37h77.21875v37c0 2.589844 1.660157 4.886719 4.117188 5.699219 25.191406 8.347657 47.296875 24.070313 63.445312 45.128907-3.757812-1.222657-7.234374-2.589844-10.800781-4-12-4.730469-24.414062-9.621094-48.929687-9.621094-24.46875 0-36.871094 4.863281-48.859375 9.5625-11.457031 4.496094-22.28125 8.738281-44.480469 8.738281-22.402344 0-33.246094-4.257813-44.71875-8.761719-2.753906-1.082031-5.558594-2.179687-8.542969-3.230468 15.484375-17.441407 35.296875-30.484376 57.433594-37.816407zm-65.519531 47.785157c4.320312 1.332031 8.199218 2.847656 12.242187 4.4375 12.011719 4.714843 24.429688 9.589843 49.105469 9.589843 24.46875 0 36.867188-4.863281 48.859375-9.5625 11.457031-4.492187 22.28125-8.738281 44.480469-8.738281 22.238281 0 33.066406 4.269531 44.53125 8.789062 7.269531 2.863282 14.773437 5.8125 25.085937 7.675782 6.742188 11.738281 11.644531 24.441406 14.535157 37.667968-16.253907-1-25.542969-4.640624-35.300782-8.46875-11.988281-4.699218-24.386718-9.5625-48.847656-9.5625-24.464844 0-36.871094 4.863282-48.859375 9.5625-11.457031 4.496094-22.28125 8.738282-44.480469 8.738282-22.203125 0-33.015625-4.242188-44.472656-8.734375-9.351562-3.667969-19-7.4375-34.445312-8.910157 4.316406-11.59375 10.230468-22.527343 17.570312-32.484374zm-10.542969 141.699218c9.21875 1.660156 15.960937 4.300782 22.984375 7.050782 12.019531 4.714843 24.445312 9.585937 48.90625 9.585937 24.457031 0 36.867188-4.863281 48.859375-9.5625 11.457031-4.492187 22.28125-8.738281 44.480469-8.738281 21.972656 0 32.746094 4.300781 44.148437 8.84375 6.285157 2.65625 12.757813 4.847656 19.367188 6.550781-6.917969 9.988281-15.160157 18.988281-24.5 26.757813-9.410157-3.273438-20.957031-6.050782-39.015625-6.050782-24.46875 0-36.867188 4.863282-48.859375 9.570313-11.457031 4.5-22.277344 8.738281-44.480469 8.738281-8.726562.125-17.4375-.761719-25.960938-2.632812-19.363281-12.476563-35.183593-29.738282-45.925781-50.113282zm76.316406 64.691406c21.582031-.546874 33.1875-5.097656 44.433594-9.511718 11.457031-4.5 22.28125-8.742188 44.480469-8.742188 9.113281-.160156 18.207031.84375 27.066406 2.980469-21.847656 14.496094-47.511719 22.179687-73.734375 22.082031-14.351563.003906-28.617187-2.292968-42.242187-6.804687zm0 0"/><path d="m203.828125 445.148438v26.152343c0 3.3125 2.6875 6 6 6 3.316406 0 6-2.6875 6-6v-26.152343c0-3.3125-2.683594-6-6-6-3.3125 0-6 2.6875-6 6zm0 0"/><path d="m38.300781 217.621094c0-3.316406-2.6875-6-6-6h-26.152343c-3.3125 0-6 2.683594-6 6 0 3.3125 2.6875 6 6 6h26.152343c3.3125 0 6-2.6875 6-6zm0 0"/><path d="m413.511719 211.621094h-26.152344c-3.3125 0-6 2.683594-6 6 0 3.3125 2.6875 6 6 6h26.152344c3.3125 0 6-2.6875 6-6 0-3.316406-2.6875-6-6-6zm0 0"/><path d="m374.964844 374.265625c-2.34375-2.34375-6.144532-2.339844-8.488282 0-2.34375 2.34375-2.34375 6.144531 0 8.488281l18.492188 18.488282c2.34375 2.34375 6.140625 2.34375 8.484375 0s2.34375-6.144532 0-8.484376zm0 0"/><path d="m34.691406 401.242188 18.492188-18.492188c2.34375-2.34375 2.34375-6.144531 0-8.488281s-6.144532-2.34375-8.488282 0l-18.488281 18.492187c-2.34375 2.339844-2.34375 6.140625 0 8.484375s6.140625 2.34375 8.484375 0zm0 0"/></g></svg>