<svg height="492pt" viewBox="-85 0 492 492.00513" width="492pt" xmlns="http://www.w3.org/2000/svg"><path d="m205.003906 208.34375c60.960938.046875 110.351563 49.496094 110.328125 110.457031-.023437 60.964844-49.449219 110.375-110.414062 110.375-60.964844 0-110.390625-49.410156-110.414063-110.375-.023437-60.960937 49.363282-110.410156 110.328125-110.457031zm42.257813 113.160156c0-24.214844-19.632813-43.847656-43.847657-43.847656-24.21875 0-43.851562 19.632812-43.851562 43.847656 0 24.21875 19.632812 43.851563 43.851562 43.851563s43.851563-19.632813 43.847657-43.851563zm0 0" fill="#f8ec7d"/><path d="m203.414062 277.65625c24.214844 0 43.847657 19.632812 43.847657 43.847656 0 24.21875-19.632813 43.851563-43.847657 43.851563-24.21875 0-43.851562-19.632813-43.851562-43.851563s19.632812-43.851562 43.851562-43.847656zm12.667969 43.847656c0-6.996094-5.671875-12.667968-12.667969-12.667968-7 0-12.671874 5.671874-12.671874 12.667968 0 7 5.671874 12.671875 12.671874 12.671875 6.996094 0 12.671876-5.671875 12.667969-12.671875zm0 0" fill="#6fe3ff"/><path d="m216.082031 321.503906c0 7-5.671875 12.671875-12.667969 12.671875-7 0-12.671874-5.671875-12.671874-12.671875 0-6.996094 5.671874-12.667968 12.671874-12.667968 6.996094 0 12.667969 5.671874 12.667969 12.667968zm0 0" fill="#e48e66"/><path d="m167.753906 121.664062c22.890625 2.320313 39.566406 22.757813 37.25 45.652344v41.027344h-.171875c-51.175781.007812-95.632812 35.203125-107.382812 85.011719-11.746094 49.8125 12.292969 101.164062 58.074219 124.039062l-.222657 57.351563c-.609375 6.382812-5.972656 11.257812-12.386719 11.257812h-73.992187c-6.40625.003906-11.769531-4.859375-12.390625-11.238281l-5.9375-201.070313-.140625-8.628906c0 12.21875-9.640625 22.589844-21.859375 22.730469h-.25c-12.214844.003906-22.121094-9.894531-22.121094-22.113281 0 0-.21875-101.160156-.21875-102.570313.003906-23.007812 18.660156-41.65625 41.667969-41.660156h33.210937l24.730469 45.363281 26.019531-45.363281s34.71875.070313 36.121094.210937zm0 0" fill="#e48e66"/><path d="m144.3125 46.105469v16.039062c0 22.148438-17.957031 40.105469-40.105469 40.105469-22.148437 0-40.105469-17.957031-40.105469-40.105469v-16.039062c0-22.148438 17.957032-40.105469 40.105469-40.105469 22.148438 0 40.105469 17.957031 40.105469 40.105469zm0 0" fill="#e48e66"/><g fill="#63316d"><path d="m150.3125 62.144531v-16.039062c0-25.464844-20.640625-46.105469-46.105469-46.105469-25.460937 0-46.105469 20.640625-46.105469 46.105469v16.039062c0 25.464844 20.644532 46.105469 46.105469 46.105469 25.464844 0 46.105469-20.640625 46.105469-46.105469zm-80.210938 0v-16.039062c0-18.835938 15.269532-34.105469 34.105469-34.105469 18.835938 0 34.105469 15.269531 34.105469 34.105469v16.039062c0 18.835938-15.269531 34.105469-34.105469 34.105469-18.835937 0-34.105469-15.269531-34.105469-34.105469zm0 0"/><path d="m211.003906 202.503906v-34.898437c2.4375-26.078125-16.597656-49.246094-42.652344-51.914063-1.121093-.113281-13.472656-.191406-36.707031-.238281h-.011719c-2.148437 0-4.132812 1.152344-5.199218 3.015625l-20.6875 36.054688-19.59375-35.941407c-1.054688-1.925781-3.074219-3.128906-5.269532-3.128906h-33.210937c-26.308594.035156-47.6289062 21.351563-47.66796875 47.660156 0 1.402344.21093775 98.453125.21874975 102.570313 0 15.523437 12.578125 28.105468 28.101563 28.113281h.339843c5.917969-.074219 11.652344-2.054687 16.355469-5.644531l5.519531 186.789062c0 .132813.011719.269532.023438.402344.890625 9.464844 8.851562 16.691406 18.359375 16.660156h73.992187c9.519532.035156 17.488282-7.207031 18.363282-16.6875.015625-.183594.023437-.367187.023437-.546875l.1875-48.113281c13.773438 5.550781 28.492188 8.386719 43.34375 8.347656 63.058594.019532 114.652344-50.207031 116.324219-113.242187 1.671875-63.039063-47.183594-115.929688-110.152344-119.257813zm-68.089844 277.5h-73.992187c-3.257813.011719-6.007813-2.417968-6.398437-5.652344l-5.933594-200.753906-.136719-8.628906c-.027344-3.316406-2.738281-5.980469-6.050781-5.953125-3.316406.027344-5.976563 2.738281-5.949219 6.050781 0 9.125-7.148437 16.628906-15.863281 16.730469h-.265625c-8.898438-.003906-16.109375-7.222656-16.101563-16.121094 0-1.015625-.21875-101.171875-.21875-102.554687.03125-19.6875 15.984375-35.636719 35.667969-35.664063h29.648437l23.023438 42.230469c1.042969 1.910156 3.03125 3.105469 5.203125 3.128906 2.167969.011719 4.175781-1.140625 5.269531-3.015625l24.285156-42.335937c12.699219.03125 30.171876.101562 32.15625.183594 19.53125 2.058593 33.730469 19.511718 31.777344 39.054687-.023437.203125-.03125.40625-.03125.609375v35.175781c-52.109375 2.617188-96.101562 39.609375-107.625 90.492188-11.527344 50.886719 12.234375 103.222656 58.128906 128.039062l-.199218 53.378907c-.410156 3.21875-3.15625 5.621093-6.394532 5.605468zm61.917969-57c-16.1875.050782-32.15625-3.710937-46.625-10.976562-43.292969-21.628906-66.027343-70.1875-54.917969-117.292969 11.109376-47.101563 53.148438-80.382813 101.542969-80.390625h.160157c57.621093.046875 104.296874 46.792969 104.25 104.410156-.042969 57.621094-46.789063 104.296875-104.410157 104.25zm0 0"/><path d="m203.414062 271.65625c-27.53125 0-49.851562 22.316406-49.851562 49.847656s22.320312 49.851563 49.851562 49.851563 49.847657-22.320313 49.847657-49.851563c-.03125-27.515625-22.332031-49.816406-49.847657-49.847656zm0 87.699219c-20.90625 0-37.851562-16.945313-37.851562-37.851563 0-20.902344 16.945312-37.847656 37.851562-37.847656 20.902344 0 37.847657 16.945312 37.847657 37.847656-.023438 20.894532-16.953125 37.828125-37.847657 37.851563zm0 0"/><path d="m204.835938 390.476562c-38.84375-.082031-70.308594-31.550781-70.382813-70.394531 0-3.3125-2.6875-6-6-6s-6 2.6875-6 6c.085937 45.460938 36.914063 82.296875 82.375 82.386719 3.3125 0 6-2.6875 6-6s-2.6875-6-6-6zm0 0"/><path d="m204.835938 237.703125c-3.3125 0-6 2.6875-6 6 0 3.316406 2.6875 6 6 6 38.839843.078125 70.308593 31.546875 70.382812 70.386719 0 3.3125 2.6875 6 6 6 3.316406 0 6-2.6875 6-6-.085938-45.464844-36.917969-82.300782-82.382812-82.386719zm0 0"/><path d="m203.414062 302.835938c-10.3125 0-18.671874 8.359374-18.671874 18.667968 0 10.3125 8.359374 18.671875 18.671874 18.671875 10.308594 0 18.667969-8.359375 18.667969-18.671875-.011719-10.304687-8.363281-18.65625-18.667969-18.667968zm0 25.339843c-3.683593 0-6.671874-2.988281-6.671874-6.671875s2.988281-6.667968 6.671874-6.667968c3.683594 0 6.667969 2.984374 6.667969 6.667968-.003906 3.683594-2.988281 6.667969-6.667969 6.671875zm0 0"/></g></svg>