<svg height="392pt" viewBox="-54 0 392 392" width="392pt" xmlns="http://www.w3.org/2000/svg"><path d="m277.539062 17.929688v143.179687c0 6.589844-5.339843 11.929687-11.929687 11.929687s-11.929687-5.339843-11.929687-11.929687v-143.179687c0-6.589844 5.339843-11.929688 11.929687-11.929688s11.929687 5.339844 11.929687 11.929688zm0 0" fill="#e48e66"/><path d="m229.820312 29.859375h23.859376v119.320313h-23.859376zm0 0" fill="#f8ec7d"/><path d="m229.820312 29.859375v119.320313c-12.914062.019531-25.480468-4.167969-35.800781-11.929688-2.257812-1.695312-4.390625-3.546875-6.390625-5.539062-17.058594-17.066407-22.160156-42.726563-12.925781-65.019532 9.234375-22.292968 30.988281-36.828125 55.117187-36.832031zm0 0" fill="#e48e66"/><path d="m194.019531 137.25v102.921875c0 6.585937-5.339843 11.929687-11.929687 11.929687s-11.929688-5.34375-11.929688-11.929687v-150.652344c-.019531 15.828125 6.265625 31.011719 17.46875 42.191407 2 1.992187 4.132813 3.84375 6.390625 5.539062zm0 0" fill="#f8ec7d"/><path d="m113.378906 186.769531v150.652344c0 6.585937-5.339844 11.929687-11.929687 11.929687-6.589844 0-11.929688-5.34375-11.929688-11.929687v-102.921875c2.257813-1.695312 4.394531-3.546875 6.390625-5.539062 11.199219-11.183594 17.488282-26.363282 17.46875-42.191407zm0 0" fill="#f8ec7d"/><path d="m53.71875 127.121094c32.949219 0 59.65625 26.707031 59.65625 59.652344 0 32.949218-26.707031 59.65625-59.65625 59.65625zm0 0" fill="#e48e66"/><path d="m29.859375 127.121094h23.859375v119.308594h-23.859375zm0 0" fill="#f8ec7d"/><path d="m29.859375 246.429688v11.929687c0 6.589844-5.339844 11.929687-11.929687 11.929687-6.589844 0-11.929688-5.339843-11.929688-11.929687v-143.167969c0-6.589844 5.339844-11.929687 11.929688-11.929687 6.589843 0 11.929687 5.339843 11.929687 11.929687zm0 0" fill="#e48e66"/><g fill="#63316d"><path d="m17.929688 276.289062c4.757812.003907 9.320312-1.882812 12.683593-5.246093s5.25-7.925781 5.246094-12.683594v-5.929687h17.859375c10.359375.023437 20.578125-2.425782 29.800781-7.140626v92.132813c.011719 7.582031 4.785157 14.335937 11.929688 16.878906v31.699219c0 3.3125 2.6875 6 6 6 3.316406 0 6-2.6875 6-6v-31.695312c7.160156-2.519532 11.945312-9.292969 11.929687-16.882813v-151.53125c0-.222656-.011718-.445313-.039062-.667969-.875-35.625-29.984375-64.058594-65.621094-64.101562h-17.859375v-5.929688c0-9.902344-8.027344-17.929687-17.929687-17.929687-9.902344 0-17.929688 8.027343-17.929688 17.929687v143.167969c.0117188 9.898437 8.03125 17.917969 17.929688 17.929687zm89.449218 61.132813c0 3.273437-2.652344 5.929687-5.929687 5.929687-3.273438 0-5.929688-2.65625-5.929688-5.929687v-100.023437c1.582031-1.304688 3.136719-2.703126 4.636719-4.199219 2.644531-2.65625 5.0625-5.53125 7.222656-8.59375zm0-150.652344c.039063 14.234375-5.613281 27.894531-15.699218 37.9375-1.800782 1.796875-3.726563 3.464844-5.757813 4.992188-7.640625 5.761719-16.691406 9.351562-26.203125 10.394531v-106.628906c27.121094 3.082031 47.625 26.007812 47.660156 53.304687zm-59.660156-53.648437v107.308594h-11.859375v-107.308594zm-35.71875-17.929688c0-3.277344 2.65625-5.929687 5.929688-5.929687 3.273437 0 5.929687 2.652343 5.929687 5.929687v143.167969c0 3.277344-2.65625 5.929687-5.929687 5.929687-3.273438 0-5.929688-2.652343-5.929688-5.929687zm0 0"/><path d="m176.089844 257.054688v31.699218c0 3.3125 2.6875 6 6 6s6-2.6875 6-6v-31.699218c7.140625-2.542969 11.917968-9.296876 11.929687-16.875v-92.140626c9.226563 4.714844 19.441407 7.164063 29.800781 7.140626h17.859376v5.929687c0 9.902344 8.027343 17.929687 17.929687 17.929687s17.929687-8.027343 17.929687-17.929687v-143.179687c0-9.902344-8.027343-17.929688-17.929687-17.929688s-17.929687 8.027344-17.929687 17.929688v5.929687h-17.859376c-35.640624.046875-64.746093 28.484375-65.621093 64.113281-.023438.222656-.039063.445313-.039063.667969v151.53125c-.019531 7.589844 4.769532 14.363281 11.929688 16.882813zm83.589844-239.125c0-3.273438 2.65625-5.929688 5.929687-5.929688 3.277344 0 5.929687 2.65625 5.929687 5.929688v143.179687c0 3.277344-2.652343 5.929687-5.929687 5.929687-3.273437 0-5.929687-2.652343-5.929687-5.929687zm-12 125.25h-11.859376v-107.320313h11.859376zm-23.859376-106.980469v106.644531c-9.511718-1.046875-18.566406-4.636719-26.207031-10.402344-2.027343-1.519531-3.945312-3.183594-5.738281-4.972656-14.578125-14.578125-19.511719-36.214844-12.703125-55.671875s24.164063-33.292969 44.648437-35.597656zm-40.421874 99.761719c1.492187 1.484374 3.042968 2.878906 4.621093 4.183593v100.027344c0 3.273437-2.65625 5.929687-5.929687 5.929687-3.273438 0-5.929688-2.65625-5.929688-5.929687v-112.816406c2.164063 3.066406 4.585938 5.949219 7.238282 8.609375zm0 0"/></g></svg>