<svg height="435pt" viewBox="0 -21 435.38 435" width="435pt" xmlns="http://www.w3.org/2000/svg"><path d="m429.378906 246.410156v26.699219c0 16.15625-13.09375 29.25-29.25 29.25h-364.878906c-16.15625 0-29.25-13.09375-29.25-29.25v-26.699219zm0 0" fill="#e48e66"/><path d="m141.738281 117.699219c8.285157 0 15-6.714844 15-15 0-8.285157-6.714843-15-15-15-8.28125 0-15 6.714843-15 15 .003907 8.285156 6.71875 14.996093 15 15zm50.632813 50c8.28125 0 15-6.714844 15-15 0-8.285157-6.71875-15-15-15-8.285156 0-15 6.714843-15 15 0 8.285156 6.714844 15 15 15zm50.640625-50c8.28125 0 15-6.714844 15-15 0-8.285157-6.71875-15-15-15-8.285157 0-15 6.714843-15 15 0 8.285156 6.714843 14.996093 15 15zm50.628906 10c-8.285156 0-15 6.714843-15 15 0 8.285156 6.714844 15 15 15s15-6.714844 15-15c0-8.285157-6.714844-15-15-15zm135.738281-92.257813v210.96875h-423.378906v-210.96875c0-16.15625 13.09375-29.253906 29.25-29.25h364.878906c16.15625-.003906 29.25 13.09375 29.25 29.25zm0 0" fill="#f8ec7d"/><g fill="#6fe3ff"><path d="m308.640625 142.699219c0 8.285156-6.714844 15-15 15s-15-6.714844-15-15c0-8.285157 6.714844-15 15-15s15 6.714843 15 15zm0 0"/><path d="m161.738281 302.359375h111.902344v83.832031h-111.902344zm0 0"/><path d="m258.011719 102.699219c0 8.285156-6.71875 15-15 15-8.285157 0-15-6.714844-15-15 0-8.285157 6.714843-15 15-15 8.28125 0 15 6.714843 15 15zm0 0"/><path d="m207.371094 152.699219c0 8.285156-6.71875 15-15 15-8.285156 0-15-6.714844-15-15 0-8.285157 6.714844-15 15-15 8.28125 0 15 6.714843 15 15zm0 0"/><path d="m156.738281 102.699219c0 8.285156-6.714843 15-15 15-8.28125 0-15-6.714844-15-15 0-8.285157 6.71875-15 15-15 8.285157 0 15 6.714843 15 15zm0 0"/></g><path d="m400.128906.191406h-364.878906c-19.457031.019532-35.2265625 15.789063-35.25 35.25v237.667969c.0234375 19.460937 15.792969 35.230469 35.25 35.25h120.488281v71.832031h-27.9375c-3.316406 0-6 2.683594-6 6 0 3.3125 2.683594 6 6 6h185.039063c3.3125 0 6-2.6875 6-6 0-3.316406-2.6875-6-6-6h-33.199219v-71.832031h120.488281c19.460938-.019531 35.230469-15.789063 35.25-35.25v-237.667969c-.019531-19.460937-15.789062-35.230468-35.25-35.25zm-364.878906 12h364.878906c12.835938.011719 23.238282 10.414063 23.25 23.25v204.96875h-411.378906v-204.96875c.015625-12.835937 10.414062-23.238281 23.25-23.25zm232.390625 368h-99.902344v-71.832031h99.902344zm132.488281-83.832031h-364.878906c-12.835938-.015625-23.234375-10.414063-23.25-23.25v-20.699219h411.378906v20.699219c-.011718 12.835937-10.414062 23.234375-23.25 23.25zm0 0" fill="#63316d"/><path d="m135.738281 122.816406v80.714844c0 3.3125 2.6875 6 6 6 3.316407 0 6-2.6875 6-6v-80.714844c8.902344-2.652344 15-10.832031 15-20.117187 0-9.285157-6.097656-17.464844-15-20.113281v-33.515626c0-3.3125-2.683593-6-6-6-3.3125 0-6 2.6875-6 6v33.515626c-8.898437 2.648437-14.996093 10.828124-14.996093 20.113281 0 9.285156 6.097656 17.464843 14.996093 20.117187zm6-29.117187c4.972657 0 9 4.03125 9 9 0 4.972656-4.027343 9-9 9-4.96875 0-9-4.027344-9-9 .007813-4.96875 4.035157-8.992188 9-9zm0 0" fill="#63316d"/><path d="m186.371094 172.816406v30.714844c0 3.3125 2.683594 6 6 6 3.3125 0 6-2.6875 6-6v-30.714844c8.898437-2.652344 15-10.832031 15-20.117187 0-9.285157-6.101563-17.464844-15-20.113281v-83.515626c0-3.3125-2.6875-6-6-6-3.316406 0-6 2.6875-6 6v83.515626c-8.898438 2.648437-15 10.828124-15 20.113281 0 9.285156 6.101562 17.464843 15 20.117187zm6-29.117187c4.96875 0 9 4.03125 9 9 0 4.972656-4.03125 9-9 9-4.972656 0-9-4.027344-9-9 .003906-4.96875 4.03125-8.992188 9-9zm0 0" fill="#63316d"/><path d="m237.011719 122.816406v80.714844c0 3.3125 2.683593 6 6 6 3.3125 0 6-2.6875 6-6v-80.714844c8.898437-2.652344 14.996093-10.832031 14.996093-20.117187 0-9.285157-6.097656-17.464844-14.996093-20.113281v-33.515626c0-3.3125-2.6875-6-6-6-3.316407 0-6 2.6875-6 6v33.515626c-8.902344 2.648437-15 10.828124-15 20.113281 0 9.285156 6.097656 17.464843 15 20.117187zm6-29.117187c4.96875 0 9 4.03125 9 9 0 4.972656-4.03125 9-9 9-4.972657 0-9-4.027344-9-9 .003906-4.96875 4.03125-8.992188 9-9zm0 0" fill="#63316d"/><path d="m287.640625 162.816406v40.714844c0 3.3125 2.6875 6 6 6s6-2.6875 6-6v-40.714844c8.898437-2.652344 15-10.832031 15-20.117187 0-9.285157-6.101563-17.464844-15-20.113281v-73.515626c0-3.3125-2.6875-6-6-6s-6 2.6875-6 6v73.515626c-8.898437 2.648437-15 10.828124-15 20.113281 0 9.285156 6.101563 17.464843 15 20.117187zm6-29.117187c4.96875 0 9 4.03125 9 9 0 4.972656-4.03125 9-9 9-4.972656 0-9-4.027344-9-9 .003906-4.96875 4.03125-8.992188 9-9zm0 0" fill="#63316d"/></svg>