<svg height="471pt" viewBox="-32 0 471 471.5483" width="471pt" xmlns="http://www.w3.org/2000/svg"><path d="m295.914062 255.519531c54.46875.109375 99.808594 41.851563 104.414063 96.125 4.601563 54.273438-33.058594 103.058594-86.730469 112.339844s-105.53125-24.015625-119.421875-76.683594c-.019531-.089843-.050781-.191406-.070312-.28125-8.167969-31.46875-1.3125-64.945312 18.570312-90.667969 19.878907-25.726562 50.546875-40.800781 83.058594-40.832031zm0 0" fill="#6fe3ff"/><path d="m129.132812 227.171875c0-10.5-8.507812-19.011719-19.007812-19.011719s-19.011719 8.511719-19.011719 19.011719c0 10.496094 8.511719 19.007813 19.011719 19.007813s19.011719-8.511719 19.007812-19.007813zm81.800782-58.382813v-24.769531c.003906-2.480469-1.109375-4.832031-3.03125-6.402343-1.921875-1.570313-4.445313-2.191407-6.878906-1.695313l-65.269532 13.21875c-3.851562.78125-6.621094 4.167969-6.621094 8.097656v28.121094zm0 67.871094c-1.40625-10.136718-10.589844-17.332031-20.765625-16.273437-10.179688 1.0625-17.683594 9.996093-16.972657 20.203125.714844 10.207031 9.386719 18.011718 19.613282 17.648437 10.222656-.363281 18.320312-8.765625 18.304687-19 .003907-.863281-.058593-1.722656-.179687-2.578125zm84.210937-126.589844.800781 142.691407-.03125 2.757812h-.179687c-32.511719.03125-63.179687 15.105469-83.058594 40.832031-19.882812 25.722657-26.738281 59.199219-18.570312 90.667969l-.621094.160157-144.859375.820312c-22.484375.109375-40.796875-18.027344-40.910156-40.511719l-1.441406-299.886719c-.105469-22.484374 18.03125-40.796874 40.511718-40.910156l142.871094-.679687 1.929688.179687.296874 62.160156c.109376 22.480469 18.421876 40.617188 40.902344 40.507813l62.347656-.300781zm0 0" fill="#e48e66"/><g fill="#f8ec7d"><path d="m295.132812 108.339844v.21875l-62.347656.300781c-22.480468.109375-40.792968-18.027344-40.902344-40.507813l-.296874-62.160156.207031.019532zm0 0"/><path d="m210.933594 236.660156c.121094.855469.183594 1.714844.179687 2.578125.019531 10.265625-8.101562 18.699219-18.363281 19.0625-10.257812.367188-18.957031-7.464843-19.671875-17.703125-.714844-10.238281 6.816406-19.203125 17.023437-20.265625 10.210938-1.0625 19.425782 6.160157 20.832032 16.328125zm0 0"/><path d="m210.933594 144.019531v24.769531l-81.800782 16.570313v-28.121094c0-3.929687 2.769532-7.316406 6.621094-8.097656l65.269532-13.21875c2.433593-.496094 4.957031.125 6.878906 1.695313 1.921875 1.570312 3.035156 3.921874 3.03125 6.402343zm0 0"/><path d="m129.132812 227.171875c0 10.496094-8.507812 19.007813-19.007812 19.007813s-19.011719-8.511719-19.011719-19.007813c0-10.5 8.511719-19.011719 19.011719-19.011719s19.007812 8.511719 19.007812 19.011719zm0 0"/></g><path d="m301.929688 249.695312-.785157-139.664062-.011719-1.691406c0-1.601563-.640624-3.140625-1.78125-4.269532l-103.339843-102.128906c-.019531-.019531-.046875-.035156-.070313-.058594-1.128906-1.203124-2.707031-1.882812-4.355468-1.882812-.308594.00390625-.617188.0273438-.921876.078125l-.453124-.0429688c-.195313-.015625-.378907-.0234374-.585938-.0234374l-142.871094.6796872c-25.78125.160156-46.570312 21.15625-46.480468 46.9375l1.441406 299.890625c.15625 25.695313 21.015625 46.453125 46.710937 46.480469h.234375l140.960938-.800781c16.550781 53.757812 70.691406 86.640625 126.023437 76.546875 55.335938-10.097656 94.375-59.980469 90.875-116.117188-3.5-56.140625-48.433593-100.789062-104.589843-103.933594zm-21.109376-147.066406-48.066406.230469h-.171875c-19.101562-.003906-34.609375-15.4375-34.703125-34.539063l-.230468-47.882812zm-232.226562 279.371094h-.171875c-19.09375-.023438-34.589844-15.445312-34.707031-34.539062l-1.441406-299.886719c-.066407-19.160157 15.382812-34.761719 34.539062-34.882813l138.800781-.660156.269531 56.347656c.125 25.703125 20.992188 46.472656 46.695313 46.480469h.234375l56.355469-.269531.757812 135.082031c-31.996093 1.699219-61.699219 17.132813-81.484375 42.335937-19.785156 25.207032-27.722656 57.726563-21.777344 89.210938zm247.140625 77.519531c-44.929687 0-84.234375-30.242187-95.738281-73.675781-.015625-.066406-.03125-.121094-.042969-.160156-.011719-.058594-.027344-.117188-.042969-.179688-7.699218-29.667968-1.230468-61.230468 17.511719-85.484375 18.746094-24.253906 47.660156-38.46875 78.3125-38.5h.167969c54.675781.046875 98.964844 44.410157 98.917968 99.085938-.046874 54.675781-44.410156 98.960937-99.085937 98.914062zm0 0" fill="#63316d"/><path d="m217.113281 239.238281c-.003906-.957031-.0625-1.917969-.179687-2.871093v-92.347657c.003906-4.28125-1.917969-8.335937-5.234375-11.046875-3.3125-2.707031-7.667969-3.785156-11.863281-2.933594l-65.273438 13.21875c-6.636719 1.367188-11.410156 7.203126-11.429688 13.980469v48.582031c-9.710937-5.914062-22.1875-4.527343-30.367187 3.371094-8.175781 7.898438-9.996094 20.320313-4.425781 30.230469 5.570312 9.910156 17.128906 14.816406 28.125 11.9375 11-2.882813 18.671875-12.820313 18.667968-24.1875v-36.902344l69.800782-14.136719v41.667969c-9.742188-5.816406-22.179688-4.339843-30.292969 3.597657-8.109375 7.933593-9.855469 20.339843-4.25 30.207031 5.605469 9.867187 17.152344 14.71875 28.121094 11.816406 10.972656-2.902344 18.609375-12.832031 18.601562-24.179687zm-106.988281.941407c-7.1875 0-13.011719-5.824219-13.011719-13.007813 0-7.1875 5.824219-13.011719 13.011719-13.011719 7.183594 0 13.007812 5.824219 13.007812 13.011719-.007812 7.179687-5.828124 13-13.007812 13.007813zm25.007812-62.15625v-20.785157c.003907-1.074219.757813-2 1.8125-2.21875l65.269532-13.21875c.667968-.136719 1.363281.03125 1.890625.460938.527343.433593.832031 1.078125.828125 1.757812v19.863281zm43.953126 61.214843c-.003907-6.78125 5.210937-12.425781 11.972656-12.96875 6.761718-.539062 12.800781 4.210938 13.875 10.910157v.511718h.078125c.066406.511719.101562 1.03125.101562 1.546875 0 7.191407-5.828125 13.015625-13.015625 13.015625s-13.015625-5.824218-13.015625-13.015625zm0 0" fill="#63316d"/><path d="m331.589844 329.089844-52.480469 50.128906-19.132813-19.128906c-2.351562-2.289063-6.105468-2.265625-8.425781.054687-2.320312 2.320313-2.347656 6.074219-.058593 8.425781l23.28125 23.28125c2.304687 2.304688 6.027343 2.351563 8.386718.101563l56.71875-54.179687c2.398438-2.289063 2.484375-6.085938.195313-8.484376-2.289063-2.394531-6.085938-2.484374-8.484375-.195312zm0 0" fill="#63316d"/></svg>