<svg height="455pt" viewBox="0 -13 455.28975 455" width="455pt" xmlns="http://www.w3.org/2000/svg"><path d="m440.449219 43.683594v79.589844h-75.070313v-79.589844c0-19.898438 15.527344-36.339844 35.390625-37.480469.710938-.039063 1.421875-.058594 2.140625-.058594 20.734375 0 37.539063 16.808594 37.539063 37.539063zm0 0" fill="#e48e66"/><path d="m424.28125 220.125c28.890625 28.902344 33.25 74.222656 10.398438 108.101562-22.855469 33.878907-66.511719 46.8125-104.128907 30.84375-37.621093-15.96875-58.648437-56.351562-50.152343-96.328124 8.492187-39.972657 44.121093-68.324219 84.980468-67.617188 22.132813.382812 43.25 9.347656 58.902344 25zm-15.382812 83.730469c0-7.242188-5.875-13.113281-13.117188-13.109375-7.246094 0-13.113281 5.875-13.109375 13.117187 0 7.246094 5.875 13.113281 13.117187 13.113281 7.246094-.003906 13.113282-5.878906 13.109376-13.121093zm-63.757813 15.519531c0-7.246094-5.875-13.121094-13.121094-13.121094-7.246093 0-13.121093 5.875-13.121093 13.121094s5.875 13.121094 13.121093 13.121094c7.246094-.003906 13.117188-5.878906 13.121094-13.121094zm0 0" fill="#6fe3ff"/><path d="m395.789062 290.734375c7.246094 0 13.121094 5.875 13.121094 13.121094 0 7.246093-5.875 13.121093-13.121094 13.121093-7.246093 0-13.117187-5.875-13.117187-13.121093-.003906-3.480469 1.378906-6.820313 3.839844-9.28125 2.460937-2.460938 5.796875-3.839844 9.277343-3.839844zm0 0" fill="#f8ec7d"/><path d="m400.769531 6.144531v.058594c-19.863281 1.140625-35.390625 17.582031-35.390625 37.480469v151.441406c-30.839844-.546875-59.578125 15.578125-75.175781 42.1875s-15.632813 59.5625-.089844 86.207031c15.542969 26.640625 44.246094 42.828125 75.085938 42.34375-2.339844 31.8125-28.339844 56.882813-60.058594 56.882813h-.039063c-1.242187 0-2.472656-.042969-3.691406-.121094-31.539062-1.941406-56.539062-28.71875-56.539062-61.449219v-39.871093h-178.441406l2.230468-272.691407c.234375-23.523437 19.375-42.46875 42.898438-42.46875zm0 0" fill="#f8ec7d"/><path d="m345.140625 319.375c0 7.246094-5.875 13.121094-13.121094 13.121094-7.246093 0-13.121093-5.875-13.121093-13.121094s5.875-13.121094 13.121093-13.121094c7.246094 0 13.121094 5.875 13.121094 13.121094zm0 0" fill="#f8ec7d"/><path d="m301.410156 422.625-.011718.121094h-235.160157c-33.269531 0-60.238281-27.570313-60.238281-61.570313v-39.871093h238.871094v39.871093c0 32.730469 25 59.507813 56.539062 61.449219zm0 0" fill="#e48e66"/><g fill="#63316d"><path d="m113.109375 112.453125h50.140625c3.3125 0 6-2.683594 6-6 0-3.3125-2.6875-6-6-6h-50.140625c-3.3125 0-6 2.6875-6 6 0 3.316406 2.6875 6 6 6zm0 0"/><path d="m312.570312 183.09375c3.3125 0 6-2.683594 6-6 0-3.3125-2.6875-6-6-6h-74.640624c-3.3125 0-6 2.6875-6 6 0 3.316406 2.6875 6 6 6zm0 0"/><path d="m189.179688 171.09375c-3.3125 0-6 2.6875-6 6 0 3.316406 2.6875 6 6 6h23.378906c3.316406 0 6-2.683594 6-6 0-3.3125-2.683594-6-6-6zm0 0"/><path d="m113.109375 183.09375h50.28125c3.3125 0 6-2.683594 6-6 0-3.3125-2.6875-6-6-6h-50.28125c-3.3125 0-6 2.6875-6 6 0 3.316406 2.6875 6 6 6zm0 0"/><path d="m263.320312 241.746094h-19.550781c-3.3125 0-6 2.683594-6 6 0 3.3125 2.6875 6 6 6h19.550781c3.3125 0 6-2.6875 6-6 0-3.316406-2.6875-6-6-6zm0 0"/><path d="m218.378906 241.746094h-105.269531c-3.3125 0-6 2.683594-6 6 0 3.3125 2.6875 6 6 6h105.269531c3.316406 0 6-2.6875 6-6 0-3.316406-2.683594-6-6-6zm0 0"/><path d="m298.171875 112.453125h14.398437c3.3125 0 6-2.683594 6-6 0-3.3125-2.6875-6-6-6h-14.398437c-3.316406 0-6 2.6875-6 6 0 3.316406 2.683594 6 6 6zm0 0"/><path d="m188.191406 112.453125h84.6875c3.316406 0 6-2.683594 6-6 0-3.3125-2.683594-6-6-6h-84.6875c-3.316406 0-6 2.6875-6 6 0 3.316406 2.683594 6 6 6zm0 0"/><path d="m371.378906 189.4375v-60.164062h69.070313c3.316406 0 6-2.683594 6-6v-79.589844c0-24.046875-19.492188-43.539063-43.539063-43.539063-.492187 0-.972656.023438-1.460937.042969-.226563-.027344-.453125-.042969-.679688-.042969h-289.210937c-26.785156.082031-48.554688 21.636719-48.898438 48.421875l-2.179687 266.738282h-54.480469c-3.3125 0-6 2.6875-6 6v39.871093c0 35.847657 27.511719 65.25 62.128906 67.425781.421875.09375.855469.140626 1.292969.144532h237.976563c.296874-.003906.589843-.027344.878906-.070313.941406.039063 1.890625.070313 2.863281.070313 32.691406 0 60.464844-24.695313 65.425781-57.128906 47.597656-3.464844 84.507813-42.984376 84.722656-90.710938.214844-47.726562-36.34375-87.574219-83.910156-91.46875zm63.070313-145.753906v73.589844h-63.070313v-73.589844c0-16.714844 13.039063-30.53125 29.730469-31.488282.597656-.035156 1.199219-.050781 1.796875-.050781 17.421875 0 31.542969 14.121094 31.542969 31.539063zm-422.449219 317.492187v-33.871093h226.871094v33.871093c-.050782 22.0625 10.605468 42.78125 28.585937 55.570313h-201.21875c-29.90625 0-54.238281-24.929688-54.238281-55.570313zm293.101562 55.570313c-1.105468 0-2.214843-.039063-3.324218-.109375-28.546875-1.753907-50.90625-26.117188-50.90625-55.460938v-39.871093c0-3.3125-2.6875-6-6-6h-172.390625l2.179687-266.628907c.265625-20.210937 16.691406-36.472656 36.898438-36.53125h261.351562c-8.644531 8.214844-13.535156 19.617188-13.53125 31.539063v145.542968c-22.660156 1.042969-44.105468 10.558594-60.09375 26.65625-25.449218 25.414063-33.613281 63.398438-20.859375 97.03125 12.757813 33.628907 44.058594 56.640626 79.960938 58.789063-4.84375 25.707031-27.132813 45.042969-53.285157 45.042969zm114.933594-80.121094c-14.5625 14.632812-34.28125 22.976562-54.925781 23.242188h-.117187c-28.492188.402343-55.015626-14.496094-69.496094-39.039063-14.480469-24.542969-14.691406-54.964844-.558594-79.707031 14.132812-24.746094 40.449219-40.015625 68.945312-40.007813.464844 0 .929688 0 1.398438.011719 31.851562.550781 60.289062 20.089844 72.226562 49.625 11.933594 29.535156 5.058594 63.347656-17.46875 85.875zm0 0"/><path d="m408.574219 226.464844c-3.980469-3.285156-9.21875-4.625-14.289063-3.652344l-40.960937 7.039062c-.042969.007813-.085938.015626-.128907.023438-8.15625 1.597656-14.042968 8.738281-14.054687 17.050781v54.71875c-7.796875-3.125-16.71875-.792969-21.992187 5.742188-5.269532 6.539062-5.65625 15.753906-.949219 22.710937 4.707031 6.953125 13.40625 10.023438 21.433593 7.558594 8.03125-2.464844 13.511719-9.882812 13.507813-18.28125 0-.136719-.019531-.269531-.023437-.40625 0-.140625.023437-.273438.023437-.414062v-71.628907c.003906-2.550781 1.796875-4.746093 4.292969-5.261719l40.941406-7.035156.132812-.027344c1.574219-.304687 3.203126.109376 4.4375 1.128907 1.238282 1.019531 1.957032 2.539062 1.953126 4.144531v46.246094c-7.792969-3.125-16.71875-.796875-21.988282 5.742187-5.273437 6.539063-5.660156 15.753907-.953125 22.710938s13.40625 10.023437 21.433594 7.558593c8.03125-2.460937 13.511719-9.878906 13.507813-18.277343 0-.136719-.015626-.273438-.019532-.410157-.003906-.136718.019532-.269531.019532-.410156v-63.160156c.007812-5.191406-2.3125-10.113281-6.324219-13.410156zm-76.554688 100.03125c-3.933593 0-7.121093-3.1875-7.121093-7.121094s3.1875-7.121094 7.121093-7.121094c3.933594 0 7.121094 3.1875 7.121094 7.121094-.003906 3.929688-3.191406 7.113281-7.121094 7.121094zm63.769531-15.519532c-3.933593.003907-7.125-3.179687-7.128906-7.113281-.003906-3.933593 3.183594-7.125 7.117188-7.128906 3.933594 0 7.121094 3.1875 7.121094 7.121094-.003907 3.925781-3.183594 7.109375-7.109376 7.121093zm0 0"/></g></svg>