<svg height="471pt" viewBox="-32 0 471 471.54124" width="471pt" xmlns="http://www.w3.org/2000/svg"><path d="m355.550781 385.234375c0-8.859375-8.628906-16.039063-19.28125-16.039063-10.648437 0-19.277343 7.179688-19.277343 16.039063s8.628906 16.03125 19.277343 16.03125c10.652344 0 19.28125-7.179687 19.28125-16.03125zm-81.078125 22.628906c0-8.859375-8.640625-16.039062-19.28125-16.039062s-19.28125 7.179687-19.28125 16.039062c0 8.863281 8.628906 16.03125 19.28125 16.03125 10.648438 0 19.28125-7.167969 19.28125-16.03125zm0-47.058593 81.078125-31.96875v-31.710938l-81.078125 31.960938zm21.46875-105.289063c54.464844.125 99.789063 41.875 104.382813 96.144531 4.59375 54.269532-33.074219 103.042969-86.742188 112.320313-53.667969 9.277343-105.519531-24.023438-119.410156-76.683594-.019531-.09375-.050781-.191406-.070313-.28125-8.167968-31.46875-1.308593-64.945313 18.570313-90.671875 19.882813-25.722656 50.546875-40.796875 83.058594-40.828125zm0 0" fill="#f8ec7d"/><path d="m355.550781 297.125v31.710938l-81.078125 31.96875v-31.71875zm0 0" fill="#6fe3ff"/><path d="m336.269531 369.195312c10.652344 0 19.28125 7.179688 19.28125 16.039063s-8.628906 16.03125-19.28125 16.03125c-10.648437 0-19.277343-7.179687-19.277343-16.03125 0-8.847656 8.628906-16.039063 19.277343-16.039063zm0 0" fill="#6fe3ff"/><path d="m295.140625 110.054688.800781 145.460937h-.210937c-32.511719.03125-63.175781 15.105469-83.058594 40.828125-19.878906 25.726562-26.738281 59.203125-18.570313 90.671875l-.621093.160156-144.859375.820313c-22.484375.105468-40.796875-18.027344-40.910156-40.511719l-1.441407-299.898437c-.101562-22.480469 18.03125-40.789063 40.511719-40.902344l142.871094-.6875 1.929687.1875.300781 62.152344c.105469 22.480468 18.417969 40.617187 40.898438 40.507812l62.351562-.296875zm0 0" fill="#e48e66"/><path d="m295.132812 108.335938v.210937l-62.351562.296875c-22.480469.109375-40.792969-18.027344-40.898438-40.507812l-.300781-62.152344.207031.019531zm0 0" fill="#f8ec7d"/><path d="m255.191406 391.824219c10.640625 0 19.28125 7.179687 19.28125 16.039062 0 8.863281-8.640625 16.03125-19.28125 16.03125s-19.28125-7.167969-19.28125-16.03125c0-8.859375 8.628906-16.039062 19.28125-16.039062zm0 0" fill="#6fe3ff"/><g fill="#63316d"><path d="m48.421875 393.996094h.234375l140.960938-.800782c16.554687 53.757813 70.695312 86.640626 126.03125 76.542969 55.335937-10.101562 94.371093-59.992187 90.867187-116.128906-3.507813-56.140625-48.445313-100.785156-104.609375-103.921875l-.765625-139.671875-.007813-1.679687c-.003906-1.605469-.644531-3.140626-1.785156-4.269532l-103.339844-102.128906c-.984374-.96875-2.273437-1.570312-3.648437-1.699219l-2.121094-.2109372c-.203125-.0195313-.410156-.0273438-.617187-.0273438l-142.871094.691406c-25.773438.160156-46.5625 21.144532-46.480469 46.921875l1.441407 299.902344c.15625 25.695313 21.015624 46.453125 46.710937 46.480469zm346.308594-33.480469c-.007813 49.742187-36.921875 91.757813-86.25 98.171875s-95.757813-24.761719-108.488281-72.847656c-.015626-.066406-.03125-.121094-.039063-.152344-.015625-.0625-.03125-.125-.046875-.1875-7.699219-29.671875-1.230469-61.234375 17.511719-85.488281 18.746093-24.25 47.660156-38.464844 78.3125-38.496094h.199219c54.566406.191406 98.722656 44.433594 98.800781 99zm-113.925781-257.902344-48.054688.234375h-.171875c-19.089844-.027344-34.585937-15.449218-34.699219-34.539062l-.230468-47.875zm-268.535157-55.058593c-.0625-19.15625 15.386719-34.75 34.542969-34.871094l138.796875-.667969.273437 56.347656c.152344 25.695313 21.003907 46.449219 46.699219 46.480469h.234375l56.351563-.269531.746093 135.09375c-31.996093 1.703125-61.695312 17.136719-81.476562 42.339843-19.785156 25.203126-27.722656 57.722657-21.777344 89.207032l-138.066406.78125h-.175781c-19.09375-.023438-34.589844-15.449219-34.707031-34.542969zm0 0"/><path d="m165.589844 221.523438h-20.347656c-3.316407 0-6 2.6875-6 6 0 3.316406 2.683593 6 6 6h20.347656c3.316406 0 6-2.683594 6-6 0-3.3125-2.683594-6-6-6zm0 0"/><path d="m66.800781 182.636719h168.941407c3.3125 0 6-2.6875 6-6 0-3.316407-2.6875-6-6-6h-168.941407c-3.3125 0-6 2.683593-6 6 0 3.3125 2.6875 6 6 6zm0 0"/><path d="m66.800781 233.523438h52.660157c3.3125 0 6-2.683594 6-6 0-3.3125-2.6875-6-6-6h-52.660157c-3.3125 0-6 2.6875-6 6 0 3.316406 2.6875 6 6 6zm0 0"/><path d="m268.472656 329.085938v60.035156c-4.085937-2.183594-8.648437-3.320313-13.28125-3.300782-13.941406 0-25.28125 9.886719-25.28125 22.039063 0 12.15625 11.339844 22.03125 25.28125 22.03125 13.9375 0 25.28125-9.882813 25.28125-22.03125v-42.96875l69.078125-27.234375v28.839844c-4.085937-2.183594-8.648437-3.316406-13.28125-3.300782-13.9375 0-25.277343 9.890626-25.277343 22.042969 0 12.152344 11.339843 22.027344 25.277343 22.027344 13.941407 0 25.28125-9.882813 25.28125-22.027344v-88.113281c0-1.984375-.980469-3.84375-2.625-4.960938-1.640625-1.117187-3.726562-1.347656-5.574219-.621093l-81.082031 31.960937c-2.292969.902344-3.796875 3.117188-3.796875 5.582032zm-13.28125 88.808593c-7.199218 0-13.28125-4.59375-13.28125-10.03125 0-5.433593 6.082032-10.039062 13.28125-10.039062 7.199219 0 13.28125 4.601562 13.28125 10.039062 0 5.441407-6.082031 10.03125-13.28125 10.03125zm81.078125-22.628906c-7.199219 0-13.277343-4.59375-13.277343-10.03125s6.078124-10.039063 13.277343-10.039063 13.28125 4.601563 13.28125 10.039063c0 5.441406-6.082031 10.03125-13.28125 10.03125zm13.28125-89.324219v18.8125l-69.078125 27.238282v-18.816407zm0 0"/></g></svg>