<svg height="492pt" viewBox="-53 0 492 492.00003" width="492pt" xmlns="http://www.w3.org/2000/svg"><path d="m282.96875 147.148438c0-5.917969-5.769531-10.71875-12.890625-10.71875-7.117187 0-12.886719 4.800781-12.886719 10.71875 0 5.921874 5.769532 10.722656 12.886719 10.722656 7.121094 0 12.890625-4.800782 12.890625-10.722656zm-78.6875 174.652343-29.160156.140625c-8.933594.046875-17.515625-3.460937-23.863282-9.746094-6.34375-6.285156-9.929687-14.832031-9.96875-23.765624v-8.488282l30.921876-30.910156c10.140624-10.148438 10.140624-26.59375 0-36.742188l-6.132813-6.117187-25.089844 19.867187-.378906-79.488281-.507813-106.152343c-.09375-18.589844 14.90625-33.734376 33.5-33.820313l118.148438-.566406 1.601562.148437.25 51.410156c.089844 18.589844 15.238282 33.589844 33.828126 33.5l51.558593-.25.011719 1.25.941406 195.210938c.089844 18.59375-14.914062 33.742188-33.511718 33.828125zm24.46875-159.519531c0-5.921875-5.769531-10.722656-12.890625-10.722656s-12.890625 4.800781-12.890625 10.722656c0 5.917969 5.769531 10.730469 12.890625 10.730469s12.890625-4.8125 12.890625-10.730469zm0-31.472656 54.21875-21.367188v-21.210937l-54.21875 21.378906zm0 0" fill="#e48e66"/><path d="m378.988281 90.648438v.171874l-51.558593.25c-18.589844.089844-33.738282-14.910156-33.828126-33.5l-.25-51.410156.179688.019532zm0 0" fill="#f8ec7d"/><path d="m282.96875 88.230469v21.210937l-54.21875 21.367188v-21.199219zm0 0" fill="#f8ec7d"/><path d="m282.96875 147.148438c0-5.917969-5.769531-10.71875-12.890625-10.71875-7.117187 0-12.886719 4.800781-12.886719 10.71875 0 5.921874 5.769532 10.722656 12.886719 10.722656 7.121094 0 12.890625-4.800782 12.890625-10.722656zm0 0" fill="#f8ec7d"/><path d="m215.859375 151.558594c7.121094 0 12.890625 4.800781 12.890625 10.722656 0 5.917969-5.769531 10.730469-12.890625 10.730469s-12.890625-4.8125-12.890625-10.730469c0-5.921875 5.769531-10.722656 12.890625-10.722656zm0 0" fill="#f8ec7d"/><path d="m141.289062 279.941406v8.488282c.039063 8.933593 3.625 17.480468 9.96875 23.765624 6.347657 6.285157 14.929688 9.792969 23.863282 9.746094l29.160156-.140625v32.578125c-.007812 19.128906-15.515625 34.632813-34.640625 34.632813v25.128906h-135.070313v-166.8125c0-9.078125 3.566407-17.792969 9.929688-24.269531l96.070312-76.507813h.039063l.378906 79.488281 25.089844-19.867187 6.132813 6.117187c10.140624 10.148438 10.140624 26.59375 0 36.742188zm0 0" fill="#f7caa5"/><path d="m192.148438 424.140625v51.859375c0 5.523438-4.476563 10-10 10h-166.148438c-5.523438 0-10-4.476562-10-10v-51.859375c0-5.523437 4.476562-10 10-10h166.148438c2.65625-.003906 5.199218 1.050781 7.074218 2.925781s2.929688 4.421875 2.925782 7.074219zm-135.5 26.789063c-.234376-7.113282-6.148438-12.714844-13.265626-12.5625-7.117187.15625-12.785156 6.011718-12.710937 13.128906.078125 7.121094 5.871094 12.851562 12.988281 12.855468 7.292969-.121093 13.109375-6.128906 12.988282-13.421874zm0 0" fill="#f8ec7d"/><path d="m43.660156 437.511719c5.46875-.183594 10.5 2.96875 12.71875 7.972656 2.21875 5 1.183594 10.847656-2.621094 14.78125-3.804687 3.929687-9.613281 5.164063-14.683593 3.113281-5.074219-2.054687-8.394531-6.976562-8.394531-12.449218-.117188-7.289063 5.691406-13.292969 12.980468-13.417969zm0 0" fill="#6fe3ff"/><g fill="#63316d"><path d="m43.660156 470.351562c7.894532.179688 15.113282-4.4375 18.261719-11.679687 3.144531-7.242187 1.59375-15.671875-3.925781-21.320313-5.519532-5.644531-13.910156-7.390624-21.222656-4.410156-7.3125 2.980469-12.09375 10.089844-12.09375 17.988282-.105469 10.597656 8.382812 19.28125 18.980468 19.421874zm0-26.839843c3.042969-.1875 5.890625 1.503906 7.183594 4.261719 1.296875 2.761718.773438 6.03125-1.316406 8.25-2.085938 2.21875-5.320313 2.941406-8.152344 1.816406-2.835938-1.121094-4.695312-3.863282-4.695312-6.910156-.109376-3.972657 3.007812-7.289063 6.980468-7.417969zm0 0"/><path d="m384.988281 90.648438c0-1.601563-.640625-3.136719-1.78125-4.265626l-85.460937-84.46875c-.015625-.019531-.035156-.03125-.054688-.046874-1.316406-1.40625-3.234375-2.078126-5.136718-1.8085942l-.242188-.0234376c-.195312-.0195312-.394531-.0273437-.589844-.0234374l-118.152344.5664062c-21.90625.105469-39.578124 17.945313-39.46875 39.851563l.5 103.207031-93.835937 74.730469c-.1875.152343-.367187.3125-.539063.488281-7.492187 7.582031-11.679687 17.816406-11.65625 28.472656v160.8125h-12.570312c-8.832031.011719-15.9882812 7.167969-16 16v51.859375c.0117188 8.832031 7.167969 15.988281 16 16h166.148438c8.832031-.011719 15.992187-7.167969 16-16v-51.859375c-.007813-8.832031-7.167969-15.988281-16-16h-6.507813v-13.574219c19.890625-2.992187 34.609375-20.070312 34.640625-40.1875v-26.609375l136.179688-.660156c21.898437-.128906 39.558593-17.960937 39.480468-39.859375l-.941406-195.230469zm-20.363281-5.757813-37.222656.179687h-.140625c-15.222657-.003906-27.585938-12.304687-27.660157-27.527343l-.183593-37.101563zm-178.476562 339.25v51.859375c0 2.210938-1.789063 4-4 4h-166.148438c-2.210938 0-4-1.789062-4-4v-51.859375c0-2.210937 1.789062-4 4-4h166.148438c2.210937 0 4 1.789063 4 4zm12.132812-69.761719c-.023438 15.808594-12.832031 28.617188-28.640625 28.632813-3.3125 0-6 2.683593-6 6v19.128906h-123.070313v-160.8125c-.019531-7.386719 2.839844-14.492187 7.964844-19.8125l86.136719-68.59375.304687 64.226563-55.789062 44.175781c-1.6875 1.328125-2.539062 3.460937-2.230469 5.585937.3125 2.125 1.734375 3.925782 3.734375 4.714844 1.996094.789062 4.265625.449219 5.945313-.890625l78.984375-62.546875 2.347656 2.34375c7.785156 7.8125 7.785156 20.445312 0 28.253906l-36.738281 36.730469c-1.042969 1.042969-1.664063 2.429687-1.75 3.902344l-.457031 8.007812c-.007813.117188-.011719.230469-.011719.34375.011719 3.015625.367187 6.019531 1.066406 8.949219.691406 2.871094 1.671875 5.660156 2.933594 8.332031 6.023437 12.945313 4.890625 28.09375-2.992188 40-.65625.984375-1.007812 2.144531-1.007812 3.328125v17.308594c0 3.3125 2.6875 6 6 6s6-2.6875 6-6v-15.550781c7.15625-11.707031 9.515625-25.722657 6.582031-39.125 7.371094 7.046875 17.1875 10.964843 27.386719 10.929687h.171875l23.128906-.113281zm148.121094-39.269531-171.300782.832031h-.121093c-15.230469.019532-27.605469-12.28125-27.683594-27.511718v-6l29.164063-29.15625c12.460937-12.5 12.457031-32.726563-.007813-45.226563l-6.128906-6.121094c-2.152344-2.148437-5.578125-2.347656-7.964844-.457031l-15.425781 12.21875-.832032-173.316406c-.078124-15.277344 12.25-27.722656 27.527344-27.792969l113.75-.546875.222656 45.570312c.105469 21.828126 17.832032 39.464844 39.660157 39.46875h.199219l45.5625-.21875.917968 190.457032c.054688 15.277344-12.265625 27.714844-27.539062 27.800781zm0 0"/><path d="m330.019531 223.21875h-14.988281c-3.316406 0-6 2.6875-6 6 0 3.316406 2.683594 6 6 6h14.988281c3.3125 0 6-2.683594 6-6 0-3.3125-2.6875-6-6-6zm0 0"/><path d="m200.019531 235.21875h93.691407c3.3125 0 6-2.683594 6-6 0-3.3125-2.6875-6-6-6h-93.691407c-3.3125 0-6 2.6875-6 6 0 3.316406 2.6875 6 6 6zm0 0"/><path d="m330.019531 192.039062h-82.160156c-3.3125 0-6 2.6875-6 6 0 3.316407 2.6875 6 6 6h82.160156c3.3125 0 6-2.683593 6-6 0-3.3125-2.6875-6-6-6zm0 0"/><path d="m200.019531 204.039062h26.910157c3.3125 0 6-2.683593 6-6 0-3.3125-2.6875-6-6-6h-26.910157c-3.3125 0-6 2.6875-6 6 0 3.316407 2.6875 6 6 6zm0 0"/><path d="m330.019531 253.21875h-54.988281c-3.316406 0-6 2.6875-6 6 0 3.316406 2.683594 6 6 6h54.988281c3.3125 0 6-2.683594 6-6 0-3.3125-2.6875-6-6-6zm0 0"/><path d="m253.710938 253.21875h-53.691407c-3.3125 0-6 2.6875-6 6 0 3.316406 2.6875 6 6 6h53.691407c3.3125 0 6-2.683594 6-6 0-3.3125-2.6875-6-6-6zm0 0"/><path d="m215.859375 179.011719c10.167969 0 18.460937-7.15625 18.855469-16.074219.023437-.21875.035156-.4375.035156-.65625v-27.386719l42.21875-16.640625v13.347656c-2.214844-.773437-4.542969-1.167968-6.890625-1.167968-10.414063 0-18.886719 7.5-18.886719 16.71875s8.472656 16.71875 18.886719 16.71875c10.167969 0 18.460937-7.148438 18.855469-16.0625.023437-.21875.035156-.4375.035156-.65625v-58.921875c0-1.984375-.980469-3.84375-2.621094-4.960938-1.644531-1.117187-3.730468-1.347656-5.578125-.621093l-54.21875 21.378906c-2.292969.90625-3.800781 3.117187-3.800781 5.582031v37.117187c-2.214844-.773437-4.542969-1.167968-6.890625-1.167968-10.414063 0-18.890625 7.5-18.890625 16.722656 0 9.21875 8.476562 16.730469 18.890625 16.730469zm54.21875-27.140625c-3.667969 0-6.886719-2.207032-6.886719-4.722656 0-2.511719 3.21875-4.71875 6.886719-4.71875 3.671875 0 6.890625 2.207031 6.890625 4.71875 0 2.515624-3.21875 4.722656-6.890625 4.722656zm6.890625-54.824219v8.308594l-42.21875 16.644531v-8.300781zm-61.109375 60.511719c3.671875 0 6.890625 2.207031 6.890625 4.722656 0 2.511719-3.21875 4.730469-6.890625 4.730469s-6.890625-2.210938-6.890625-4.730469 3.222656-4.722656 6.890625-4.722656zm0 0"/></g></svg>