<svg height="392pt" viewBox="0 -8 392 392" width="392pt" xmlns="http://www.w3.org/2000/svg"><path d="m306 259.488281c0-10.367187-10.101562-18.769531-22.558594-18.769531-12.460937 0-22.5625 8.402344-22.5625 18.769531 0 10.371094 10.101563 18.761719 22.5625 18.761719 12.457032 0 22.558594-8.398438 22.558594-18.761719zm-94.878906 40.480469c0-10.359375-10.101563-18.769531-22.5625-18.769531-12.457032 0-22.558594 8.410156-22.558594 18.769531s10.101562 18.761719 22.558594 18.761719c12.460937 0 22.5625-8.402344 22.5625-18.761719zm0-83.070312 94.878906-23.410157v-37.097656l-94.878906 23.398437zm174.878906-68.449219v178.222656c0 23.445313-19.011719 42.453125-42.460938 42.449219h-290.609374c23.449218.003906 42.460937-19.003906 42.460937-42.449219v-178.222656c-.003906-23.445313 19.003906-42.453125 42.449219-42.449219h205.699218c23.449219-.003906 42.460938 19 42.460938 42.449219zm0 0" fill="#e48e66"/><path d="m333.929688 97.351562v8.648438h-196.089844c-23.445313-.003906-42.453125 19.003906-42.449219 42.449219v178.222656c0 23.445313-19.011719 42.453125-42.460937 42.449219h-4.46875c-23.449219.003906-42.460938-19.003906-42.460938-42.449219v-278.222656c0-23.449219 19.011719-42.453125 42.460938-42.449219h95.25c11.921874 0 23.292968 5.011719 31.339843 13.808594l28.910157 31.632812c2.011718 2.199219 4.855468 3.457032 7.839843 3.457032h79.667969c23.449219-.003907 42.460938 19.003906 42.460938 42.453124zm0 0" fill="#6fe3ff"/><g fill="#f8ec7d"><path d="m306 156.390625v37.097656l-94.878906 23.410157v-37.109376zm0 0"/><path d="m283.441406 240.71875c12.457032 0 22.558594 8.402344 22.558594 18.769531 0 10.371094-10.101562 18.761719-22.558594 18.761719-12.460937 0-22.5625-8.398438-22.5625-18.761719 0-10.359375 10.101563-18.769531 22.5625-18.769531zm0 0"/><path d="m188.558594 281.199219c12.460937 0 22.5625 8.410156 22.5625 18.769531s-10.101563 18.761719-22.5625 18.761719c-12.457032 0-22.558594-8.402344-22.558594-18.761719s10.101562-18.769531 22.558594-18.769531zm0 0"/></g><path d="m343.539062 100h-3.609374v-2.648438c-.03125-26.75-21.710938-48.425781-48.460938-48.453124h-79.667969c-1.300781 0-2.535156-.546876-3.410156-1.507813l-28.910156-31.628906c-9.191407-10.035157-22.167969-15.7500002-35.769531-15.761719h-95.25c-26.75.0273438-48.429688 21.703125-48.460938 48.449219v278.222656c.03125 26.746094 21.710938 48.421875 48.460938 48.449219h295.078124c26.75-.027344 48.429688-21.703125 48.460938-48.449219v-178.222656c-.03125-26.746094-21.710938-48.421875-48.460938-48.449219zm-290.609374 263.121094h-4.46875c-20.125-.023438-36.433594-16.328125-36.460938-36.449219v-278.222656c.027344-20.121094 16.335938-36.425781 36.460938-36.449219h95.25c10.234374.007812 19.996093 4.3125 26.910156 11.859375l28.910156 31.628906c3.148438 3.445313 7.601562 5.40625 12.269531 5.414063h79.667969c20.125.023437 36.433594 16.328125 36.460938 36.449218v2.652344h-190.089844c-26.746094.027344-48.421875 21.703125-48.449219 48.449219v178.21875c-.027344 20.121094-16.335937 36.425781-36.460937 36.449219zm327.070312-36.449219c-.027344 20.121094-16.335938 36.425781-36.460938 36.449219h-258.71875c10.53125-9.1875 16.574219-22.476563 16.570313-36.449219v-178.222656c.023437-20.121094 16.328125-36.425781 36.449219-36.449219h205.699218c20.125.023438 36.433594 16.328125 36.460938 36.449219zm0 0" fill="#63316d"/><path d="m309.699219 151.664062c-1.453125-1.132812-3.347657-1.539062-5.136719-1.097656l-94.878906 23.398438c-2.679688.660156-4.5625 3.066406-4.5625 5.824218v100.019532c-4.984375-3.046875-10.71875-4.640625-16.5625-4.609375-15.746094 0-28.558594 11.113281-28.558594 24.769531 0 13.660156 12.8125 24.761719 28.558594 24.761719 15.75 0 28.5625-11.109375 28.5625-24.761719v-78.371094l82.878906-20.449218v38.179687c-4.984375-3.042969-10.71875-4.640625-16.558594-4.609375-15.75 0-28.5625 11.113281-28.5625 24.769531 0 13.660157 12.8125 24.761719 28.5625 24.761719 15.746094 0 28.558594-11.105469 28.558594-24.761719v-103.097656c0-1.84375-.847656-3.585937-2.300781-4.726563zm-121.140625 161.066407c-9.128906 0-16.558594-5.722657-16.558594-12.761719 0-7.035156 7.429688-12.769531 16.558594-12.769531 9.132812 0 16.5625 5.730469 16.5625 12.769531 0 7.042969-7.429688 12.761719-16.5625 12.761719zm28.5625-103.492188v-24.746093l82.878906-20.441407v24.738281zm66.320312 63.011719c-9.132812 0-16.5625-5.722656-16.5625-12.761719 0-7.035156 7.429688-12.769531 16.5625-12.769531 9.128906 0 16.558594 5.730469 16.558594 12.769531 0 7.042969-7.429688 12.761719-16.558594 12.761719zm0 0" fill="#63316d"/></svg>