<svg height="451pt" viewBox="0 -1 451.5837 451" width="451pt" xmlns="http://www.w3.org/2000/svg"><path d="m265.671875 350.300781c2.097656-48.128906 41.730469-86.070312 89.90625-86.070312 3.464844 0 6.921875.199219 10.363281.589843 48.035156 5.566407 83.085938 48.101563 79.371094 96.316407-3.710938 48.214843-44.863281 84.875-93.1875 83.019531s-86.539062-41.566406-86.546875-89.925781c0-1.320313.03125-2.628907.09375-3.929688zm0 0" fill="#6fe3ff"/><path d="m201.078125 248.171875c0-8.75-7.097656-15.84375-15.847656-15.839844-8.75.003907-15.84375 7.097657-15.839844 15.851563.003906 8.75 7.097656 15.839844 15.847656 15.839844 8.753907-.003907 15.84375-7.101563 15.839844-15.851563zm68.171875 7.96875c-1.132812-8.46875-8.777344-14.511719-17.28125-13.65625-8.5.851563-14.792969 8.292969-14.222656 16.816406.574218 8.527344 7.800781 15.0625 16.339844 14.773438 8.539062-.289063 15.308593-7.296875 15.304687-15.84375 0-.699219-.046875-1.394531-.140625-2.089844zm0-56.609375v-20.648438c0-2.066406-.929688-4.027343-2.53125-5.335937-1.597656-1.304687-3.703125-1.828125-5.730469-1.414063l-54.386719 11.019532c-3.214843.648437-5.523437 3.472656-5.523437 6.75v23.429687zm96.75-58.28125v123.050781l-.058594.519531c-3.441406-.390624-6.898437-.589843-10.363281-.589843-48.175781 0-87.808594 37.941406-89.90625 86.070312h-215.222656c22.21875.007813 40.230469-18 40.230469-40.21875v-168.832031c0-22.210938 18.007812-40.21875 40.21875-40.21875h194.871093c22.21875-.003906 40.230469 18.003906 40.230469 40.21875zm0 0" fill="#f8ec7d"/><g fill="#cc7350"><path d="m316.671875 92.84375v8.1875h-185.773437c-22.210938 0-40.21875 18.007812-40.21875 40.21875v168.832031c0 22.21875-18.011719 40.226563-40.230469 40.21875h-4.230469c-22.214844.007813-40.222656-18.003906-40.21875-40.21875v-263.570312c0-22.214844 18.007812-40.222657 40.21875-40.21875h90.242188c11.292968 0 22.070312 4.75 29.6875 13.089843l27.390624 29.960938c1.902344 2.085938 4.597657 3.273438 7.421876 3.269531h75.488281c22.214843 0 40.222656 18.011719 40.222656 40.230469zm0 0"/><path d="m269.25 256.140625c.871094 6.542969-2.40625 12.933594-8.21875 16.050781-5.816406 3.117188-12.953125 2.300782-17.917969-2.046875-4.960937-4.34375-6.710937-11.3125-4.390625-17.488281 2.324219-6.175781 8.230469-10.265625 14.828125-10.265625 7.921875.046875 14.609375 5.90625 15.699219 13.75zm0 0"/><path d="m269.25 178.882812v20.648438l-68.171875 13.800781v-23.429687c0-3.277344 2.308594-6.101563 5.523437-6.75l54.386719-11.019532c2.027344-.414062 4.132813.109376 5.730469 1.414063 1.601562 1.308594 2.53125 3.269531 2.53125 5.335937zm0 0"/><path d="m185.238281 232.332031c8.753907.003907 15.84375 7.097657 15.839844 15.851563 0 8.75-7.097656 15.839844-15.847656 15.839844-8.75-.003907-15.84375-7.101563-15.839844-15.851563 0-8.75 7.097656-15.84375 15.847656-15.839844zm0 0"/></g><path d="m372 259.648438v-118.398438c-.03125-25.515625-20.710938-46.191406-46.230469-46.21875h-3.097656v-2.1875c-.027344-25.519531-20.703125-46.199219-46.222656-46.230469h-75.488281c-1.140626 0-2.226563-.476562-2.992188-1.320312l-27.390625-29.957031c-8.761719-9.574219-21.140625-15.03125-34.117187-15.042969h-90.242188c-25.511719.027343-46.1914062 20.703125-46.21875 46.21875v263.570312c.0273438 25.515625 20.707031 46.191407 46.21875 46.21875h213.386719c1.089843 50.609375 41.289062 91.671875 91.859375 93.84375 50.570312 2.171875 94.140625-35.296875 99.566406-85.621093 5.425781-50.328126-29.160156-96.222657-79.03125-104.875zm-325.78125 84.652343c-18.890625-.019531-34.195312-15.328125-34.21875-34.21875v-263.570312c.023438-18.890625 15.328125-34.199219 34.21875-34.21875h90.242188c9.609374.007812 18.773437 4.050781 25.261718 11.136719l27.378906 29.949218c3.039063 3.332032 7.34375 5.234375 11.859376 5.234375h75.488281c18.894531.023438 34.203125 15.335938 34.222656 34.230469v2.1875h-179.773437c-25.511719.027344-46.191407 20.707031-46.21875 46.21875v168.832031c-.023438 18.894531-15.335938 34.203125-34.230469 34.21875zm50.460938-34.21875v-168.832031c.023437-18.886719 15.328124-34.195312 34.21875-34.21875h194.871093c18.894531.019531 34.207031 15.328125 34.230469 34.21875v117.09375c-1.472656-.070312-2.949219-.113281-4.421875-.113281-49.21875-.117188-90.511719 37.101562-95.480469 86.070312h-178.609375c9.675781-8.742187 15.195313-21.175781 15.191407-34.21875zm258.898437 128.148438c-46.367187-.054688-83.941406-37.628907-84-84 0-1.226563.03125-2.453125.085937-3.652344v-.019531c1.851563-44.96875 38.90625-80.441406 83.914063-80.328125 3.234375 0 6.464844.183593 9.679687.550781 44.242188 5.09375 76.824219 43.832031 74.253907 88.296875-2.570313 44.460937-39.394531 79.191406-83.933594 79.152344zm0 0" fill="#63316d"/><path d="m405.578125 348.230469h-44v-44c0-3.3125-2.683594-6-6-6-3.3125 0-6 2.6875-6 6v44h-44c-3.3125 0-6 2.6875-6 6 0 3.316406 2.6875 6 6 6h44v44c0 3.316406 2.6875 6 6 6 3.316406 0 6-2.683594 6-6v-44h44c3.316406 0 6-2.683594 6-6 0-3.3125-2.683594-6-6-6zm0 0" fill="#63316d"/><path d="m275.390625 258.230469c-.003906-.785157-.050781-1.574219-.140625-2.355469v-76.992188c0-3.867187-1.738281-7.53125-4.730469-9.980468-2.996093-2.445313-6.929687-3.417969-10.71875-2.652344l-54.390625 11.019531c-6 1.234375-10.316406 6.507813-10.332031 12.632813v38.78125c-8.722656-4.402344-19.308594-2.472656-25.921875 4.722656-6.609375 7.195312-7.636719 17.90625-2.511719 26.226562 5.121094 8.320313 15.148438 12.226563 24.550781 9.5625 9.402344-2.667968 15.890626-11.25 15.882813-21.023437v-29.933594l56.171875-11.371093v31.816406c-8.742188-4.332032-19.292969-2.339844-25.855469 4.878906-6.558593 7.21875-7.535156 17.914062-2.390625 26.203125 5.148438 8.285156 15.167969 12.15625 24.546875 9.476563 9.378907-2.679688 15.847657-11.253907 15.839844-21.011719zm-90.152344-.207031c-5.433593 0-9.84375-4.40625-9.847656-9.839844-.003906-5.4375 4.402344-9.847656 9.839844-9.851563 5.4375-.003906 9.847656 4.402344 9.847656 9.839844-.003906 5.433594-4.40625 9.835937-9.839844 9.851563zm21.839844-52.027344v-16.09375c.003906-.421875.300781-.785156.710937-.871094l54.402344-11.019531c.261719-.050781.53125.015625.734375.183593.207031.167969.328125.421876.328125.6875v15.742188zm36.632813 52.234375c-.007813-5.125 3.925781-9.394531 9.035156-9.8125 5.109375-.414063 9.679687 3.160156 10.503906 8.222656v1.296875c0 .359375.035156.71875.101562 1.070312-.40625 5.273438-4.914062 9.285157-10.199218 9.074219-5.285156-.210937-9.457032-4.5625-9.441406-9.851562zm0 0" fill="#63316d"/></svg>