<svg height="441pt" viewBox="0 -5 441.56197 441" width="441pt" xmlns="http://www.w3.org/2000/svg"><path d="m366 290.199219c9.050781-4.789063 18.089844-7.308594 26.488281-7.308594 21.070313 0 37.320313 14.851563 41.933594 37.710937 6.617187 34.109376-14.441406 79.648438-76.832031 104.917969-1.285156.535157-2.734375.535157-4.019532 0-45.429687-18.027343-69.03125-47.296875-75.859374-75.230469-2.449219-9.710937-2.78125-19.835937-.972657-29.6875 4.421875-23.269531 20.660157-38.109374 41.730469-38.109374 11.832031 0 24.472656 4.808593 37.109375 14.238281 3.320313-2.414063 6.800781-4.59375 10.421875-6.53125zm0 0" fill="#6fe3ff"/><path d="m201.078125 248.160156c.003906-8.75-7.089844-15.847656-15.839844-15.847656-8.753906-.003906-15.847656 7.09375-15.847656 15.84375 0 8.753906 7.097656 15.847656 15.847656 15.84375 8.746094-.007812 15.835938-7.09375 15.839844-15.839844zm68.171875-48.648437v-20.652344c-.003906-2.066406-.929688-4.023437-2.53125-5.328125-1.601562-1.308594-3.703125-1.828125-5.730469-1.421875l-54.386719 11.023437c-3.214843.648438-5.523437 3.472657-5.523437 6.75v23.4375zm0 56.609375c-1.132812-8.46875-8.777344-14.511719-17.28125-13.660156-8.5.855468-14.792969 8.296874-14.222656 16.820312.574218 8.523438 7.800781 15.058594 16.339844 14.769531 8.539062-.289062 15.308593-7.296875 15.304687-15.839843 0-.699219-.046875-1.398438-.140625-2.089844zm96.75-114.878906v148.957031c-3.621094 1.9375-7.101562 4.117187-10.421875 6.53125-12.636719-9.429688-25.277344-14.238281-37.109375-14.238281-21.070312 0-37.308594 14.839843-41.730469 38.109374-1.808593 9.851563-1.476562 19.976563.972657 29.6875h-227.261719c22.21875.007813 40.230469-18 40.230469-40.21875v-168.828124c0-22.214844 18.007812-40.222657 40.21875-40.222657h194.871093c22.21875-.003906 40.230469 18.003907 40.230469 40.222657zm0 0" fill="#e48e66"/><g fill="#f8ec7d"><path d="m316.671875 92.832031v8.1875h-185.773437c-22.210938 0-40.21875 18.007813-40.21875 40.222657v168.828124c0 22.21875-18.011719 40.226563-40.230469 40.21875h-4.230469c-22.214844.007813-40.222656-18.003906-40.21875-40.21875v-263.570312c0-22.210938 18.007812-40.21875 40.21875-40.21875h90.242188c11.292968 0 22.070312 4.75 29.6875 13.089844l27.390624 29.960937c1.902344 2.085938 4.597657 3.273438 7.421876 3.269531h75.488281c22.214843.003907 40.222656 18.015626 40.222656 40.230469zm0 0"/><path d="m269.25 256.121094c.871094 6.539062-2.40625 12.933594-8.21875 16.050781-5.816406 3.113281-12.953125 2.300781-17.917969-2.046875-4.960937-4.347656-6.710937-11.3125-4.390625-17.488281 2.324219-6.175781 8.230469-10.265625 14.828125-10.265625 7.921875.046875 14.609375 5.902344 15.699219 13.75zm0 0"/><path d="m269.25 178.859375v20.652344l-68.171875 13.808593v-23.4375c0-3.277343 2.308594-6.101562 5.523437-6.75l54.386719-11.023437c2.027344-.40625 4.128907.113281 5.730469 1.421875 1.601562 1.304688 2.527344 3.261719 2.53125 5.328125zm0 0"/><path d="m185.238281 232.3125c8.75 0 15.84375 7.09375 15.839844 15.84375 0 8.75-7.09375 15.84375-15.839844 15.84375-8.75 0-15.84375-7.089844-15.847656-15.839844 0-8.753906 7.097656-15.847656 15.847656-15.847656zm0 0"/></g><path d="m46.21875 356.289062h226.933594c9.648437 31.710938 37.859375 58.800782 78.199218 74.808594.113282.042969.226563.085938.339844.125 1.25.433594 2.558594.671875 3.882813.699219 1.332031-.03125 2.652343-.273437 3.910156-.710937.117187-.039063.238281-.082032.351563-.128907 65.410156-26.492187 87.546874-75.152343 80.460937-111.667969-5.210937-25.832031-23.976563-42.523437-47.8125-42.523437-7.015625.078125-13.960937 1.433594-20.488281 4.007813v-139.65625c-.03125-25.519532-20.714844-46.195313-46.230469-46.222657h-3.101563v-2.1875c-.023437-25.515625-20.699218-46.195312-46.214843-46.230469h-75.488281c-1.140626 0-2.226563-.476562-2.992188-1.316406l-27.390625-29.960937c-8.761719-9.574219-21.140625-15.03125-34.117187-15.042969h-90.242188c-25.511719.027344-46.1914062 20.703125-46.21875 46.21875v263.570312c.0273438 25.515626 20.707031 46.191407 46.21875 46.21875zm382.3125-34.542968c8.503906 43.832031-30.472656 80.832031-72.953125 98.117187-38.5-15.335937-64.753906-41.203125-72.039063-70.996093-2.253906-8.878907-2.5625-18.136719-.902343-27.144532 3.894531-20.5 17.625-33.230468 35.835937-33.230468 10.488282 0 22.078125 4.511718 33.523438 13.046874 2.101562 1.570313 4.984375 1.589844 7.109375.050782 3.089843-2.25 6.332031-4.28125 9.703125-6.085938 8.171875-4.328125 16.363281-6.613281 23.683594-6.613281 18.140624 0 31.953124 12.609375 36.039062 32.855469zm-102.761719-214.726563c18.894531.019531 34.207031 15.328125 34.230469 34.222657v145.445312c-1.460938.855469-2.917969 1.757812-4.363281 2.710938-12.539063-8.570313-25.027344-12.90625-37.167969-12.90625-23.96875 0-42.660156 16.875-47.621094 42.980468-1.539062 8.191406-1.675781 16.582032-.410156 24.816406h-188.949219c9.675781-8.742187 15.195313-21.175781 15.1875-34.21875v-168.828124c.023438-18.890626 15.332031-34.199219 34.222657-34.222657zm-313.769531-60.519531c.023438-18.890625 15.328125-34.199219 34.21875-34.21875h90.242188c9.609374.011719 18.773437 4.050781 25.261718 11.136719l27.378906 29.949219c3.042969 3.335937 7.347657 5.234374 11.859376 5.234374h75.488281c18.894531.023438 34.203125 15.335938 34.222656 34.230469v2.1875h-179.773437c-25.511719.03125-46.191407 20.707031-46.21875 46.222657v168.828124c-.023438 18.894532-15.335938 34.203126-34.230469 34.21875h-4.230469c-18.890625-.019531-34.195312-15.328124-34.21875-34.21875zm0 0" fill="#63316d"/><path d="m185.238281 270c12.058594-.011719 21.828125-9.78125 21.839844-21.839844v-29.933594l56.171875-11.378906v31.8125c-8.742188-4.332031-19.292969-2.339844-25.855469 4.882813-6.558593 7.21875-7.535156 17.914062-2.390625 26.203125 5.148438 8.285156 15.167969 12.152344 24.546875 9.476562 9.378907-2.679687 15.847657-11.257812 15.839844-21.011718-.003906-.789063-.050781-1.574219-.140625-2.359376v-76.992187c-.003906-3.863281-1.738281-7.527344-4.734375-9.972656-2.992187-2.449219-6.925781-3.421875-10.714844-2.65625l-54.390625 11.019531c-6 1.230469-10.316406 6.503906-10.332031 12.632812v38.78125c-8.0625-4.074218-17.800781-2.761718-24.503906 3.296876-6.699219 6.0625-8.972657 15.625-5.722657 24.054687s11.351563 13.988281 20.386719 13.984375zm68.3125-1.9375c-5.230469.007812-9.554687-4.078125-9.84375-9.300781-.289062-5.222657 3.554688-9.761719 8.753907-10.332031 5.203124-.570313 9.9375 3.027343 10.789062 8.1875v.300781h.054688c.054687.425781.085937.859375.085937 1.289062 0 5.4375-4.40625 9.84375-9.839844 9.855469zm-45.761719-79.050781 54.382813-11.019531c.265625-.058594.546875.011718.753906.1875.207031.164062.328125.414062.324219.679687v15.742187l-56.171875 11.378907v-16.101563c0-.421875.296875-.785156.710937-.867187zm-22.550781 49.300781c5.4375.003906 9.839844 4.410156 9.839844 9.847656 0 5.433594-4.40625 9.839844-9.84375 9.84375-5.433594 0-9.84375-4.40625-9.84375-9.84375s4.410156-9.847656 9.847656-9.847656zm0 0" fill="#63316d"/></svg>