<svg height="440pt" viewBox="0 -16 440.50949 440" width="440pt" xmlns="http://www.w3.org/2000/svg"><path d="m317.269531 324.324219c0-8.746094-7.089843-15.839844-15.839843-15.839844-8.746094 0-15.839844 7.09375-15.839844 15.839844 0 8.75 7.09375 15.839843 15.839844 15.839843 8.746093-.003906 15.835937-7.09375 15.839843-15.839843zm48.730469-114.300781c49.179688 15.847656 77.890625 66.855468 65.929688 117.121093-11.964844 50.265625-60.578126 82.871094-111.621094 74.863281-51.046875-8.007812-87.34375-53.929687-83.339844-105.445312 4-51.511719 46.953125-91.28125 98.621094-91.308594 10.324218-.003906 20.585937 1.605469 30.410156 4.769532zm19.441406 122.191406c-1.171875-8.453125-8.832031-14.457032-17.320312-13.578125-8.488282.882812-14.753906 8.332031-14.164063 16.84375.585938 8.515625 7.816407 15.03125 16.34375 14.734375 8.53125-.292969 15.292969-7.296875 15.289063-15.832032 0-.722656-.050782-1.449218-.148438-2.167968zm0-56.539063v-20.652343c-.003906-2.0625-.929687-4.019532-2.527344-5.328126-1.597656-1.304687-3.699218-1.828124-5.722656-1.421874l-54.402344 11.019531c-3.210937.652343-5.519531 3.476562-5.519531 6.75v23.441406zm0 0" fill="#6fe3ff"/><path d="m385.441406 332.214844c.097656.71875.148438 1.445312.148438 2.167968.003906 8.546876-6.765625 15.558594-15.304688 15.855469-8.542968.296875-15.78125-6.230469-16.371094-14.753906-.585937-8.523437 5.683594-15.984375 14.183594-16.863281 8.5-.882813 16.167969 5.128906 17.34375 13.59375zm0 0" fill="#f8ec7d"/><path d="m385.441406 255.023438v20.652343l-68.171875 13.808594v-23.441406c0-3.273438 2.308594-6.097657 5.519531-6.75l54.402344-11.019531c2.023438-.40625 4.125.117187 5.722656 1.421874 1.597657 1.308594 2.523438 3.265626 2.527344 5.328126zm0 0" fill="#f8ec7d"/><path d="m366 141.214844v68.808594c-38.273438-12.339844-80.207031-.292969-106.09375 30.476562-25.890625 30.769531-30.582031 74.148438-11.875 109.746094l-.03125.019531h-197.550781c22.21875.003906 40.230469-18.003906 40.230469-40.222656v-168.828125c0-22.214844 18.007812-40.222656 40.21875-40.21875h194.871093c22.21875-.007813 40.230469 18 40.230469 40.21875zm0 0" fill="#e48e66"/><path d="m316.671875 92.804688v8.191406h-185.773437c-22.210938-.003906-40.21875 18.003906-40.21875 40.21875v168.828125c0 22.21875-18.011719 40.226562-40.230469 40.222656h-4.230469c-22.214844.003906-40.222656-18.007813-40.21875-40.222656v-263.566407c0-22.214843 18.007812-40.222656 40.21875-40.222656h90.242188c11.292968 0 22.070312 4.753906 29.6875 13.089844l27.390624 29.960938c1.902344 2.085937 4.597657 3.273437 7.421876 3.269531h75.488281c22.214843.003906 40.222656 18.015625 40.222656 40.230469zm0 0" fill="#f8ec7d"/><path d="m301.429688 308.476562c8.75-.003906 15.847656 7.085938 15.851562 15.839844 0 8.75-7.089844 15.84375-15.839844 15.847656-8.753906.003907-15.847656-7.089843-15.851562-15.839843s7.089844-15.847657 15.839844-15.847657zm0 0" fill="#f8ec7d"/><g fill="#63316d"><path d="m46.21875 356.265625h198.273438c23.011718 40.226563 69.683593 60.59375 114.824218 50.109375 45.144532-10.484375 78.058594-49.339844 80.984375-95.589844 2.921875-46.253906-24.839843-88.945312-68.300781-105.03125v-64.539062c-.03125-25.519532-20.710938-46.195313-46.230469-46.21875h-3.097656v-2.191406c-.027344-25.515626-20.703125-46.199219-46.222656-46.230469h-75.488281c-1.140626.003906-2.226563-.476563-2.992188-1.320313l-27.390625-29.957031c-8.761719-9.574219-21.140625-15.027344-34.117187-15.042969h-90.242188c-25.511719.03125-46.1914062 20.707032-46.21875 46.222656v263.566407c.0273438 25.515625 20.707031 46.191406 46.21875 46.222656zm382.292969-52.082031c-.007813 42.738281-29.160157 79.964844-70.652344 90.210937-41.488281 10.246094-84.621094-9.125-104.519531-46.945312-17.992188-34.183594-12.960938-75.929688 12.632812-104.859375 25.59375-28.933594 66.417969-39.015625 102.539063-25.324219 36.117187 13.6875 60.007812 48.292969 60 86.917969zm-102.742188-197.1875c18.894531.015625 34.207031 15.324218 34.230469 34.21875v60.898437c-38.347656-9.148437-78.585938 3.957031-104.1875 33.9375-25.597656 29.976563-32.242188 71.773438-17.199219 108.214844h-157.121093c9.675781-8.746094 15.191406-21.179687 15.1875-34.222656v-168.828125c.023437-18.890625 15.328124-34.199219 34.21875-34.21875zm-313.769531-60.519532c.023438-18.890624 15.328125-34.199218 34.21875-34.222656h90.242188c9.609374.011719 18.773437 4.050782 25.261718 11.140625l27.378906 29.945313c3.039063 3.335937 7.34375 5.234375 11.859376 5.234375h75.488281c18.894531.023437 34.203125 15.335937 34.222656 34.230469v2.191406h-179.773437c-25.511719.027344-46.191407 20.703125-46.21875 46.21875v168.828125c-.023438 18.894531-15.335938 34.203125-34.230469 34.222656h-4.230469c-18.890625-.023437-34.195312-15.332031-34.21875-34.222656zm0 0"/><path d="m311.269531 266.042969v38.785156c-8.722656-4.402344-19.308593-2.476563-25.917969 4.71875-6.613281 7.195313-7.644531 17.902344-2.523437 26.226563 5.121094 8.320312 15.148437 12.226562 24.546875 9.566406 9.402344-2.660156 15.894531-11.242188 15.894531-21.011719v-29.9375l56.171875-11.378906v31.820312c-9.007812-4.507812-19.925781-2.320312-26.5 5.308594-6.574218 7.628906-7.128906 18.75-1.34375 26.992187 5.785156 8.242188 16.429688 11.503907 25.839844 7.914063s15.179688-13.113281 14.003906-23.113281v-76.910156c-.003906-3.863282-1.738281-7.523438-4.730468-9.972657-2.992188-2.445312-6.921876-3.421875-10.710938-2.65625l-54.402344 11.019531c-6 1.230469-10.3125 6.503907-10.328125 12.628907zm-9.839843 68.121093c-5.4375.003907-9.847657-4.402343-9.851563-9.84375 0-5.4375 4.410156-9.847656 9.847656-9.84375 5.4375 0 9.847657 4.410157 9.84375 9.847657-.003906 5.433593-4.40625 9.835937-9.839843 9.839843zm68.308593 10.0625c-5.222656 0-9.539062-4.074218-9.835937-9.292968-.292969-5.214844 3.539062-9.753906 8.730468-10.335938 5.191407-.585937 9.933594 2.984375 10.808594 8.136719v1.351563c0 .375.035156.75.105469 1.121093-.433594 5.09375-4.691406 9.011719-9.808594 9.019531zm-45.757812-79.050781 54.402343-11.019531c.257813-.050781.527344.015625.734376.183594.207031.167968.324218.417968.328124.683594v15.746093l-56.171874 11.378907v-16.101563c0-.421875.296874-.785156.707031-.871094zm0 0"/></g></svg>