<svg height="472pt" viewBox="-50 0 472 472.25646" width="472pt" xmlns="http://www.w3.org/2000/svg"><path d="m215.6875 6.117188c115.179688 4.140624 185.660156 128.609374 132.300781 230.769531 0 0-18.199219 44.960937-19.96875 63.960937-6 64.4375 0 165.410156 0 165.410156h-151.78125v-56.621093c-2.738281-10.890625-12.550781-18.507813-23.78125-18.460938-19.417969.082031-47.027343.210938-49.707031.289063-10.214844.300781-20.117188-3.546875-27.445312-10.667969-7.332032-7.117187-11.46875-16.902344-11.464844-27.121094v-55.839843h-50.152344c-2.484375.003906-4.816406-1.21875-6.226562-3.265626-1.414063-2.046874-1.726563-4.660156-.84375-6.984374l32.640624-85.5s.082032-32.230469.269532-35.328126c4.996094-90.929687 80.722656-161.792968 171.78125-160.75 1.460937.019532 2.929687.046876 4.378906.109376zm108.511719 139.109374c0-60.371093-48.941407-109.308593-109.308594-109.308593-60.371094 0-109.3125 48.9375-109.3125 109.308593 0 60.371094 48.941406 109.308594 109.3125 109.308594 60.367187 0 109.308594-48.9375 109.308594-109.308594zm0 0" fill="#e48e66"/><path d="m281.328125 172.566406c-1.503906-11.015625-11.472656-18.851562-22.535156-17.714844-11.058594 1.136719-19.226563 10.835938-18.457031 21.929688.765624 11.089844 10.1875 19.578125 21.296874 19.183594 11.113282-.394532 19.910157-9.53125 19.886719-20.648438 0-.921875-.0625-1.839844-.191406-2.75zm-91.757813 14c-.003906-11.40625-9.25-20.652344-20.65625-20.648437-11.40625 0-20.652343 9.246093-20.65625 20.652343 0 11.40625 9.246094 20.652344 20.652344 20.65625 11.410156 0 20.660156-9.25 20.660156-20.660156zm0-62.21875 91.757813-18v-14.140625c0-2.695312-1.210937-5.246093-3.296875-6.953125-2.089844-1.707031-4.832031-2.382812-7.472656-1.847656l-73.789063 14.371094c-4.1875.847656-7.199219 4.527344-7.199219 8.800781zm25.320313-88.429687c60.367187 0 109.308594 48.9375 109.308594 109.308593 0 60.371094-48.941407 109.308594-109.308594 109.308594-60.371094 0-109.3125-48.9375-109.3125-109.308594 0-60.371093 48.941406-109.308593 109.3125-109.308593zm0 0" fill="#f8ec7d"/><g fill="#6fe3ff"><path d="m281.328125 172.566406c.128906.910156.191406 1.828125.191406 2.75.027344 11.167969-8.808593 20.347656-19.972656 20.746094-11.160156.398438-20.625-8.128906-21.398437-19.269531-.769532-11.140625 7.4375-20.886719 18.546874-22.027344 11.109376-1.140625 21.125 6.734375 22.632813 17.800781zm0 0"/><path d="m281.328125 92.207031v14.140625l-91.757813 18v-17.769531c0-4.273437 3.011719-7.953125 7.199219-8.800781l73.789063-14.371094c2.640625-.535156 5.382812.140625 7.472656 1.847656 2.085938 1.707032 3.296875 4.257813 3.296875 6.953125zm0 0"/><path d="m168.910156 165.90625c11.410156-.003906 20.664063 9.242188 20.667969 20.652344.003906 11.414062-9.246094 20.667968-20.65625 20.667968s-20.664063-9.25-20.664063-20.660156c0-11.40625 9.246094-20.65625 20.652344-20.660156zm0 0"/></g><path d="m13.6875 303.835938h44.152344v49.839843c-.003906 11.839844 4.789062 23.179688 13.285156 31.429688 8.496094 8.246093 19.96875 12.707031 31.804688 12.359375 2.019531-.0625 20.542968-.167969 49.554687-.289063 8.21875-.054687 15.472656 5.359375 17.753906 13.257813v55.824218c0 3.3125 2.6875 6 6 6h151.78125c1.652344 0 3.230469-.683593 4.367188-1.886718 1.132812-1.203125 1.71875-2.820313 1.621093-4.46875-.058593-1-5.898437-101.246094-.015624-164.5 1.601562-17.183594 17.980468-58.328125 19.453124-62 26.167969-50.0625 24.707032-110.074219-3.867187-158.800782-28.144531-48.398437-78.117187-78.484374-133.640625-80.476562-1.5-.0585938-3.03125-.09375-4.5625-.1132812-94.253906-1.0742188-172.640625 72.2617192-177.835938 166.3789062-.179687 2.953125-.261718 28.300781-.277343 34.582031l-32.242188 84.472656c-1.589843 4.167969-1.0273435 8.851563 1.5 12.527344 2.53125 3.671875 6.707031 5.863282 11.167969 5.863282zm-1.464844-14.109376 32.640625-85.5c.257813-.679687.394531-1.398437.394531-2.125.03125-12.394531.128907-32.847656.261719-35.023437 4.824219-87.710937 77.867188-156.070313 165.707031-155.074219 1.402344.019532 2.820313.050782 4.246094.109375 25.949219.769531 51.226563 8.425781 73.246094 22.179688 67.210938 42.441406 90.667969 129.316406 53.953125 199.816406-.09375.171875-.171875.347656-.246094.523437-.753906 1.871094-18.550781 46-20.382812 65.65625-5.105469 54.839844-1.535157 136.714844-.355469 159.96875h-139.449219v-50.621093c0-.496094-.058593-.984375-.179687-1.464844-3.375-13.589844-15.621094-23.101563-29.625-23-13.976563.054687-46.8125.199219-49.875.292969-8.589844.25-16.914063-2.988282-23.078125-8.976563-6.164063-5.988281-9.640625-14.21875-9.640625-22.8125v-55.839843c0-3.3125-2.6875-6-6-6h-50.152344c-.519531.011718-1.007812-.246094-1.292969-.675782-.296875-.417968-.363281-.957031-.171875-1.433594zm0 0" fill="#63316d"/><path d="m214.890625 260.535156c63.683594 0 115.308594-51.625 115.308594-115.308594 0-63.683593-51.625-115.308593-115.308594-115.308593-63.6875 0-115.3125 51.625-115.3125 115.308593.074219 63.652344 51.65625 115.238282 115.3125 115.308594zm0-218.617187c57.054687 0 103.308594 46.25 103.308594 103.308593 0 57.054688-46.253907 103.308594-103.308594 103.308594-57.058594 0-103.3125-46.253906-103.3125-103.308594.066406-57.03125 46.28125-103.246093 103.3125-103.308593zm0 0" fill="#63316d"/><path d="m168.910156 213.226562c14.714844-.015624 26.640625-11.941406 26.660156-26.660156v-57.28125l79.757813-15.648437v39.316406c-10.234375-6.605469-23.648437-5.429687-32.574219 2.859375-8.929687 8.289062-11.097656 21.578125-5.265625 32.273438 5.828125 10.699218 18.171875 16.074218 29.976563 13.0625 11.804687-3.011719 20.0625-13.648438 20.054687-25.832032-.003906-1.015625-.066406-2.035156-.191406-3.042968v-80.066407c0-4.488281-2.011719-8.738281-5.484375-11.582031-3.46875-2.847656-8.03125-3.984375-12.433594-3.109375l-73.835937 14.378906c-6.972657 1.433594-11.984375 7.5625-12.003907 14.683594v57.738281c-9.519531-6.269531-21.96875-5.792968-30.976562 1.1875-9.011719 6.976563-12.585938 18.910156-8.902344 29.691406 3.6875 10.785157 13.820313 18.03125 25.21875 18.03125zm91.949219-23.25c-7.808594.011719-14.253906-6.101562-14.660156-13.898437-.402344-7.800781 5.375-14.546875 13.140625-15.34375 7.769531-.800781 14.796875 4.628906 15.988281 12.347656v1.855469c0 .433594.050781.867188.144531 1.292969-.484375 7.71875-6.878906 13.734375-14.613281 13.746093zm-62.941406-86.3125 73.835937-14.378906c.878906-.175781 1.789063.046875 2.480469.613282.695313.566406 1.097656 1.414062 1.097656 2.308593v9.199219l-79.761719 15.644531v-10.472656c.003907-1.402344.980469-2.613281 2.347657-2.914063zm-29.007813 68.242188c8.097656-.003906 14.664063 6.554688 14.667969 14.652344s-6.558594 14.667968-14.65625 14.667968-14.664063-6.5625-14.664063-14.660156c.011719-8.089844 6.5625-14.644531 14.652344-14.660156zm0 0" fill="#63316d"/></svg>