<svg height="396pt" viewBox="-16 0 396 396.52" width="396pt" xmlns="http://www.w3.org/2000/svg"><path d="m312.269531 203.910156c29.488281 6.933594 49.097657 34.863282 45.609375 64.953125-3.492187 30.089844-28.976562 52.789063-59.269531 52.785157h-23.859375v-119.308594h23.859375c4.597656-.003906 9.183594.523437 13.660156 1.570312zm0 0" fill="#e48e66"/><path d="m274.75 202.339844v119.308594c0 6.589843-5.34375 11.929687-11.929688 11.929687-6.589843 0-11.929687-5.339844-11.929687-11.929687v-119.308594c0-6.589844 5.339844-11.929688 11.929687-11.929688 6.585938 0 11.929688 5.339844 11.929688 11.929688zm0 0" fill="#f8ec7d"/><path d="m113.648438 202.339844v119.308594c0 6.589843-5.339844 11.929687-11.929688 11.929687s-11.929688-5.339844-11.929688-11.929687v-119.308594c0-6.589844 5.339844-11.929688 11.929688-11.929688s11.929688 5.339844 11.929688 11.929688zm0 0" fill="#f8ec7d"/><path d="m52.269531 203.910156c4.476563-1.046875 9.0625-1.574218 13.660157-1.570312h23.859374v119.308594h-23.859374c-30.289063 0-55.769532-22.699219-59.261719-52.785157-3.488281-30.085937 16.117187-58.015625 45.601562-64.953125zm0 0" fill="#e48e66"/><path d="m318.269531 199.34375v-63.34375c-.007812-75.109375-60.890625-135.9921875-136-136-74.992187 0-136 61.011719-136 136v63.34375c-30.941406 9.703125-50.164062 40.539062-45.253906 72.59375 4.914063 32.050781 32.488281 55.71875 64.914063 55.710938h18.90625c2.917968 8.226562 11.335937 13.152343 19.933593 11.667968 8.601563-1.480468 14.882813-8.941406 14.878907-17.667968v-119.308594c.003906-8.726563-6.273438-16.183594-14.875-17.667969-8.597657-1.480469-17.011719 3.445313-19.929688 11.667969h-18.914062c-2.558594 0-5.117188.148437-7.660157.445312v-60.785156c0-68.484375 55.515625-124 124-124s124 55.515625 124 124v60.785156c-2.542969-.296875-5.101562-.445312-7.660156-.445312h-18.914063c-2.914062-8.226563-11.332031-13.15625-19.933593-11.671875-8.597657 1.484375-14.878907 8.945312-14.871094 17.671875v119.308594c-.019531 8.738281 6.261719 16.214843 14.871094 17.699218s17.035156-3.457031 19.941406-11.699218h12.90625v62.871093c0 3.3125 2.6875 6 6 6s6-2.6875 6-6v-63.148437c31.15625-2.859375 55.96875-27.304688 59.289063-58.417969 3.320312-31.113281-15.777344-60.242187-45.628907-69.609375zm-216.550781-2.933594c1.574219-.003906 3.085938.621094 4.199219 1.730469 1.113281 1.113281 1.734375 2.625 1.730469 4.199219v119.308594c0 3.277343-2.652344 5.929687-5.929688 5.929687-3.273438 0-5.929688-2.652344-5.929688-5.929687v-119.308594c.003907-3.273438 2.65625-5.925782 5.929688-5.929688zm-17.929688 11.929688v107.308594h-17.859374c-27.246094 0-50.164063-20.414063-53.304688-47.476563s14.496094-52.183594 41.015625-58.421875c4.027344-.941406 8.152344-1.414062 12.289063-1.410156zm183.238282 117.5c-1.699219 1.699218-4.25 2.210937-6.46875 1.292968-2.21875-.917968-3.667969-3.078124-3.667969-5.480468v-119.3125c0-3.273438 2.652344-5.929688 5.929687-5.929688 3.273438 0 5.929688 2.65625 5.929688 5.929688v119.308594c.003906 1.570312-.617188 3.078124-1.722656 4.191406zm69.53125-25.898438c-10.046875 10.089844-23.710938 15.746094-37.949219 15.707032h-17.859375v-107.308594h17.859375c14.238281-.019532 27.898437 5.628906 37.964844 15.695312 10.066406 10.066406 15.714843 23.726563 15.695312 37.964844.035157 14.234375-5.621093 27.894531-15.710937 37.9375zm0 0" fill="#63316d"/></svg>