<svg height="396pt" viewBox="-16 0 396 396.52" width="396pt" xmlns="http://www.w3.org/2000/svg"><path d="m312.269531 203.910156c29.488281 6.933594 49.097657 34.863282 45.609375 64.953125-3.492187 30.089844-28.976562 52.789063-59.269531 52.785157h-23.859375v-119.308594h23.859375c4.597656-.003906 9.183594.523437 13.660156 1.570312zm0 0" fill="#f8ec7d"/><path d="m274.75 202.339844v119.308594c0 6.589843-5.34375 11.929687-11.929688 11.929687-6.589843 0-11.929687-5.339844-11.929687-11.929687v-119.308594c0-6.589844 5.339844-11.929688 11.929687-11.929688 6.585938 0 11.929688 5.339844 11.929688 11.929688zm0 0" fill="#e48e66"/><path d="m262.269531 33.53125v10.46875c0 8.351562-3.746093 16.261719-10.203125 21.554688-6.457031 5.292968-14.949218 7.414062-23.136718 5.773437-30.800782-6.15625-62.519532-6.15625-93.320313 0-1.820313.367187-3.671875.550781-5.53125.550781-15.371094-.039062-27.808594-12.507812-27.808594-27.878906v-10.46875c47.015625-36.707031 112.980469-36.707031 160 0zm0 0" fill="#6fe3ff"/><path d="m113.648438 202.339844v119.308594c0 6.589843-5.339844 11.929687-11.929688 11.929687s-11.929688-5.339844-11.929688-11.929687v-119.308594c0-6.589844 5.339844-11.929688 11.929688-11.929688s11.929688 5.339844 11.929688 11.929688zm0 0" fill="#e48e66"/><path d="m52.269531 203.910156c4.476563-1.046875 9.0625-1.574218 13.660157-1.570312h23.859374v119.308594h-23.859374c-30.289063 0-55.769532-22.699219-59.261719-52.785157-3.488281-30.085937 16.117187-58.015625 45.601562-64.953125zm0 0" fill="#f8ec7d"/><g fill="#63316d"><path d="m318.269531 199.34375v-63.34375c0-75.109375-60.890625-136-136-136s-136 60.890625-136 136v63.34375c-30.941406 9.703125-50.164062 40.539062-45.253906 72.59375 4.914063 32.050781 32.488281 55.71875 64.914063 55.710938h18.90625c2.917968 8.226562 11.335937 13.152343 19.933593 11.667968 8.601563-1.480468 14.882813-8.941406 14.878907-17.667968v-119.308594c.007812-8.726563-6.273438-16.1875-14.875-17.667969-8.597657-1.484375-17.015626 3.445313-19.929688 11.667969h-18.914062c-2.558594 0-5.117188.148437-7.660157.445312v-60.785156c-.097656-33.773438 13.679688-66.105469 38.105469-89.429688 1.339844 17.632813 16.019531 31.269532 33.703125 31.308594 2.25 0 4.496094-.222656 6.703125-.664062 30.03125-5.976563 60.941406-5.976563 90.96875 0 9.503906 1.902344 19.371094-.359375 27.097656-6.214844 7.726563-5.855469 12.574219-14.742188 13.308594-24.410156.601562.574218 1.199219 1.144531 1.789062 1.734375 23.335938 23.199219 36.414063 54.769531 36.324219 87.675781v60.785156c-2.542969-.296875-5.101562-.445312-7.660156-.445312h-18.914063c-2.917968-8.222656-11.332031-13.152344-19.933593-11.667969-8.597657 1.480469-14.878907 8.941406-14.871094 17.667969v119.308594c-.019531 8.738281 6.261719 16.214843 14.871094 17.699218s17.035156-3.457031 19.941406-11.699218h12.90625v62.871093c0 3.3125 2.6875 6 6 6s6-2.6875 6-6v-63.148437c31.15625-2.859375 55.972656-27.304688 59.292969-58.417969 3.316406-31.113281-15.777344-60.242187-45.632813-69.609375zm-216.550781-2.933594c1.574219-.003906 3.085938.621094 4.199219 1.730469 1.113281 1.113281 1.734375 2.625 1.730469 4.199219v119.308594c0 3.277343-2.652344 5.929687-5.929688 5.929687-3.273438 0-5.929688-2.652344-5.929688-5.929687v-119.308594c.003907-3.273438 2.65625-5.925782 5.929688-5.929688zm-17.929688 11.929688v107.308594h-17.859374c-29.632813 0-53.65625-24.019532-53.65625-53.652344 0-29.632813 24.023437-53.65625 53.65625-53.65625zm164.480469-147.425782c-5.0625 4.164063-11.734375 5.828126-18.160156 4.53125-31.578125-6.285156-64.085937-6.285156-95.667969 0-1.433594.289063-2.894531.433594-4.359375.4375-12.058593-.03125-21.820312-9.820312-21.8125-21.882812v-7.472656c43.914063-32.703125 104.085938-32.703125 148 0v7.472656c.011719 6.554688-2.925781 12.765625-8 16.914062zm18.761719 264.925782c-1.695312 1.695312-4.25 2.207031-6.46875 1.289062-2.21875-.914062-3.667969-3.078125-3.667969-5.480468v-119.308594c0-3.273438 2.652344-5.929688 5.929688-5.929688 3.273437 0 5.929687 2.65625 5.929687 5.929688v119.308594c.003906 1.570312-.621094 3.078124-1.726562 4.191406zm69.53125-25.902344c-10.046875 10.09375-23.710938 15.75-37.949219 15.714844h-17.863281v-107.3125h17.859375c14.238281-.019532 27.898437 5.628906 37.964844 15.695312 10.066406 10.066406 15.714843 23.726563 15.695312 37.964844.035157 14.234375-5.621093 27.894531-15.710937 37.9375zm0 0"/><path d="m122.269531 30.941406c-3.3125 0-6 2.683594-6 6v10c0 3.3125 2.6875 6 6 6s6-2.6875 6-6v-10c0-3.316406-2.6875-6-6-6zm0 0"/><path d="m142.269531 30.941406c-3.3125 0-6 2.683594-6 6v12c0 3.3125 2.6875 6 6 6s6-2.6875 6-6v-12c0-3.316406-2.6875-6-6-6zm0 0"/><path d="m162.269531 30.941406c-3.3125 0-6 2.683594-6 6v13c0 3.3125 2.6875 6 6 6s6-2.6875 6-6v-13c0-3.316406-2.6875-6-6-6zm0 0"/><path d="m182.269531 30.941406c-3.3125 0-6 2.683594-6 6v14c0 3.3125 2.6875 6 6 6s6-2.6875 6-6v-14c0-3.316406-2.6875-6-6-6zm0 0"/><path d="m202.269531 30.941406c-3.3125 0-6 2.683594-6 6v13c0 3.3125 2.6875 6 6 6s6-2.6875 6-6v-13c0-3.316406-2.6875-6-6-6zm0 0"/><path d="m222.269531 30.941406c-3.3125 0-6 2.683594-6 6v12c0 3.3125 2.6875 6 6 6s6-2.6875 6-6v-12c0-3.316406-2.6875-6-6-6zm0 0"/><path d="m242.269531 30.941406c-3.3125 0-6 2.683594-6 6v10c0 3.3125 2.6875 6 6 6s6-2.6875 6-6v-10c0-3.316406-2.6875-6-6-6zm0 0"/></g></svg>