<svg height="452pt" viewBox="0 -6 452 452" width="452pt" xmlns="http://www.w3.org/2000/svg"><path d="m446 241v51.761719c0 21.4375-17.378906 38.816406-38.820312 38.816406h-45.300782v-129.40625h45.300782c21.445312 0 38.824218 17.386719 38.820312 38.828125zm0 0" fill="#f8ec7d"/><path d="m214.988281 376.46875h64.863281c13.804688 0 25 11.195312 25 25v7.890625c0 13.808594-11.195312 25-25 25h-64.863281c-13.804687 0-25-11.191406-25-25v-7.890625c0-13.804688 11.195313-25 25-25zm0 0" fill="#6fe3ff"/><path d="m90.121094 202.171875v129.40625h-45.300782c-21.441406 0-38.820312-17.378906-38.820312-38.816406v-51.761719c-.003906-21.441406 17.375-38.828125 38.820312-38.828125zm0 0" fill="#f8ec7d"/><path d="m340.949219 399.421875h-30.175781c-1.09375-16.28125-14.609376-28.929687-30.921876-28.953125h-64.863281c-17.113281.019531-30.980469 13.886719-31 31v7.890625c.019531 17.113281 13.890625 30.980469 31 31h64.863281c16.308594-.019531 29.820313-12.664063 30.921876-28.9375h30.175781c29.15625-.039063 52.78125-23.667969 52.8125-52.820313v-21.023437h13.417969c24.742187-.027344 44.792968-20.078125 44.820312-44.816406v-51.761719c-.023438-24.746094-20.074219-44.800781-44.820312-44.828125h-13.417969v-28.410156c-.003907-92.652344-75.113281-167.75781275-167.761719-167.761719-92.5 0-167.761719 75.257812-167.761719 167.761719v28.410156h-13.417969c-24.746093.027344-44.7968745 20.082031-44.820312 44.828125v51.761719c.0273438 24.738281 20.078125 44.789062 44.820312 44.816406h45.300782c3.3125 0 6-2.683594 6-6v-129.40625c0-3.316406-2.6875-6-6-6h-19.882813v-28.410156c0-85.890625 69.875-155.761719 155.761719-155.761719 86.023438.003906 155.757812 69.738281 155.761719 155.761719v28.410156h-19.882813c-3.3125 0-6 2.683594-6 6v129.40625c0 3.316406 2.6875 6 6 6h19.882813v21.023437c-.023438 22.53125-18.28125 40.789063-40.8125 40.820313zm-42.097657 9.9375c-.015624 10.488281-8.511718 18.988281-19 19h-64.863281c-10.488281-.011719-18.984375-8.511719-19-19v-7.890625c.015625-10.488281 8.511719-18.988281 19-19h64.863281c10.488282.011719 18.984376 8.511719 19 19zm-214.730468-83.78125h-39.300782c-18.117187-.019531-32.800781-14.699219-32.820312-32.816406v-51.761719c.019531-18.121094 14.699219-32.804688 32.820312-32.828125h39.300782zm283.757812-117.40625h39.300782c18.121093.023437 32.800781 14.707031 32.820312 32.828125v51.761719c-.019531 18.117187-14.703125 32.796875-32.820312 32.816406h-39.300782zm0 0" fill="#63316d"/></svg>