<svg height="432pt" viewBox="-45 0 432 432" width="432pt" xmlns="http://www.w3.org/2000/svg"><path d="m335.421875 251v147.550781c-.003906 15.164063-12.296875 27.453125-27.460937 27.449219h-274.5c-15.164063.003906-27.460938-12.285156-27.460938-27.449219v-365.101562c0-15.164063 12.296875-27.453125 27.460938-27.449219h274.5c15.164062-.003906 27.457031 12.285156 27.460937 27.449219zm-41.183594 102.25v-301.960938h-247.058593v301.960938zm0 0" fill="#e48e66"/><path d="m186.839844 181.328125 73.871094 13.871094v-55.757813l-73.871094-13.863281zm0 99.910156c0-13.917969-13.558594-25.1875-30.28125-25.1875-16.71875 0-30.277344 11.269531-30.277344 25.1875 0 13.921875 13.546875 25.183594 30.277344 25.183594 16.730468 0 30.28125-11.273437 30.28125-25.183594zm107.398437-229.949219v301.960938h-247.058593v-301.960938zm0 0" fill="#f8ec7d"/><path d="m260.710938 139.441406v55.757813l-73.871094-13.871094v-55.75zm0 0" fill="#6fe3ff"/><path d="m156.558594 256.050781c16.722656 0 30.28125 11.269531 30.28125 25.1875 0 13.921875-13.558594 25.183594-30.28125 25.183594-16.71875 0-30.277344-11.273437-30.277344-25.183594 0-13.910156 13.546875-25.1875 30.277344-25.1875zm0 0" fill="#6fe3ff"/><g fill="#63316d"><path d="m33.460938 432h274.5c18.46875-.019531 33.433593-14.980469 33.460937-33.449219v-365.101562c-.027344-18.46875-14.992187-33.4296878-33.460937-33.449219h-274.5c-18.46875.0195312-33.4375005 14.980469-33.460938 33.449219v365.101562c.0234375 18.46875 14.992188 33.429688 33.460938 33.449219zm-21.460938-398.550781c.015625-11.84375 9.617188-21.4375 21.460938-21.449219h274.5c11.84375.011719 21.441406 9.605469 21.460937 21.449219v365.101562c-.019531 11.84375-9.617187 21.4375-21.460937 21.449219h-274.5c-11.84375-.011719-21.445313-9.605469-21.460938-21.449219zm0 0"/><path d="m185.429688 380.199219h-29.441407c-3.3125 0-6 2.6875-6 6 0 3.316406 2.6875 6 6 6h29.441407c3.3125 0 6-2.683594 6-6 0-3.3125-2.6875-6-6-6zm0 0"/><path d="m47.179688 359.25h247.058593c3.316407 0 6-2.6875 6-6v-301.960938c0-3.3125-2.683593-6-6-6h-247.058593c-3.3125 0-6 2.6875-6 6v301.960938c0 3.3125 2.6875 6 6 6zm6-301.960938h235.058593v289.960938h-235.058593zm0 0"/><path d="m261.816406 133.542969-73.871094-13.859375c-1.753906-.328125-3.5625.140625-4.9375 1.28125s-2.167968 2.832031-2.167968 4.617187v132.503907c-6.980469-5.289063-15.519532-8.113282-24.28125-8.035157-20 0-36.277344 13.992188-36.277344 31.1875 0 17.199219 16.273438 31.183594 36.277344 31.183594 20.007812 0 36.28125-13.988281 36.28125-31.183594v-92.675781l66.761718 12.539062c.367188.066407.738282.101563 1.109376.097657 3.3125 0 6-2.683594 6-6v-55.757813c0-2.886718-2.058594-5.367187-4.894532-5.898437zm-105.257812 166.878906c-13.386719 0-24.277344-8.601563-24.277344-19.183594 0-10.578125 10.890625-19.1875 24.277344-19.1875 13.390625 0 24.28125 8.609375 24.28125 19.1875 0 10.582031-10.894532 19.183594-24.28125 19.183594zm98.152344-112.453125-61.871094-11.617188v-43.539062l61.871094 11.605469zm0 0"/><path d="m80.710938 148.839844h65.378906c3.3125 0 6-2.6875 6-6s-2.6875-6-6-6h-65.378906c-3.316407 0-6 2.6875-6 6s2.683593 6 6 6zm0 0"/><path d="m80.710938 182.800781h65.378906c3.3125 0 6-2.6875 6-6 0-3.316406-2.6875-6-6-6h-65.378906c-3.316407 0-6 2.683594-6 6 0 3.3125 2.683593 6 6 6zm0 0"/><path d="m152.089844 210.761719c0-3.316407-2.6875-6-6-6h-65.378906c-3.316407 0-6 2.683593-6 6 0 3.3125 2.683593 6 6 6h65.378906c3.3125 0 6-2.6875 6-6zm0 0"/></g></svg>