<svg height="461pt" viewBox="0 -64 461.4641 461" width="461pt" xmlns="http://www.w3.org/2000/svg"><path d="m455.460938 302.683594c.003906 6.519531-2.582032 12.773437-7.1875 17.386718-4.609376 4.613282-10.863282 7.203126-17.382813 7.203126h-400.320313c-13.570312 0-24.570312-11-24.570312-24.570313s11-24.570313 24.570312-24.570313h130.898438c2.949219-.003906 5.777344 1.167969 7.859375 3.25 2.085937 2.085938 3.253906 4.910157 3.25 7.859376 0 6.128906 4.972656 11.101562 11.101563 11.101562h88.839843c6.132813.003906 11.109375-4.96875 11.109375-11.101562-.003906-6.132813 4.96875-11.109376 11.101563-11.109376h136.160156c13.558594.003907 24.554687 10.988282 24.570313 24.550782zm0 0" fill="#cc7350"/><path d="m430.480469 277.753906v.378906h-135.75c-6.132813 0-11.105469 4.976563-11.101563 11.109376 0 6.132812-4.976562 11.105468-11.109375 11.101562h-88.839843c-6.128907 0-11.101563-4.972656-11.101563-11.101562.003906-2.949219-1.164063-5.773438-3.25-7.859376-2.082031-2.082031-4.910156-3.253906-7.859375-3.25h-126.410156v-249.691406c0-12.265625 9.945312-22.210937 22.210937-22.210937h351c12.269531 0 22.214844 9.945312 22.210938 22.210937zm-36.839844-33.992187v-199.050781h-321.742187v199.050781zm0 0" fill="#e48e66"/><path d="m292.589844 183.890625c-1.40625-10.132813-10.589844-17.328125-20.765625-16.269531-10.179688 1.058594-17.683594 9.992187-16.972657 20.199218.710938 10.207032 9.386719 18.011719 19.613282 17.648438 10.222656-.363281 18.320312-8.765625 18.304687-18.996094 0-.863281-.058593-1.726562-.179687-2.582031zm-81.800782-9.488281c0-10.5-8.511718-19.011719-19.007812-19.011719-10.5 0-19.011719 8.511719-19.011719 19.011719s8.511719 19.007812 19.011719 19.007812c10.496094.003906 19.007812-8.507812 19.007812-19.007812zm0-41.800782 81.800782-16.570312v-24.777344c0-2.480468-1.109375-4.828125-3.03125-6.398437-1.917969-1.570313-4.4375-2.195313-6.867188-1.703125l-65.269531 13.21875c-3.859375.777344-6.632813 4.167968-6.632813 8.101562zm182.851563-87.890624v199.050781h-321.742187v-199.050781zm0 0" fill="#f8ec7d"/><g fill="#6fe3ff"><path d="m292.589844 183.890625c.121094.855469.179687 1.71875.179687 2.582031.019531 10.265625-8.105469 18.695313-18.363281 19.0625-10.257812.363282-18.960938-7.464844-19.675781-17.707031-.710938-10.238281 6.816406-19.203125 17.027343-20.265625 10.210938-1.058594 19.425782 6.160156 20.832032 16.328125zm0 0"/><path d="m292.589844 91.253906v24.777344l-81.800782 16.570312v-28.128906c0-3.933594 2.773438-7.324218 6.632813-8.101562l65.269531-13.21875c2.429688-.492188 4.949219.132812 6.867188 1.703125 1.921875 1.570312 3.03125 3.917969 3.03125 6.398437zm0 0"/><path d="m210.789062 174.402344c0 10.5-8.511718 19.007812-19.007812 19.007812-10.5 0-19.011719-8.507812-19.011719-19.007812s8.511719-19.011719 19.011719-19.011719c10.496094 0 19.007812 8.511719 19.007812 19.011719zm0 0"/></g><path d="m71.898438 249.761719h321.742187c3.3125 0 6-2.6875 6-6v-199.050781c0-3.3125-2.6875-6-6-6h-321.742187c-3.3125 0-6 2.6875-6 6v199.050781c0 3.3125 2.6875 6 6 6zm6-199.050781h309.742187v187.050781h-309.742187zm0 0" fill="#63316d"/><path d="m30.570312 333.273438h400.320313c15.796875.003906 28.992187-12.03125 30.445313-27.761719 1.449218-15.730469-9.324219-29.972657-24.855469-32.859375v-244.210938c-.019531-15.570312-12.636719-28.191406-28.210938-28.210937h-351c-15.570312.019531-28.191406 12.640625-28.210937 28.210937v243.726563c-16.273438.8125-29.0507815 14.242187-29.058594 30.535156.015625 16.875 13.695312 30.550781 30.570312 30.570313zm26.699219-321.042969h351c8.949219.011719 16.199219 7.261719 16.210938 16.210937v243.691406h-129.75c-9.449219 0-17.105469 7.660157-17.101563 17.109376-.003906 2.816406-2.289062 5.097656-5.109375 5.101562h-88.839843c-2.816407 0-5.101563-2.285156-5.101563-5.101562-.007813-9.445313-7.664063-17.101563-17.109375-17.109376h-120.410156v-243.691406c.011718-8.949218 7.261718-16.199218 16.210937-16.210937zm-39.824219 277.339843c3.472657-3.496093 8.199219-5.453124 13.125-5.4375h130.898438c2.824219.003907 5.109375 2.289063 5.109375 5.109376 0 9.445312 7.65625 17.101562 17.101563 17.101562h88.839843c9.441407-.007812 17.097657-7.660156 17.109375-17.101562 0-1.355469.535156-2.652344 1.492188-3.613282.957031-.957031 2.253906-1.496094 3.609375-1.496094h136.160156c10.253906 0 18.570313 8.3125 18.570313 18.570313 0 10.253906-8.316407 18.570313-18.570313 18.570313h-400.320313c-7.511718 0-14.285156-4.523438-17.15625-11.464844-2.875-6.941406-1.28125-14.929688 4.03125-20.238282zm0 0" fill="#63316d"/><path d="m298.589844 116.074219v-24.820313c0-4.28125-1.917969-8.335937-5.230469-11.042968-3.3125-2.710938-7.667969-3.789063-11.859375-2.9375l-65.269531 13.21875c-6.644531 1.359374-11.421875 7.195312-11.441407 13.980468v48.578125c-9.710937-5.910156-22.1875-4.527343-30.367187 3.371094-8.175781 7.898437-9.996094 20.320313-4.425781 30.234375 5.570312 9.910156 17.128906 14.816406 28.125 11.933594 11-2.878906 18.671875-12.816406 18.667968-24.1875v-36.894532l69.800782-14.140624v41.660156c-9.742188-5.816406-22.183594-4.339844-30.292969 3.59375-8.113281 7.9375-9.859375 20.34375-4.253906 30.210937 5.605469 9.867188 17.152343 14.71875 28.125 11.820313 10.96875-2.902344 18.609375-12.832032 18.601562-24.179688-.003906-.960937-.0625-1.917968-.179687-2.871094zm-106.808594 71.335937c-7.1875 0-13.011719-5.824218-13.011719-13.007812s5.824219-13.011719 13.011719-13.011719c7.183594 0 13.007812 5.828125 13.007812 13.011719-.007812 7.183594-5.828124 13.003906-13.007812 13.007812zm25.007812-62.144531v-20.792969c.003907-1.078125.765626-2.007812 1.824219-2.21875l65.269531-13.222656c.667969-.132812 1.355469.039062 1.878907.46875.527343.429688.828125 1.074219.828125 1.753906v19.871094zm56.972657 74.214844c-6.921875.011719-12.636719-5.398438-13.007813-12.308594s4.726563-12.898437 11.605469-13.636719c6.882813-.734375 13.132813 4.042969 14.230469 10.875v1.710938c0 .421875.046875.84375.132812 1.257812-.476562 6.808594-6.136718 12.09375-12.960937 12.101563zm0 0" fill="#63316d"/></svg>