<svg height="456pt" viewBox="-27 0 456 456.15912" width="456pt" xmlns="http://www.w3.org/2000/svg"><path d="m295.75 288.519531c15.480469-11.1875 31.449219-17.148437 45.917969-17.148437 26.332031 0 46.640625 18.558594 52.410156 47.148437 8.28125 42.628907-18.046875 99.550781-96.039063 131.140625-1.601562.667969-3.40625.667969-5.007812 0-39.820312-15.800781-66.222656-38.511718-81.390625-62.691406-14.441406-23.039062-18.691406-47.410156-14.660156-68.449219 5.519531-29.089843 25.828125-47.648437 52.160156-47.648437 14.800781 0 30.589844 6.019531 46.390625 17.808594zm0 0" fill="#6fe3ff"/><path d="m128.941406 227.171875c0-10.5-8.511718-19.011719-19.011718-19.011719s-19.011719 8.511719-19.011719 19.011719c0 10.496094 8.511719 19.007813 19.011719 19.007813s19.011718-8.511719 19.011718-19.007813zm81.796875 9.488281c-1.402343-10.132812-10.589843-17.332031-20.765625-16.273437-10.175781 1.0625-17.683594 9.996093-16.972656 20.203125.714844 10.207031 9.386719 18.011718 19.613281 17.648437 10.226563-.363281 18.320313-8.765625 18.304688-19 .003906-.859375-.058594-1.722656-.179688-2.578125zm0-67.871094v-24.777343c0-2.480469-1.113281-4.828125-3.035156-6.398438-1.917969-1.570312-4.441406-2.195312-6.875-1.703125l-65.269531 13.21875c-3.851563.789063-6.617188 4.179688-6.617188 8.109375v28.121094zm84.210938-58.730468.800781 178.460937-.21875.160157c-15.800781-11.789063-31.589844-17.808594-46.390625-17.808594-26.332031 0-46.640625 18.558594-52.160156 47.648437-4.03125 21.039063.21875 45.410157 14.660156 68.449219l-.351563.210938-162.859374.820312c-22.480469.109375-40.796876-18.027344-40.910157-40.511719l-1.441406-299.898437c-.101563-22.480469 18.03125-40.789063 40.511719-40.898438l142.871094-.691406 1.929687.191406.300781 62.148438c.105469 22.484375 18.414063 40.621094 40.898438 40.519531l62.351562-.300781zm0 0" fill="#e48e66"/><g fill="#f8ec7d"><path d="m294.941406 108.339844v.21875l-62.351562.300781c-22.484375.101563-40.792969-18.035156-40.898438-40.519531l-.300781-62.148438.210937.019532zm0 0"/><path d="m210.738281 236.660156c.121094.855469.183594 1.71875.179688 2.578125.019531 10.265625-8.101563 18.699219-18.359375 19.0625-10.261719.367188-18.960938-7.464843-19.675782-17.703125-.714843-10.238281 6.816407-19.203125 17.023438-20.265625 10.210938-1.0625 19.425781 6.160157 20.832031 16.328125zm0 0"/><path d="m210.738281 144.011719v24.777343l-81.796875 16.570313v-28.121094c0-3.929687 2.765625-7.320312 6.617188-8.109375l65.269531-13.21875c2.433594-.492187 4.957031.132813 6.875 1.703125 1.921875 1.570313 3.035156 3.917969 3.035156 6.398438zm0 0"/><path d="m128.941406 227.171875c0 10.496094-8.511718 19.007813-19.011718 19.007813s-19.011719-8.511719-19.011719-19.007813c0-10.5 8.511719-19.011719 19.011719-19.011719s19.011718 8.511719 19.011718 19.011719zm0 0"/></g><path d="m216.917969 239.238281c0-.957031-.0625-1.914062-.179688-2.867187v-92.359375c0-4.28125-1.921875-8.335938-5.234375-11.042969-3.316406-2.710938-7.667968-3.789062-11.863281-2.941406l-65.285156 13.226562c-6.632813 1.378906-11.394531 7.210938-11.414063 13.984375v48.582031c-9.714844-5.914062-22.191406-4.527343-30.367187 3.371094-8.179688 7.898438-10 20.320313-4.429688 30.230469 5.570313 9.910156 17.128907 14.816406 28.128907 11.9375 10.996093-2.882813 18.667968-12.820313 18.667968-24.1875v-36.902344l69.796875-14.136719v41.667969c-9.742187-5.816406-22.179687-4.339843-30.292969 3.597657-8.109374 7.9375-9.855468 20.339843-4.25 30.207031 5.605469 9.867187 17.152344 14.71875 28.125 11.816406 10.96875-2.902344 18.609376-12.832031 18.597657-24.179687zm-106.988281.941407c-7.183594 0-13.011719-5.824219-13.011719-13.007813 0-7.1875 5.828125-13.011719 13.011719-13.011719 7.183593 0 13.011718 5.824219 13.011718 13.011719-.007812 7.179687-5.828125 13-13.011718 13.007813zm25.011718-62.15625v-20.785157c0-1.074219.757813-2.003906 1.808594-2.226562l65.261719-13.21875c.671875-.140625 1.371093.03125 1.898437.46875.527344.425781.832032 1.070312.828125 1.75v19.867187zm43.949219 61.214843c-.003906-6.78125 5.210937-12.429687 11.972656-12.96875 6.761719-.539062 12.800781 4.210938 13.875 10.90625v.515625h.082031c.066407.511719.097657 1.03125.097657 1.546875 0 7.191407-5.824219 13.015625-13.011719 13.015625s-13.015625-5.824218-13.015625-13.015625zm0 0" fill="#63316d"/><path d="m341.667969 265.371094c-12.796875 0-26.457031 4.160156-39.96875 12.097656l-.75-167.449219-.007813-1.679687c0-1.601563-.644531-3.140625-1.785156-4.269532l-103.339844-102.128906c-.019531-.019531-.046875-.035156-.066406-.054687-1.132812-1.203125-2.710938-1.886719-4.359375-1.886719-.300781.00390625-.597656.0273438-.890625.0742188l-.453125-.046875c-.203125-.0195313-.410156-.0273438-.617187-.0273438l-142.867188.691406c-25.78125.160156-46.5703125 21.148438-46.484375 46.925782l1.441406 299.902343c.128907 25.703125 21 46.476563 46.707031 46.480469h.234376l160.070312-.804688c17.492188 26.179688 45.855469 47.585938 82.285156 62.042969.101563.039063.210938.078125.316406.113281 2.835938 1.078126 5.964844 1.078126 8.800782 0 .121094-.039062.238281-.082031.355468-.128906 80.980469-32.800781 108.414063-92.867187 99.667969-137.886718-6.367187-31.570313-29.246093-51.964844-58.289062-51.964844zm-61.042969-162.742188-48.0625.230469c-19.15625.054687-34.75-15.394531-34.871094-34.550781l-.234375-47.871094zm-232.222656 279.371094h-.175782c-19.101562-.003906-34.609374-15.4375-34.707031-34.539062l-1.441406-299.898438c-.0625-19.15625 15.386719-34.753906 34.539063-34.871094l138.800781-.671875.273437 56.351563c.15625 25.699218 21.015625 46.457031 46.71875 46.488281h.210938l56.351562-.269531.726563 162.890625c-13.714844-8.375-27.316407-12.609375-40.558594-12.609375-29.210937 0-52 20.617187-58.054687 52.519531-3.96875 20.742187-.28125 43.078125 10.390624 63.839844zm247.589844 62.015625c-.183594.054687-.34375.101563-.460938.121094-.117188-.027344-.28125-.066407-.46875-.125-35.355469-14.0625-62.441406-34.886719-78.339844-60.226563-12.90625-20.601562-17.828125-43.375-13.847656-64.144531 5.003906-26.382813 22.734375-42.769531 46.265625-42.769531 13.625 0 28.023437 5.589844 42.800781 16.617187 2.566406 1.960938 6.214844 1.601563 8.347656-.824219 14.15625-10 28.441407-15.292968 41.378907-15.292968 23.429687 0 41.257812 16.222656 46.519531 42.292968 10.8125 55.648438-38.484375 102.527344-92.195312 124.351563zm0 0" fill="#63316d"/></svg>