<svg height="472pt" viewBox="-50 0 472 472.25618" width="472pt" xmlns="http://www.w3.org/2000/svg"><path d="m232.777344 7.644531c104.890625 15.121094 165.882812 132.242188 115.210937 229.242188 0 0-18.199219 44.960937-19.96875 63.960937-6 64.4375 0 165.410156 0 165.410156h-151.78125v-56.621093c-2.738281-10.890625-12.550781-18.507813-23.78125-18.460938-19.417969.082031-47.027343.210938-49.707031.289063-10.214844.300781-20.117188-3.546875-27.445312-10.667969-7.332032-7.117187-11.46875-16.902344-11.464844-27.121094v-55.839843h-50.152344c-2.484375.003906-4.816406-1.21875-6.230469-3.265626-1.410156-2.046874-1.726562-4.660156-.839843-6.984374l32.640624-85.5s.082032-32.230469.269532-35.328126c4.816406-87.648437 75.539062-157.234374 163.25-160.632812v125.519531c-44.101563 15.5625-68.949219 62.296875-57.1875 107.5625 11.765625 45.265625 56.226562 73.988281 102.324218 66.105469 46.101563-7.882812 78.488282-49.746094 74.542969-96.347656-3.945312-46.605469-42.910156-82.425782-89.679687-82.449219zm0 0" fill="#e48e66"/><path d="m202.777344 131.644531c36.964844-13.070312 78.140625-.710937 101.792968 30.554688 23.65625 31.269531 24.351563 74.253906 1.714844 106.265625-22.632812 32.015625-63.386718 45.699218-100.75 33.824218-37.367187-11.871093-62.75-46.566406-62.757812-85.773437-.15625-38.195313 23.941406-72.28125 60-84.871094zm100 84.871094c0-38.660156-31.339844-70-70-70s-70 31.339844-70 70 31.339844 70 70 70 70-31.339844 70-70zm0 0" fill="#6fe3ff"/><path d="m220.339844 247.726562c0-5.179687-5.050782-9.378906-11.28125-9.378906-6.230469 0-11.28125 4.199219-11.28125 9.378906 0 5.179688 5.050781 9.378907 11.28125 9.378907 6.230468 0 11.28125-4.199219 11.28125-9.378907zm47.4375-20.242187c0-5.179687-5.046875-9.386719-11.277344-9.386719s-11.28125 4.207032-11.28125 9.386719c0 5.183594 5.050781 9.382813 11.28125 9.382813s11.277344-4.199219 11.277344-9.382813zm0-33v-18.546875l-47.4375 11.699219v18.550781zm-35-47.96875c38.660156 0 70 31.339844 70 70s-31.339844 70-70 70-70-31.339844-70-70 31.339844-70 70-70zm0 0" fill="#f8ec7d"/><g fill="#6fe3ff"><path d="m267.777344 175.9375v18.546875l-47.4375 11.703125v-18.550781zm0 0"/><path d="m256.5 218.097656c6.230469 0 11.277344 4.207032 11.277344 9.386719 0 5.183594-5.046875 9.382813-11.277344 9.382813s-11.28125-4.199219-11.28125-9.382813c0-5.179687 5.050781-9.386719 11.28125-9.386719zm0 0"/><path d="m232.777344 7.644531v118.871094c-10.21875-.015625-20.363282 1.71875-30 5.128906v-125.519531c2.832031-.109375 5.675781-.148438 8.53125-.117188 1.460937.019532 2.929687.046876 4.378906.109376 5.722656.203124 11.425781.714843 17.089844 1.527343zm0 0"/><path d="m220.339844 247.726562c0-5.179687-5.050782-9.378906-11.28125-9.378906-6.230469 0-11.28125 4.199219-11.28125 9.378906 0 5.179688 5.050781 9.378907 11.28125 9.378907 6.230468 0 11.28125-4.199219 11.28125-9.378907zm0 0"/></g><path d="m13.6875 303.835938h44.152344v49.839843c-.003906 11.839844 4.789062 23.179688 13.285156 31.429688 8.496094 8.246093 19.96875 12.707031 31.804688 12.359375 2.019531-.0625 20.542968-.167969 49.554687-.289063h.085937c8.183594-.007812 15.386719 5.394531 17.667969 13.257813v55.824218c0 3.3125 2.6875 6 6 6h151.78125c1.652344 0 3.230469-.683593 4.367188-1.886718 1.132812-1.203125 1.71875-2.820313 1.621093-4.472656-.058593-1-5.898437-101.242188-.015624-164.5 1.601562-17.179688 17.976562-58.320313 19.453124-62 12.550782-23.847657 18.964844-50.449219 18.667969-77.398438-.652343-51.554688-25.246093-99.875-66.550781-130.738281-21.121094-15.722657-45.855469-25.882813-71.925781-29.554688-5.867188-.839843-11.777344-1.367187-17.699219-1.582031-1.5-.0625-3.03125-.09375-4.566406-.1132812-2.941406-.0351563-5.910156.0117187-8.820313.1210932-90.792969 3.515626-164.007812 75.535157-169.011719 166.261719-.179687 2.953125-.261718 28.296875-.277343 34.582031l-32.242188 84.46875c-1.589843 4.167969-1.0273435 8.851563 1.5 12.523438 2.53125 3.675781 6.707031 5.867188 11.167969 5.867188zm191.101562-166.535157c34.5-12.195312 72.925782-.65625 95 28.527344 22.078126 29.183594 22.722657 69.300781 1.59375 99.179687-21.125 29.878907-59.160156 42.644532-94.035156 31.5625-34.875-11.078124-58.566406-43.460937-58.570312-80.054687-.171875-35.660156 22.332031-67.488281 56.007812-79.214844zm10.683594-125.1875c3.765625.136719 7.550782.421875 11.304688.832031v107.78125c-6.074219.363282-12.101563 1.3125-18 2.824219v-111.539062c.820312 0 1.636718-.015625 2.449218 0 1.402344.015625 2.820313.042969 4.246094.101562zm-203.25 277.613281 32.640625-85.5c.257813-.679687.394531-1.398437.394531-2.125.03125-12.394531.128907-32.847656.261719-35.023437 4.515625-82.171875 69.207031-148.285156 151.257813-154.589844v115.023438c-45.332032 18.3125-69.667969 67.761719-56.523438 114.855469 13.144532 47.089843 59.574219 76.789062 107.839844 68.972656 48.261719-7.8125 82.949219-50.640625 80.5625-99.476563-2.386719-48.832031-41.082031-88.078125-89.878906-91.148437v-105.964844c21.605468 4.082031 42 13.023438 59.640625 26.152344 18.789062 14.015625 34.109375 32.160156 44.773437 53.03125 22.871094 44.671875 22.679688 95.761718-.519531 140.175781-.089844.167969-.171875.34375-.242187.523437-.757813 1.871094-18.554688 46-20.386719 65.65625-5.105469 54.839844-1.535157 136.714844-.355469 159.96875h-139.449219v-50.621093c0-.496094-.058593-.988281-.179687-1.464844-3.378906-13.53125-15.542969-23.019531-29.488282-23h-.136718c-13.976563.054687-46.8125.199219-49.875.292969-8.589844.25-16.914063-2.992188-23.078125-8.976563-6.164063-5.988281-9.640625-14.21875-9.640625-22.8125v-55.839843c0-3.3125-2.6875-6-6-6h-50.152344c-.519531.011718-1.007812-.246094-1.292969-.679688-.296875-.414062-.363281-.953125-.171875-1.429688zm0 0" fill="#63316d"/><path d="m232.777344 292.515625c41.976562 0 76-34.027344 76-76s-34.023438-76-76-76c-41.972656 0-76 34.027344-76 76 .046875 41.953125 34.046875 75.953125 76 76zm0-140c35.347656 0 64 28.65625 64 64 0 35.347656-28.652344 64-64 64-35.34375 0-64-28.652344-64-64 .042968-35.328125 28.671875-63.960937 64-64zm0 0" fill="#63316d"/><path d="m209.058594 263.105469c9.28125 0 16.855468-6.550781 17.242187-14.726563.023438-.214844.039063-.433594.039063-.652344v-36.839843l35.4375-8.742188v10.691407c-1.714844-.492188-3.492188-.738282-5.277344-.738282-9.527344 0-17.28125 6.898438-17.28125 15.386719 0 8.492187 7.753906 15.382813 17.28125 15.382813 9.277344 0 16.851562-6.550782 17.242188-14.726563.023437-.21875.035156-.4375.035156-.65625v-51.546875c0-1.84375-.847656-3.585938-2.296875-4.726562-1.453125-1.136719-3.347657-1.542969-5.136719-1.101563l-47.441406 11.699219c-2.679688.664062-4.5625 3.066406-4.5625 5.828125v45.449219c-1.71875-.492188-3.496094-.738282-5.28125-.738282-9.527344 0-17.28125 6.898438-17.28125 15.378906 0 8.480469 7.753906 15.378907 17.28125 15.378907zm47.441406-32.238281c-3.023438 0-5.28125-1.785157-5.28125-3.382813 0-1.59375 2.257812-3.386719 5.28125-3.386719 3.019531 0 5.277344 1.789063 5.277344 3.386719 0 1.601563-2.257813 3.382813-5.277344 3.382813zm5.277344-47.269532v6.1875l-35.4375 8.742188v-6.191406zm-52.71875 60.75c3.023437 0 5.28125 1.78125 5.28125 3.378906 0 1.59375-2.257813 3.378907-5.28125 3.378907-3.023438 0-5.28125-1.785157-5.28125-3.378907 0-1.597656 2.257812-3.378906 5.28125-3.378906zm0 0" fill="#63316d"/></svg>