<svg height="483pt" viewBox="-5 0 483 483.26605" width="483pt" xmlns="http://www.w3.org/2000/svg"><path d="m279.613281 360.347656c106.238281 5.207032 186.519531 29.167969 186.519531 57.929688 0 32.578125-102.96875 58.988281-230 58.988281s-230-26.410156-230-58.988281c0-28.761719 80.28125-52.722656 186.519532-57.929688l43.480468 64.757813zm0 0" fill="#e48e66"/><path d="m279.613281 360.347656-43.480469 64.757813-43.480468-64.757813-81.058594-120.742187c-42.003906-62.566407-31.0625-146.582031 25.554688-196.308594 56.621093-49.726563 141.347656-49.726563 197.96875 0 56.621093 49.726563 67.558593 133.742187 25.554687 196.308594zm66.519531-204.089844c0-60.753906-49.25-110-110-110s-110 49.246094-110 110c0 60.75 49.25 110 110 110s110-49.25 110-110zm0 0" fill="#f8ec7d"/><path d="m295.953125 180.976562c0-8.859374-8.628906-16.039062-19.28125-16.039062-10.648437 0-19.277344 7.179688-19.277344 16.039062 0 8.859376 8.628907 16.039063 19.277344 16.039063 10.652344 0 19.28125-7.179687 19.28125-16.039063zm-81.082031 22.628907c0-8.847657-8.628906-16.03125-19.277344-16.03125-10.652344 0-19.28125 7.183593-19.28125 16.03125 0 8.851562 8.628906 16.039062 19.28125 16.039062 10.648438 0 19.277344-7.179687 19.277344-16.039062zm0-47.058594 81.082031-31.972656v-31.707031l-81.082031 31.96875zm21.261718-110.289063c60.75 0 110 49.246094 110 110 0 60.75-49.25 110-110 110s-110-49.25-110-110c0-60.753906 49.25-110 110-110zm0 0" fill="#6fe3ff"/><g fill="#f8ec7d"><path d="m295.953125 92.867188v31.707031l-81.082031 31.972656v-31.710937zm0 0"/><path d="m295.953125 180.976562c0-8.859374-8.632813-16.039062-19.28125-16.039062s-19.277344 7.179688-19.277344 16.039062c0 8.859376 8.628907 16.039063 19.277344 16.039063s19.28125-7.179687 19.28125-16.039063zm0 0"/><path d="m195.59375 187.574219c10.648438 0 19.277344 7.183593 19.277344 16.03125 0 8.851562-8.628906 16.039062-19.277344 16.039062-10.652344 0-19.28125-7.179687-19.28125-16.039062s8.628906-16.03125 19.28125-16.03125zm0 0"/></g><path d="m.132812 418.277344c0 42.210937 121.59375 64.988281 236 64.988281s236-22.777344 236-64.988281c0-36.261719-89.574218-57.621094-181.667968-63.335938l75.1875-111.992187c43.683594-65.066407 32.308594-152.445313-26.578125-204.160157-58.882813-51.71875-147-51.71875-205.882813 0-58.886718 51.714844-70.261718 139.09375-26.578125 204.160157l75.1875 111.992187c-92.097656 5.714844-181.667969 27.074219-181.667969 63.335938zm134.183594-364.101563c52.414063-52.398437 136.042969-56.457031 193.285156-9.375 57.238282 47.082031 69.394532 129.921875 28.089844 191.460938l-119.558594 178.082031-38.5-57.34375-81.058593-120.738281c-38.234375-57.167969-30.808594-133.371094 17.742187-182.082031zm-73 332.039063c32.8125-10.074219 78.238282-17.042969 128.253906-19.699219l41.582032 61.933594c1.117187 1.660156 2.984375 2.65625 4.984375 2.65625 1.996093 0 3.863281-.996094 4.980469-2.65625l41.582031-61.933594c49.992187 2.65625 95.433593 9.625 128.253906 19.699219 30.792969 9.453125 49.179687 21.4375 49.179687 32.0625 0 14.582031-32.46875 28.105468-62.855468 35.898437-42.964844 11.019531-100.195313 17.089844-161.144532 17.089844-60.949218 0-118.179687-6.070313-161.144531-17.089844-30.386719-7.792969-62.855469-21.316406-62.855469-35.898437 0-10.625 18.386719-22.609375 49.179688-32.0625zm0 0" fill="#63316d"/><path d="m352.132812 156.257812c0-64.066406-51.933593-116-116-116-64.066406 0-116 51.933594-116 116 0 64.0625 51.933594 116 116 116 64.035157-.074218 115.925782-51.96875 116-116zm-220 0c0-57.4375 46.5625-104 104-104s104 46.5625 104 104-46.5625 104-104 104c-57.410156-.066406-103.933593-46.589843-104-104zm0 0" fill="#63316d"/><path d="m289.953125 133.390625v28.84375c-4.085937-2.183594-8.648437-3.316406-13.28125-3.296875-13.9375 0-25.277344 9.886719-25.277344 22.039062 0 12.152344 11.339844 22.039063 25.277344 22.039063 13.941406 0 25.28125-9.886719 25.28125-22.039063v-88.109374c0-1.988282-.984375-3.84375-2.625-4.960938s-3.726563-1.351562-5.574219-.621094l-81.082031 31.96875c-2.292969.90625-3.796875 3.117188-3.800781 5.582032v60.035156c-4.082032-2.183594-8.644532-3.316406-13.277344-3.300782-13.941406 0-25.28125 9.882813-25.28125 22.03125 0 12.144532 11.339844 22.039063 25.28125 22.039063 13.9375 0 25.277344-9.886719 25.277344-22.039063v-42.972656zm-13.28125 57.625c-7.199219 0-13.277344-4.597656-13.277344-10.039063 0-5.441406 6.082031-10.039062 13.277344-10.039062 7.199219 0 13.28125 4.597656 13.28125 10.039062 0 5.441407-6.082031 10.039063-13.28125 10.039063zm13.28125-89.335937v18.8125l-69.082031 27.242187v-18.8125zm-94.359375 111.964843c-7.199219 0-13.28125-4.597656-13.28125-10.039062 0-5.4375 6.082031-10.03125 13.28125-10.03125s13.277344 4.59375 13.277344 10.03125-6.078125 10.039062-13.277344 10.039062zm0 0" fill="#63316d"/></svg>