<svg height="432pt" viewBox="-12 0 432 432.02002" width="432pt" xmlns="http://www.w3.org/2000/svg"><path d="m347.488281 265.589844c2.300781-.324219 4.621094-.488282 6.941407-.488282 23.691406 0 41.96875 16.699219 47.160156 42.429688 7.449218 38.367188-16.238282 89.597656-86.429688 118.027344-1.445312.613281-3.074218.613281-4.519531 0-40.832031-16.1875-65.980469-40.46875-78.359375-65.589844-8.839844-17.917969-11.171875-36.277344-8.070312-52.4375 4.960937-26.179688 23.238281-42.882812 46.9375-42.882812 13.3125 0 27.53125 5.421874 41.75 16.03125 11.5625-8.390626 23.429687-13.550782 34.589843-15.089844zm0 0" fill="#6fe3ff"/><path d="m276.011719 214.199219c0-13.328125-12.980469-24.128907-29-24.128907-16.023438 0-29.011719 10.800782-29.011719 24.128907 0 13.332031 12.988281 24.121093 29.011719 24.121093 16.019531 0 29-10.800781 29-24.121093zm-121.980469 52.050781c0-13.328125-12.992188-24.128906-29.011719-24.128906s-29.007812 10.800781-29.007812 24.128906 12.988281 24.121094 29.007812 24.121094 29.011719-10.800782 29.011719-24.121094zm121.980469-136.898438v-47.710937l-121.980469 30.089844v47.710937zm90 56.648438c.042969 27.601562-6.292969 54.84375-18.523438 79.589844-11.160156 1.539062-23.027343 6.699218-34.589843 15.089844-14.21875-10.609376-28.4375-16.03125-41.75-16.03125-23.699219 0-41.976563 16.703124-46.9375 42.882812-3.101563 16.160156-.769532 34.519531 8.070312 52.4375l-.101562.050781c-74.503907 19.78125-153.332032-10.066406-196.046876-74.234375-42.71875-64.164062-39.84375-148.40625 7.148438-209.507812 46.992188-61.105469 127.671875-85.507813 200.652344-60.695313 72.980468 24.8125 122.066406 93.335938 122.078125 170.417969zm0 0" fill="#e48e66"/><g fill="#f8ec7d"><path d="m276.011719 81.640625v47.710937l-121.980469 30.089844v-47.710937zm0 0"/><path d="m247.011719 190.070312c16.019531 0 29 10.800782 29 24.128907 0 13.332031-12.980469 24.121093-29 24.121093-16.023438 0-29.011719-10.800781-29.011719-24.121093 0-13.320313 12.988281-24.128907 29.011719-24.128907zm0 0"/><path d="m125.019531 242.121094c16.019531 0 29.011719 10.800781 29.011719 24.128906s-12.992188 24.121094-29.011719 24.121094-29.007812-10.800782-29.007812-24.121094 12.988281-24.128906 29.007812-24.128906zm0 0"/></g><path d="m247.011719 184.070312c-19.308594 0-35.011719 13.515626-35.011719 30.128907s15.699219 30.121093 35.011719 30.121093c19.308593 0 35-13.511718 35-30.121093v-132.558594c0-1.84375-.851563-3.585937-2.300781-4.722656-1.453126-1.136719-3.347657-1.542969-5.136719-1.101563l-121.980469 30.09375c-2.679688.660156-4.5625 3.066406-4.5625 5.824219v131.835937c-6.664062-4.90625-14.738281-7.519531-23.011719-7.449218-19.304687 0-35.007812 13.515625-35.007812 30.128906s15.699219 30.121094 35.007812 30.121094c19.308594 0 35.011719-13.511719 35.011719-30.121094v-102.109375l109.980469-27.128906v54.507812c-6.660157-4.90625-14.730469-7.519531-23-7.449219zm0 48.25c-12.691407 0-23.011719-8.128906-23.011719-18.121093 0-9.992188 10.320312-18.128907 23.011719-18.128907 12.6875 0 23 8.132813 23 18.128907 0 9.996093-10.320313 18.121093-23 18.121093zm-121.992188 52.050782c-12.6875 0-23.007812-8.128906-23.007812-18.121094s10.320312-18.128906 23.007812-18.128906 23.011719 8.132812 23.011719 18.128906-10.324219 18.121094-23.011719 18.121094zm35.011719-132.589844v-35.351562l109.980469-27.128907v35.347657zm0 0" fill="#63316d"/><path d="m357.058594 259.164062c9.933594-23.109374 15.023437-48.011718 14.953125-73.164062 0-102.558594-83.441407-186-186-186-102.5625 0-186.0000002 83.441406-186.0000002 186s83.4375002 186 186.0000002 186c14.527343 0 29.007812-1.695312 43.144531-5.054688 11.046875 20.066407 33.566406 46.070313 79.273438 64.191407.09375.039062.1875.074219.285156.105469 2.691406 1.039062 5.675781 1.039062 8.371094 0 .109374-.039063.21875-.078126.328124-.121094 73.191407-29.644532 97.972657-84.007813 90.058594-124.777344-5.597656-27.742188-25.238281-45.992188-50.414062-47.179688zm-345.046875-73.164062c0-95.945312 78.054687-174 174-174 95.941406 0 174 78.054688 174 174 .066406 25.660156-5.601563 51.011719-16.597657 74.195312-9.972656 1.925782-20.375 6.40625-30.460937 13.136719-14.125-9.746093-28.171875-14.683593-41.800781-14.683593-26.597656 0-47.335938 18.75-52.832032 47.75-3.082031 16.070312-1.160156 33.03125 5.539063 49.457031-12.429687 2.753906-25.117187 4.144531-37.847656 4.144531-95.945313 0-174-78.054688-174-174zm301.085937 233.921875c-.070312.023437-.136718.039063-.199218.054687-.0625-.015624-.136719-.035156-.214844-.0625-45.402344-18.042968-65.855469-43.992187-75.023438-62.597656-7.957031-16.128906-10.570312-32.953125-7.554687-48.667968 4.441406-23.4375 20.167969-38 41.042969-38 11.957031 0 25.152343 5.128906 38.164062 14.835937 2.105469 1.570313 4.984375 1.589844 7.113281.046875 10.6875-7.753906 21.710938-12.597656 31.898438-14 2.023437-.285156 4.0625-.429688 6.105469-.429688 20.78125 0 36.601562 14.414063 41.269531 37.574219 9.660156 49.75-34.496094 91.695313-82.601563 111.246094zm0 0" fill="#63316d"/></svg>