<svg height="432pt" viewBox="-123 0 432 432" width="432pt" xmlns="http://www.w3.org/2000/svg"><path d="m162.761719 75.671875c.003906 3.890625-.320313 7.78125-.972657 11.617187h-137.398437c-.652344-3.835937-.976563-7.726562-.96875-11.617187 0-38.480469 31.191406-69.671875 69.667969-69.671875 38.476562 0 69.671875 31.191406 69.671875 69.671875zm0 0" fill="#6fe3ff"/><path d="m24.390625 87.289062h137.398437c-2.847656 16.972657-11.898437 32.28125-25.390624 42.960938h-86.617188c-13.492188-10.679688-22.542969-25.988281-25.390625-42.960938zm0 0" fill="#e48e66"/><path d="m151.148438 130.25v46.449219h-116.117188v-46.449219zm0 0" fill="#f8ec7d"/><path d="m127.929688 176.699219-6.691407 126.980469-.546875-.03125h-55.75l-6.691406-126.949219zm0 0" fill="#e48e66"/><path d="m121.238281 303.679688-4.929687 93.660156h-46.4375l-4.929688-93.691406h55.75zm0 0" fill="#f8ec7d"/><path d="m180.179688 81.289062h-11.636719c.136719-1.855468.21875-3.730468.21875-5.617187 0-41.792969-33.878907-75.671875-75.671875-75.671875-41.792969 0-75.667969 33.878906-75.667969 75.671875 0 1.886719.078125 3.761719.214844 5.617187h-11.636719c-3.3125 0-6 2.6875-6 6 0 3.316407 2.6875 6 6 6h13.5c2.707031 11.394532 8.035156 21.996094 15.566406 30.960938h-.042968c-3.3125 0-6 2.6875-6 6v46.449219c0 3.316406 2.6875 6 6 6h17.53125l11.316406 214.957031c.167968 3.1875 2.800781 5.683594 5.992187 5.683594h17.226563v22.660156c0 3.3125 2.6875 6 6 6s6-2.6875 6-6v-22.660156h17.21875c3.191406 0 5.824218-2.496094 5.992187-5.683594l11.320313-214.957031h17.527344c3.316406 0 6-2.683594 6-6v-46.449219c0-3.3125-2.683594-6-6-6h-.039063c7.53125-8.964844 12.863281-19.566406 15.566406-30.960938h13.5c3.316407 0 6-2.683593 6-6 0-3.3125-2.683593-6-6-6zm-150.757813-5.617187c0-35.164063 28.503906-63.671875 63.667969-63.671875 35.164062 0 63.671875 28.507812 63.671875 63.671875 0 1.890625-.085938 3.765625-.25 5.617187h-126.84375c-.160157-1.847656-.246094-3.722656-.246094-5.617187zm46.140625 315.667969-4.300781-81.691406h43.660156l-4.300781 81.691406zm39.988281-93.691406h-44.921875l-6.054687-114.949219h57.03125zm29.601563-126.949219h-104.121094v-34.449219h104.117188zm-10.917969-46.449219h-82.289063c-9.601562-8.105469-16.578124-18.878906-20.042968-30.960938h122.375c-3.460938 12.082032-10.4375 22.855469-20.042969 30.960938zm0 0" fill="#63316d"/></svg>