<svg height="497pt" viewBox="-27 0 497 497.16" width="497pt" xmlns="http://www.w3.org/2000/svg"><path d="m436.664062 96.421875c.101563.71875.152344 1.441406.152344 2.167969.003906 8.539062-6.761718 15.542968-15.296875 15.839844-8.535156.296874-15.765625-6.222657-16.355469-14.742188-.589843-8.519531 5.679688-15.972656 14.171876-16.851562 8.492187-.882813 16.15625 5.125 17.328124 13.585937zm0 0" fill="#6fe3ff"/><path d="m436.664062 13.808594v19.519531l-68.15625 13.8125v-22.679687c-.007812-3.714844 2.609376-6.917969 6.25-7.660157l52.558594-10.640625c2.292969-.464844 4.675782.125 6.488282 1.605469 1.8125 1.484375 2.863281 3.703125 2.859374 6.042969zm0 0" fill="#6fe3ff"/><path d="m352.65625 62.691406c8.75-.003906 15.847656 7.085938 15.851562 15.839844 0 8.75-7.089843 15.847656-15.84375 15.847656-8.75.003906-15.84375-7.089844-15.847656-15.839844.003906-8.746093 7.089844-15.839843 15.839844-15.847656zm0 0" fill="#6fe3ff"/><path d="m292.804688 134.28125h-148.128907c-.007812-8.523438 1.457031-16.980469 4.332031-25h139.46875c2.871094 8.019531 4.335938 16.476562 4.328126 25zm0 0" fill="#f8ec7d"/><path d="m144.675781 134.28125h148.128907c.011718 8.519531-1.453126 16.976562-4.328126 25h-139.46875c-2.875-8.023438-4.339843-16.480469-4.332031-25zm0 0" fill="#e48e66"/><path d="m288.476562 109.28125h-139.46875c3.316407-9.257812 8.453126-17.753906 15.097657-25h109.269531c6.648438 7.246094 11.78125 15.742188 15.101562 25zm0 0" fill="#e48e66"/><path d="m149.007812 159.28125h139.46875c-3.316406 9.257812-8.445312 17.757812-15.089843 25.007812l-.011719-.007812h-109.269531l-.007813.007812c-6.644531-7.25-11.777344-15.75-15.089844-25.007812zm0 0" fill="#f8ec7d"/><path d="m273.375 184.28125.011719.007812c-2.035157 2.214844-4.199219 4.304688-6.480469 6.261719-27.726562 23.734375-68.605469 23.734375-96.332031 0-2.28125-1.957031-4.445313-4.046875-6.476563-6.261719l.007813-.007812zm0 0" fill="#e48e66"/><path d="m273.375 84.28125h-109.269531c14.03125-15.332031 33.855469-24.0625 54.636719-24.0625s40.605468 8.730469 54.632812 24.0625zm0 0" fill="#f8ec7d"/><path d="m266.90625 190.550781.75.878907-11 130.242187h-75.378906l-.742188.058594-10.710937-130.300781.75-.878907c27.726562 23.734375 68.605469 23.734375 96.332031 0zm0 0" fill="#6fe3ff"/><path d="m256.65625 321.671875-1.691406 20h-72.789063l-1.640625-19.941406.742188-.058594zm0 0" fill="#f8ec7d"/><path d="m254.964844 341.671875-1.507813 17.917969c-.0625.699218-.140625 1.390625-.242187 2.082031h-69.320313c-.109375-.710937-.1875-1.433594-.25-2.152344l-1.46875-17.847656zm0 0" fill="#e48e66"/><path d="m183.894531 361.671875h69.320313c-2.488282 17.152344-17.144532 29.90625-34.480469 30h-.179687c-17.40625.011719-32.175782-12.773437-34.660157-30zm0 0" fill="#f8ec7d"/><path d="m105.90625 259.589844c.101562.71875.152344 1.445312.148438 2.171875.003906 8.539062-6.761719 15.542969-15.292969 15.839843-8.535157.296876-15.769531-6.226562-16.359375-14.742187-.585938-8.519531 5.679687-15.972656 14.171875-16.855469 8.496093-.878906 16.160156 5.128906 17.332031 13.585938zm0 0" fill="#f8ec7d"/><path d="m105.90625 176.980469v19.519531l-68.160156 13.808594v-22.6875c-.003906-3.714844 2.613281-6.914063 6.25-7.652344l52.558594-10.648438c2.296874-.464843 4.679687.128907 6.492187 1.613282s2.859375 3.703125 2.859375 6.046875zm0 0" fill="#f8ec7d"/><path d="m21.894531 225.859375c8.75 0 15.839844 7.09375 15.839844 15.839844 0 8.75-7.089844 15.839843-15.839844 15.839843-8.746093 0-15.839843-7.089843-15.839843-15.839843.003906-8.746094 7.09375-15.835938 15.839843-15.839844zm0 0" fill="#f8ec7d"/><g fill="#63316d"><path d="m159.675781 188.347656c1.355469 1.476563 2.773438 2.902344 4.226563 4.261719l13.761718 167.410156c.078126.921875.179688 1.761719.292969 2.503907 2.59375 18.015624 16.757813 32.164062 34.777344 34.734374v25.835938c.011719 27.007812 21.867187 48.917969 48.875 48.984375h.167969c26.976562-.039063 48.84375-21.890625 48.910156-48.867187v-139.417969c-.003906-16.636719 13.476562-30.125 30.113281-30.128907 16.632813 0 30.121094 13.480469 30.125 30.117188v207.378906c0 3.3125 2.6875 6 6 6s6-2.6875 6-6v-207.390625c-.003906-23.265625-18.863281-42.117187-42.125-42.117187-23.261719.003906-42.117187 18.867187-42.113281 42.128906v139.421875c-.050781 20.359375-16.554688 36.84375-36.910156 36.875v6l-.152344-6c-20.386719-.050781-36.886719-16.589844-36.890625-36.976563v-25.914062c17.804687-2.808594 31.734375-16.835938 34.417969-34.65625.117187-.804688.210937-1.625.28125-2.4375l14.144531-167.484375c1.4375-1.351563 2.851563-2.769531 4.234375-4.269531 28.027344-30.589844 28.023438-77.527344-.011719-108.109375-29.855469-32.621094-80.503906-34.859375-113.121093-5.003907-32.621094 29.855469-34.859376 80.503907-5.003907 113.121094zm124.425781-73.066406c1.234376 4.242188 2.054688 8.597656 2.441407 13h-135.605469c.386719-4.402344 1.203125-8.757812 2.441406-13zm2.441407 25c-.386719 4.402344-1.207031 8.753906-2.441407 13h-130.71875c-1.238281-4.246094-2.054687-8.597656-2.445312-13zm-99.5 187.390625h63.082031l-.675781 8h-61.742188zm1.644531 20h59.75l-.675781 8h-58.410157zm30.042969 38h-.179688c-11.773437.019531-22.386719-7.097656-26.832031-18h53.660156c-4.488281 10.78125-14.964844 17.859375-26.644531 18zm32.410156-70h-65.078125l-9.3125-113.234375c25.730469 15.878906 58.21875 15.882812 83.953125.015625zm-71.074219-125.390625h77.347656c-23.269531 16.089844-54.074218 16.089844-77.347656 0zm90.597656-12h-103.847656c-3.386718-3.984375-6.296875-8.347656-8.675781-13h121.199219c-2.378906 4.652344-5.289063 9.015625-8.671875 13zm-13.296874-100h-77.253907c23.242188-16.082031 54.011719-16.082031 77.253907 0zm-90.53125 12h103.8125c3.390624 3.980469 6.304687 8.34375 8.6875 13h-121.1875c2.382812-4.65625 5.296874-9.019531 8.6875-13zm0 0"/><path d="m218.734375 240.03125c-3.3125 0-6 2.683594-6 6v30.578125c0 3.3125 2.6875 6 6 6 3.316406 0 6-2.6875 6-6v-30.578125c0-3.316406-2.683594-6-6-6zm0 0"/><path d="m442.664062 33.367188v-19.558594c0-4.140625-1.859374-8.0625-5.0625-10.683594-3.207031-2.621094-7.417968-3.664062-11.476562-2.84375l-52.5625 10.640625c-6.425781 1.324219-11.042969 6.976563-11.054688 13.539063v34.585937c-8.722656-4.402344-19.308593-2.476563-25.917968 4.71875-6.613282 7.195313-7.640625 17.902344-2.519532 26.222656 5.121094 8.320313 15.148438 12.226563 24.546876 9.566407 9.402343-2.664063 15.890624-11.246094 15.890624-21.015626v-26.492187l56.15625-11.378906v38.375c-9-4.5-19.910156-2.3125-26.480468 5.3125-6.570313 7.625-7.121094 18.738281-1.339844 26.976562 5.785156 8.238281 16.425781 11.496094 25.828125 7.910157 9.402344-3.589844 15.167969-13.109376 13.992187-23.105469zm-90.007812 55.011718c-5.4375 0-9.84375-4.410156-9.839844-9.847656s4.414063-9.84375 9.847656-9.839844c5.4375 0 9.84375 4.410156 9.84375 9.847656-.007812 5.4375-4.414062 9.839844-9.851562 9.839844zm21.851562-48.574218v-15.34375c-.003906-.859376.597657-1.601563 1.4375-1.78125l52.5625-10.640626c.53125-.105468 1.082032.03125 1.5.375.414063.34375.65625.855469.65625 1.394532v14.617187zm46.46875 68.636718c-5.222656.007813-9.546874-4.066406-9.84375-9.28125-.300781-5.214844 3.527344-9.757812 8.71875-10.347656 5.1875-.589844 9.9375 2.976562 10.8125 8.128906v1.359375c.003907.375.039063.746094.109376 1.117188-.429688 5.09375-4.683594 9.011719-9.796876 9.023437zm0 0"/><path d="m43.746094 241.699219v-26.484375l56.160156-11.378906v38.375c-9.003906-4.503907-19.917969-2.316407-26.488281 5.308593-6.574219 7.625-7.128907 18.742188-1.34375 26.984375 5.78125 8.238282 16.425781 11.5 25.832031 7.910156 9.40625-3.585937 15.171875-13.105468 14-23.105468v-82.328125c.003906-4.144531-1.855469-8.066407-5.0625-10.691407-3.203125-2.625-7.417969-3.667968-11.480469-2.847656l-52.5625 10.648438c-6.421875 1.324218-11.039062 6.972656-11.054687 13.53125v34.59375c-8.722656-4.398438-19.304688-2.472656-25.910156 4.722656-6.609376 7.195312-7.636719 17.902344-2.511719 26.21875 5.121093 8.316406 15.144531 12.21875 24.542969 9.558594 9.398437-2.664063 15.882812-11.246094 15.878906-21.015625zm46.46875 29.902343c-5.21875.003907-9.535156-4.070312-9.832032-9.28125-.296874-5.210937 3.527344-9.75 8.714844-10.335937 5.1875-.589844 9.929688 2.976563 10.808594 8.121094v1.363281c0 .375.039062.75.109375 1.121094-.433594 5.089844-4.691406 9.003906-9.800781 9.011718zm-45.027344-85.75 52.5625-10.652343c.527344-.109375 1.074219.027343 1.488281.371093.425781.34375.671875.863282.667969 1.410157v14.613281l-56.160156 11.378906v-15.351562c0-.859375.601562-1.597656 1.441406-1.769532zm-33.132812 55.847657c0-5.4375 4.40625-9.847657 9.84375-9.847657 5.4375-.003906 9.847656 4.40625 9.847656 9.84375 0 5.441407-4.410156 9.847657-9.851563 9.84375-5.429687-.003906-9.832031-4.40625-9.839843-9.839843zm0 0"/><path d="m87.164062 83.820312c11.789063 0 21.34375-9.554687 21.34375-21.339843 0-11.785157-9.554687-21.339844-21.34375-21.339844-11.785156 0-21.339843 9.554687-21.339843 21.339844.015625 11.78125 9.5625 21.328125 21.339843 21.339843zm0-30.679687c5.160157 0 9.34375 4.179687 9.34375 9.339844 0 5.15625-4.183593 9.339843-9.34375 9.339843-5.15625 0-9.339843-4.183593-9.339843-9.339843.007812-5.15625 4.1875-9.335938 9.339843-9.339844zm0 0"/><path d="m399.015625 201.011719c10.054687 0 18.210937-8.148438 18.210937-18.203125 0-10.058594-8.152343-18.210938-18.207031-18.207032-10.054687 0-18.207031 8.152344-18.203125 18.207032.011719 10.046875 8.152344 18.191406 18.199219 18.203125zm0-24.410157c3.425781-.003906 6.207031 2.773438 6.210937 6.199219.003907 3.425781-2.773437 6.207031-6.199218 6.210938-3.429688 0-6.207032-2.773438-6.210938-6.203125 0-3.425782 2.773438-6.203125 6.199219-6.207032zm0 0"/><path d="m15.894531 343.738281c0 10.597657 8.585938 19.1875 19.179688 19.191407 10.597656.003906 19.1875-8.585938 19.191406-19.179688s-8.585937-19.1875-19.179687-19.191406c-10.589844.011718-19.175782 8.589844-19.191407 19.179687zm26.371094 0c.003906 3.972657-3.214844 7.191407-7.183594 7.191407s-7.1875-3.21875-7.1875-7.1875c.003907-3.96875 3.222657-7.183594 7.191407-7.183594 3.964843.003906 7.175781 3.21875 7.179687 7.179687zm0 0"/><path d="m294.847656 39.328125c10.859375 0 19.660156-8.808594 19.660156-19.667969-.003906-10.859375-8.8125-19.66406225-19.671874-19.660156-10.859376.00390625-19.664063 8.808594-19.660157 19.671875.011719 10.855469 8.8125 19.652344 19.671875 19.65625zm0-27.328125c4.230469.003906 7.660156 3.433594 7.660156 7.667969-.003906 4.230469-3.433593 7.660156-7.664062 7.660156-4.234375.003906-7.664062-3.425781-7.667969-7.65625.003907-4.238281 3.433594-7.667969 7.671875-7.671875zm0 0"/></g></svg>