<svg height="489pt" viewBox="-148 0 489 489.88052" width="489pt" xmlns="http://www.w3.org/2000/svg"><path d="m186.445312 96c0 .171875 0 .328125-.011718.5h-179.976563c-.011719-.171875-.011719-.328125-.011719-.5-.011718-9.949219 1.632813-19.828125 4.859376-29.238281h170.28125c3.226562 9.410156 4.871093 19.289062 4.859374 29.238281zm0 0" fill="#f8ec7d"/><path d="m6.59375 96.5h179.839844c-.035156 10.59375-1.953125 21.097656-5.667969 31.019531h-168.640625c-3.714844-9.921875-5.632812-20.425781-5.667969-31.019531zm0 0" fill="#6fe3ff"/><path d="m181.585938 66.761719h-170.28125c3.667968-10.6875 9.324218-20.578125 16.671874-29.160157h136.9375c7.347657 8.582032 13.003907 18.472657 16.671876 29.160157zm0 0" fill="#6fe3ff"/><path d="m12.125 127.519531h168.640625c-4.027344 10.777344-10.09375 20.683594-17.859375 29.171875h-132.921875c-7.765625-8.488281-13.832031-18.394531-17.859375-29.171875zm0 0" fill="#f8ec7d"/><path d="m164.914062 37.601562h-136.9375c17.09375-20.050781 42.121094-31.601562 68.46875-31.601562 26.347657 0 51.375 11.550781 68.46875 31.601562zm0 0" fill="#f8ec7d"/><path d="m29.984375 156.691406h132.921875c-2.863281 3.128906-5.941406 6.058594-9.210938 8.757813-33.734374 27.804687-82.574218 27.347656-115.78125-1.089844-2.800781-2.386719-5.449218-4.949219-7.929687-7.667969zm0 0" fill="#6fe3ff"/><path d="m155.867188 165.628906-13.351563 158.089844h-91.589844l-.910156.070312-13.019531-158.339843.917968-1.089844c33.207032 28.4375 82.046876 28.894531 115.78125 1.089844zm0 0" fill="#e48e66"/><path d="m142.515625 323.71875-3.890625 46.082031c-1.851562 21.949219-20.148438 38.859375-42.179688 38.980469h-.230468c-22.15625 0-40.605469-17-42.417969-39.082031l-3.78125-45.910157.910156-.070312zm0 0" fill="#f8ec7d"/><g fill="#63316d"><path d="m6.503906 129.617188c4.285156 11.503906 10.753906 22.066406 19.046875 31.113281 1.738281 1.90625 3.582031 3.753906 5.492188 5.527343l16.773437 203.933594c1.882813 23.007813 19.710938 41.5 42.628906 44.234375v32.535157c-.0625 15.433593 6.050782 30.253906 16.980469 41.15625 2.339844 2.347656 6.140625 2.351562 8.488281.011718 2.34375-2.339844 2.351563-6.136718.011719-8.484375-8.675781-8.65625-13.53125-20.421875-13.480469-32.675781v-32.589844c22.730469-2.828125 40.34375-21.242187 42.15625-44.074218l3.800782-44.984376c.148437-.519531.222656-1.058593.222656-1.597656 0-.210937-.011719-.425781-.03125-.632812l13.238281-156.816406c1.90625-1.773438 3.753907-3.617188 5.5-5.53125 16.027344-17.511719 24.972657-40.351563 25.101563-64.085938 0-.019531 0-.039062 0-.054688 0-.019531 0-.066406 0-.101562 0-.015625 0-.03125 0-.050781 0-.148438.007812-.300781.007812-.449219 0-53.019531-42.980468-96-96-96-53.019531 0-96 42.980469-96 96 0 .222656 0 .4375.011719.65625.050781 11.257812 2.101563 22.417969 6.050781 32.960938zm170.671875-56.855469c1.660157 5.785156 2.691407 11.730469 3.074219 17.738281h-167.609375c.382813-6.007812 1.414063-11.953125 3.074219-17.738281zm3 29.738281c-.484375 6.460938-1.722656 12.84375-3.6875 19.019531h-160.085937c-1.96875-6.175781-3.203125-12.558593-3.6875-19.019531zm-43.175781 215.21875h-81.460938l-11.628906-141.378906c31.898438 20.871094 73.125 20.875 105.027344.015625zm-40.554688-137.71875c-18.457031 0-36.394531-6.085938-51.046874-17.308594h102.113281c-14.664063 11.214844-32.605469 17.296875-51.066407 17.308594zm0 222.78125h-.230468c-19.03125 0-34.882813-14.605469-36.441406-33.574219l-3.246094-39.488281h79.460937l-3.34375 39.578125c-1.5 18.886719-17.253906 33.457031-36.199219 33.484375zm63.734376-252.089844h-127.46875c-4.503907-5.230468-8.34375-10.996094-11.429688-17.171875h150.328125c-3.085937 6.175781-6.925781 11.941407-11.429687 17.171875zm-9.8125-119.089844h-107.84375c31.199218-26.136718 76.644531-26.136718 107.84375 0zm-119.546876 12h131.25c4.230469 5.265626 7.800782 11.027344 10.636719 17.160157h-152.523437c2.835937-6.132813 6.40625-11.894531 10.636718-17.160157zm0 0"/><path d="m96.445312 225.800781c-3.3125 0-6 2.683594-6 6v37.160157c0 3.3125 2.6875 6 6 6s6-2.6875 6-6v-37.160157c0-3.316406-2.6875-6-6-6zm0 0"/></g></svg>