<svg height="431pt" viewBox="-120 0 431 431.99967" width="431pt" xmlns="http://www.w3.org/2000/svg"><path d="m147.140625 171.539062v39.03125c0 28.242188-22.898437 51.140626-51.140625 51.140626s-51.140625-22.898438-51.140625-51.140626v-39.03125zm0 0" fill="#f8ec7d"/><path d="m147.140625 57.140625v114.398437h-102.28125v-114.398437c0-28.246094 22.898437-51.140625 51.140625-51.140625s51.140625 22.894531 51.140625 51.140625zm-28.128906 15.480469c-.003907-2.121094-1.722657-3.835938-3.84375-3.832032-2.117188.003907-3.832031 1.722657-3.828125 3.839844.003906 2.117188 1.722656 3.832032 3.839844 3.832032 1.015624 0 1.992187-.40625 2.710937-1.128907.71875-.71875 1.121094-1.695312 1.121094-2.710937zm0 51.136718c-.003907-2.117187-1.722657-3.832031-3.84375-3.828124-2.117188.003906-3.832031 1.722656-3.828125 3.839843.003906 2.117188 1.722656 3.832031 3.839844 3.832031 1.019531 0 1.996093-.40625 2.714843-1.125.71875-.722656 1.121094-1.699218 1.117188-2.71875zm-38.351563-51.136718c-.003906-2.117188-1.71875-3.832032-3.835937-3.832032-2.117188 0-3.832031 1.71875-3.835938 3.832032 0 2.117187 1.714844 3.835937 3.832031 3.839844 2.121094 0 3.839844-1.722657 3.839844-3.839844zm0 51.136718c-.003906-2.113281-1.71875-3.828124-3.835937-3.828124-2.117188 0-3.832031 1.714843-3.835938 3.832031 0 2.117187 1.714844 3.835937 3.832031 3.839843 1.019532 0 1.996094-.402343 2.71875-1.125.71875-.71875 1.121094-1.699218 1.121094-2.71875zm0 0" fill="#e48e66"/><g fill="#63316d"><path d="m191.5 210.570312c0-3.3125-2.6875-6-6-6s-6 2.6875-6 6c0 46.113282-37.382812 83.5-83.5 83.5s-83.5-37.386718-83.5-83.5c0-3.3125-2.6875-6-6-6s-6 2.6875-6 6c.058594 50.386719 39.214844 92.082032 89.5 95.304688v114.125h-56.96875c-3.316406 0-6 2.6875-6 6s2.683594 6 6 6h125.9375c3.316406 0 6-2.6875 6-6s-2.683594-6-6-6h-56.96875v-114.125c50.285156-3.222656 89.4375-44.917969 89.5-95.304688zm0 0"/><path d="m136.398438 16.738281c-16.339844-16.34375-40.917969-21.234375-62.269532-12.390625-21.351562 8.84375-35.273437 29.679688-35.273437 52.792969v108.398437h-14c-3.3125 0-6 2.6875-6 6s2.6875 6 6 6h14v33.03125c0 31.558594 25.582031 57.140626 57.140625 57.140626 31.554687 0 57.140625-25.582032 57.140625-57.140626v-33.03125h14c3.3125 0 6-2.6875 6-6s-2.6875-6-6-6h-14v-108.398437c.039062-15.164063-5.988281-29.710937-16.738281-40.402344zm-85.539063 40.402344c0-24.929687 20.210937-45.140625 45.140625-45.140625s45.140625 20.210938 45.140625 45.140625v108.398437h-90.28125zm90.28125 153.429687c0 24.929688-20.210937 45.140626-45.140625 45.140626s-45.140625-20.210938-45.140625-45.140626v-33.03125h90.28125zm0 0"/><path d="m76.820312 62.78125c-5.433593 0-9.839843 4.402344-9.839843 9.839844 0 5.433594 4.40625 9.839844 9.839843 9.839844 5.433594 0 9.839844-4.40625 9.839844-9.839844-.003906-5.433594-4.40625-9.839844-9.839844-9.839844zm0 12c-1.191406-.007812-2.152343-.976562-2.152343-2.167969.003906-1.191406.972656-2.15625 2.164062-2.152343 1.191407 0 2.15625.96875 2.15625 2.160156 0 .574218-.226562 1.125-.636719 1.527344-.40625.40625-.957031.632812-1.53125.632812zm0 0"/><path d="m115.179688 62.78125c-5.4375-.007812-9.847657 4.394531-9.851563 9.832031-.003906 5.433594 4.402344 9.84375 9.839844 9.847657 5.433593 0 9.84375-4.40625 9.84375-9.839844-.007813-5.429688-4.402344-9.828125-9.832031-9.839844zm0 12c-1.191407 0-2.160157-.96875-2.160157-2.160156 0-1.195313.96875-2.160156 2.160157-2.160156 1.191406 0 2.160156.964843 2.160156 2.160156-.003906 1.191406-.96875 2.15625-2.160156 2.160156zm0 0"/><path d="m76.820312 113.929688c-5.433593.003906-9.832031 4.410156-9.832031 9.839843.003907 5.433594 4.410157 9.832031 9.839844 9.832031 5.433594-.003906 9.835937-4.410156 9.832031-9.84375-.007812-5.429687-4.410156-9.828124-9.839844-9.828124zm0 12c-1.195312-.003907-2.160156-.972657-2.160156-2.167969 0-1.191407.96875-2.160157 2.164063-2.160157 1.191406-.003906 2.164062.964844 2.164062 2.15625.003907.578126-.226562 1.128907-.632812 1.535157-.40625.410156-.960938.636719-1.535157.636719zm0 0"/><path d="m115.179688 113.929688c-5.433594-.003907-9.839844 4.398437-9.839844 9.832031 0 5.433593 4.402344 9.839843 9.835937 9.839843 5.433594-.003906 9.835938-4.410156 9.835938-9.84375-.011719-5.421874-4.40625-9.820312-9.832031-9.828124zm0 12c-1.195313.003906-2.167969-.964844-2.167969-2.160157-.003907-1.195312.960937-2.167969 2.15625-2.167969 1.199219-.003906 2.167969.960938 2.171875 2.15625 0 1.195313-.964844 2.164063-2.160156 2.171876zm0 0"/></g></svg>