<svg height="442pt" viewBox="-45 0 442 442" width="442pt" xmlns="http://www.w3.org/2000/svg"><path d="m222.691406 269.351562c0-8.753906-7.089844-15.847656-15.839844-15.851562-8.753906-.003906-15.847656 7.089844-15.851562 15.839844s7.089844 15.847656 15.839844 15.851562c8.75-.003906 15.84375-7.09375 15.851562-15.839844zm78.160156-12.121093c-1.171874-8.457031-8.835937-14.46875-17.332031-13.585938-8.492187.882813-14.761719 8.335938-14.171875 16.851563.589844 8.519531 7.824219 15.039062 16.355469 14.746094 8.535156-.296876 15.300781-7.304688 15.296875-15.84375 0-.722657-.050781-1.449219-.148438-2.167969zm0-73.089844v-19.519531c0-2.34375-1.050781-4.5625-2.863281-6.042969-1.8125-1.484375-4.195312-2.074219-6.488281-1.609375l-62.558594 10.640625c-3.640625.742187-6.253906 3.945313-6.25 7.660156v22.679688zm-54.851562-63.140625c55.226562 0 100 44.773438 100 100s-44.773438 100-100 100-100-44.773438-100-100 44.773438-100 100-100zm0 0" fill="#6fe3ff"/><path d="m300.851562 257.230469c.097657.71875.148438 1.445312.148438 2.167969.003906 8.539062-6.761719 15.546874-15.296875 15.84375-8.53125.292968-15.765625-6.226563-16.355469-14.746094-.589844-8.515625 5.679688-15.96875 14.171875-16.851563 8.496094-.882812 16.160157 5.128907 17.332031 13.585938zm0 0" fill="#f8ec7d"/><path d="m300.851562 164.621094v19.519531l-78.160156 13.808594v-22.679688c-.003906-3.714843 2.609375-6.917969 6.25-7.660156l62.558594-10.640625c2.292969-.464844 4.675781.125 6.488281 1.609375 1.8125 1.480469 2.863281 3.699219 2.863281 6.042969zm0 0" fill="#f8ec7d"/><path d="m246 364v32c0 22.089844-17.910156 40-40 40h-160c-22.089844 0-40-17.910156-40-40v-32zm-105 36c0-8.285156-6.714844-15-15-15s-15 6.714844-15 15 6.714844 15 15 15c8.28125-.003906 14.996094-6.71875 15-15zm0 0" fill="#e48e66"/><path d="m6 66v-20c0-22.089844 17.910156-40 40-40h160c22.089844 0 40 17.910156 40 40v75c-55.226562 0-100 44.773438-100 100s44.773438 100 100 100v43h-240zm0 0" fill="#f8ec7d"/><path d="m206.839844 253.5c8.75-.003906 15.847656 7.089844 15.851562 15.839844 0 8.75-7.089844 15.847656-15.839844 15.851562-8.753906 0-15.847656-7.089844-15.851562-15.839844.003906-8.75 7.089844-15.84375 15.839844-15.851562zm0 0" fill="#f8ec7d"/><path d="m141 400c0 8.285156-6.714844 15-15 15s-15-6.714844-15-15 6.714844-15 15-15 15 6.714844 15 15zm0 0" fill="#f8ec7d"/><g fill="#63316d"><path d="m194.691406 72h11.117188c3.316406 0 6-2.6875 6-6s-2.683594-6-6-6h-11.117188c-3.316406 0-6 2.6875-6 6s2.683594 6 6 6zm0 0"/><path d="m126 379c-11.597656 0-21 9.402344-21 21s9.402344 21 21 21 21-9.402344 21-21c-.011719-11.59375-9.40625-20.988281-21-21zm0 30c-4.96875 0-9-4.03125-9-9s4.03125-9 9-9 9 4.03125 9 9c-.003906 4.96875-4.03125 8.996094-9 9zm0 0"/><path d="m252 115.171875v-69.171875c-.027344-25.394531-20.605469-45.9726562-46-46h-160c-25.394531.0273438-45.9726562 20.605469-46 46v350c.0273438 25.394531 20.605469 45.972656 46 46h160c25.394531-.027344 45.972656-20.605469 46-46v-69.171875c56.097656-3.210937 99.945312-49.636719 99.945312-105.828125s-43.847656-102.617188-99.945312-105.828125zm-206-103.171875h160c18.769531.019531 33.980469 15.230469 34 34v14h-14c-3.3125 0-6 2.6875-6 6s2.6875 6 6 6h14v43.171875c-56.097656 3.210937-99.945312 49.636719-99.945312 105.828125s43.847656 102.617188 99.945312 105.828125v31.171875h-228v-286h163c3.3125 0 6-2.6875 6-6s-2.6875-6-6-6h-163v-14c.019531-18.769531 15.230469-33.980469 34-34zm160 418h-160c-18.769531-.019531-33.980469-15.230469-34-34v-26h228v26c-.019531 18.769531-15.230469 33.980469-34 34zm40-115c-51.914062 0-94-42.085938-94-94s42.085938-94 94-94 94 42.085938 94 94c-.058594 51.890625-42.109375 93.941406-94 94zm0 0"/><path d="m30.398438 122.5h33.601562c3.3125 0 6-2.6875 6-6s-2.6875-6-6-6h-33.601562c-3.3125 0-6 2.6875-6 6s2.6875 6 6 6zm0 0"/><path d="m91.601562 122.5h21.597657c3.316406 0 6-2.6875 6-6s-2.683594-6-6-6h-21.597657c-3.316406 0-6 2.6875-6 6s2.683594 6 6 6zm0 0"/><path d="m142 116.5c0 3.3125 2.6875 6 6 6h37.601562c3.3125 0 6-2.6875 6-6s-2.6875-6-6-6h-37.601562c-3.3125 0-6 2.6875-6 6zm0 0"/><path d="m30.398438 178.5h57.601562c3.3125 0 6-2.6875 6-6s-2.6875-6-6-6h-57.601562c-3.3125 0-6 2.6875-6 6s2.6875 6 6 6zm0 0"/><path d="m135.199219 166.5h-19.597657c-3.316406 0-6 2.6875-6 6s2.683594 6 6 6h19.597657c3.316406 0 6-2.6875 6-6s-2.683594-6-6-6zm0 0"/><path d="m30.398438 234.5h14.402343c3.3125 0 6-2.6875 6-6s-2.6875-6-6-6h-14.402343c-3.3125 0-6 2.6875-6 6s2.6875 6 6 6zm0 0"/><path d="m115 222.5h-42.601562c-3.3125 0-6 2.6875-6 6s2.6875 6 6 6h42.601562c3.3125 0 6-2.6875 6-6s-2.6875-6-6-6zm0 0"/><path d="m94.800781 278.5h-64.402343c-3.3125 0-6 2.6875-6 6s2.6875 6 6 6h64.402343c3.3125 0 6-2.6875 6-6s-2.6875-6-6-6zm0 0"/><path d="m116.398438 284.5c0 3.3125 2.6875 6 6 6h11.601562c3.3125 0 6-2.6875 6-6s-2.6875-6-6-6h-11.601562c-3.3125 0-6 2.6875-6 6zm0 0"/><path d="m84.800781 320.5h-54.402343c-3.3125 0-6 2.6875-6 6s2.6875 6 6 6h54.402343c3.3125 0 6-2.6875 6-6s-2.6875-6-6-6zm0 0"/><path d="m106.398438 326.5c0 3.3125 2.6875 6 6 6h81.601562c3.3125 0 6-2.6875 6-6s-2.6875-6-6-6h-81.601562c-3.3125 0-6 2.6875-6 6zm0 0"/><path d="m306.851562 164.621094c-.003906-4.125-1.84375-8.027344-5.027343-10.652344-3.179688-2.621094-7.363281-3.6875-11.410157-2.902344l-62.480468 10.632813-.1875.035156c-6.425782 1.328125-11.042969 6.980469-11.054688 13.539063v74.585937c-8.722656-4.398437-19.308594-2.472656-25.917968 4.722656-6.613282 7.195313-7.640626 17.902344-2.519532 26.222657 5.121094 8.320312 15.148438 12.226562 24.546875 9.566406 9.402344-2.664063 15.890625-11.246094 15.890625-21.015625v-66.371094l66.160156-11.691406v48.554687c-9.003906-4.5-19.917968-2.316406-26.488281 5.3125-6.570312 7.625-7.125 18.738282-1.34375 26.980469 5.785157 8.238281 16.425781 11.5 25.828125 7.910156 9.40625-3.585937 15.175782-13.105469 14.003906-23.101562zm-100.011718 114.570312c-5.4375-.003906-9.84375-4.414062-9.839844-9.851562s4.414062-9.84375 9.851562-9.839844 9.839844 4.414062 9.839844 9.851562c-.007812 5.433594-4.414062 9.835938-9.851562 9.839844zm21.851562-88.390625v-15.53125c0-.835937.570313-1.566406 1.382813-1.765625l62.433593-10.617187.183594-.035157c.53125-.105468 1.078125.03125 1.496094.375.417969.339844.660156.851563.664062 1.394532v14.484375zm56.46875 78.453125c-5.222656.007813-9.542968-4.066406-9.84375-9.28125-.300781-5.214844 3.527344-9.757812 8.71875-10.347656 5.1875-.589844 9.9375 2.976562 10.816406 8.128906v1.359375c0 .378907.035157.753907.105469 1.121094-.433593 5.09375-4.6875 9.003906-9.796875 9.015625zm0 0"/></g></svg>