<svg height="491pt" viewBox="-10 0 491 491.66062" width="491pt" xmlns="http://www.w3.org/2000/svg"><path d="m466.070312 439.929688v25.730468c.003907 11.046875-8.953124 20.003906-20 20h-100c-11.046874 0-20-8.953125-20-20v-25.730468zm-65.328124 22.871093c0-2.578125-2.085938-4.667969-4.660157-4.671875-2.578125 0-4.667969 2.085938-4.671875 4.660156-.003906 2.578126 2.082032 4.667969 4.660156 4.671876 2.574219 0 4.664063-2.085938 4.671876-4.660157zm0 0" fill="#e48e66"/><path d="m326.070312 269.832031v-15c0-11.046875 8.953126-20 20-20h100c11.046876-.003906 20.003907 8.953125 20 20v185.097657h-140zm0 0" fill="#f8ec7d"/><path d="m285.140625 69.949219 6.828125 32.25-39.410156-25.636719 25.640625-39.421875zm0 0" fill="#6fe3ff"/><path d="m246.730469 405.851562-6.832031-32.25 39.421874 25.640626-25.648437 39.417968zm0 0" fill="#6fe3ff"/><path d="m206.332031 6v58.3125l-129.101562 36.777344v-58.320313zm0 0" fill="#f8ec7d"/><path d="m170.878906 128.53125c19.582032 0 35.453125 13.199219 35.453125 29.488281 0 16.292969-15.871093 29.480469-35.453125 29.480469-19.578125 0-35.457031-13.199219-35.457031-29.480469 0-16.277343 15.878906-29.488281 35.457031-29.488281zm0 0" fill="#f8ec7d"/><path d="m77.230469 211.628906c0-16.285156-15.871094-29.488281-35.449219-29.488281s-35.449219 13.203125-35.449219 29.488281c0 16.289063 15.871094 29.492188 35.449219 29.492188s35.449219-13.203125 35.449219-29.492188zm0 0" fill="#f8ec7d"/><g fill="#63316d"><path d="m160.929688 381.441406c-33.503907-21.835937-54.261719-58.628906-55.625-98.59375-.042969-2.164062-1.25-4.132812-3.152344-5.15625-1.90625-1.027344-4.210938-.949218-6.042969.203125-1.828125 1.152344-2.898437 3.203125-2.796875 5.359375 1.210938 37.367188 17.933594 72.535156 46.148438 97.0625 28.214843 24.523438 65.371093 36.183594 102.539062 32.179688l5.800781 27.40625c.5 2.375 2.382813 4.214844 4.769531 4.660156 2.386719.441406 4.804688-.59375 6.128907-2.628906l25.652343-39.421875c1.804688-2.773438 1.019532-6.492188-1.757812-8.296875l-39.421875-25.640625c-2.03125-1.324219-4.664063-1.292969-6.664063.082031-2.003906 1.371094-2.980468 3.816406-2.476562 6.191406l5.472656 25.847656c-27.617187 2.679688-55.324218-4.109374-78.574218-19.253906zm110.089843 19.558594-14.476562 22.246094-3.90625-18.460938c-.019531-.109375-.042969-.21875-.070313-.328125l-3.796875-17.929687zm0 0"/><path d="m249.289062 81.589844 39.410157 25.640625c2.035156 1.324219 4.667969 1.292969 6.667969-.082031 2.003906-1.371094 2.980468-3.816407 2.476562-6.191407l-5.472656-25.847656c33.671875-3.25 67.183594 7.566406 92.601562 29.886719 25.417969 22.316406 40.472656 54.152344 41.601563 87.960937.109375 3.230469 2.761719 5.792969 5.992187 5.792969h.207032c3.3125-.113281 5.90625-2.886719 5.792968-6.199219-1.246094-37.351562-17.980468-72.503906-46.1875-97.023437-28.207031-24.515625-65.34375-36.191406-102.507812-32.226563l-5.800782-27.402343c-.503906-2.375-2.386718-4.210938-4.773437-4.65625-2.382813-.445313-4.804687.59375-6.125 2.628906l-25.640625 39.417968c-1.808594 2.777344-1.019531 6.492188 1.757812 8.300782zm26.039063-29.03125 3.902344 18.453125c.019531.113281.042969.226562.070312.339843l3.800781 17.917969-22.242187-14.46875zm0 0"/><path d="m320.070312 254.832031v210.828125c.015626 14.351563 11.648438 25.984375 26 26h100c14.351563-.015625 25.984376-11.648437 26-26v-210.828125c-.015624-14.355469-11.648437-25.984375-26-26h-100c-14.351562.015625-25.984374 11.644531-26 26zm126 224.828125h-100c-7.730468-.007812-13.992187-6.269531-14-14v-19.730468h128v19.730468c-.007812 7.730469-6.269531 13.992188-14 14zm14-224.828125v9h-11.660156c-3.3125 0-6 2.683594-6 6 0 3.3125 2.6875 6 6 6h11.660156v158.097657h-128v-158.097657h70.449219c3.316407 0 6-2.6875 6-6 0-3.316406-2.683593-6-6-6h-70.449219v-9c.007813-7.730469 6.269532-13.992187 14-14h100c7.730469.007813 13.992188 6.269531 14 14zm0 0"/><path d="m420.808594 275.832031h9.023437c3.3125 0 6-2.6875 6-6 0-3.316406-2.6875-6-6-6h-9.023437c-3.3125 0-6 2.683594-6 6 0 3.3125 2.6875 6 6 6zm0 0"/><path d="m396.070312 452.128906c-5.890624.003906-10.660156 4.78125-10.660156 10.667969 0 5.890625 4.773438 10.664063 10.664063 10.664063 5.886719 0 10.664062-4.773438 10.667969-10.660157-.003907-5.890625-4.78125-10.667969-10.671876-10.671875zm0 12c-.738281 0-1.332031-.601562-1.328124-1.339844 0-.734374.601562-1.332031 1.339843-1.328124.734375.003906 1.332031.601562 1.328125 1.339843 0 .355469-.140625.695313-.394531.941407-.25.25-.589844.390624-.945313.386718zm0 0"/><path d="m41.78125 247.121094c22.855469 0 41.449219-15.921875 41.449219-35.492188v-106.007812l117.101562-33.363282v60.816407c-8.242187-6.921875-18.691406-10.664063-29.453125-10.542969-22.859375 0-41.457031 15.921875-41.457031 35.488281 0 19.570313 18.597656 35.480469 41.457031 35.480469 22.863282 0 41.453125-15.914062 41.453125-35.480469v-152.019531c0-1.882812-.882812-3.65625-2.386719-4.789062-1.5-1.132813-3.449218-1.496094-5.257812-.980469l-129.101562 36.769531c-2.578126.734375-4.355469 3.089844-4.355469 5.769531v143.917969c-8.238281-6.925781-18.6875-10.667969-29.449219-10.546875-22.855469 0-41.449219 15.921875-41.449219 35.488281 0 19.570313 18.59375 35.492188 41.449219 35.492188zm129.097656-65.621094c-16.242187 0-29.457031-10.53125-29.457031-23.480469 0-12.945312 13.214844-23.488281 29.457031-23.488281 16.246094 0 29.453125 10.539062 29.453125 23.488281 0 12.953125-13.210937 23.480469-29.453125 23.480469zm29.453125-167.550781v45.832031l-117.101562 33.363281v-45.84375zm-158.550781 174.191406c16.238281 0 29.449219 10.539063 29.449219 23.488281 0 12.953125-13.210938 23.492188-29.449219 23.492188s-29.449219-10.539063-29.449219-23.492188c0-12.949218 13.210938-23.488281 29.449219-23.488281zm0 0"/></g></svg>