<svg height="470pt" viewBox="0 -23 470.5 470" width="470pt" xmlns="http://www.w3.org/2000/svg"><path d="m464.5 127.164062v61.949219l-82.078125-15.410156v-61.949219zm0 0" fill="#e48e66"/><path d="m348.78125 256.722656c18.578125 0 33.640625 12.53125 33.640625 27.980469s-15.0625 27.992187-33.640625 27.992187c-18.582031 0-33.652344-12.53125-33.652344-27.992187s15.0625-27.980469 33.652344-27.980469zm0 0" fill="#e48e66"/><path d="m309.980469 366.132812-27.628907-17.980468 46.007813-9.738282 9.730469 46.007813zm0 0" fill="#f8ec7d"/><path d="m147.019531 58.3125 27.628907 17.980469-46.007813 9.742187-9.730469-46.011718zm0 0" fill="#f8ec7d"/><path d="m126 298.144531v30.75c0 11.042969-8.953125 20-20 20h-80c-11.046875 0-20-8.957031-20-20v-30.75zm-51.25 26.25c0-4.832031-3.917969-8.75-8.75-8.75s-8.75 3.917969-8.75 8.75 3.917969 8.75 8.75 8.75 8.75-3.917969 8.75-8.75zm0 0" fill="#e48e66"/><path d="m6 150.554688v-15c0-11.046876 8.953125-20 20-20h80c11.046875 0 20 8.953124 20 20v162.589843h-120zm0 0" fill="#f8ec7d"/><path d="m74.75 324.394531c0 4.832031-3.917969 8.75-8.75 8.75s-8.75-3.917969-8.75-8.75 3.917969-8.75 8.75-8.75 8.75 3.917969 8.75 8.75zm0 0" fill="#f8ec7d"/><g fill="#63316d"><path d="m342.1875 36.523438c-27.292969-25.53125-63.980469-38.554688-101.261719-35.945313s-71.792969 20.609375-95.265625 49.691406l-23.476562-15.273437c-2.035156-1.324219-4.664063-1.292969-6.667969.078125-2 1.375-2.976563 3.816406-2.476563 6.191406l9.730469 46.007813c.6875 3.242187 3.871094 5.316406 7.113281 4.628906l46.011719-9.738282c2.371094-.503906 4.210938-2.386718 4.65625-4.773437.441407-2.386719-.59375-4.804687-2.628906-6.128906l-22.144531-14.40625c21.503906-26.109375 52.851562-42.160157 86.605468-44.351563 33.753907-2.191406 66.910157 9.675782 91.609376 32.785156 2.421874 2.261719 6.21875 2.132813 8.484374-.289062 2.261719-2.421875 2.132813-6.21875-.289062-8.480469zm-208.917969 42.398437-5.492187-25.96875 15.714844 10.226563c.171874.125.347656.242187.53125.347656l15.214843 9.898437zm0 0"/><path d="m114.523438 379.449219c-2.261719 2.421875-2.132813 6.21875.289062 8.480469 27.292969 25.527343 63.980469 38.550781 101.261719 35.941406s71.796875-20.613282 95.265625-49.695313l23.476562 15.277344c2.035156 1.324219 4.664063 1.289063 6.667969-.082031 2-1.371094 2.976563-3.816406 2.476563-6.1875l-9.730469-46.011719c-.6875-3.242187-3.871094-5.316406-7.113281-4.628906l-46.011719 9.742187c-2.371094.5-4.210938 2.382813-4.65625 4.769532-.441407 2.386718.59375 4.804687 2.628906 6.128906l22.144531 14.410156c-21.503906 26.109375-52.851562 42.160156-86.605468 44.351562-33.753907 2.1875-66.910157-9.675781-91.609376-32.785156-2.421874-2.261718-6.21875-2.132812-8.484374.289063zm209.207031-33.925781 5.492187 25.96875-15.714844-10.222657c-.171874-.125-.347656-.242187-.53125-.347656l-15.214843-9.902344zm0 0"/><path d="m26 354.894531h80c14.351562-.015625 25.984375-11.648437 26-26v-193.339843c-.015625-14.355469-11.648438-25.984376-26-26h-80c-14.351562.015624-25.984375 11.644531-26 26v193.339843c.015625 14.351563 11.648438 25.984375 26 26zm80-12h-80c-7.730469-.007812-13.992188-6.273437-14-14v-24.75h108v24.75c-.007812 7.726563-6.269531 13.992188-14 14zm-80-221.339843h80c7.730469.007812 13.992188 6.269531 14 14v9h-14.421875c-3.3125 0-6 2.683593-6 6 0 3.3125 2.6875 6 6 6h14.421875v135.589843h-108v-135.589843h56.328125c3.316406 0 6-2.6875 6-6 0-3.316407-2.683594-6-6-6h-56.328125v-9c.007812-7.730469 6.269531-13.992188 14-14zm0 0"/><path d="m85.058594 156.554688h3.511718c3.3125 0 6-2.6875 6-6 0-3.316407-2.6875-6-6-6h-3.511718c-3.3125 0-6 2.683593-6 6 0 3.3125 2.6875 6 6 6zm0 0"/><path d="m66 309.644531c-8.144531 0-14.75 6.601563-14.75 14.75 0 8.144531 6.605469 14.75 14.75 14.75s14.75-6.605469 14.75-14.75c-.007812-8.144531-6.609375-14.742187-14.75-14.75zm0 17.5c-1.519531 0-2.75-1.230469-2.75-2.75s1.230469-2.75 2.75-2.75 2.75 1.230469 2.75 2.75c-.003906 1.515625-1.230469 2.746094-2.75 2.75zm0 0"/><path d="m33.648438 197.972656h.851562c3.3125 0 6-2.683594 6-6 0-3.3125-2.6875-6-6-6h-.851562c-3.3125 0-6 2.6875-6 6 0 3.316406 2.6875 6 6 6zm0 0"/><path d="m50.601562 197.972656h11.347657c3.316406 0 6-2.683594 6-6 0-3.3125-2.683594-6-6-6h-11.347657c-3.316406 0-6 2.6875-6 6 0 3.316406 2.683594 6 6 6zm0 0"/><path d="m82.25 197.972656h16.101562c3.3125 0 6-2.683594 6-6 0-3.3125-2.6875-6-6-6h-16.101562c-3.3125 0-6 2.6875-6 6 0 3.316406 2.6875 6 6 6zm0 0"/><path d="m33.648438 230.644531h14.851562c3.3125 0 6-2.6875 6-6 0-3.316406-2.6875-6-6-6h-14.851562c-3.3125 0-6 2.683594-6 6 0 3.3125 2.6875 6 6 6zm0 0"/><path d="m58.601562 224.644531c0 3.3125 2.683594 6 6 6h10.847657c3.316406 0 6-2.6875 6-6 0-3.316406-2.683594-6-6-6h-10.847657c-3.316406 0-6 2.683594-6 6zm0 0"/><path d="m98.351562 218.644531h-2.601562c-3.3125 0-6 2.683594-6 6 0 3.3125 2.6875 6 6 6h2.601562c3.3125 0 6-2.6875 6-6 0-3.316406-2.6875-6-6-6zm0 0"/><path d="m50.800781 251.304688h-17.152343c-3.3125 0-6 2.683593-6 6 0 3.3125 2.6875 6 6 6h17.152343c3.3125 0 6-2.6875 6-6 0-3.316407-2.6875-6-6-6zm0 0"/><path d="m77.75 251.304688h-10.851562c-3.3125 0-6 2.683593-6 6 0 3.3125 2.6875 6 6 6h10.851562c3.3125 0 6-2.6875 6-6 0-3.316407-2.6875-6-6-6zm0 0"/><path d="m98.351562 251.304688h-.300781c-3.316406 0-6 2.683593-6 6 0 3.3125 2.683594 6 6 6h.300781c3.3125 0 6-2.6875 6-6 0-3.316407-2.6875-6-6-6zm0 0"/><path d="m378.589844 107.136719c-1.375 1.140625-2.171875 2.832031-2.167969 4.617187v148.625c-7.808594-6.34375-17.585937-9.757812-27.640625-9.65625-21.863281 0-39.652344 15.242188-39.652344 33.980469s17.789063 33.992187 39.652344 33.992187 39.640625-15.25 39.640625-33.992187v-103.769531l74.972656 14.078125c1.753907.328125 3.5625-.140625 4.9375-1.28125s2.167969-2.835938 2.167969-4.621094v-61.945313c0-2.886718-2.054688-5.367187-4.894531-5.902343l-82.078125-15.40625c-1.753906-.332031-3.566406.140625-4.9375 1.28125zm-29.808594 199.558593c-15.246094 0-27.652344-9.867187-27.652344-21.992187s12.402344-21.980469 27.652344-21.980469 27.640625 9.859375 27.640625 21.980469-12.402344 21.992187-27.640625 21.992187zm39.640625-187.710937 70.078125 13.15625v49.742187l-70.078125-13.160156zm0 0"/><path d="m337.140625 124.933594h-72.640625c-3.3125 0-6 2.6875-6 6s2.6875 6 6 6h72.640625c3.3125 0 6-2.6875 6-6s-2.6875-6-6-6zm0 0"/><path d="m337.140625 162.671875h-72.640625c-3.3125 0-6 2.6875-6 6 0 3.316406 2.6875 6 6 6h72.640625c3.3125 0 6-2.683594 6-6 0-3.3125-2.6875-6-6-6zm0 0"/><path d="m337.140625 200.402344h-72.640625c-3.3125 0-6 2.6875-6 6 0 3.316406 2.6875 6 6 6h72.640625c3.3125 0 6-2.683594 6-6 0-3.3125-2.6875-6-6-6zm0 0"/></g></svg>