<svg height="475pt" viewBox="-34 0 475 475.24632" width="475pt" xmlns="http://www.w3.org/2000/svg"><path d="m401.453125 125.164062v21.210938l-54.21875 13.371094v-21.210938zm0 0" fill="#e48e66"/><path d="m388.5625 173.355469c7.121094 0 12.890625 4.800781 12.890625 10.730469 0 5.929687-5.769531 10.71875-12.890625 10.71875s-12.890625-4.800782-12.890625-10.71875c0-5.921876 5.769531-10.730469 12.890625-10.730469zm0 0" fill="#e48e66"/><path d="m347.234375 207.214844c0-5.921875-5.773437-10.71875-12.890625-10.71875-7.121094 0-12.890625 4.796875-12.890625 10.71875s5.769531 10.71875 12.890625 10.71875c7.117188 0 12.890625-4.796875 12.890625-10.71875zm0 0" fill="#e48e66"/><path d="m226.78125 186.003906c-49.703125 0-90-40.292968-90-90 0-49.703125 40.296875-90 90-90 49.707031 0 90 40.296875 90 90 0 49.707032-40.292969 90-90 90zm34.613281-87.699218c0-19.753907-16.015625-35.769532-35.769531-35.769532-19.757812 0-35.773438 16.015625-35.773438 35.769532 0 19.753906 16.015626 35.769531 35.773438 35.769531 19.753906 0 35.769531-16.015625 35.769531-35.769531zm0 0" fill="#f8ec7d"/><path d="m225.625 62.535156c19.753906 0 35.769531 16.015625 35.769531 35.769532 0 19.753906-16.015625 35.769531-35.769531 35.769531-19.757812 0-35.773438-16.015625-35.773438-35.769531 0-19.753907 16.015626-35.769532 35.773438-35.769532zm10.339844 35.769532c-.003906-5.707032-4.632813-10.332032-10.339844-10.328126-5.703125 0-10.332031 4.625-10.332031 10.332032 0 5.707031 4.625 10.332031 10.332031 10.335937 5.710938 0 10.339844-4.628906 10.339844-10.339843zm0 0" fill="#6fe3ff"/><path d="m140.3125 326.054688v76.191406c0 37.003906-29.996094 67-67 67h-.1875c-37.003906 0-67-29.996094-67-67v-76.191406zm0 0" fill="#e48e66"/><path d="m140.3125 325.964844v.089844h-67.089844v-67.089844h.089844c37.003906 0 67 29.996094 67 67zm0 0" fill="#6fe3ff"/><path d="m73.222656 263.207031v62.847657h-67.097656v-.089844c0-37.003906 29.996094-67 67-67h.097656zm0 0" fill="#f8ec7d"/><g fill="#63316d"><path d="m183.542969 274.804688c27.191406 0 49.234375-22.039063 49.238281-49.230469v-33.761719c51.75-3.242188 91.574219-46.988281 89.953125-98.8125-1.621094-51.828125-44.101563-93-95.953125-93-51.847656 0-94.328125 41.171875-95.949219 93-1.625 51.824219 38.203125 95.570312 89.949219 98.8125v33.761719c0 20.566406-16.667969 37.234375-37.234375 37.234375-20.5625 0-37.234375-16.667969-37.234375-37.234375v-36.277344c0-21.839844-17.703125-39.546875-39.542969-39.546875-21.839843 0-39.546875 17.707031-39.546875 39.546875v63.929687c-37.90625 3.125-67.085937 34.792969-67.097656 72.828126v76.191406c.042969 40.296875 32.699219 72.953125 73 73h.1875c40.296875-.046875 72.957031-32.703125 73-73v-76.28125c-.050781-38-29.214844-69.625-67.089844-72.738282v-63.929687c0-15.214844 12.332032-27.546875 27.546875-27.546875 15.210938 0 27.542969 12.332031 27.542969 27.546875v36.277344c.03125 27.175781 22.054688 49.199219 49.230469 49.230469zm-40.761719-178.800782c0-46.390625 37.609375-84 84-84 46.394531 0 84 37.609375 84 84 0 46.394532-37.605469 84-84 84-46.367188-.050781-83.945312-37.628906-84-84zm-75.558594 169.25v54.800782h-54.808594c2.863282-29 25.808594-51.941407 54.808594-54.800782zm6.089844 197.992188h-.1875c-33.675781-.039063-60.964844-27.328125-61-61v-70.191406h122.1875v70.191406c-.039062 33.671875-27.324219 60.960937-61 61zm60.710938-143.191406h-54.800782v-54.800782c28.996094 2.863282 51.9375 25.804688 54.800782 54.800782zm0 0"/><path d="m225.625 140.074219c23.066406 0 41.769531-18.699219 41.769531-41.769531 0-23.066407-18.703125-41.769532-41.769531-41.769532-23.070312 0-41.773438 18.703125-41.773438 41.769532.027344 23.058593 18.714844 41.746093 41.773438 41.769531zm0-71.539063c16.441406 0 29.769531 13.328125 29.769531 29.769532 0 16.441406-13.328125 29.769531-29.769531 29.769531s-29.773438-13.328125-29.773438-29.769531c.019532-16.433594 13.335938-29.753907 29.773438-29.769532zm0 0"/><path d="m232.78125 159.46875c0-3.3125-2.683594-6-6-6-31.074219-.0625-56.25-25.238281-56.3125-56.3125 0-3.316406-2.683594-6-6-6-3.3125 0-6 2.683594-6 6 .074219 37.691406 30.613281 68.230469 68.308594 68.304688 3.3125.003906 6-2.679688 6.003906-5.992188zm0 0"/><path d="m226.78125 40.84375c31.070312.066406 56.242188 25.242188 56.300781 56.316406 0 3.3125 2.683594 6 6 6 3.3125 0 6-2.6875 6-6-.074219-37.695312-30.609375-68.234375-68.300781-68.308594-3.316406 0-6 2.6875-6 6 0 3.316407 2.683594 6 6 6zm0 0"/><path d="m225.625 114.644531c9.019531.003907 16.335938-7.308593 16.339844-16.328125 0-9.023437-7.308594-16.339844-16.332032-16.339844-9.019531-.003906-16.335937 7.308594-16.339843 16.328126.011719 9.015624 7.3125 16.324218 16.332031 16.339843zm0-20.667969c2.394531-.003906 4.335938 1.9375 4.339844 4.332032 0 2.394531-1.941406 4.335937-4.339844 4.335937-2.394531 0-4.335938-1.945312-4.332031-4.339843.003906-2.386719 1.941406-4.324219 4.332031-4.328126zm0 0"/><path d="m405.152344 120.441406c-1.453125-1.136718-3.347656-1.542968-5.136719-1.097656l-54.21875 13.367188c-2.679687.664062-4.5625 3.066406-4.5625 5.828124v53.128907c-2.214844-.773438-4.546875-1.167969-6.890625-1.167969-10.417969 0-18.890625 7.5-18.890625 16.71875s8.472656 16.71875 18.890625 16.71875c10.164062 0 18.457031-7.148438 18.851562-16.0625.023438-.21875.039063-.4375.039063-.65625v-42.773438l42.21875-10.410156v14.488282c-2.214844-.773438-4.542969-1.167969-6.890625-1.167969-10.414062 0-18.890625 7.503906-18.890625 16.730469 0 9.226562 8.476563 16.71875 18.890625 16.71875 10.167969 0 18.460938-7.148438 18.851562-16.0625.027344-.21875.039063-.4375.039063-.65625v-58.921876c0-1.84375-.847656-3.585937-2.300781-4.722656zm-70.808594 91.492188c-3.671875 0-6.890625-2.203125-6.890625-4.71875 0-2.511719 3.21875-4.71875 6.890625-4.71875s6.890625 2.207031 6.890625 4.71875c0 2.515625-3.222656 4.71875-6.890625 4.71875zm18.890625-59.847656v-8.851563l42.21875-10.410156v8.851562zm35.328125 36.71875c-3.667969 0-6.890625-2.203126-6.890625-4.71875 0-2.515626 3.222656-4.730469 6.890625-4.730469 3.671875 0 6.890625 2.210937 6.890625 4.730469 0 2.519531-3.21875 4.71875-6.890625 4.71875zm0 0"/></g></svg>