<svg height="490pt" viewBox="0 -49 490.56 490" width="490pt" xmlns="http://www.w3.org/2000/svg"><path d="m484.558594 6.28125v357.207031h-112.527344c-42.394531 0-84.460938 7.410157-124.300781 21.902344l-2.449219.890625v-357.210938l19.058594-6.929687c28.851562-10.492187 59.320312-15.859375 90.019531-15.859375zm0 0" fill="#f8ec7d"/><path d="m100.960938 176.058594c0-8.847656-8.632813-16.027344-19.28125-16.027344-10.648438 0-19.28125 7.179688-19.28125 16.027344 0 8.851562 8.632812 16.042968 19.28125 16.042968 10.648437 0 19.28125-7.179687 19.28125-16.042968zm0-47.058594 81.078124-31.960938v-31.71875l-81.078124 31.96875zm81.078124 24.429688c0-8.851563-8.628906-16.03125-19.277343-16.03125-10.652344 0-19.28125 7.179687-19.28125 16.03125 0 8.851562 8.628906 16.039062 19.28125 16.039062 10.648437 0 19.277343-7.179688 19.277343-16.039062zm63.242188-124.359376v357.210938l-2.453125-.890625c-39.839844-14.492187-81.90625-21.902344-124.296875-21.902344h-112.53125v-357.207031h130.199219c30.703125 0 61.167969 5.367188 90.019531 15.859375zm0 0" fill="#e48e66"/><path d="m182.039062 65.320312v31.71875l-81.078124 31.960938v-31.710938zm0 0" fill="#f8ec7d"/><path d="m162.761719 137.398438c10.648437 0 19.277343 7.179687 19.277343 16.03125 0 8.851562-8.628906 16.039062-19.277343 16.039062-10.652344 0-19.28125-7.179688-19.28125-16.039062 0-8.859376 8.628906-16.03125 19.28125-16.03125zm0 0" fill="#f8ec7d"/><path d="m81.679688 160.03125c10.648437 0 19.28125 7.179688 19.28125 16.027344 0 8.851562-8.632813 16.042968-19.28125 16.042968-10.648438 0-19.28125-7.179687-19.28125-16.042968 0-8.859375 8.632812-16.027344 19.28125-16.027344zm0 0" fill="#f8ec7d"/><g fill="#63316d"><path d="m484.558594.28125h-130.199219c-31.402344-.015625-62.5625 5.472656-92.070313 16.21875l-17.007812 6.1875-17.011719-6.1875c-29.503906-10.746094-60.667969-16.234375-92.070312-16.21875h-130.199219c-3.3125 0-6 2.683594-6 6v357.207031c0 3.316407 2.6875 6 6 6h112.53125c41.695312-.019531 83.070312 7.269531 122.25 21.539063l2.449219.890625c.019531.007812.039062.011719.058593.015625.296876.105468.597657.1875.90625.242187.042969.007813.085938.015625.128907.019531.632812.113282 1.277343.113282 1.910156 0 .042969-.003906.085937-.011718.128906-.019531.308594-.054687.609375-.136719.90625-.242187.019531-.003906.039063-.007813.058594-.015625l2.453125-.890625c39.175781-14.269532 80.554688-21.558594 122.25-21.539063h112.527344c3.316406 0 6-2.683593 6-6v-357.207031c0-3.316406-2.683594-6-6-6zm-472.558594 357.207031v-345.207031h124.199219c30.003906-.015625 59.78125 5.230469 87.972656 15.5l15.109375 5.492188v344.507812c-38.839844-13.449219-79.652344-20.308594-120.75-20.292969zm466.558594 0h-106.527344c-41.101562-.015625-81.914062 6.839844-120.75 20.292969v-344.507812l15.109375-5.492188c28.191406-10.269531 57.964844-15.515625 87.96875-15.5h124.199219zm0 0"/><path d="m183.179688 222.46875h-58.601563c-3.3125 0-6 2.6875-6 6 0 3.316406 2.6875 6 6 6h58.601563c3.3125 0 6-2.683594 6-6 0-3.3125-2.6875-6-6-6zm0 0"/><path d="m62.398438 234.46875h36.171874c3.3125 0 6-2.683594 6-6 0-3.3125-2.6875-6-6-6h-36.171874c-3.3125 0-6 2.6875-6 6 0 3.316406 2.6875 6 6 6zm0 0"/><path d="m183.179688 273.171875h-21.191407c-3.3125 0-6 2.683594-6 6 0 3.3125 2.6875 6 6 6h21.191407c3.3125 0 6-2.6875 6-6 0-3.316406-2.6875-6-6-6zm0 0"/><path d="m136.019531 273.171875h-47.160156c-3.3125 0-6 2.683594-6 6 0 3.3125 2.6875 6 6 6h47.160156c3.3125 0 6-2.6875 6-6 0-3.316406-2.6875-6-6-6zm0 0"/><path d="m62.398438 273.171875h-.429688c-3.3125 0-6 2.683594-6 6 0 3.3125 2.6875 6 6 6h.429688c3.316406 0 6-2.6875 6-6 0-3.316406-2.683594-6-6-6zm0 0"/><path d="m427.941406 97.171875h.21875c3.3125 0 6-2.6875 6-6 0-3.316406-2.6875-6-6-6h-.21875c-3.316406 0-6 2.683594-6 6 0 3.3125 2.683594 6 6 6zm0 0"/><path d="m301.378906 91.171875c0 3.3125 2.6875 6 6 6h93.949219c3.316406 0 6-2.6875 6-6 0-3.316406-2.683594-6-6-6h-93.949219c-3.3125 0-6 2.683594-6 6zm0 0"/><path d="m428.160156 147.839844h-53.820312c-3.3125 0-6 2.6875-6 6s2.6875 6 6 6h53.820312c3.3125 0 6-2.6875 6-6s-2.6875-6-6-6zm0 0"/><path d="m347.988281 159.839844c3.316407 0 6-2.6875 6-6s-2.683593-6-6-6h-13.636719c-3.316406 0-6 2.6875-6 6s2.683594 6 6 6zm0 0"/><path d="m307.378906 159.839844h.179688c3.316406 0 6-2.6875 6-6s-2.683594-6-6-6h-.179688c-3.3125 0-6 2.6875-6 6s2.6875 6 6 6zm0 0"/><path d="m428.160156 210.5h-12.539062c-3.316406 0-6 2.6875-6 6s2.683594 6 6 6h12.539062c3.3125 0 6-2.6875 6-6s-2.6875-6-6-6zm0 0"/><path d="m390.21875 216.5c0-3.3125-2.683594-6-6-6h-47.988281c-3.3125 0-6 2.6875-6 6s2.6875 6 6 6h47.988281c3.316406 0 6-2.6875 6-6zm0 0"/><path d="m307.378906 222.5h3.171875c3.3125 0 6-2.6875 6-6s-2.6875-6-6-6h-3.171875c-3.3125 0-6 2.6875-6 6s2.6875 6 6 6zm0 0"/><path d="m428.160156 273.171875h-.761718c-3.3125 0-6 2.683594-6 6 0 3.3125 2.6875 6 6 6h.761718c3.3125 0 6-2.6875 6-6 0-3.316406-2.6875-6-6-6zm0 0"/><path d="m401.609375 273.171875h-48.109375c-3.3125 0-6 2.683594-6 6 0 3.3125 2.6875 6 6 6h48.109375c3.3125 0 6-2.6875 6-6 0-3.316406-2.6875-6-6-6zm0 0"/><path d="m327.300781 273.171875h-19.921875c-3.3125 0-6 2.683594-6 6 0 3.3125 2.6875 6 6 6h19.921875c3.3125 0 6-2.6875 6-6 0-3.316406-2.6875-6-6-6zm0 0"/><path d="m81.679688 198.101562c13.941406 0 25.28125-9.886718 25.28125-22.042968v-42.980469l69.078124-27.226563v28.839844c-4.085937-2.183594-8.648437-3.316406-13.277343-3.296875-13.941407 0-25.28125 9.882813-25.28125 22.03125 0 12.148438 11.339843 22.039063 25.28125 22.039063 13.9375 0 25.277343-9.886719 25.277343-22.039063v-88.105469c0-1.984374-.980468-3.84375-2.621093-4.960937-1.644531-1.117187-3.730469-1.347656-5.578125-.621094l-81.078125 31.96875c-2.292969.90625-3.800781 3.117188-3.800781 5.582031v60.035157c-4.085938-2.183594-8.648438-3.3125-13.28125-3.292969-13.9375 0-25.28125 9.878906-25.28125 22.027344 0 12.148437 11.34375 22.042968 25.28125 22.042968zm81.082031-34.632812c-7.203125 0-13.28125-4.597656-13.28125-10.039062 0-5.441407 6.082031-10.03125 13.28125-10.03125 7.195312 0 13.277343 4.59375 13.277343 10.03125s-6.078124 10.039062-13.277343 10.039062zm13.277343-89.332031v18.820312l-69.078124 27.230469v-18.8125zm-94.359374 91.894531c7.199218 0 13.28125 4.589844 13.28125 10.027344s-6.082032 10.042968-13.28125 10.042968c-7.199219 0-13.28125-4.601562-13.28125-10.042968 0-5.4375 6.082031-10.027344 13.28125-10.027344zm0 0"/></g></svg>