<svg height="492pt" viewBox="0 -60 492 492" width="492pt" xmlns="http://www.w3.org/2000/svg"><path d="m328.621094 28.910156c86.917968 0 157.378906 70.460938 157.378906 157.378906 0 86.917969-70.460938 157.382813-157.378906 157.382813v-90.832031c33.734375-1.097656 60.515625-28.761719 60.515625-62.515625 0-33.753907-26.78125-61.417969-60.515625-62.515625zm0 0" fill="#6fe3ff"/><path d="m328.621094 127.808594c33.734375 1.097656 60.515625 28.761718 60.515625 62.515625 0 33.753906-26.78125 61.417969-60.515625 62.515625v-44.550782c9.144531-1.027343 16.058594-8.761718 16.058594-17.964843s-6.914063-16.9375-16.058594-17.964844zm0 0" fill="#f8ec7d"/><path d="m328.621094 172.359375c9.144531 1.027344 16.058594 8.761719 16.058594 17.964844s-6.914063 16.9375-16.058594 17.964843zm0 0" fill="#6fe3ff"/><path d="m172.171875 245.511719c0-9.832031-9.582031-17.8125-21.410156-17.8125-11.832031 0-21.402344 7.980469-21.402344 17.8125 0 9.828125 9.582031 17.808593 21.402344 17.808593 11.816406 0 21.410156-7.980468 21.410156-17.808593zm90.027344-38.410157c0-9.839843-9.578125-17.8125-21.410157-17.8125-11.828124 0-21.398437 7.972657-21.398437 17.8125 0 9.839844 9.578125 17.796876 21.398437 17.796876 11.820313 0 21.410157-7.96875 21.410157-17.796876zm0-62.621093v-35.21875l-90.027344 22.207031v35.210938zm66.421875 108.359375v113.738281h-256.300782v-360.578125h256.300782zm0 0" fill="#e48e66"/><g fill="#f8ec7d"><path d="m262.199219 109.261719v35.21875l-90.027344 22.199219v-35.210938zm0 0"/><path d="m240.789062 189.289062c11.832032 0 21.410157 7.972657 21.410157 17.8125 0 9.839844-9.578125 17.796876-21.410157 17.796876-11.828124 0-21.398437-7.96875-21.398437-17.796876 0-9.832031 9.578125-17.8125 21.398437-17.8125zm0 0"/><path d="m150.761719 227.699219c11.828125 0 21.410156 7.980469 21.410156 17.8125 0 9.828125-9.582031 17.808593-21.410156 17.808593-11.832031 0-21.402344-7.980468-21.402344-17.808593 0-9.832031 9.582031-17.8125 21.402344-17.8125zm0 0"/><path d="m6 6h66.320312v360.578125h-66.320312zm0 0"/></g><path d="m334.621094 23.03125v-17.03125c0-3.3125-2.6875-6-6-6h-322.621094c-3.3125 0-6 2.6875-6 6v360.578125c0 3.316406 2.6875 6 6 6h322.621094c3.3125 0 6-2.683594 6-6v-17.03125c87.316406-3.167969 157.378906-75.179687 157.378906-163.257813 0-88.078124-70.0625-160.089843-157.378906-163.257812zm0 158.261719c2.582031 2.292969 4.058594 5.582031 4.058594 9.035156s-1.476563 6.742187-4.058594 9.035156zm0 31.722656c9.621094-3.394531 16.058594-12.484375 16.058594-22.6875s-6.4375-19.296875-16.058594-22.6875v-33.289063c27.847656 3.984376 48.535156 27.839844 48.535156 55.972657 0 28.136719-20.6875 51.988281-48.535156 55.972656zm-322.621094-201.015625h54.320312v348.578125h-54.320312zm310.621094 348.578125h-244.300782v-348.578125h244.300782zm12-23.039063v-79.148437c34.515625-4.058594 60.53125-33.3125 60.53125-68.070313 0-34.753906-26.015625-64.007812-60.53125-68.066406v-87.214844c80.699218 3.164063 145.378906 69.789063 145.378906 151.25 0 81.460938-64.679688 148.089844-145.378906 151.25zm0 0" fill="#63316d"/><path d="m431.261719 151.253906c-3.171875.953125-4.972657 4.300782-4.019531 7.472656 2.878906 9.601563 4.339843 19.566407 4.335937 29.589844 0 3.3125 2.6875 6 6 6h.007813c3.3125-.003906 5.992187-2.691406 5.992187-6 .003906-11.1875-1.628906-22.316406-4.84375-33.035156-.453125-1.523438-1.5-2.808594-2.902344-3.5625-1.398437-.753906-3.042969-.921875-4.570312-.464844zm0 0" fill="#63316d"/><path d="m429.976562 134.0625c-16.332031-30.652344-45.6875-52.238281-79.816406-58.6875-3.257812-.617188-6.398437 1.519531-7.015625 4.773438-.617187 3.257812 1.519531 6.398437 4.777344 7.015624 30.5625 5.78125 56.855469 25.117188 71.476563 52.574219 1.570312 2.917969 5.207031 4.015625 8.125 2.449219 2.921874-1.566406 4.019531-5.207031 2.449218-8.125zm0 0" fill="#63316d"/><path d="m150.761719 269.320312c15.113281 0 27.410156-10.679687 27.410156-23.808593v-74.128907l78.027344-19.242187v35.28125c-4.671875-2.734375-9.996094-4.160156-15.410157-4.132813-15.105468 0-27.398437 10.683594-27.398437 23.8125 0 13.128907 12.292969 23.796876 27.398437 23.796876 15.109376 0 27.410157-10.675782 27.410157-23.796876v-97.839843c0-1.847657-.847657-3.585938-2.300781-4.726563-1.449219-1.136718-3.34375-1.542968-5.136719-1.101562l-90.027344 22.210937c-2.679687.660157-4.5625 3.066407-4.5625 5.824219v94.363281c-4.675781-2.734375-9.996094-4.160156-15.410156-4.132812-15.109375 0-27.402344 10.683593-27.402344 23.8125 0 13.128906 12.292969 23.808593 27.402344 23.808593zm90.027343-50.421874c-8.492187 0-15.398437-5.292969-15.398437-11.796876 0-6.507812 6.910156-11.8125 15.398437-11.8125 8.492188 0 15.410157 5.300782 15.410157 11.8125 0 6.507813-6.914063 11.796876-15.410157 11.796876zm15.410157-101.976563v22.859375l-78.027344 19.238281v-22.847656zm-105.4375 116.777344c8.5 0 15.410156 5.300781 15.410156 11.8125 0 6.507812-6.914063 11.808593-15.410156 11.808593-8.5 0-15.402344-5.300781-15.402344-11.808593 0-6.511719 6.910156-11.8125 15.402344-11.8125zm0 0" fill="#63316d"/></svg>