<svg height="382pt" viewBox="-44 0 381 382" width="382pt" xmlns="http://www.w3.org/2000/svg"><path d="m216.300781 203.101562v-28.902343c0-5.300781-4.300781-9.597657-9.601562-9.597657-.597657 0-1.300781.097657-1.898438.199219l-76.101562 15.398438c-4.5.902343-7.699219 4.902343-7.699219 9.402343v32.796876zm0 79.199219c-1.601562-12.101562-12.800781-20.601562-24.902343-19-12.097657 1.597657-20.597657 12.800781-19 24.898438 1.601562 12.101562 12.800781 20.601562 24.902343 19 11-1.5 19.199219-10.898438 19.199219-22 0-.898438-.101562-1.898438-.199219-2.898438zm-95.402343-11.101562c0-12.199219-9.898438-22.199219-22.199219-22.199219-12.199219 0-22.199219 9.898438-22.199219 22.199219 0 12.199219 9.898438 22.199219 22.199219 22.199219 12.199219 0 22.199219-10 22.199219-22.199219zm165.601562-155.199219v240c0 11-8.898438 20-20 20h-240c-11 0-20-8.898438-20-20v-240c0-11 8.898438-20 20-20h240c11 0 20 8.898438 20 20zm0 0" fill="#e48e66"/><path d="m216.300781 282.300781c.097657 1 .199219 2 .199219 2.898438 0 12.300781-9.898438 22.199219-22.199219 22.199219s-22.199219-9.898438-22.199219-22.199219 9.898438-22.199219 22.199219-22.199219c11.097657.101562 20.5 8.300781 22 19.300781zm0 0" fill="#f8ec7d"/><path d="m216.300781 174.199219v28.902343l-95.402343 19.296876v-32.796876c0-4.601562 3.203124-8.5 7.703124-9.402343l76.199219-15.398438c5.199219-1.101562 10.300781 2.300781 11.398438 7.5 0 .597657.101562 1.199219.101562 1.898438zm0 0" fill="#f8ec7d"/><path d="m120.898438 271.199219c0 12.261719-9.9375 22.199219-22.199219 22.199219s-22.199219-9.9375-22.199219-22.199219 9.9375-22.199219 22.199219-22.199219 22.199219 9.9375 22.199219 22.199219zm0 0" fill="#f8ec7d"/><g fill="#63316d"><path d="m266.5 90h-240c-14.398438 0-26 11.601562-26 26v240c0 14.398438 11.601562 26 26 26h240c14.398438 0 26-11.601562 26-26v-240c0-14.398438-11.601562-26-26-26zm14 266c0 7.699219-6.300781 14-14 14h-240c-7.699219 0-14-6.300781-14-14v-240c0-7.699219 6.300781-14 14-14h240c7.699219 0 14 6.300781 14 14zm0 0"/><path d="m222.300781 203.101562v-28.902343c0-8.597657-7-15.597657-15.601562-15.597657-1 0-2.097657.097657-3.097657.296876l-76.101562 15.402343c-7.300781 1.5-12.5 7.898438-12.5 15.300781v58.5c-12.699219-8.902343-30.300781-5.800781-39.199219 6.898438-8.902343 12.699219-5.800781 30.300781 6.898438 39.199219 12.699219 8.902343 30.300781 5.800781 39.199219-6.898438 3.300781-4.699219 5.101562-10.402343 5.101562-16.199219v-43.902343l83.398438-16.898438v51.699219c-12.898438-9-30.597657-5.800781-39.5 7.101562-9 12.898438-5.796876 30.597657 7.101562 39.5 12.898438 9 30.601562 5.796876 39.5-7.101562 4-5.699219 5.699219-12.699219 4.898438-19.601562v-78.796876zm-123.601562 84.296876c-8.898438 0-16.199219-7.199219-16.199219-16.199219s7.199219-16.199219 16.199219-16.199219c8.902343 0 16.199219 7.199219 16.199219 16.199219-.097657 8.902343-7.296876 16.199219-16.199219 16.199219zm28.199219-72.296876v-25.5c0-1.703124 1.203124-3.203124 2.902343-3.601562l76.199219-15.398438c2-.402343 3.898438.898438 4.300781 2.796876 0 .203124.097657.5.097657.703124v24zm67.402343 86.398438c-8.902343 0-16.199219-7.199219-16.199219-16.199219 0-8.902343 7.199219-16.199219 16.199219-16.199219 8 0 14.800781 5.796876 16 13.699219v.597657h.097657c.101562.601562.101562 1.203124.101562 1.800781 0 9-7.199219 16.199219-16.199219 16.300781zm0 0"/><path d="m20.5 66c0 3.300781 2.699219 6 6 6h240c3.300781 0 6-2.699219 6-6s-2.699219-6-6-6h-240c-3.300781 0-6 2.699219-6 6zm0 0"/><path d="m30.5 36c0 3.300781 2.699219 6 6 6h220c3.300781 0 6-2.699219 6-6s-2.699219-6-6-6h-220c-3.300781 0-6 2.699219-6 6zm0 0"/><path d="m246.5 12c3.300781 0 6-2.699219 6-6s-2.699219-6-6-6h-200c-3.300781 0-6 2.699219-6 6s2.699219 6 6 6zm0 0"/></g></svg>