<svg height="489pt" viewBox="-4 0 489 489.03974" width="489pt" xmlns="http://www.w3.org/2000/svg"><path d="m474.179688 437.308594v25.730468c0 11.046876-8.953126 20-20 20h-100c-11.046876.003907-20.003907-8.953124-20-20v-25.730468zm-65.339844 22.859375c-.003906-2.574219-2.09375-4.660157-4.671875-4.660157-2.574219.003907-4.660157 2.09375-4.65625 4.671876 0 2.578124 2.089843 4.664062 4.667969 4.660156 2.578124-.003906 4.664062-2.09375 4.660156-4.671875zm0 0" fill="#e48e66"/><path d="m444.179688 371.410156c0-6.519531-6.351563-11.800781-14.179688-11.800781-7.832031 0-14.179688 5.28125-14.179688 11.800781 0 6.519532 6.339844 11.789063 14.179688 11.789063s14.179688-5.28125 14.179688-11.789063zm-110-104.199218v-15c-.003907-11.046876 8.953124-20.003907 20-20h100c11.046874 0 20 8.953124 20 20v185.097656h-140zm58.359374 125.640624c0-6.511718-6.347656-11.792968-14.179687-11.792968-7.828125 0-14.179687 5.28125-14.179687 11.792968 0 6.507813 6.351562 11.796876 14.179687 11.796876 7.832031 0 14.179687-5.277344 14.179687-11.796876zm0-44.210937 51.640626-14.710937v-23.328126l-51.640626 14.707032zm0 0" fill="#f8ec7d"/><path d="m444.179688 310.601562v23.328126l-51.640626 14.710937v-23.332031zm0 0" fill="#e48e66"/><path d="m430 359.609375c7.828125 0 14.179688 5.28125 14.179688 11.800781 0 6.519532-6.351563 11.789063-14.179688 11.789063-7.832031 0-14.179688-5.28125-14.179688-11.789063 0-6.511718 6.339844-11.800781 14.179688-11.800781zm0 0" fill="#e48e66"/><path d="m378.359375 381.058594c7.832031 0 14.179687 5.28125 14.179687 11.792968 0 6.507813-6.347656 11.796876-14.179687 11.796876-7.828125 0-14.179687-5.277344-14.179687-11.796876 0-6.523437 6.351562-11.792968 14.179687-11.792968zm0 0" fill="#e48e66"/><path d="m257.910156 444.699219-6.832031-32.25 39.421875 25.652343-25.640625 39.40625zm0 0" fill="#6fe3ff"/><path d="m276.320312 38.808594 6.828126 32.25-39.410157-25.648438 25.640625-39.410156zm0 0" fill="#6fe3ff"/><path d="m115.390625 74.929688-1.140625-.121094h-38.351562v-18.527344c-.003907-13.257812 10.746093-24.003906 24-24h84.222656l1.140625.109375v36.648437c0 13.253907 10.746093 23.996094 24 24h36.757812v140.050782c0 13.253906-10.746093 24-24 24h-45.871093v-121.648438l-60.628907-60.5zm0 0" fill="#6fe3ff"/><path d="m246.019531 92.910156v.128906h-36.757812c-13.253907-.003906-24-10.746093-24-24v-36.648437l.128906.007813zm0 0" fill="#f8ec7d"/><path d="m176.148438 257.089844v18.53125c0 13.253906-10.746094 23.996094-24 24h-122.128907c-13.253906-.003906-23.996093-10.746094-24-24v-176.8125c0-13.253906 10.746094-24 24-24h84.230469l1.140625.121094v36.640624c.003906 13.253907 10.746094 23.996094 24 24h36.757813zm0 0" fill="#f8ec7d"/><path d="m176.148438 135.441406v.128906h-36.757813c-13.253906-.003906-23.996094-10.746093-24-24v-36.640624l.128906.011718zm0 0" fill="#e48e66"/><g fill="#63316d"><path d="m172.113281 420.300781c-33.503906-21.839843-54.265625-58.636719-55.628906-98.605469-.042969-2.164062-1.25-4.132812-3.152344-5.15625-1.90625-1.027343-4.210937-.949218-6.042969.203126-1.828124 1.152343-2.898437 3.203124-2.796874 5.363281 1.203124 37.367187 17.921874 72.542969 46.140624 97.074219 28.21875 24.527343 65.378907 36.183593 102.550782 32.167968l5.804687 27.40625c.503907 2.375 2.386719 4.210938 4.773438 4.65625 2.386719.445313 4.804687-.59375 6.128906-2.628906l25.640625-39.410156c1.804688-2.777344 1.019531-6.492188-1.757812-8.300782l-39.417969-25.648437c-2.035157-1.324219-4.667969-1.292969-6.667969.082031-2.003906 1.371094-2.980469 3.816406-2.476562 6.191406l5.476562 25.847657c-27.617188 2.691406-55.328125-4.097657-78.574219-19.242188zm110.085938 19.554688-14.472657 22.242187-3.898437-18.4375c-.023437-.128906-.050781-.257812-.082031-.386718l-3.789063-17.894532zm0 0"/><path d="m240.46875 50.4375 39.40625 25.652344c2.035156 1.324218 4.667969 1.289062 6.667969-.082032 2-1.371093 2.976562-3.8125 2.476562-6.1875l-5.46875-25.851562c33.667969-3.253906 67.183594 7.5625 92.601563 29.882812 25.417968 22.320313 40.472656 54.15625 41.597656 87.964844.105469 3.234375 2.757812 5.796875 5.992188 5.800782h.207031c3.3125-.113282 5.902343-2.890626 5.792969-6.199219-1.242188-37.355469-17.972657-72.511719-46.179688-97.03125-28.207031-24.523438-65.347656-36.199219-102.511719-32.226563l-5.800781-27.402344c-.503906-2.375-2.386719-4.210937-4.773438-4.65625-2.382812-.445312-4.804687.59375-6.125 2.628907l-25.640624 39.40625c-1.808594 2.777343-1.019532 6.496093 1.757812 8.300781zm26.039062-29.019531 3.90625 18.460937c.019532.109375.042969.21875.070313.328125l3.792969 17.921875-22.238282-14.476562zm0 0"/><path d="m30.019531 305.621094h122.128907c16.5625-.019532 29.984374-13.441406 30-30v-12.53125h39.871093c16.5625-.019532 29.980469-13.4375 30-30v-140.179688c0-1.59375-.632812-3.121094-1.761719-4.246094l-60.628906-60.511718c-.027344-.027344-.058594-.042969-.085937-.070313-1.125-1.152343-2.671875-1.800781-4.28125-1.800781-.191407 0-.375.011719-.558594.027344-.195313-.019532-.386719-.027344-.578125-.027344h-84.226562c-16.558594.019531-29.980469 13.441406-30 30v12.527344h-39.878907c-16.558593.019531-29.9804685 13.441406-29.9999998 30v176.8125c.0195313 16.558594 13.4414068 29.980468 29.9999998 30zm91.371094-216.347656 40.382813 40.300781h-22.382813c-9.9375-.011719-17.988281-8.066407-18-18zm69.871094-42.539063 40.382812 40.300781h-22.382812c-9.9375-.011718-17.992188-8.0625-18-18zm-109.363281 9.546875c.011718-9.9375 8.066406-17.992188 18-18h79.363281v30.757812c.015625 16.5625 13.4375 29.980469 30 30h30.757812v134.050782c-.011719 9.9375-8.0625 17.988281-18 18h-39.871093v-115.648438c0-1.59375-.632813-3.125-1.761719-4.25l-60.628907-60.5c-.015624-.011718-.03125-.023437-.046874-.039062-1.128907-1.175782-2.691407-1.84375-4.320313-1.84375-.199219 0-.390625.011718-.582031.03125-.1875-.019532-.371094-.03125-.558594-.03125h-32.351562zm-69.878907 42.527344c.011719-9.933594 8.0625-17.988282 18-18h79.371094v30.761718c.019531 16.558594 13.4375 29.980469 30 30h30.757813v134.050782c-.011719 9.933594-8.0625 17.988281-18 18h-122.128907c-9.9375-.011719-17.988281-8.066406-18-18zm0 0"/><path d="m119.53125 196.210938h-12c-3.316406 0-6 2.683593-6 6 0 3.3125 2.683594 6 6 6h12c3.3125 0 6-2.6875 6-6 0-3.316407-2.6875-6-6-6zm0 0"/><path d="m41.289062 178.210938h99.601563c3.3125 0 6-2.6875 6-6 0-3.316407-2.6875-6-6-6h-99.601563c-3.3125 0-6 2.683593-6 6 0 3.3125 2.6875 6 6 6zm0 0"/><path d="m41.289062 208.210938h42.039063c3.316406 0 6-2.6875 6-6 0-3.316407-2.683594-6-6-6h-42.039063c-3.3125 0-6 2.683593-6 6 0 3.3125 2.6875 6 6 6zm0 0"/><path d="m454.179688 226.210938h-100c-14.351563.015624-25.984376 11.644531-26 26v210.828124c.015624 14.351563 11.648437 25.984376 26 26h100c14.351562-.015624 25.984374-11.648437 26-26v-210.828124c-.015626-14.355469-11.648438-25.984376-26-26zm-100 12h100c7.730468.007812 13.992187 6.269531 14 14v9h-11.667969c-3.316407 0-6 2.683593-6 6 0 3.3125 2.683593 6 6 6h11.667969v158.097656h-128v-158.097656h70.449218c3.316406 0 6-2.6875 6-6 0-3.316407-2.683594-6-6-6h-70.449218v-9c.007812-7.730469 6.273437-13.992188 14-14zm100 238.828124h-100c-7.726563-.007812-13.992188-6.269531-14-14v-19.730468h128v19.730468c-.007813 7.730469-6.269532 13.992188-14 14zm0 0"/><path d="m428.917969 273.210938h9.011719c3.3125 0 6-2.6875 6-6 0-3.316407-2.6875-6-6-6h-9.011719c-3.3125 0-6 2.683593-6 6 0 3.3125 2.6875 6 6 6zm0 0"/><path d="m404.179688 449.507812c-5.890626 0-10.667969 4.773438-10.667969 10.664063-.003907 5.894531 4.773437 10.667969 10.664062 10.667969s10.667969-4.777344 10.664063-10.671875c-.007813-5.882813-4.777344-10.648438-10.660156-10.660157zm0 12c-.738282.003907-1.335938-.589843-1.339844-1.328124-.003906-.738282.59375-1.335938 1.328125-1.339844.738281-.003906 1.339843.59375 1.34375 1.328125-.003907.738281-.597657 1.335937-1.332031 1.339843zm0 0"/><path d="m442.535156 304.828125-51.636718 14.710937c-2.578126.734376-4.355469 3.089844-4.355469 5.769532v51.292968c-2.605469-1.023437-5.382813-1.546874-8.179688-1.542968-11.128906 0-20.179687 7.980468-20.179687 17.792968 0 9.808594 9.050781 17.796876 20.179687 17.796876 10.875 0 19.746094-7.632813 20.144531-17.140626.023438-.21875.035157-.4375.035157-.65625v-39.683593l39.640625-11.289063v13.273438c-2.605469-1.023438-5.382813-1.546875-8.179688-1.542969-11.128906 0-20.179687 7.984375-20.179687 17.800781s9.050781 17.789063 20.179687 17.789063c10.875 0 19.742188-7.628907 20.140625-17.132813.023438-.21875.039063-.4375.039063-.65625v-60.808594c0-1.882812-.882813-3.65625-2.386719-4.789062-1.5-1.132812-3.449219-1.496094-5.257813-.984375zm-64.175781 93.820313c-4.433594 0-8.179687-2.65625-8.179687-5.796876 0-3.144531 3.746093-5.792968 8.179687-5.792968s8.179687 2.652344 8.179687 5.792968c0 3.136719-3.746093 5.796876-8.179687 5.796876zm20.179687-57.957032v-10.851562l39.640626-11.292969v10.855469zm31.460938 36.507813c-4.433594 0-8.179688-2.652344-8.179688-5.789063 0-3.140625 3.746094-5.800781 8.179688-5.800781s8.179688 2.65625 8.179688 5.800781c0 3.144532-3.746094 5.789063-8.179688 5.789063zm0 0"/></g></svg>