<svg height="451pt" viewBox="0 -1 451.58379 451" width="451pt" xmlns="http://www.w3.org/2000/svg"><path d="m265.671875 350.300781c2.097656-48.128906 41.730469-86.070312 89.90625-86.070312 3.425781.003906 6.847656.195312 10.25.582031 48.058594 5.507812 83.167969 48.019531 79.492187 96.253906-3.675781 48.234375-44.820312 84.933594-93.160156 83.09375-48.335937-1.835937-86.578125-41.554687-86.582031-89.929687 0-1.320313.03125-2.628907.09375-3.929688zm0 0" fill="#6fe3ff"/><path d="m201.078125 248.171875c0-8.75-7.097656-15.84375-15.847656-15.839844-8.75.003907-15.84375 7.097657-15.839844 15.851563.003906 8.75 7.097656 15.839844 15.847656 15.839844 8.753907-.003907 15.84375-7.101563 15.839844-15.851563zm68.171875 7.96875c-1.132812-8.46875-8.777344-14.511719-17.28125-13.65625-8.5.851563-14.792969 8.292969-14.222656 16.816406.574218 8.527344 7.800781 15.0625 16.339844 14.773438 8.539062-.289063 15.308593-7.296875 15.304687-15.84375 0-.699219-.046875-1.394531-.140625-2.089844zm0-56.609375v-20.648438c0-2.066406-.929688-4.027343-2.53125-5.335937-1.597656-1.304687-3.703125-1.828125-5.730469-1.414063l-54.386719 11.019532c-3.214843.648437-5.523437 3.472656-5.523437 6.75v23.429687zm96.75-58.28125v122.050781l-.171875 1.511719c-3.402344-.386719-6.824219-.578125-10.25-.582031-48.175781 0-87.808594 37.941406-89.90625 86.070312h-215.222656c22.21875.007813 40.230469-18 40.230469-40.21875v-168.832031c0-22.210938 18.007812-40.21875 40.21875-40.21875h194.871093c22.21875-.003906 40.230469 18.003906 40.230469 40.21875zm0 0" fill="#e48e66"/><path d="m316.671875 92.84375v8.1875h-185.773437c-22.210938 0-40.21875 18.007812-40.21875 40.21875v168.832031c0 22.21875-18.011719 40.226563-40.230469 40.21875h-4.230469c-22.214844.007813-40.222656-18.003906-40.21875-40.21875v-263.570312c0-22.214844 18.007812-40.222657 40.21875-40.21875h90.242188c11.292968 0 22.070312 4.75 29.6875 13.089843l27.390624 29.960938c1.902344 2.085938 4.597657 3.273438 7.421876 3.269531h75.488281c22.214843 0 40.222656 18.011719 40.222656 40.230469zm0 0" fill="#6fe3ff"/><g fill="#f8ec7d"><path d="m269.25 256.140625c.871094 6.542969-2.40625 12.933594-8.21875 16.050781-5.816406 3.117188-12.953125 2.300782-17.917969-2.046875-4.960937-4.34375-6.710937-11.3125-4.390625-17.488281 2.324219-6.175781 8.230469-10.265625 14.828125-10.265625 7.921875.046875 14.609375 5.90625 15.699219 13.75zm0 0"/><path d="m269.25 178.882812v20.648438l-68.171875 13.800781v-23.429687c0-3.277344 2.308594-6.101563 5.523437-6.75l54.386719-11.019532c2.027344-.414062 4.132813.109376 5.730469 1.414063 1.601562 1.308594 2.53125 3.269531 2.53125 5.335937zm0 0"/><path d="m185.238281 232.332031c8.753907.003907 15.84375 7.097657 15.839844 15.851563 0 8.75-7.097656 15.839844-15.847656 15.839844-8.75-.003907-15.84375-7.101563-15.839844-15.851563 0-8.75 7.097656-15.84375 15.847656-15.839844zm0 0"/></g><path d="m46.21875 356.300781h213.386719c1.089843 50.609375 41.285156 91.675781 91.855469 93.847657 50.574218 2.171874 94.144531-35.292969 99.570312-85.621094s-29.15625-96.21875-79.03125-104.875v-118.402344c-.03125-25.515625-20.710938-46.191406-46.230469-46.21875h-3.097656v-2.1875c-.027344-25.519531-20.703125-46.199219-46.222656-46.230469h-75.488281c-1.140626 0-2.226563-.480469-2.992188-1.320312l-27.390625-29.957031c-8.761719-9.574219-21.140625-15.03125-34.117187-15.042969h-90.242188c-25.511719.027343-46.1914062 20.703125-46.21875 46.21875v263.570312c.0273438 25.515625 20.707031 46.191407 46.21875 46.21875zm393.359375-2.070312c0 46.394531-37.605469 84-84 84-46.390625 0-84-37.605469-84-84 0-1.214844.03125-2.445313.085937-3.65625v-.011719c1.851563-44.972656 38.90625-80.445312 83.914063-80.332031 3.199219.003906 6.398437.183593 9.574219.542969 42.4375 4.816406 74.480468 40.75 74.425781 83.457031zm-113.808594-247.199219c18.894531.019531 34.207031 15.328125 34.230469 34.21875v117.09375c-1.476562-.070312-2.953125-.113281-4.421875-.113281-49.21875-.121094-90.511719 37.101562-95.480469 86.070312h-178.609375c9.675781-8.746093 15.195313-21.179687 15.1875-34.21875v-168.832031c.023438-18.886719 15.332031-34.195312 34.222657-34.21875zm-313.769531-60.519531c.023438-18.890625 15.328125-34.199219 34.21875-34.21875h90.242188c9.609374.007812 18.773437 4.050781 25.261718 11.136719l27.378906 29.949218c3.042969 3.332032 7.34375 5.234375 11.859376 5.234375h75.488281c18.894531.023438 34.203125 15.335938 34.222656 34.230469v2.1875h-179.773437c-25.511719.03125-46.191407 20.707031-46.21875 46.21875v168.832031c-.023438 18.894531-15.335938 34.199219-34.230469 34.21875h-4.230469c-18.890625-.019531-34.195312-15.328125-34.21875-34.21875zm0 0" fill="#63316d"/><path d="m185.238281 270.023438c12.0625-.019532 21.832031-9.792969 21.839844-21.851563v-29.933594l56.171875-11.371093v31.816406c-8.742188-4.332032-19.292969-2.339844-25.855469 4.878906-6.558593 7.21875-7.535156 17.914062-2.390625 26.203125 5.148438 8.285156 15.167969 12.15625 24.546875 9.476563 9.378907-2.679688 15.847657-11.253907 15.839844-21.011719-.003906-.785157-.050781-1.574219-.140625-2.355469v-76.992188c0-3.867187-1.738281-7.53125-4.730469-9.980468-2.996093-2.445313-6.929687-3.417969-10.71875-2.652344l-54.394531 11.019531c-6 1.234375-10.3125 6.507813-10.328125 12.632813v38.78125c-8.0625-4.074219-17.800781-2.761719-24.5 3.300781s-8.976563 15.621094-5.726563 24.050781c3.25 8.429688 11.355469 13.988282 20.386719 13.988282zm68.3125-1.941407c-5.230469.007813-9.554687-4.078125-9.84375-9.300781-.289062-5.222656 3.554688-9.761719 8.753907-10.332031 5.203124-.570313 9.941406 3.027343 10.789062 8.191406v1.296875c0 .359375.035156.714844.101562 1.070312-.40625 5.113282-4.667968 9.0625-9.800781 9.074219zm-45.761719-79.050781 54.402344-11.019531c.257813-.050781.53125.015625.734375.183593.207031.167969.324219.421876.328125.6875v15.742188l-56.171875 11.371094v-16.09375c0-.421875.296875-.785156.707031-.871094zm-22.550781 49.300781c5.4375.003907 9.84375 4.414063 9.839844 9.851563 0 5.4375-4.410156 9.84375-9.847656 9.839844-5.4375-.003907-9.84375-4.414063-9.839844-9.851563s4.414063-9.839844 9.847656-9.839844zm0 0" fill="#63316d"/><path d="m319.820312 353.789062c-2.34375-2.34375-6.140624-2.34375-8.484374 0s-2.339844 6.144532.003906 8.484376l23.289062 23.28125c2.304688 2.304687 6.027344 2.351562 8.386719.101562l56.710937-54.171875c2.394532-2.289063 2.480469-6.085937.191407-8.484375-2.289063-2.394531-6.085938-2.480469-8.480469-.191406l-52.472656 50.117187zm0 0" fill="#63316d"/></svg>