<svg height="472pt" viewBox="-49 0 472 472.00048" width="472pt" xmlns="http://www.w3.org/2000/svg"><path d="m231.300781 390.71875c0-12.25-9.929687-22.179688-22.179687-22.179688s-22.179688 9.929688-22.179688 22.179688 9.929688 22.179688 22.179688 22.179688 22.179687-9.929688 22.179687-22.179688zm85.441407-58.109375v-28.898437c0-2.894532-1.300782-5.636719-3.539063-7.46875-2.242187-1.832032-5.1875-2.558594-8.023437-1.980469l-66.148438 15.417969c-4.496094.910156-7.730469 4.863281-7.730469 9.449218v32.8125zm0 69.25c-1.605469-11.835937-12.304688-20.273437-24.191407-19.066406-11.882812 1.207031-20.671875 11.621093-19.859375 23.539062.8125 11.921875 10.925782 21.046875 22.867188 20.632813 11.9375-.410156 21.398437-10.21875 21.382812-22.164063 0-.984375-.070312-1.964843-.199218-2.941406zm-158.78125-95.46875c24.933593-50.300781 83.605468-73.925781 136.4375-54.933594 52.828124 18.988281 83.039062 74.558594 70.242187 129.222657-12.792969 54.660156-64.527344 91.054687-120.300781 84.621093-55.769532-6.429687-97.863282-53.640625-97.878906-109.78125 0-17.042969 3.933593-33.855469 11.5-49.128906zm0 0" fill="#6fe3ff"/><g fill="#cc7350"><path d="m316.742188 401.859375c.128906.976563.199218 1.957031.199218 2.941406.015625 11.980469-9.46875 21.816407-21.445312 22.234375-11.972656.414063-22.121094-8.738281-22.933594-20.691406-.8125-11.957031 8-22.402344 19.921875-23.609375 11.921875-1.210937 22.652344 7.253906 24.257813 19.125zm0 0"/><path d="m316.742188 303.710938v28.898437l-85.441407 19.332031v-32.8125c0-4.585937 3.234375-8.539062 7.730469-9.449218l66.148438-15.417969c2.835937-.578125 5.78125.148437 8.023437 1.980469 2.238281 1.832031 3.539063 4.574218 3.539063 7.46875zm0 0"/><path d="m231.300781 390.71875c0 12.25-9.929687 22.179688-22.179687 22.179688s-22.179688-9.929688-22.179688-22.179688 9.929688-22.179688 22.179688-22.179688 22.179687 9.929688 22.179687 22.179688zm0 0"/><path d="m206.980469 454.089844h-192.109375c0-15 12.160156-27.160156 27.160156-27.160156h130.617188c9.523437 11.25 21.195312 20.484374 34.332031 27.160156zm0 0"/></g><path d="m58.082031 178.980469v-104.980469c0-37.554688 30.441407-68 68-68h2.886719c37.558594 0 68 30.445312 68 68v116.171875c-.003906 37.550781-30.445312 67.996094-68 68h-2.886719c-37.554687-.003906-67.996093-30.449219-68-68zm0 0" fill="#f8ec7d"/><path d="m128.96875 264.171875c40.851562-.046875 73.957031-33.152344 74-74v-116.171875c-.042969-40.851562-33.148438-73.953125-74-74h-2.886719c-40.851562.046875-73.957031 33.148438-74 74v116.171875c.042969 40.847656 33.148438 73.953125 74 74zm-64.886719-74v-5.191406h30.457031c3.316407 0 6-2.6875 6-6s-2.683593-6-6-6h-30.457031v-12.300781h30.457031c3.316407 0 6-2.6875 6-6s-2.683593-6-6-6h-30.457031v-12.308594h30.457031c3.316407 0 6-2.6875 6-6 0-3.316406-2.683593-6-6-6h-30.457031v-12.300782h30.457031c3.316407 0 6-2.6875 6-6s-2.683593-6-6-6h-30.457031v-26.070312c.035157-34.226562 27.773438-61.960938 62-62h2.886719c34.226562.039062 61.964844 27.773438 62 62v26.070312h-30.457031c-3.316407 0-6 2.6875-6 6s2.683593 6 6 6h30.457031v12.300782h-30.457031c-3.316407 0-6 2.683594-6 6 0 3.3125 2.683593 6 6 6h30.457031v12.308594h-30.457031c-3.316407 0-6 2.6875-6 6s2.683593 6 6 6h30.457031v12.300781h-30.457031c-3.316407 0-6 2.6875-6 6s2.683593 6 6 6h30.457031v5.191406c-.039062 34.222656-27.773438 61.960937-62 62h-2.886719c-34.226562-.039063-61.960937-27.777344-62-62zm0 0" fill="#63316d"/><path d="m256.941406 239.039062c-4.140625 0-8.277344.21875-12.390625.65625 7.019531-16.070312 10.597657-33.429687 10.5-50.964843 0-3.3125-2.6875-6-6-6-3.316406 0-6 2.6875-6 6 0 19.34375-4.542969 37.785156-13.125 53.46875-32.589843 7.90625-60.246093 29.359375-76.015625 58.953125-8.65625 1.992187-17.507812 3.03125-26.390625 3.101562-63.769531-.074218-115.449219-51.753906-115.519531-115.523437 0-3.3125-2.6875-6-6-6s-6 2.6875-6 6c0 68.300781 53.980469 124.230469 121.519531 127.375v104.824219h-79.488281c-18.304688.023437-33.140625 14.855468-33.160156 33.160156 0 3.3125 2.683594 6 6 6h190.71875c15.964844 7.886718 33.542968 11.960937 51.351562 11.910156 64.328125 0 116.480469-52.148438 116.480469-116.480469 0-64.328125-52.152344-116.480469-116.480469-116.480469zm-123.421875 77.042969c4.8125-.253906 9.609375-.773437 14.363281-1.554687-13.28125 35.421875-8.554687 75.089844 12.683594 106.398437h-27.046875zm-91.488281 116.847657h127.878906c4.9375 5.5625 10.398438 10.640624 16.304688 15.160156h-164.480469c2.671875-8.984375 10.925781-15.148438 20.296875-15.160156zm214.910156 27.070312c-30.722656.039062-59.894531-13.484375-79.71875-36.953125-31.6875-37.414063-33.09375-91.832031-3.378906-130.835937 29.71875-39 82.554688-52.089844 127.039062-31.46875 44.484376 20.621093 68.644532 69.402343 58.085938 117.285156-10.558594 47.878906-52.996094 81.976562-102.027344 81.972656zm0 0" fill="#63316d"/><path d="m322.742188 332.5v-28.789062c0-4.695313-2.109376-9.140626-5.742188-12.113282-3.632812-2.96875-8.410156-4.152344-13.007812-3.21875l-.175782.035156-66.074218 15.402344c-7.238282 1.535156-12.421876 7.914063-12.441407 15.3125v48.539063c-10.628906-7.449219-24.972656-6.671875-34.734375 1.886719-9.757812 8.554687-12.410156 22.671874-6.414062 34.183593 5.992187 11.515625 19.078125 17.441407 31.683594 14.351563 12.605468-3.085938 21.46875-14.390625 21.464843-27.371094v-33.984375l73.441407-16.613281v41.5c-11.003907-7.644532-25.847657-6.5625-35.625 2.589844-9.78125 9.15625-11.835938 23.894531-4.933594 35.375 6.902344 11.480468 20.882812 16.582031 33.554687 12.242187 12.671875-4.34375 20.589844-16.945313 19.003907-30.246094zm-113.621094 74.398438c-8.9375 0-16.179688-7.242188-16.179688-16.179688 0-8.933594 7.242188-16.179688 16.179688-16.179688 8.933594 0 16.179687 7.246094 16.179687 16.179688-.011719 8.933594-7.25 16.171875-16.179687 16.179688zm28.179687-62.46875v-25.296876c.003907-1.734374 1.222657-3.222656 2.921875-3.570312l.167969-.039062 66.046875-15.398438c1.0625-.199219 2.160156.089844 2.992188.78125.828124.691406 1.308593 1.71875 1.308593 2.800781v24.105469zm57.460938 76.550781c-8.621094.007812-15.734375-6.746094-16.175781-15.355469-.441407-8.609375 5.949218-16.050781 14.527343-16.921875 8.574219-.871094 16.328125 5.136719 17.628907 13.660156v2.027344c0 .449219.050781.894531.152343 1.332031-.492187 8.554688-7.566406 15.242188-16.132812 15.257813zm0 0" fill="#63316d"/></svg>