<svg height="486pt" viewBox="0 0 486.52656 486" width="486pt" xmlns="http://www.w3.org/2000/svg"><path d="m454.378906 217.414062c14.421875-.003906 26.117188 11.683594 26.121094 26.101563 0 14.421875-11.6875 26.117187-26.109375 26.117187-14.421875.003907-26.113281-11.6875-26.113281-26.109374 0-14.414063 11.683594-26.105469 26.101562-26.109376zm0 0" fill="#f8ec7d"/><path d="m411.007812 75.785156c10.195313 10.195313 10.195313 26.722656 0 36.917969-10.195312 10.195313-26.722656 10.195313-36.917968 0-10.195313-10.195313-10.195313-26.722656 0-36.917969 10.195312-10.191406 26.722656-10.191406 36.917968 0zm0 0" fill="#f8ec7d"/><path d="m411.007812 374.34375c10.195313 10.195312 10.195313 26.726562 0 36.917969-10.195312 10.195312-26.722656 10.195312-36.917968 0-10.195313-10.191407-10.195313-26.722657 0-36.917969 10.195312-10.191406 26.722656-10.191406 36.917968 0zm0 0" fill="#f8ec7d"/><path d="m237.328125 301.753906c0-12.417968-12.101563-22.480468-27.03125-22.480468s-27.027344 10.0625-27.027344 22.480468c0 12.421875 12.097657 22.488282 27.027344 22.488282s27.03125-10.066407 27.03125-22.488282zm0-110.980468 65.941406 12.378906v-27.96875l-65.941406-12.378906zm5.941406-74.570313c70.4375 0 127.539063 57.101563 127.539063 127.539063 0 70.441406-57.101563 127.542968-127.539063 127.542968-70.441406 0-127.542969-57.101562-127.542969-127.542968 0-70.4375 57.101563-127.539063 127.542969-127.539063zm0 0" fill="#6fe3ff"/><g fill="#f8ec7d"><path d="m303.269531 175.183594v27.96875l-65.941406-12.378906v-27.96875zm0 0"/><path d="m243.269531 6.304688c14.414063.003906 26.097657 11.691406 26.097657 26.105468 0 14.417969-11.6875 26.101563-26.101563 26.105469-14.417969 0-26.105469-11.683594-26.109375-26.101563 0-14.421874 11.691406-26.109374 26.113281-26.109374zm0 0"/><path d="m243.269531 428.535156c14.414063 0 26.101563 11.691406 26.097657 26.109375 0 14.417969-11.691407 26.101563-26.109376 26.097657-14.417968 0-26.101562-11.691407-26.101562-26.109376.007812-14.414062 11.695312-26.101562 26.113281-26.097656zm0 0"/><path d="m210.296875 279.273438c14.929687 0 27.03125 10.0625 27.03125 22.480468 0 12.421875-12.101563 22.488282-27.03125 22.488282s-27.027344-10.066407-27.027344-22.488282c0-12.417968 12.097657-22.480468 27.027344-22.480468zm0 0"/><path d="m112.449219 75.785156c10.195312 10.195313 10.195312 26.722656 0 36.917969-10.195313 10.195313-26.726563 10.195313-36.921875 0-10.195313-10.195313-10.195313-26.722656 0-36.917969 10.195312-10.199218 26.726562-10.199218 36.921875 0zm0 0"/><path d="m112.789062 374.703125c9.585938 10.347656 9.007813 26.496094-1.296874 36.132813-10.300782 9.632812-26.449219 9.132812-36.136719-1.121094-9.683594-10.253906-9.261719-26.40625.945312-36.140625s26.363281-9.390625 36.148438.769531c.117187.121094.238281.242188.339843.359375zm0 0"/><path d="m32.15625 217.414062c14.421875 0 26.113281 11.691407 26.113281 26.109376 0 14.421874-11.691406 26.109374-26.113281 26.109374-14.417969 0-26.109375-11.6875-26.109375-26.109374 0-14.421876 11.691406-26.109376 26.109375-26.109376zm0 0"/></g><path d="m369.847656 415.507812c11.960938 11.945313 31.144532 12.566407 43.851563 1.414063 12.710937-11.152344 14.589843-30.25 4.300781-43.664063-10.289062-13.417968-29.222656-16.550781-43.289062-7.164062l-32.617188-32.632812c20.960938-23 33.195312-52.625 34.574219-83.71875h46.21875c3.203125 16.261718 18.253906 27.417968 34.742187 25.753906 16.488282-1.664063 29.007813-15.597656 28.898438-32.171875-.109375-16.570313-12.808594-30.339844-29.320313-31.789063-16.507812-1.445312-31.410156 9.90625-34.398437 26.207032h-46.140625c-1.394531-31.464844-13.910157-61.414063-35.320313-84.519532l32.726563-32.714844c12.765625 8.984376 30.144531 7.484376 41.175781-3.558593 11.929688-11.941407 12.570312-31.082031 1.46875-43.796875s-30.15625-14.660156-43.597656-4.449219-16.679688 29.085937-7.40625 43.191406l-32.890625 32.882813c-23.234375-21.105469-53.1875-33.316406-84.554688-34.46875v-46.183594c16.371094-2.574219 28.101563-17.179688 27.078125-33.722656-1.027344-16.542969-14.464844-29.589844-31.03125-30.121094-16.566406-.535156-30.816406 11.621094-32.902344 28.066406-2.085937 16.441406 8.679688 31.769532 24.855469 35.390625v46.648438c-31.082031 1.617187-60.613281 14.078125-83.457031 35.214843l-32.695312-32.699218c9.125-12.769532 7.675781-30.265625-3.425782-41.359375-11.921875-11.914063-31.03125-12.582031-43.757812-1.527344-12.722656 11.054687-14.730469 30.070313-4.597656 43.539063 10.136718 13.472656 28.960937 16.808593 43.109374 7.644531l32.914063 32.925781c-21.140625 23.242188-33.375 53.222656-34.523437 84.625h-45.933594c-2.457032-16.394531-16.984375-28.226562-33.53125-27.320312-16.550782.910156-29.695313 14.257812-30.3476565 30.820312-.6484375 16.5625 11.4062505 30.902344 27.8359375 33.105469 16.429687 2.199219 31.835937-8.457031 35.570313-24.605469h46.480468c1.609375 31.007812 14.015625 60.476562 35.066406 83.300781l-32.515624 32.503907c-12.761719-8.988282-30.140626-7.484376-41.175782 3.554687-11.949218 11.9375-12.605468 31.089844-1.503906 43.816406 11.097656 12.726563 30.160156 14.679688 43.609375 4.46875 13.453125-10.210937 16.691406-29.097656 7.414063-43.210937l32.675781-32.667969c23.011719 20.996094 52.664062 33.25 83.789062 34.628906v45.960938c-16.277343 3.09375-27.523437 18.0625-25.96875 34.554687 1.554688 16.496094 15.402344 29.097656 31.96875 29.097656 16.566407 0 30.414063-12.601562 31.96875-29.097656 1.554688-16.492187-9.695312-31.460937-25.96875-34.554687v-45.960938c31.390625-1.394531 61.277344-13.851562 84.363281-35.171875l32.527344 32.539063c-8.847656 12.757812-7.296875 30.019531 3.6875 40.996093zm36.921875-36.921874c6.777344 6.78125 7.820313 17.40625 2.492188 25.378906s-15.546875 11.070312-24.40625 7.398437-13.890625-13.089843-12.015625-22.492187c1.871094-9.40625 10.125-16.179688 19.714844-16.175782 5.328124.003907 10.441406 2.121094 14.214843 5.890626zm47.609375-155.171876c11.105469-.003906 20.117188 8.996094 20.121094 20.101563 0 11.109375-9 20.117187-20.109375 20.117187-11.105469.003907-20.113281-9-20.113281-20.109374.011718-11.097657 9.003906-20.089844 20.101562-20.109376zm-76.050781-143.386718c6.78125-6.777344 17.410156-7.820313 25.378906-2.492188 7.972657 5.328125 11.070313 15.546875 7.398438 24.40625-3.667969 8.859375-13.085938 13.890625-22.492188 12.019532-9.402343-1.875-16.175781-10.128907-16.175781-19.71875-.003906-5.332032 2.117188-10.445313 5.890625-14.214844zm-155.171875-47.613282c-.003906-11.109374 8.996094-20.117187 20.105469-20.121093 11.109375-.003907 20.113281 9 20.117187 20.109375 0 11.105468-9.003906 20.113281-20.109375 20.113281-11.097656-.015625-20.09375-9.003906-20.113281-20.101563zm-143.386719 76.050782c-6.78125-6.785156-7.824219-17.410156-2.496093-25.382813 5.332031-7.96875 15.546874-11.066406 24.40625-7.398437 8.859374 3.671875 13.890624 13.089844 12.019531 22.492187-1.871094 9.40625-10.125 16.179688-19.714844 16.179688-5.332031-.007813-10.445313-2.125-14.214844-5.890625zm-47.613281 155.167968c-11.105469.007813-20.113281-8.996093-20.117188-20.101562-.003906-11.109375 8.996094-20.117188 20.105469-20.117188s20.113281 9.003907 20.113281 20.109376c-.011718 11.097656-9.003906 20.09375-20.101562 20.109374zm211.113281-141.429687c67.125 0 121.539063 54.417969 121.539063 121.539063 0 67.125-54.414063 121.542968-121.539063 121.542968s-121.542969-54.417968-121.542969-121.542968c.078126-67.089844 54.449219-121.460938 121.542969-121.539063zm-135.0625 284.820313c-7.765625 7.808593-20.367187 7.921874-28.273437.257812-7.910156-7.664062-8.191406-20.261719-.628906-28.269531 7.558593-8.011719 20.152343-8.457031 28.257812-1 .433594.71875 1.019531 1.335937 1.722656 1.796875 6.738282 7.984375 6.269532 19.789062-1.078125 27.214844zm155.171875 47.609374c.015625 10.941407-8.714844 19.890626-19.65625 20.140626-10.9375.246093-20.066406-8.296876-20.546875-19.226563-.476562-10.933594 7.875-20.242187 18.792969-20.949219.851562.195313 1.738281.195313 2.589844 0 10.570312.683594 18.800781 9.445313 18.820312 20.035156zm0 0" fill="#63316d"/><path d="m210.296875 330.242188c18.214844 0 33.03125-12.777344 33.03125-28.488282v-103.75l58.832031 11.046875c.367188.066407.738282.101563 1.109375.097657 3.3125 0 6-2.683594 6-6v-27.964844c0-2.886719-2.054687-5.367188-4.894531-5.898438l-65.941406-12.382812c-1.753906-.328125-3.5625.140625-4.9375 1.28125s-2.167969 2.835937-2.167969 4.621094v117.003906c-6.160156-4.308594-13.511719-6.59375-21.03125-6.535156-18.210937 0-33.027344 12.777343-33.027344 28.480468s14.816407 28.488282 33.027344 28.488282zm33.03125-160.207032 53.941406 10.128906v15.761719l-53.941406-10.128906zm-33.03125 115.238282c11.601563 0 21.03125 7.394531 21.03125 16.480468 0 9.085938-9.433594 16.488282-21.03125 16.488282-11.59375 0-21.027344-7.394532-21.027344-16.488282s9.433594-16.480468 21.027344-16.480468zm0 0" fill="#63316d"/></svg>