<svg height="352pt" viewBox="-20 0 352 352.1399" width="352pt" xmlns="http://www.w3.org/2000/svg"><path d="m305.992188 195.128906c-.070313-45.519531-30.296876-85.480468-74.078126-97.9375-43.78125-12.460937-90.519531 5.597656-114.550781 44.257813v-135.449219c103.851563 0 188.628907 84.789062 188.628907 189.128906zm0 0" fill="#f8ec7d"/><path d="m61.683594 234.769531c30.753906.003907 55.683594 24.9375 55.679687 55.691407-.003906 30.753906-24.933593 55.683593-55.6875 55.679687-30.753906-.003906-55.683593-24.9375-55.683593-55.691406.003906-30.753907 24.9375-55.683594 55.691406-55.679688zm0 0" fill="#f8ec7d"/><path d="m117.363281 0c-3.3125 0-6 2.6875-6 6v247.949219c-17.957031-24.394531-50.976562-32.128907-77.898437-18.246094-26.925782 13.882813-39.773438 45.265625-30.3125 74.042969 9.460937 28.777344 38.425781 46.414062 68.335937 41.613281 29.910157-4.800781 51.898438-30.621094 51.875-60.910156v-147.238281c23.070313-35.730469 66.90625-52.019532 107.710938-40.023438 40.804687 11.992188 68.851562 49.410156 68.917969 91.941406 0 3.316406 2.6875 6 6 6 3.316406 0 6-2.683594 6-6 0-107.59375-87.308594-195.128906-194.628907-195.128906zm-55.679687 340.140625c-27.441406.003906-49.6875-22.242187-49.691406-49.679687 0-27.441407 22.242187-49.6875 49.683593-49.691407 27.4375-.003906 49.683594 22.238281 49.6875 49.679688-.03125 27.425781-22.253906 49.65625-49.679687 49.691406zm142.46875-252.851563c-30.863282-.128906-60.292969 13.023438-80.789063 36.101563v-111.292969c73.414063 2.390625 136.023438 48.4375 162.765625 113.039063-20.457031-24.019531-50.425781-37.855469-81.976562-37.847657zm0 0" fill="#63316d"/></svg>