<svg height="313pt" viewBox="-1 0 313 313.42019" width="313pt" xmlns="http://www.w3.org/2000/svg"><path d="m306.210938 29.121094v92.917968l-123.109376-23.109374v-92.929688zm0 0" fill="#f8ec7d"/><path d="m132.628906 223.460938c27.871094 0 50.472656 18.789062 50.472656 41.980468 0 23.1875-22.601562 41.980469-50.472656 41.980469-27.867187 0-50.480468-18.800781-50.480468-41.980469 0-23.179687 22.601562-41.980468 50.480468-41.980468zm0 0" fill="#f8ec7d"/><g fill="#63316d"><path d="m132.628906 217.460938c-31.140625 0-56.480468 21.523437-56.480468 47.980468 0 26.453125 25.339843 47.980469 56.480468 47.980469 31.144532 0 56.472656-21.527344 56.472656-47.980469v-159.28125l116 21.777344c1.753907.328125 3.5625-.140625 4.9375-1.28125s2.167969-2.832031 2.167969-4.617188v-92.917968c0-2.890625-2.054687-5.367188-4.894531-5.902344l-123.101562-23.117188c-1.757813-.328124-3.566407.140626-4.941407 1.28125-1.375 1.140626-2.167969 2.835938-2.167969 4.621094v229.917969c-10.347656-11.226563-26.429687-18.460937-44.472656-18.460937zm56.472656-204.230469 111.109376 20.867187v80.710938l-111.109376-20.855469zm-56.472656 288.191406c-24.523437 0-44.480468-16.144531-44.480468-35.980469 0-19.839844 19.957031-35.980468 44.480468-35.980468 24.527344 0 44.472656 16.140624 44.472656 35.980468 0 19.835938-19.949218 35.980469-44.472656 35.980469zm0 0"/><path d="m6.210938 40.78125h108.960937c3.3125 0 6-2.6875 6-6 0-3.316406-2.6875-6-6-6h-108.960937c-3.316407 0-6 2.683594-6 6 0 3.3125 2.683593 6 6 6zm0 0"/><path d="m6.210938 97.378906h108.960937c3.3125 0 6-2.683594 6-6 0-3.3125-2.6875-6-6-6h-108.960937c-3.316407 0-6 2.6875-6 6 0 3.316406 2.683593 6 6 6zm0 0"/><path d="m6.210938 153.980469h108.960937c3.3125 0 6-2.6875 6-6s-2.6875-6-6-6h-108.960937c-3.316407 0-6 2.6875-6 6s2.683593 6 6 6zm0 0"/></g></svg>