<svg height="472pt" viewBox="0 -44 472.114 472" width="472pt" xmlns="http://www.w3.org/2000/svg"><path d="m441.121094 47.457031h25v255.839844h-25zm0 0" fill="#cc7350"/><path d="m466.121094 39.957031v7.5h-50v-7.5c0-11.046875 8.953125-20 20-20h10c11.042968.003907 19.996094 8.957031 20 20zm0 0" fill="#f8ec7d"/><path d="m466.121094 303.296875-25 50-25-50zm0 0" fill="#f8ec7d"/><path d="m416.121094 47.457031h25v255.839844h-25zm0 0" fill="#6fe3ff"/><path d="m384.238281 39.605469v71.121093h-67.097656v-71.121093c-.003906-17.785157 13.875-32.480469 31.628906-33.5.640625-.027344 1.28125-.046875 1.921875-.046875 18.523438.003906 33.542969 15.023437 33.546875 33.546875zm0 0" fill="#6fe3ff"/><path d="m348.769531 6.058594v.046875c-17.753906 1.019531-31.632812 15.714843-31.628906 33.5v127.320312l-.050781 133.871094-.101563 26.710937c-2.097656 28.429688-25.316406 50.828126-53.667969 50.828126h-.03125c-1.109374 0-2.210937-.027344-3.300781-.097657v-.011719c-28.1875-1.738281-50.527343-25.660156-50.527343-54.910156v-35.628906h-149.460938l1.988281-243.679688c.210938-21.023437 17.316407-37.953124 38.339844-37.949218zm-140.121093 115.789062c0-7.242187-5.875-13.113281-13.117188-13.109375-7.246094 0-13.113281 5.875-13.109375 13.117188 0 7.246093 5.875 13.113281 13.117187 13.113281 7.242188-.007812 13.113282-5.878906 13.109376-13.121094zm-63.757813 15.519532c0-7.246094-5.875-13.121094-13.121094-13.121094-7.246093 0-13.121093 5.875-13.121093 13.121094 0 7.246093 5.875 13.121093 13.121093 13.121093 7.246094 0 13.121094-5.875 13.121094-13.121093zm0 0" fill="#f8ec7d"/><path d="m259.988281 378.226562v.011719l-.007812.097657h-200.152344c-29.726563 0-53.828125-24.640626-53.828125-55.019532v-35.628906h203.460938v35.628906c0 29.25 22.339843 53.171875 50.527343 54.910156zm0 0" fill="#6fe3ff"/><path d="m195.539062 108.726562c7.246094 0 13.121094 5.875 13.121094 13.121094s-5.875 13.121094-13.121094 13.121094c-7.246093 0-13.117187-5.875-13.117187-13.121094-.003906-7.246094 5.871094-13.121094 13.117187-13.121094zm0 0" fill="#6fe3ff"/><path d="m144.890625 137.367188c0 7.246093-5.875 13.121093-13.121094 13.121093-7.246093 0-13.121093-5.875-13.121093-13.121093 0-7.246094 5.875-13.121094 13.121093-13.121094 7.246094 0 13.121094 5.875 13.121094 13.121094zm0 0" fill="#6fe3ff"/><g fill="#63316d"><path d="m350.691406.0585938c-.460937 0-.925781.0078124-1.402344.0273437-.171874-.015625-.347656-.0273437-.523437-.0273437h-248.4375c-24.285156.0742182-44.019531 19.6132812-44.339844 43.8984372l-1.9375 237.730469h-48.050781c-3.3125 0-6 2.6875-6 6v35.628906c0 32.351563 24.816406 58.890625 56.054688 60.886719.410156.089844.832031.132813 1.253906.132813h202.671875c.261719 0 .527343-.019532.789062-.058594.808594.035156 1.644531.058594 2.550781.058594 31.113282 0 57.316407-24.769532 59.652344-56.386719.011719-.140625.015625-.28125.015625-.421875l.101563-26.726563.050781-133.875v-50.199219h61.097656c3.316407 0 6-2.6875 6-6v-71.121093c-.003906-21.839844-17.707031-39.542969-39.546875-39.5468752zm-338.691406 323.2578122v-29.628906h191.460938v29.628906c-.042969 19.234375 8.925781 37.375 24.230468 49.019532h-167.863281c-26.367187 0-47.828125-21.988282-47.828125-49.019532zm299.140625-156.390625-.050781 133.847657-.101563 26.496093c-1.96875 25.285157-22.871093 45.066407-47.699219 45.066407-.929687 0-1.78125-.023438-2.597656-.066407-.113281-.011719-.222656-.023437-.335937-.03125-25.179688-1.554687-44.902344-23.042969-44.902344-48.921875v-35.628906c0-3.3125-2.683594-6-6-6h-143.402344l1.9375-237.621094c.238281-17.710937 14.632813-31.957031 32.339844-32.007812h222c-7.175781 7.371094-11.191406 17.257812-11.1875 27.546875zm67.097656-62.199219h-55.097656v-65.121093c-.007813-14.582031 11.355469-26.644531 25.914063-27.507813.542968-.027344 1.089843-.042968 1.636718-.042968 15.210938.007812 27.539063 12.335937 27.546875 27.550781zm0 0"/><path d="m260.289062 80.488281h-5.289062c-3.3125 0-6 2.683594-6 6 0 3.3125 2.6875 6 6 6h5.289062c3.316407 0 6-2.6875 6-6 0-3.316406-2.683593-6-6-6zm0 0"/><path d="m231.53125 92.488281h1.109375c3.3125 0 6-2.6875 6-6 0-3.316406-2.6875-6-6-6h-1.109375c-3.316406 0-6 2.683594-6 6 0 3.3125 2.683594 6 6 6zm0 0"/><path d="m260.289062 40.488281h-25.289062c-3.3125 0-6 2.683594-6 6 0 3.3125 2.6875 6 6 6h25.289062c3.316407 0 6-2.6875 6-6 0-3.316406-2.683593-6-6-6zm0 0"/><path d="m260.289062 120.488281h-28.757812c-3.316406 0-6 2.683594-6 6 0 3.3125 2.683594 6 6 6h28.757812c3.316407 0 6-2.6875 6-6 0-3.316406-2.683593-6-6-6zm0 0"/><path d="m260.289062 220.488281h-5.289062c-3.3125 0-6 2.683594-6 6 0 3.3125 2.6875 6 6 6h5.289062c3.316407 0 6-2.6875 6-6 0-3.316406-2.683593-6-6-6zm0 0"/><path d="m238.640625 226.488281c0-3.316406-2.6875-6-6-6h-21.109375c-3.316406 0-6 2.683594-6 6 0 3.3125 2.683594 6 6 6h21.109375c3.3125 0 6-2.6875 6-6zm0 0"/><path d="m118.648438 232.488281h72.363281c3.3125 0 6-2.6875 6-6 0-3.316406-2.6875-6-6-6h-72.363281c-3.3125 0-6 2.683594-6 6 0 3.3125 2.6875 6 6 6zm0 0"/><path d="m260.289062 180.488281h-25.289062c-3.3125 0-6 2.683594-6 6 0 3.3125 2.6875 6 6 6h25.289062c3.316407 0 6-2.6875 6-6 0-3.316406-2.683593-6-6-6zm0 0"/><path d="m151.53125 180.488281c-3.316406 0-6 2.683594-6 6 0 3.3125 2.683594 6 6 6h61.109375c3.3125 0 6-2.6875 6-6 0-3.316406-2.6875-6-6-6zm0 0"/><path d="m118.648438 192.488281h12.363281c3.3125 0 6-2.6875 6-6 0-3.316406-2.6875-6-6-6h-12.363281c-3.3125 0-6 2.683594-6 6 0 3.3125 2.6875 6 6 6zm0 0"/><path d="m260.289062 260.488281h-18.757812c-3.316406 0-6 2.683594-6 6 0 3.3125 2.683594 6 6 6h18.757812c3.316407 0 6-2.6875 6-6 0-3.316406-2.683593-6-6-6zm0 0"/><path d="m221.011719 260.488281h-102.363281c-3.3125 0-6 2.683594-6 6 0 3.3125 2.6875 6 6 6h102.363281c3.3125 0 6-2.6875 6-6 0-3.316406-2.6875-6-6-6zm0 0"/><path d="m446.121094 13.957031h-10c-14.355469.015625-25.984375 11.648438-26 26v263.339844c0 .113281.007812.222656.015625.332031 0 .066406 0 .136719.011719.207032.019531.234374.050781.46875.097656.699218v.011719c.050781.226563.113281.449219.1875.667969.015625.050781.035156.097656.054687.152344.066407.179687.140625.355468.222657.523437.015624.03125.023437.0625.039062.09375l24.367188 48.734375v9.722656c0 3.3125 2.6875 6 6 6s6-2.6875 6-6v-9.722656l24.367187-48.734375c.011719-.03125.023437-.0625.039063-.09375.082031-.171875.15625-.34375.222656-.523437.015625-.050782.035156-.101563.054687-.152344.074219-.21875.136719-.441406.183594-.667969v-.011719c.046875-.230468.082031-.464844.101563-.699218.007812-.070313.007812-.140626.011718-.207032.003906-.109375.015625-.21875.015625-.332031v-263.339844c-.015625-14.351562-11.644531-25.980469-25.992187-26zm-24 283.339844v-243.839844h13v243.839844zm25-243.839844h13v243.839844h-13zm-11-27.5h10c7.726562.007813 13.988281 6.273438 14 14v1.5h-38v-1.5c.007812-7.730469 6.269531-13.992187 14-14zm5 313.925781-15.292969-30.585937h30.582031zm0 0"/><path d="m131.769531 156.488281c10.554688-.011719 19.109375-8.566406 19.121094-19.121093 0-.136719-.019531-.273438-.019531-.410157-.003906-.136719.019531-.273437.019531-.410156v-71.628906c.003906-2.550781 1.796875-4.746094 4.292969-5.261719l40.953125-7.035156.132812-.027344c1.574219-.300781 3.199219.113281 4.433594 1.132812 1.234375 1.019532 1.949219 2.539063 1.945313 4.140626v46.246093c-7.792969-3.125-16.71875-.796875-21.988282 5.742188-5.273437 6.539062-5.660156 15.753906-.953125 22.710937 4.707031 6.957032 13.40625 10.023438 21.433594 7.558594 8.03125-2.460938 13.511719-9.878906 13.507813-18.277344 0-.136718-.015626-.273437-.019532-.410156s.019532-.273438.019532-.410156v-63.160156c.003906-5.175782-2.304688-10.082032-6.289063-13.378907-3.984375-3.300781-9.234375-4.652343-14.316406-3.683593l-40.96875 7.039062-.132813.023438c-8.152344 1.597656-14.039062 8.738281-14.050781 17.050781v54.71875c-7.152344-2.871094-15.328125-1.167969-20.738281 4.320312s-6.992188 13.6875-4.015625 20.796875c2.972656 7.109375 9.925781 11.734375 17.632812 11.734375zm63.769531-27.519531c-3.933593.003906-7.125-3.179688-7.128906-7.113281-.003906-3.933594 3.183594-7.125 7.117188-7.128907 3.933594 0 7.121094 3.1875 7.121094 7.121094-.003907 3.925782-3.183594 7.109375-7.109376 7.121094zm-63.769531 1.277344c3.933594 0 7.121094 3.1875 7.121094 7.121094 0 3.933593-3.1875 7.121093-7.121094 7.121093-3.933593 0-7.121093-3.1875-7.121093-7.121093.007812-3.929688 3.191406-7.117188 7.121093-7.121094zm0 0"/></g></svg>