<svg height="460pt" viewBox="-31 0 460 460.36991" width="460pt" xmlns="http://www.w3.org/2000/svg"><path d="m333.773438 238.167969c6.003906-.394531 11.953124 1.328125 16.820312 4.863281l2.132812-6.890625 12.5-41.800781 1.5-5.011719c3.203126-10.722656 14.273438-17.039063 25.136719-14.339844l-20.046875 107.902344c-4.351562 12.890625-12.738281 24.039063-23.921875 31.789063l-43.789062 30.171874c-4.257813 2.546876-7.378907 6.625-8.730469 11.398438l-7.371094 36.691406-1.449218 1.886719-55.738282-42.648437.25-.328126c1.78125-3.859374 2.824219-8.019531 3.070313-12.261718l.667969-11.582032c3.035156-21.472656 17.816406-39.453124 38.300781-46.589843l3.769531-1.308594c5.890625-2.046875 11.238281-5.402344 15.648438-9.808594l19.152343-19.152343 5.460938-5.457032c4.4375-4.457031 10.359375-7.132812 16.636719-7.523437zm0 0" fill="#f7caa5"/><path d="m365.226562 194.339844-12.5 41.800781-2.132812 6.890625c-4.867188-3.535156-10.816406-5.257812-16.820312-4.863281l8.050781-26.847657 2.050781-6.832031c2.699219-8.269531 12.910156-12.457031 21.300781-10.160156zm0 0" fill="#edb288"/><path d="m341.824219 211.320312-8.050781 26.847657c-6.277344.390625-12.199219 3.066406-16.636719 7.523437l-5.460938 5.457032 6.617188-22.398438c2.761719-10.386719 12.164062-17.617188 22.910156-17.621094zm0 0" fill="#edb288"/><path d="m297.34375 403.089844v51.28125l-81.070312-53.570313v-59.75l14.542968 11.128907 55.738282 42.648437zm0 0" fill="#f8ec7d"/><path d="m288.855469 6v47.710938l-121.992188 30.089843v-47.710937zm0 0" fill="#e48e66"/><path d="m259.84375 114.441406c16.019531 0 29.011719 10.796875 29.011719 24.117188 0 13.320312-12.992188 24.132812-29.011719 24.132812s-29-10.800781-29-24.132812c0-13.328125 12.980469-24.117188 29-24.117188zm0 0" fill="#f8ec7d"/><path d="m181.785156 341.050781v59.75l-81.082031 53.570313v-51.28125l10.792969-8.261719 55.738281-42.648437zm0 0" fill="#f8ec7d"/><path d="m64.285156 238.167969c6.277344.390625 12.199219 3.066406 16.640625 7.523437l5.460938 5.457032 19.148437 19.152343c4.410156 4.40625 9.761719 7.761719 15.648438 9.808594l3.761718 1.308594c20.484376 7.132812 35.269532 25.113281 38.300782 46.589843l.679687 11.582032c.246094 4.242187 1.285157 8.398437 3.058594 12.261718l.25.328126-55.738281 42.648437-1.453125-1.886719-7.359375-36.691406c-1.347656-4.773438-4.472656-8.851562-8.730469-11.398438l-43.789063-30.171874c-11.179687-7.753907-19.570312-18.898438-23.929687-31.789063l-20.050781-107.902344c10.867187-2.703125 21.9375 3.613281 25.140625 14.339844l1.5 5.023437 12.5 41.789063 2.140625 6.890625c4.867187-3.535156 10.816406-5.257812 16.820312-4.863281zm0 0" fill="#f7caa5"/><path d="m137.863281 166.480469c16.023438 0 29 10.808593 29 24.128906s-12.976562 24.128906-29 24.128906c-16.019531 0-29.007812-10.796875-29.007812-24.128906 0-13.328125 12.988281-24.128906 29.007812-24.128906zm0 0" fill="#f8ec7d"/><path d="m79.765625 228.75 6.621094 22.398438-5.460938-5.457032c-4.441406-4.457031-10.363281-7.132812-16.640625-7.523437l-8.050781-26.859375.609375-.179688c10.75.003906 20.15625 7.234375 22.921875 17.621094zm0 0" fill="#edb288"/><path d="m56.234375 211.308594 8.050781 26.859375c-6.003906-.394531-11.953125 1.328125-16.820312 4.863281l-2.140625-6.890625-12.5-41.789063.0625-.023437c8.386719-2.296875 18.589843 1.890625 21.296875 10.160156zm0 0" fill="#edb288"/><g fill="#63316d"><path d="m20.335938 283.984375c.050781.28125.125.558594.214843.828125 4.804688 14.097656 13.988281 26.296875 26.210938 34.808594l43.789062 30.167968c.101563.074219.214844.140626.324219.207032 2.882812 1.722656 5.019531 4.464844 5.980469 7.683594l7.097656 35.371093-6.886719 5.273438c-1.484375 1.136719-2.355468 2.898437-2.355468 4.765625v51.28125c0 2.207031 1.214843 4.238281 3.160156 5.28125 1.945312 1.046875 4.304687.941406 6.148437-.277344l81.082031-53.570312c1.679688-1.109376 2.691407-2.992188 2.691407-5.003907v-59.75c0-2.285156-1.296875-4.371093-3.34375-5.378906-2.046875-1.011719-4.488281-.773437-6.304688.613281l-7.867187 6.019532c-.175782-1.015626-.292969-2.039063-.355469-3.066407l-.679687-11.582031c-.011719-.160156-.027344-.324219-.050782-.484375-3.289062-23.726563-19.625-43.597656-42.265625-51.417969l-3.761719-1.308594c-5.03125-1.757812-9.605468-4.625-13.378906-8.386718l-18.070312-18.074219-6.167969-20.863281c-3.136719-11.578125-12.921875-20.140625-24.816406-21.710938l-.792969-2.648437c-.011719-.046875-.027344-.09375-.042969-.140625-3-9.144532-12.699219-15.144532-22.785156-14.914063l-.027344-.09375c-4.105469-13.816406-18.363281-21.945312-32.34375-18.445312-3.082031.765625-5.03125 3.800781-4.453125 6.921875zm155.449218 113.585937-69.082031 45.640626v-37.160157l69.082031-52.855469zm-101.816406-167.273437c.011719.050781.027344.097656.042969.152344l1.265625 4.285156c-2.042969-.886719-4.175782-1.554687-6.359375-1.996094l-4.105469-13.699219c4.515625 2.273438 7.847656 6.371094 9.15625 11.257813zm-25.5-24 7.925781 26.429687c-1.828125.367188-3.617187.890626-5.355469 1.566407l-10.234374-34.21875c3.5625.871093 6.628906 3.167969 7.65625 6.222656zm-22.894531-15.25 14.019531 46.871094.960938 3.085937c-.15625.148438-.3125.289063-.460938.441406-1.160156 1.160157-1.792969 2.742188-1.753906 4.378907.035156 1.640625.742187 3.191406 1.953125 4.296875l21.9375 20.039062c6.332031 5.78125 12.117187 12.132813 17.292969 18.96875 1.28125 1.734375 3.398437 2.648438 5.542968 2.390625 2.144532-.257812 3.984375-1.648437 4.816406-3.640625.832032-1.992187.53125-4.277344-.789062-5.988281-5.613281-7.421875-11.898438-14.3125-18.769531-20.589844l-16.539063-15.109375c7.644532-3.796875 16.859375-2.292968 22.902344 3.738282l24.609375 24.613281c5.054687 5.039062 11.179687 8.878906 17.917969 11.234375l3.761718 1.308594c18.3125 6.324218 31.550782 22.351562 34.300782 41.527343l.664062 11.328125c.207032 3.5.871094 6.960938 1.976563 10.289063l-45.351563 34.699219-5.992187-29.863282c-.03125-.152344-.066407-.296875-.109375-.453125-1.738282-6.179687-5.757813-11.472656-11.246094-14.808593l-43.628906-30.058594c-9.988282-6.957032-17.527344-16.890625-21.535156-28.382813l-18.742188-100.855469c5.800781.804688 10.597656 4.925782 12.261719 10.539063zm0 0"/><path d="m288.28125 266.058594c-3.773438 3.761718-8.34375 6.625-13.375 8.382812l-3.773438 1.3125c-22.640624 7.820313-38.976562 27.6875-42.269531 51.414063-.023437.164062-.039062.328125-.046875.492187l-.671875 11.578125c-.0625 1.027344-.179687 2.050781-.355469 3.066407l-7.867187-6.019532c-1.8125-1.390625-4.257813-1.628906-6.304687-.617187-2.046876 1.011719-3.34375 3.097656-3.34375 5.378906v59.75c0 2.015625 1.011718 3.894531 2.695312 5.007813l81.066406 53.570312c1.84375 1.214844 4.207032 1.324219 6.152344.277344 1.941406-1.046875 3.15625-3.074219 3.15625-5.28125v-51.28125c0-1.867188-.867188-3.628906-2.351562-4.765625l-6.890626-5.273438 7.105469-35.371093c.960938-3.21875 3.09375-5.960938 5.980469-7.683594.109375-.066406.214844-.132813.320312-.207032l43.800782-30.179687c12.21875-8.507813 21.394531-20.703125 26.1875-34.796875.089844-.269531.164062-.546875.214844-.824219l20.050781-107.898437c.578125-3.121094-1.371094-6.152344-4.453125-6.921875-13.976563-3.488281-28.222656 4.636719-32.335938 18.445312l-.027344.097657c-10.101562-.230469-19.792968 5.773437-22.777343 14.921874-.015625.046876-.03125.09375-.042969.140626l-.792969 2.640624c-11.898437 1.566407-21.6875 10.132813-24.816406 21.714844l-6.160156 20.855469zm3.0625 177.15625-69.070312-45.644532v-44.371093l69.070312 52.851562zm93.394531-262.707032-18.742187 100.863282c-3.996094 11.488281-11.519532 21.417968-21.5 28.371094l-43.644532 30.070312c-5.488281 3.335938-9.507812 8.625-11.246093 14.808594-.039063.148437-.078125.300781-.109375.453125l-6 29.863281-45.351563-34.699219c1.113281-3.328125 1.777344-6.789062 1.984375-10.292969l.652344-11.328124c2.753906-19.171876 15.988281-35.195313 34.296875-41.523438l3.773437-1.308594c6.738282-2.355468 12.863282-6.195312 17.917969-11.234375l24.613281-24.609375c6.035157-6.03125 15.25-7.539062 22.894532-3.742187l-16.535156 15.109375c-6.871094 6.277344-13.15625 13.167968-18.777344 20.585937-1.988282 2.644531-1.460938 6.394531 1.171875 8.390625 2.636719 1.996094 6.390625 1.484375 8.394531-1.144531 5.179688-6.835937 10.96875-13.1875 17.300781-18.972656l21.929688-20.042969c1.207031-1.101562 1.914062-2.65625 1.949219-4.292969.039062-1.636719-.597657-3.21875-1.753907-4.378906-.148437-.148437-.3125-.28125-.460937-.425781l.976562-3.160156 14-46.808594c1.667969-5.617188 6.460938-9.742188 12.265625-10.550782zm-35.140625 25.785157c1.027344-3.054688 4.085938-5.351563 7.652344-6.21875l-10.234375 34.222656c-1.734375-.675781-3.519531-1.199219-5.34375-1.5625zm-25.5 24c1.304688-4.886719 4.636719-8.980469 9.152344-11.253907l-4.105469 13.703126c-2.183593.4375-4.316406 1.105468-6.359375 1.992187l1.269532-4.28125c.011718-.054687.023437-.109375.039062-.164063zm0 0"/><path d="m137.863281 220.738281c19.300781 0 35-13.515625 35-30.128906v-102.109375l109.992188-27.128906v54.515625c-6.664063-4.902344-14.738281-7.515625-23.011719-7.445313-19.300781 0-35 13.511719-35 30.121094 0 16.605469 15.699219 30.128906 35 30.128906s35.011719-13.523437 35.011719-30.132812v-132.558594c0-1.84375-.847657-3.585938-2.300781-4.722656-1.453126-1.136719-3.347657-1.542969-5.136719-1.101563l-121.988281 30.09375c-2.679688.660157-4.566407 3.066407-4.566407 5.824219v131.832031c-6.660156-4.902343-14.726562-7.515625-23-7.445312-19.296875 0-35.007812 13.515625-35.007812 30.128906s15.703125 30.128906 35.007812 30.128906zm121.980469-64.046875c-12.679688 0-23-8.136718-23-18.132812s10.320312-18.117188 23-18.117188c12.683594 0 23.011719 8.128906 23.011719 18.117188 0 9.992187-10.324219 18.132812-23.011719 18.132812zm23.011719-143.03125v35.347656l-109.992188 27.132813v-35.351563zm-144.992188 158.820313c12.683594 0 23 8.132812 23 18.128906s-10.316406 18.128906-23 18.128906c-12.679687 0-23.007812-8.132812-23.007812-18.128906s10.320312-18.128906 23.007812-18.128906zm0 0"/></g></svg>