<svg height="472pt" viewBox="0 -69 472 472" width="472pt" xmlns="http://www.w3.org/2000/svg"><path d="m325.199219 65.46875v73.992188l-98.027344-18.402344v-73.988282zm0 0" fill="#f8ec7d"/><path d="m186.988281 220.21875c22.191407 0 40.183594 14.960938 40.183594 33.421875s-17.992187 33.429687-40.183594 33.429687c-22.1875 0-40.1875-14.96875-40.1875-33.429687s17.988281-33.421875 40.1875-33.421875zm0 0" fill="#f8ec7d"/><g fill="#63316d"><path d="m140.800781 253.640625c0 21.742187 20.71875 39.429687 46.1875 39.429687 25.472657 0 46.183594-17.6875 46.183594-39.429687v-125.347656l90.921875 17.0625c.363281.070312.734375.101562 1.105469.101562 3.316406 0 6-2.6875 6-6v-73.988281c.003906-2.886719-2.054688-5.367188-4.890625-5.898438l-98.03125-18.398437c-1.753906-.332031-3.566406.136719-4.941406 1.277344-1.371094 1.140625-2.167969 2.835937-2.164063 4.621093v180.089844c-8.457031-7.945312-20.648437-12.941406-34.183594-12.941406-25.46875 0-46.1875 17.683594-46.1875 39.421875zm92.371094-199.339844 86.027344 16.148438v61.78125l-86.027344-16.148438zm-12 199.339844c0 15.125-15.335937 27.429687-34.183594 27.429687-18.84375 0-34.1875-12.300781-34.1875-27.429687s15.335938-27.421875 34.1875-27.421875c18.855469 0 34.183594 12.300781 34.183594 27.421875zm0 0"/><path d="m466 128.859375h-110.800781c-3.3125 0-6 2.6875-6 6s2.6875 6 6 6h110.800781c3.3125 0 6-2.6875 6-6s-2.6875-6-6-6zm0 0"/><path d="m6 140.859375h191.171875c3.3125 0 6-2.6875 6-6s-2.6875-6-6-6h-191.171875c-3.3125 0-6 2.6875-6 6s2.6875 6 6 6zm0 0"/><path d="m466 0h-460c-3.3125 0-6 2.6875-6 6s2.6875 6 6 6h460c3.3125 0 6-2.6875 6-6s-2.6875-6-6-6zm0 0"/><path d="m466 193.28125h-208.828125c-3.316406 0-6 2.683594-6 6 0 3.3125 2.683594 6 6 6h208.828125c3.3125 0 6-2.6875 6-6 0-3.316406-2.6875-6-6-6zm0 0"/><path d="m6 205.28125h144.699219c3.316406 0 6-2.6875 6-6 0-3.316406-2.683594-6-6-6h-144.699219c-3.3125 0-6 2.683594-6 6 0 3.3125 2.6875 6 6 6zm0 0"/><path d="m466 322.140625h-460c-3.3125 0-6 2.6875-6 6s2.6875 6 6 6h460c3.3125 0 6-2.6875 6-6s-2.6875-6-6-6zm0 0"/><path d="m466 257.710938h-209.71875c-3.316406 0-6 2.683593-6 6 0 3.3125 2.683594 6 6 6h209.71875c3.3125 0 6-2.6875 6-6 0-3.316407-2.6875-6-6-6zm0 0"/><path d="m6 269.710938h111.691406c3.3125 0 6-2.6875 6-6 0-3.316407-2.6875-6-6-6h-111.691406c-3.3125 0-6 2.683593-6 6 0 3.3125 2.6875 6 6 6zm0 0"/><path d="m466 64.429688h-110.800781c-3.3125 0-6 2.6875-6 6s2.6875 6 6 6h110.800781c3.3125 0 6-2.6875 6-6s-2.6875-6-6-6zm0 0"/><path d="m6 76.429688h191.171875c3.3125 0 6-2.6875 6-6s-2.6875-6-6-6h-191.171875c-3.3125 0-6 2.6875-6 6s2.6875 6 6 6zm0 0"/></g></svg>