<svg height="472pt" viewBox="0 -69 472 472" width="472pt" xmlns="http://www.w3.org/2000/svg"><path d="m356.730469 27.070312v64l-163.640625 40.359376v-64zm0 0" fill="#f8ec7d"/><path d="m317.820312 172.519531c21.488282 0 38.910157 14.492188 38.910157 32.371094s-17.421875 32.359375-38.910157 32.359375c-21.492187 0-38.910156-14.488281-38.910156-32.359375s17.417969-32.371094 38.910156-32.371094zm0 0" fill="#f8ec7d"/><path d="m154.179688 242.339844c21.492187 0 38.910156 14.488281 38.910156 32.371094 0 17.878906-17.417969 32.359374-38.910156 32.359374-21.488282 0-38.910157-14.492187-38.910157-32.359374 0-17.871094 17.421875-32.371094 38.910157-32.371094zm0 0" fill="#f8ec7d"/><g fill="#63316d"><path d="m466 128.859375h-79.269531c-3.3125 0-6 2.6875-6 6s2.6875 6 6 6h79.269531c3.3125 0 6-2.6875 6-6s-2.6875-6-6-6zm0 0"/><path d="m6 140.859375h157.089844c3.3125 0 6-2.6875 6-6s-2.6875-6-6-6h-157.089844c-3.3125 0-6 2.6875-6 6s2.6875 6 6 6zm0 0"/><path d="m466 0h-460c-3.3125 0-6 2.6875-6 6s2.6875 6 6 6h460c3.3125 0 6-2.6875 6-6s-2.6875-6-6-6zm0 0"/><path d="m466 193.28125h-79.269531c-3.3125 0-6 2.683594-6 6 0 3.3125 2.6875 6 6 6h79.269531c3.3125 0 6-2.6875 6-6 0-3.316406-2.6875-6-6-6zm0 0"/><path d="m223.089844 193.28125c-3.3125 0-6 2.683594-6 6 0 3.3125 2.6875 6 6 6h26.101562c3.3125 0 6-2.6875 6-6 0-3.316406-2.6875-6-6-6zm0 0"/><path d="m6 205.28125h157.089844c3.3125 0 6-2.6875 6-6 0-3.316406-2.6875-6-6-6h-157.089844c-3.3125 0-6 2.683594-6 6 0 3.3125 2.6875 6 6 6zm0 0"/><path d="m466 322.140625h-460c-3.3125 0-6 2.6875-6 6s2.6875 6 6 6h460c3.3125 0 6-2.6875 6-6s-2.6875-6-6-6zm0 0"/><path d="m466 257.710938h-242.910156c-3.3125 0-6 2.683593-6 6 0 3.3125 2.6875 6 6 6h242.910156c3.3125 0 6-2.6875 6-6 0-3.316407-2.6875-6-6-6zm0 0"/><path d="m6 269.710938h80.339844c3.3125 0 6-2.6875 6-6 0-3.316407-2.6875-6-6-6h-80.339844c-3.3125 0-6 2.683593-6 6 0 3.3125 2.6875 6 6 6zm0 0"/><path d="m466 64.429688h-79.269531c-3.3125 0-6 2.6875-6 6s2.6875 6 6 6h79.269531c3.3125 0 6-2.6875 6-6s-2.6875-6-6-6zm0 0"/><path d="m6 76.429688h157.089844c3.3125 0 6-2.6875 6-6s-2.6875-6-6-6h-157.089844c-3.3125 0-6 2.6875-6 6s2.6875 6 6 6zm0 0"/><path d="m317.820312 166.519531c-24.761718 0-44.910156 17.214844-44.910156 38.371094s20.148438 38.359375 44.910156 38.359375c24.761719 0 44.910157-17.207031 44.910157-38.359375v-177.820313c0-1.84375-.847657-3.585937-2.300781-4.722656-1.453126-1.136718-3.347657-1.542968-5.136719-1.101562l-163.640625 40.359375c-2.679688.660156-4.5625 3.066406-4.5625 5.824219v181.207031c-8.207032-7.554688-19.921875-12.296875-32.910156-12.296875-24.761719 0-44.910157 17.210937-44.910157 38.367187 0 21.160157 20.148438 38.363281 44.910157 38.363281 24.761718 0 44.910156-17.207031 44.910156-38.359374v-138.582032l151.640625-37.398437v80.089843c-8.207031-7.558593-19.921875-12.300781-32.910157-12.300781zm0 64.730469c-18.148437 0-32.910156-11.824219-32.910156-26.359375s14.761719-26.371094 32.910156-26.371094c18.148438 0 32.910157 11.828125 32.910157 26.371094 0 14.539063-14.765625 26.359375-32.910157 26.359375zm-163.640624 69.820312c-18.144532 0-32.910157-11.824218-32.910157-26.359374 0-14.535157 14.765625-26.371094 32.910157-26.371094 18.144531 0 32.910156 11.828125 32.910156 26.371094 0 14.539062-14.761719 26.359374-32.910156 26.359374zm44.910156-177.300781v-51.640625l151.640625-37.398437v51.640625zm0 0"/></g></svg>