<svg height="452pt" viewBox="0 -11 452 452" width="452pt" xmlns="http://www.w3.org/2000/svg"><path d="m351.738281 121.410156c24.292969-.003906 43.984375-19.699218 43.980469-43.988281 0-24.292969-19.695312-43.984375-43.988281-43.980469-24.292969 0-43.984375 19.695313-43.980469 43.988282.003906 24.292968 19.699219 43.980468 43.988281 43.980468zm-37.167969 81.261719c-31.835937-55.449219-99.851562-78.699219-158.964843-54.339844-59.117188 24.355469-91.011719 88.773438-74.542969 150.554688s76.191406 101.773437 139.589844 93.476562c63.394531-8.296875 110.8125-62.316406 110.828125-126.253906.007812-22.261719-5.820313-44.136719-16.910157-63.4375zm109.609376-176.671875v378.179688c.003906 11.046874-8.953126 20.003906-20 20h-378.179688c-11.046875.003906-20.003906-8.953126-20-20v-378.179688c-.003906-11.046875 8.953125-20.003906 20-20h378.179688c11.046874-.003906 20.003906 8.953125 20 20zm0 0" fill="#6fe3ff"/><path d="m351.738281 121.410156c-24.289062-.003906-43.980469-19.699218-43.976562-43.988281 0-24.292969 19.695312-43.984375 43.988281-43.980469 24.292969 0 43.984375 19.695313 43.980469 43.988282-.003907 24.292968-19.699219 43.980468-43.992188 43.980468zm0 0" fill="#e48e66"/><path d="m314.570312 202.671875c28.707032 49.949219 20.300782 112.949219-20.496093 153.625-40.796875 40.679687-103.820313 48.898437-153.6875 20.046875-49.863281-28.851562-74.148438-87.589844-59.214844-143.230469 14.9375-55.644531 65.367187-94.328125 122.976563-94.332031 45.628906-.140625 87.804687 24.261719 110.421874 63.890625zm-58.011718-5.800781c-5.152344 1.144531-8.816406 5.710937-8.820313 10.988281v6.152344c.003907 6.210937 5.039063 11.246093 11.25 11.25h26.953125v-28.652344h-26.953125c-.816406 0-1.628906.085937-2.429687.261719zm-3.429688 72.5c0-27.953125-22.65625-50.609375-50.609375-50.609375-27.949219 0-50.609375 22.65625-50.609375 50.609375 0 27.949218 22.660156 50.609375 50.609375 50.609375 27.953125.003906 50.617188-22.65625 50.609375-50.609375zm0 0" fill="#f8ec7d"/><path d="m285.941406 210.789062v14.472657h-26.953125c-6.210937-.003907-11.246093-5.039063-11.25-11.25v-6.152344c.003907-5.277344 3.667969-9.84375 8.820313-10.988281.800781-.175782 1.613281-.261719 2.429687-.261719h26.953125zm0 0" fill="#e48e66"/><path d="m202.519531 218.769531c27.949219.003907 50.601563 22.660157 50.601563 50.609375-.003906 27.949219-22.664063 50.605469-50.609375 50.601563-27.949219-.003907-50.605469-22.660157-50.601563-50.609375 0-27.949219 22.660156-50.605469 50.609375-50.601563zm14.621094 50.601563c0-8.074219-6.546875-14.621094-14.621094-14.621094s-14.621093 6.546875-14.621093 14.621094c0 8.074218 6.546874 14.617187 14.621093 14.617187 8.074219.003907 14.621094-6.542969 14.621094-14.617187zm0 0" fill="#e48e66"/><path d="m217.140625 269.371094c0 8.074218-6.546875 14.617187-14.621094 14.617187s-14.621093-6.542969-14.621093-14.617187c0-8.074219 6.546874-14.621094 14.621093-14.621094s14.621094 6.546875 14.621094 14.621094zm0 0" fill="#6fe3ff"/><g fill="#63316d"><path d="m404.179688 0h-378.179688c-14.351562.015625-25.984375 11.648438-26 26v378.179688c.015625 14.351562 11.648438 25.984374 26 26h378.179688c14.351562-.015626 25.984374-11.648438 26-26v-378.179688c-.015626-14.351562-11.648438-25.984375-26-26zm14 404.179688c-.007813 7.730468-6.269532 13.992187-14 14h-378.179688c-7.730469-.007813-13.992188-6.269532-14-14v-378.179688c.007812-7.730469 6.269531-13.992188 14-14h378.179688c7.730468.007812 13.992187 6.273438 14 14zm0 0"/><path d="m446 27.878906c-3.3125 0-6 2.6875-6 6v362.421875c0 3.3125 2.6875 6 6 6s6-2.6875 6-6v-362.421875c0-3.3125-2.6875-6-6-6zm0 0"/><path d="m351.738281 27.441406c-26.445312-.015625-48.324219 20.574219-49.914062 46.972656-1.59375 26.398438 17.660156 49.464844 43.914062 52.625v13.652344c.015625 21.707032-10.949219 41.949219-29.136719 53.796875-24.535156-38.371093-66.90625-61.621093-112.453124-61.707031-73.515626 0-133.328126 59.8125-133.328126 133.328125 0 73.519531 59.8125 133.332031 133.328126 133.332031 73.519531 0 133.332031-59.8125 133.332031-133.332031 0-21.296875-5.101563-42.289063-14.878907-61.210937 21.90625-14 35.15625-38.210938 35.136719-64.207032v-13.652344c26.257813-3.160156 45.507813-26.230468 43.917969-52.628906-1.589844-26.398437-23.46875-46.988281-49.917969-46.972656zm-147.589843 360c-58.09375.003906-108.039063-41.175781-119.113282-98.207031-11.070312-57.03125 19.835938-113.90625 73.710938-135.640625 53.878906-21.738281 115.601562-2.234375 147.203125 46.515625-4.5 1.859375-9.203125 3.191406-14.011719 3.96875v-7.46875c0-3.3125-2.6875-6-6-6h-26.949219c-.273437 0-.546875.03125-.820312.042969-15.804688-11.140625-34.679688-17.101563-54.015625-17.0625-3.3125 0-6 2.6875-6 6s2.6875 6 6 6c14.621094-.027344 28.980468 3.875 41.574218 11.300781-2.5625 3.082031-3.96875 6.960937-3.980468 10.96875v6.148437c.011718 9.523438 7.726562 17.238282 17.25 17.25h18.761718c5.621094 11.339844 8.546876 23.828126 8.558594 36.484376 0 3.3125 2.6875 6 6 6s6-2.6875 6-6c-.015625-13.171876-2.78125-26.195313-8.128906-38.230469 1.128906-1.125 1.761719-2.652344 1.757812-4.246094v-9.0625c6.925782-.9375 13.683594-2.839844 20.078126-5.648437 19.367187 37.617187 17.742187 82.601562-4.285157 118.722656-22.027343 36.121094-61.28125 58.160156-103.589843 58.164062zm49.589843-179.582031c.007813-2.453125 1.707031-4.578125 4.101563-5.125.378906-.082031.765625-.125 1.152344-.125h20.953124v16.652344h-20.957031c-2.894531-.003907-5.246093-2.355469-5.25-5.25zm104-92.925781v-37.5c0-3.316406-2.683593-6-6-6-3.3125 0-6 2.683594-6 6v37.5c-19.5625-3.132813-33.4375-20.773438-31.867187-40.523438 1.566406-19.753906 18.054687-34.980468 37.867187-34.980468 19.816407 0 36.300781 15.226562 37.871094 34.980468 1.570313 19.75-12.304687 37.390625-31.871094 40.523438zm0 0"/><path d="m202.519531 212.769531c-31.261719.003907-56.601562 25.347657-56.597656 56.609375 0 31.261719 25.347656 56.605469 56.609375 56.601563 31.261719-.003907 56.601562-25.347657 56.597656-56.609375-.035156-31.25-25.363281-56.570313-56.609375-56.601563zm0 101.210938c-24.632812-.003907-44.601562-19.972657-44.597656-44.605469 0-24.636719 19.96875-44.605469 44.601563-44.605469 24.632812 0 44.605468 19.96875 44.605468 44.601563-.027344 24.625-19.984375 44.582031-44.609375 44.609375zm0 0"/><path d="m204.152344 349.890625c-45.335938-.085937-82.070313-36.816406-82.152344-82.15625 0-3.3125-2.6875-6-6-6s-6 2.6875-6 6c.09375 51.960937 42.1875 94.058594 94.148438 94.15625 3.3125 0 6-2.6875 6-6s-2.6875-6-6-6zm0 0"/><path d="m202.519531 248.75c-11.386719 0-20.621093 9.230469-20.621093 20.621094 0 11.386718 9.234374 20.617187 20.621093 20.617187s20.621094-9.230469 20.621094-20.617187c-.011719-11.382813-9.238281-20.609375-20.621094-20.621094zm0 29.238281c-4.761719 0-8.621093-3.859375-8.621093-8.617187 0-4.761719 3.859374-8.621094 8.621093-8.621094s8.621094 3.859375 8.621094 8.621094c-.007813 4.757812-3.863281 8.613281-8.621094 8.617187zm0 0"/></g></svg>