<svg height="437pt" viewBox="-13 0 437 437.60548" width="437pt" xmlns="http://www.w3.org/2000/svg"><path d="m404.601562 36.003906c0 16.570313-13.429687 30-30 30-16.566406 0-30-13.429687-30-30 0-16.566406 13.433594-30 30-30 16.570313 0 30 13.433594 30 30zm0 0" fill="#f8ec7d"/><path d="m264.601562 210.964844c-11.042968 0-20 8.953125-20 20s8.957032 20 20 20c11.046876 0 20-8.953125 20-20s-8.953124-20-20-20zm25.429688-61.871094c55.597656 56.183594 63.824219 143.792969 19.652344 209.339844-44.167969 65.546875-128.457032 90.8125-201.402344 60.375s-114.269531-108.125-98.75-185.625c15.523438-77.5 83.582031-133.28125 162.621094-133.277344 44.296875-.066406 86.769531 17.65625 117.878906 49.1875zm-54.089844 120.910156c0-36.402344-29.515625-65.910156-65.917968-65.910156-36.40625.003906-65.914063 29.519531-65.910157 65.921875.003907 36.402344 29.515625 65.914063 65.917969 65.910156 36.40625 0 65.917969-29.515625 65.910156-65.921875zm0 0" fill="#6fe3ff"/><path d="m284.601562 230.964844c0 11.046875-8.953124 20-20 20-11.042968 0-20-8.953125-20-20s8.957032-20 20-20c11.046876 0 20 8.953125 20 20zm0 0" fill="#e48e66"/><path d="m170.03125 204.09375c36.40625.003906 65.914062 29.519531 65.910156 65.921875 0 36.402344-29.515625 65.914063-65.917968 65.910156-36.40625-.003906-65.914063-29.515625-65.910157-65.921875 0-36.402344 29.515625-65.914062 65.917969-65.910156zm19.042969 65.910156c-.003907-10.515625-8.535157-19.042968-19.050781-19.039062-10.519532.003906-19.042969 8.53125-19.039063 19.050781 0 10.519531 8.53125 19.042969 19.046875 19.039063 5.054688.003906 9.898438-2.003907 13.46875-5.578126 3.574219-3.574218 5.578125-8.417968 5.574219-13.472656zm0 0" fill="#f8ec7d"/><path d="m170.03125 250.964844c10.519531.003906 19.042969 8.53125 19.042969 19.050781-.003907 10.519531-8.535157 19.042969-19.050781 19.039063-10.519532-.003907-19.042969-8.53125-19.039063-19.050782-.003906-5.050781 2.003906-9.894531 5.578125-13.46875 3.570312-3.570312 8.417969-5.574218 13.46875-5.570312zm0 0" fill="#e48e66"/><g fill="#63316d"><path d="m172.152344 437.605469c94.765625 0 171.859375-77.09375 171.859375-171.851563.109375-41.5-14.914063-81.621094-42.257813-112.84375l74-14.535156c2.8125-.554688 4.84375-3.023438 4.84375-5.890625v-60.988281c18.453125-3.117188 31.4375-19.855469 29.871094-38.507813-1.5625-18.648437-17.15625-32.988281-35.871094-32.988281-18.71875 0-34.3125 14.339844-35.875 32.988281-1.566406 18.652344 11.417969 35.390625 29.875 38.507813v56.054687l-76.605468 15.054688c-32.003907-31.339844-75.046876-48.832031-119.839844-48.699219-94.757813 0-171.847656 77.089844-171.847656 171.847656 0 94.757813 77.089843 171.851563 171.847656 171.851563zm178.449218-401.601563c0-13.253906 10.746094-24 24-24 13.257813 0 24 10.746094 24 24 0 13.257813-10.742187 24-24 24-13.246093-.015625-23.984374-10.75-24-24zm-178.449218 69.902344c38.746094-.121094 76.195312 13.949219 105.273437 39.554688l-13.980469 2.746093c-2.8125.550781-4.84375 3.019531-4.84375 5.886719v51.574219c-12.832031 3.046875-21.355468 15.21875-19.824218 28.320312 1.535156 13.101563 12.632812 22.980469 25.824218 22.980469 13.191407 0 24.292969-9.878906 25.824219-22.980469 1.535157-13.101562-6.988281-25.273437-19.824219-28.320312v-46.636719l17.386719-3.414062c28.355469 29.644531 44.128907 69.117187 44.023438 110.136718 0 88.140625-71.710938 159.851563-159.859375 159.851563-88.148438 0-159.847656-71.710938-159.847656-159.851563s71.707031-159.847656 159.847656-159.847656zm92.449218 111.058594c7.734376 0 14 6.269531 14 14 0 7.734375-6.265624 14-14 14-7.730468 0-14-6.265625-14-14 .007813-7.726563 6.273438-13.992188 14-14zm0 0"/><path d="m170.03125 341.925781c39.71875-.003906 71.914062-32.199219 71.910156-71.917969 0-39.714843-32.195312-71.910156-71.910156-71.914062-39.71875 0-71.914062 32.195312-71.917969 71.910156.042969 39.703125 32.21875 71.878906 71.917969 71.921875zm0-131.832031c33.089844.003906 59.914062 26.832031 59.910156 59.921875 0 33.089844-26.828125 59.914063-59.917968 59.910156-33.089844-.003906-59.914063-26.832031-59.910157-59.921875.035157-33.074218 26.84375-59.875 59.917969-59.910156zm0 0"/><path d="m172.152344 388.707031c3.3125 0 6-2.6875 6-6 0-3.316406-2.6875-6-6-6-60.050782-.125-108.699219-48.777343-108.820313-108.824219 0-3.316406-2.6875-6-6-6s-6 2.683594-6 6c.132813 66.671876 54.148438 120.691407 120.820313 120.824219zm0 0"/><path d="m172.152344 159.054688c21.53125-.015626 42.578125 6.371093 60.46875 18.355468 1.78125 1.230469 4.085937 1.40625 6.03125.460938 1.945312-.945313 3.234375-2.867188 3.367187-5.027344.132813-2.160156-.910156-4.226562-2.722656-5.402344-19.859375-13.308594-43.230469-20.40625-67.132813-20.386718h-.011718c-3.3125 0-6 2.6875-6 6 0 3.316406 2.6875 6 6 6zm0 0"/><path d="m170.03125 295.054688c13.832031-.003907 25.042969-11.214844 25.042969-25.046876-.003907-13.828124-11.214844-25.042968-25.042969-25.042968-13.832031 0-25.046875 11.210937-25.046875 25.039062.011719 13.832032 11.21875 25.039063 25.046875 25.050782zm0-38.089844c7.207031.003906 13.042969 5.847656 13.042969 13.050781-.003907 7.203125-5.847657 13.042969-13.050781 13.039063-7.207032-.003907-13.042969-5.84375-13.039063-13.050782.007813-7.199218 5.847656-13.035156 13.046875-13.039062zm0 0"/></g></svg>