<svg height="412pt" viewBox="-42 0 412 412" width="412pt" xmlns="http://www.w3.org/2000/svg"><path d="m321.78125 36v340c0 16.570312-13.433594 30-30 30h-255.78125c-16.570312 0-30-13.429688-30-30v-340c0-16.570312 13.429688-30 30-30h255.78125c16.566406 0 30 13.429688 30 30zm-52.632812 186.128906v-138.949218c0-11.046876-8.953126-20-20-20h-170.519532c-11.042968 0-20 8.953124-20 20v138.949218c0 11.046875 8.957032 20 20 20h170.519532c11.046874 0 20-8.953125 20-20zm-63.148438 107.730469c0-23.257813-18.851562-42.109375-42.109375-42.109375s-42.109375 18.851562-42.109375 42.109375 18.851562 42.109375 42.109375 42.109375 42.109375-18.851562 42.109375-42.109375zm0 0" fill="#e48e66"/><path d="m269.148438 83.179688v138.949218c0 11.046875-8.953126 20-20 20h-170.519532c-11.042968 0-20-8.953125-20-20v-138.949218c0-11.046876 8.957032-20 20-20h170.519532c11.046874 0 20 8.953124 20 20zm-40.347657 99.480468v-15h-20v15zm-36.609375 0v-25h-20v25zm-36.601562 0v-40h-20v40zm-36.609375 0v-60h-20v60zm0 0" fill="#f8ec7d"/><path d="m208.800781 167.660156h20v15h-20zm0 0" fill="#6fe3ff"/><path d="m163.890625 287.761719c23.253906 0 42.101563 18.855469 42.097656 42.109375 0 23.253906-18.855469 42.101562-42.109375 42.097656-23.253906 0-42.101562-18.855469-42.097656-42.109375s18.855469-42.097656 42.109375-42.097656zm15.789063 42.097656c0-8.71875-7.070313-15.789063-15.789063-15.789063-8.722656 0-15.789063 7.070313-15.789063 15.789063 0 8.722656 7.066407 15.789063 15.789063 15.789063 8.71875 0 15.789063-7.066407 15.789063-15.789063zm0 0" fill="#6fe3ff"/><path d="m172.191406 157.660156h20v25h-20zm0 0" fill="#6fe3ff"/><path d="m179.679688 329.859375c0 8.722656-7.070313 15.789063-15.789063 15.789063-8.722656 0-15.789063-7.066407-15.789063-15.789063 0-8.71875 7.066407-15.789063 15.789063-15.789063 8.71875 0 15.789063 7.070313 15.789063 15.789063zm0 0" fill="#f8ec7d"/><path d="m135.589844 142.660156h20v40h-20zm0 0" fill="#6fe3ff"/><path d="m98.980469 122.660156h20v60h-20zm0 0" fill="#6fe3ff"/><g fill="#63316d"><path d="m36 412h255.78125c19.871094-.023438 35.976562-16.128906 36-36v-340c-.023438-19.871094-16.128906-35.9765625-36-36h-255.78125c-19.871094.0234375-35.9765625 16.128906-36 36v340c.0234375 19.871094 16.128906 35.976562 36 36zm-24-376c.015625-13.25 10.75-23.984375 24-24h255.78125c13.246094.015625 23.984375 10.75 24 24v340c-.015625 13.25-10.753906 23.984375-24 24h-255.78125c-13.25-.015625-23.984375-10.75-24-24zm0 0"/><path d="m78.628906 248.128906h170.519532c14.355468-.015625 25.984374-11.644531 26-26v-138.949218c-.015626-14.351563-11.644532-25.984376-26-26h-170.519532c-14.351562.015624-25.980468 11.648437-26 26v138.949218c.019532 14.355469 11.648438 25.984375 26 26zm-14-164.949218c.007813-7.726563 6.273438-13.992188 14-14h170.519532c7.730468.007812 13.992187 6.273437 14 14v138.949218c-.007813 7.730469-6.269532 13.992188-14 14h-170.519532c-7.726562-.007812-13.992187-6.269531-14-14zm0 0"/><path d="m163.890625 281.761719c-26.566406 0-48.101563 21.539062-48.101563 48.109375.003907 26.566406 21.542969 48.101562 48.109376 48.097656 26.570312 0 48.105468-21.542969 48.101562-48.109375-.03125-26.554687-21.554688-48.074219-48.109375-48.097656zm0 84.207031c-19.941406 0-36.101563-16.167969-36.101563-36.105469s16.164063-36.101562 36.105469-36.101562c19.9375-.003907 36.101563 16.160156 36.105469 36.097656-.023438 19.933594-16.175781 36.089844-36.109375 36.109375zm0 0"/><path d="m163.890625 308.070312c-12.035156 0-21.789063 9.753907-21.789063 21.789063s9.753907 21.789063 21.789063 21.789063 21.789063-9.753907 21.789063-21.789063c-.011719-12.027344-9.761719-21.777344-21.789063-21.789063zm0 31.578126c-5.40625 0-9.789063-4.382813-9.789063-9.789063s4.382813-9.789063 9.789063-9.789063 9.789063 4.382813 9.789063 9.789063c-.003907 5.40625-4.386719 9.785156-9.789063 9.789063zm0 0"/><path d="m98.980469 188.660156h20c3.3125 0 6-2.6875 6-6v-60c0-3.3125-2.6875-6-6-6h-20c-3.3125 0-6 2.6875-6 6v60c0 3.3125 2.6875 6 6 6zm6-60h8v48h-8zm0 0"/><path d="m135.589844 188.660156h20c3.3125 0 6-2.6875 6-6v-40c0-3.3125-2.6875-6-6-6h-20c-3.3125 0-6 2.6875-6 6v40c0 3.3125 2.6875 6 6 6zm6-40h8v28h-8zm0 0"/><path d="m172.191406 188.660156h20c3.3125 0 6-2.6875 6-6v-25c0-3.3125-2.6875-6-6-6h-20c-3.316406 0-6 2.6875-6 6v25c0 3.3125 2.683594 6 6 6zm6-25h8v13h-8zm0 0"/><path d="m208.800781 188.660156h20c3.3125 0 6-2.6875 6-6v-15c0-3.3125-2.6875-6-6-6h-20c-3.316406 0-6 2.6875-6 6v15c0 3.3125 2.683594 6 6 6zm6-15h8v3h-8zm0 0"/></g></svg>