<svg height="495pt" viewBox="-39 0 495 495.25" width="495pt" xmlns="http://www.w3.org/2000/svg"><path d="m305.484375 275.96875c57.328125.039062 104.355469 45.410156 106.445313 102.699219 2.085937 57.289062-41.511719 105.96875-98.683594 110.179687-57.171875 4.210938-107.433594-37.554687-113.761719-94.53125-6.324219-56.976562 33.546875-108.75 90.25-117.1875 5.214844-.773437 10.480469-1.160156 15.75-1.160156zm60 137.78125c0-9.660156-7.828125-17.488281-17.488281-17.488281s-17.492188 7.828125-17.492188 17.488281 7.832032 17.488281 17.492188 17.488281c9.65625-.003906 17.484375-7.832031 17.488281-17.488281zm-85.019531 20.699219c0-9.660157-7.832032-17.488281-17.488282-17.488281-9.660156 0-17.492187 7.828124-17.492187 17.488281 0 9.660156 7.832031 17.492187 17.492187 17.492187 9.65625 0 17.488282-7.832031 17.488282-17.492187zm0 0" fill="#6fe3ff"/><path d="m365.484375 413.75c0 9.660156-7.828125 17.488281-17.488281 17.488281s-17.492188-7.828125-17.492188-17.488281 7.832032-17.488281 17.492188-17.488281 17.488281 7.828125 17.488281 17.488281zm0 0" fill="#e48e66"/><path d="m289.734375 277.121094v.007812c-40.46875 6.039063-73.914063 34.703125-86.078125 73.773438-12.164062 39.070312-.902344 81.652344 28.988281 109.597656h-226.519531v-131.300781c.007812-49.308594 39.316406-89.628907 88.609375-90.890625l.109375.152344c30.292969 40.988281 91.011719 42.410156 123.3125 2.988281.789062-1.078125 1.675781-2.082031 2.648438-3 27.675781 1.695312 53.058593 15.9375 68.929687 38.671875zm0 0" fill="#f8ec7d"/><path d="m280.464844 434.449219c0 9.660156-7.832032 17.492187-17.488282 17.492187-9.660156 0-17.492187-7.832031-17.492187-17.492187 0-9.660157 7.832031-17.488281 17.492187-17.488281 9.65625 0 17.488282 7.828124 17.488282 17.488281zm0 0" fill="#e48e66"/><path d="m236.925781 86.800781v40.398438c0 44.625-36.175781 80.800781-80.800781 80.800781s-80.800781-36.175781-80.800781-80.800781v-40.398438c0-44.625 36.175781-80.800781 80.800781-80.800781s80.800781 36.175781 80.800781 80.800781zm0 0" fill="#f8ec7d"/><g fill="#63316d"><path d="m69.324219 86.800781v40.398438c0 47.9375 38.863281 86.800781 86.800781 86.800781s86.800781-38.863281 86.800781-86.800781v-40.398438c0-47.9375-38.863281-86.800781-86.800781-86.800781s-86.800781 38.863281-86.800781 86.800781zm161.601562 0v40.398438c0 41.3125-33.488281 74.800781-74.800781 74.800781s-74.800781-33.488281-74.800781-74.800781v-40.398438c0-41.3125 33.488281-74.800781 74.800781-74.800781s74.800781 33.488281 74.800781 74.800781zm0 0"/><path d="m305.484375 269.96875c-4.34375.003906-8.683594.253906-13 .753906-17.003906-22.605468-43.082031-36.597656-71.320313-38.261718-.117187-.007813-.238281-.011719-.359374-.011719-3.023438 0-4.359376 1.628906-7.292969 5.199219-14.082031 17.230468-35.328125 26.996093-57.570313 26.464843-22.246094-.535156-43-11.300781-56.246094-29.183593l-.105468-.152344c-1.160156-1.59375-3.03125-2.515625-5-2.464844-52.550782 1.339844-94.457032 44.320312-94.464844 96.886719v131.300781c0 3.3125 2.6875 6 6 6h224.191406c37.402344 33.511719 92.46875 38.21875 135.011719 11.539062 42.546875-26.679687 62.289063-78.300781 48.410156-126.5625-13.882812-48.261718-58.035156-81.507812-108.253906-81.507812zm-293.359375 59.230469c.007812-44.886719 34.941406-82.015625 79.742188-84.761719 15.847656 19.882812 39.839843 31.535156 65.265624 31.691406 25.425782.160156 49.5625-11.1875 65.65625-30.871094l.5-.597656c21.527344 1.992188 41.464844 12.179688 55.695313 28.457032-37.777344 9.136718-68.171875 37.105468-80.414063 73.992187-12.242187 36.886719-4.601562 77.480469 20.210938 107.390625h-206.65625zm293.359375 154.050781c-25.53125.035156-50.117187-9.667969-68.742187-27.132812-35.300782-33.007813-42.152344-86.453126-16.320313-127.300782s77.054687-57.566406 122.007813-39.824218c44.957031 17.746093 70.953124 64.941406 61.921874 112.421874-9.03125 47.476563-50.535156 81.835938-98.867187 81.835938zm0 0"/><path d="m363.785156 312.117188c-4.855468-4.015626-11.25-5.652344-17.433594-4.460938l-54.644531 9.398438c-.042969.007812-.089843.015624-.132812.023437-9.929688 1.953125-17.09375 10.652344-17.109375 20.773437v76.121094c-9.246094-5.183594-20.820313-3.527344-28.246094 4.039063-7.421875 7.570312-8.855469 19.171875-3.496094 28.320312 5.359375 9.144531 16.183594 13.566407 26.414063 10.785157 10.230469-2.777344 17.332031-12.066407 17.328125-22.667969 0-.242188-.011719-.484375-.019532-.722657.007813-.121093.019532-.242187.019532-.367187v-95.507813c.007812-4.359374 3.078125-8.113281 7.351562-8.980468l54.625-9.402344c.042969-.003906.085938-.015625.128906-.023438 2.683594-.519531 5.464844.183594 7.574219 1.921876 2.113281 1.742187 3.339844 4.332031 3.339844 7.070312v64.832031c-9.246094-5.183593-20.820313-3.527343-28.246094 4.039063-7.421875 7.570312-8.855469 19.171875-3.496093 28.320312 5.363281 9.144532 16.183593 13.566406 26.414062 10.785156 10.230469-2.777343 17.332031-12.066406 17.328125-22.667968 0-.242188-.007813-.484375-.015625-.722656.007812-.125.015625-.242188.015625-.367188v-84.214844c.011719-6.320312-2.816406-12.3125-7.699219-16.324218zm-100.808594 133.824218c-6.347656 0-11.492187-5.144531-11.492187-11.492187 0-6.34375 5.144531-11.488281 11.492187-11.488281 6.34375 0 11.488282 5.144531 11.488282 11.488281-.003906 6.34375-5.144532 11.484375-11.488282 11.492187zm85.019532-20.703125c-6.347656 0-11.492188-5.140625-11.492188-11.488281s5.144532-11.488281 11.492188-11.488281c6.34375 0 11.488281 5.140625 11.488281 11.488281-.003906 6.34375-5.144531 11.484375-11.488281 11.488281zm0 0"/></g></svg>