<svg height="487pt" viewBox="0 -2 487.997 487" width="487pt" xmlns="http://www.w3.org/2000/svg"><path d="m466.140625 124.367188c.070313 5.9375-5.671875 10.828124-12.8125 10.910156-7.136719.078125-12.988281-4.671875-13.058594-10.609375-.070312-5.941407 5.660157-10.820313 12.808594-10.910157 7.152344-.089843 12.992187 4.667969 13.0625 10.609376zm0 0" fill="#6fe3ff"/><path d="m465.449219 65.257812.25 21.269532h-.007813l-54.242187 14.058594-.25-21.28125zm0 0" fill="#6fe3ff"/><path d="m412.011719 148.214844c.066406 5.941406-5.671875 10.820312-12.8125 10.910156s-12.988281-4.667969-13.058594-10.609375c-.070313-5.9375 5.660156-10.828125 12.808594-10.910156 7.152343-.078125 12.992187 4.660156 13.0625 10.609375zm0 0" fill="#6fe3ff"/><path d="m370.199219 149.777344v307.398437c0 11.046875-8.953125 20-20 20h-212.398438c-11.046875 0-20-8.953125-20-20v-307.398437c.003907-11.046875 8.957031-19.996094 20-20h212.398438c11.042969.003906 19.996093 8.953125 20 20zm-50.960938 153.699218c-.003906-41.554687-33.691406-75.234374-75.246093-75.230468-41.550782.003906-75.234376 33.691406-75.230469 75.242187 0 41.554688 33.6875 75.238281 75.238281 75.238281 41.558594 0 75.246094-33.691406 75.238281-75.25zm0 0" fill="#f8ec7d"/><path d="m333.851562 65.605469c.070313 5.941406-5.671874 10.832031-12.8125 10.910156-7.140624.082031-12.988281-4.660156-13.058593-10.597656-.070313-5.941407 5.667969-10.832031 12.808593-10.910157 7.140626-.082031 12.992188 4.660157 13.0625 10.597657zm0 0" fill="#6fe3ff"/><path d="m333.160156 6.496094.25 21.269531-54.238281 14.0625-.25-21.28125zm0 0" fill="#6fe3ff"/><path d="m244 228.238281c41.558594-.003906 75.25 33.683594 75.25 75.242188 0 41.558593-33.6875 75.246093-75.246094 75.246093s-75.246094-33.691406-75.242187-75.25c-.003907-41.554687 33.683593-75.242187 75.238281-75.238281zm33.21875 75.238281c-.003906-18.347656-14.878906-33.214843-33.226562-33.210937-18.34375.003906-33.214844 14.878906-33.210938 33.222656 0 18.347657 14.875 33.21875 33.21875 33.21875 18.351562 0 33.226562-14.878906 33.21875-33.230469zm0 0" fill="#e48e66"/><path d="m279.71875 89.457031c.070312 5.9375-5.660156 10.828125-12.808594 10.910157-7.148437.078124-12.988281-4.671876-13.058594-10.609376-.070312-5.941406 5.667969-10.820312 12.808594-10.910156s12.988282 4.667969 13.058594 10.609375zm0 0" fill="#6fe3ff"/><path d="m244 270.257812c18.351562-.003906 33.230469 14.871094 33.230469 33.222657 0 18.351562-14.875 33.226562-33.226563 33.226562-18.351562 0-33.226562-14.878906-33.222656-33.230469-.003906-18.347656 14.871094-33.222656 33.21875-33.21875zm0 0" fill="#6fe3ff"/><g fill="#63316d"><path d="m137.800781 483.175781h212.398438c14.355469-.015625 25.984375-11.648437 26-26v-307.398437c-.015625-14.355469-11.644531-25.984375-26-26h-212.398438c-14.355469.015625-25.984375 11.644531-26 26v307.398437c.015625 14.351563 11.644531 25.984375 26 26zm-14-333.398437c.007813-7.730469 6.269531-13.992188 14-14h212.398438c7.730469.007812 13.992187 6.269531 14 14v307.398437c-.007813 7.730469-6.269531 13.992188-14 14h-212.398438c-7.730469-.007812-13.992187-6.269531-14-14zm0 0"/><path d="m244 384.726562c44.871094.003907 81.246094-36.371093 81.25-81.238281.003906-44.871093-36.371094-81.25-81.238281-81.25-44.871094-.003906-81.25 36.367188-81.25 81.238281.046875 44.847657 36.390625 81.195313 81.238281 81.25zm0-150.488281c38.246094-.003906 69.25 30.996094 69.25 69.242188 0 38.242187-31.003906 69.246093-69.246094 69.246093-38.246094 0-69.246094-31.007812-69.242187-69.25.042969-38.222656 31.015625-69.195312 69.238281-69.238281zm0 0"/><path d="m244 342.707031c21.664062.003907 39.226562-17.558593 39.230469-39.21875.003906-21.664062-17.558594-39.230469-39.21875-39.230469-21.664063-.003906-39.230469 17.554688-39.230469 39.21875.019531 21.652344 17.566406 39.203126 39.21875 39.230469zm0-66.449219c15.039062-.003906 27.230469 12.183594 27.230469 27.222657 0 15.035156-12.191407 27.226562-27.226563 27.226562-15.039062 0-27.226562-12.191406-27.222656-27.230469.015625-15.027343 12.191406-27.203124 27.21875-27.21875zm0 0"/><path d="m6 300.976562c4.167969 0 6.1875 2.199219 9.683594 6.40625 3.714844 4.476563 8.800781 10.601563 18.566406 10.601563 10 0 15.152344-6.207031 18.914062-10.742187 3.515626-4.234376 5.382813-6.269532 9.335938-6.269532 4 0 6.015625 2.183594 9.523438 6.363282 3.773437 4.492187 8.9375 10.648437 18.726562 10.648437 3.3125 0 6-2.6875 6-6s-2.6875-6-6-6c-4.007812 0-6.023438-2.183594-9.535156-6.363281-3.769532-4.492188-8.933594-10.648438-18.714844-10.648438-9.761719 0-14.851562 6.128906-18.566406 10.601563-3.5 4.210937-5.515625 6.410156-9.683594 6.410156-3.953125 0-5.820312-2.035156-9.335938-6.269531-3.761718-4.53125-8.914062-10.738282-18.914062-10.738282-3.3125 0-6 2.6875-6 6s2.6875 6 6 6zm0 0"/><path d="m6 250.976562c4.167969 0 6.1875 2.199219 9.683594 6.40625 3.714844 4.476563 8.800781 10.601563 18.566406 10.601563 10 0 15.152344-6.207031 18.914062-10.742187 3.515626-4.234376 5.382813-6.269532 9.335938-6.269532 4 0 6.015625 2.183594 9.523438 6.363282 3.773437 4.492187 8.9375 10.648437 18.726562 10.648437 3.3125 0 6-2.6875 6-6s-2.6875-6-6-6c-4.007812 0-6.023438-2.183594-9.535156-6.363281-3.769532-4.492188-8.933594-10.648438-18.714844-10.648438-9.761719 0-14.851562 6.128906-18.566406 10.601563-3.5 4.210937-5.515625 6.410156-9.683594 6.410156-3.953125 0-5.820312-2.035156-9.335938-6.269531-3.761718-4.53125-8.914062-10.738282-18.914062-10.738282-3.3125 0-6 2.6875-6 6s2.6875 6 6 6zm0 0"/><path d="m53.164062 357.246094c3.515626-4.234375 5.382813-6.269532 9.335938-6.269532 4 0 6.015625 2.179688 9.523438 6.359376 3.773437 4.496093 8.9375 10.652343 18.726562 10.652343 3.3125 0 6-2.6875 6-6 0-3.316406-2.6875-6-6-6-4.007812 0-6.023438-2.183593-9.535156-6.367187-3.769532-4.492188-8.933594-10.644532-18.714844-10.644532-9.761719 0-14.851562 6.128907-18.566406 10.601563-3.5 4.210937-5.515625 6.40625-9.683594 6.40625-3.953125 0-5.820312-2.035156-9.335938-6.269531-3.761718-4.53125-8.914062-10.738282-18.914062-10.738282-3.3125 0-6 2.6875-6 6s2.6875 6 6 6c4.167969 0 6.1875 2.199219 9.683594 6.40625 3.714844 4.476563 8.800781 10.601563 18.566406 10.601563 9.996094.003906 15.148438-6.207031 18.914062-10.738281zm0 0"/><path d="m482 288.976562c-10 0-15.152344 6.207032-18.914062 10.742188-3.515626 4.234375-5.382813 6.269531-9.335938 6.269531-4.160156 0-6.179688-2.203125-9.671875-6.402343-3.71875-4.476563-8.808594-10.605469-18.578125-10.605469s-14.945312 6.152343-18.714844 10.644531c-3.511718 4.183594-5.527344 6.363281-9.535156 6.363281-3.3125 0-6 2.6875-6 6 0 3.316407 2.6875 6 6 6 9.789062 0 14.953125-6.15625 18.726562-10.648437 3.507813-4.179688 5.523438-6.359375 9.523438-6.359375 3.960938 0 5.828125 2.035156 9.347656 6.273437 3.761719 4.53125 8.914063 10.734375 18.898438 10.734375 9.765625 0 14.851562-6.125 18.566406-10.597656 3.5-4.210937 5.515625-6.410156 9.683594-6.410156 3.316406 0 6-2.683594 6-6 0-3.3125-2.683594-6-6-6zm0 0"/><path d="m482 238.976562c-10 0-15.152344 6.207032-18.914062 10.742188-3.515626 4.234375-5.382813 6.269531-9.335938 6.269531-4.160156 0-6.179688-2.203125-9.671875-6.402343-3.71875-4.476563-8.808594-10.605469-18.578125-10.605469s-14.945312 6.152343-18.714844 10.644531c-3.511718 4.183594-5.527344 6.363281-9.535156 6.363281-3.3125 0-6 2.6875-6 6 0 3.316407 2.6875 6 6 6 9.789062 0 14.953125-6.15625 18.726562-10.648437 3.507813-4.179688 5.523438-6.359375 9.523438-6.359375 3.960938 0 5.828125 2.035156 9.347656 6.273437 3.761719 4.53125 8.914063 10.734375 18.898438 10.734375 9.765625 0 14.851562-6.125 18.566406-10.597656 3.5-4.210937 5.515625-6.410156 9.683594-6.410156 3.316406 0 6-2.683594 6-6 0-3.3125-2.683594-6-6-6zm0 0"/><path d="m482 338.976562c-10 0-15.152344 6.207032-18.914062 10.742188-3.515626 4.234375-5.382813 6.269531-9.335938 6.269531-4.160156 0-6.179688-2.203125-9.671875-6.402343-3.71875-4.476563-8.808594-10.605469-18.578125-10.605469s-14.945312 6.152343-18.714844 10.644531c-3.511718 4.183594-5.527344 6.363281-9.535156 6.363281-3.3125 0-6 2.6875-6 6 0 3.316407 2.6875 6 6 6 9.789062 0 14.953125-6.15625 18.726562-10.648437 3.507813-4.179688 5.523438-6.359375 9.523438-6.359375 3.960938 0 5.828125 2.035156 9.347656 6.273437 3.761719 4.53125 8.914063 10.734375 18.898438 10.734375 9.765625 0 14.851562-6.125 18.566406-10.597656 3.5-4.210937 5.515625-6.410156 9.683594-6.410156 3.316406 0 6-2.683594 6-6 0-3.3125-2.683594-6-6-6zm0 0"/><path d="m399.03125 165.128906h.242188c10.191406-.128906 18.417968-7.394531 18.707031-16.328125.019531-.214843.03125-.433593.03125-.648437l-.5-42.933594 42.28125-10.960938.171875 14.605469c-2.160156-.730469-4.421875-1.101562-6.703125-1.105469-.082031 0-.171875.007813-.25 0-10.441407.132813-18.84375 7.75-18.734375 16.984376.109375 9.164062 8.554687 16.539062 18.882812 16.539062h.242188c4.726562-.007812 9.300781-1.667969 12.933594-4.691406 3.480468-2.886719 5.578124-7.109375 5.777343-11.625.023438-.222656.035157-.441406.03125-.664063l-.6875-59.109375c-.023437-1.84375-.890625-3.574218-2.355469-4.695312-1.464843-1.121094-3.359374-1.503906-5.144531-1.042969l-54.257812 14.046875c-2.671875.6875-4.53125 3.117188-4.5 5.878906l.628906 53.332032c-2.238281-.753907-4.585937-1.125-6.945313-1.101563-4.726562.003906-9.304687 1.664063-12.9375 4.6875-3.667968 3.027344-5.796874 7.535156-5.804687 12.289063.109375 9.167968 8.558594 16.542968 18.890625 16.542968zm59.515625-37.675781c-1.5 1.195313-3.367187 1.835937-5.285156 1.824219-3.691407.039062-6.960938-2.148438-6.992188-4.679688-.027343-2.535156 3.1875-4.796875 6.882813-4.84375h.101562c3.652344 0 6.859375 2.171875 6.890625 4.683594-.070312 1.1875-.652343 2.289062-1.597656 3.015625zm.992187-54.46875.101563 8.910156-42.28125 10.960938-.105469-8.917969zm-65.808593 72.445313c1.5-1.195313 3.367187-1.839844 5.289062-1.824219h.097657c3.652343 0 6.859374 2.171875 6.890624 4.683593.027344 2.53125-3.1875 4.792969-6.878906 4.839844-3.71875.050782-6.964844-2.148437-6.992187-4.679687.066406-1.191407.648437-2.292969 1.59375-3.019531zm0 0"/><path d="m320.722656 49.007812c-4.722656.007813-9.296875 1.664063-12.929687 4.683594-3.726563 2.984375-5.867188 7.519532-5.8125 12.292969.054687 4.773437 2.304687 9.253906 6.097656 12.152344 3.625 2.875 8.125 4.421875 12.753906 4.382812h.273438c4.726562-.007812 9.300781-1.667969 12.933593-4.691406 3.480469-2.886719 5.578126-7.109375 5.78125-11.625.019532-.222656.03125-.441406.03125-.664063l-.691406-59.109374c-.023437-1.84375-.890625-3.578126-2.355468-4.699219-1.464844-1.117188-3.363282-1.503907-5.148438-1.039063l-54.242188 14.046875c-2.671874.6875-4.53125 3.113281-4.5 5.875l.246094 21.199219v.039062l.371094 32.101563c-2.15625-.730469-4.417969-1.105469-6.699219-1.105469-.082031 0-.179687.007813-.25 0-10.4375.128906-18.84375 7.746094-18.734375 16.980469.109375 9.164063 8.554688 16.539063 18.882813 16.539063h.246093c4.726563-.003907 9.300782-1.664063 12.933594-4.691407 3.480469-2.886719 5.578125-7.109375 5.777344-11.625.019531-.21875.03125-.441406.03125-.660156l-.5-42.929687 42.28125-10.964844.167969 14.585937c-2.238281-.742187-4.585938-1.105469-6.945313-1.074219zm5.535156 19.683594c-3.121093 2.386719-7.4375 2.4375-10.617187.128906-1.019531-.648437-1.644531-1.765624-1.660156-2.976562s.582031-2.34375 1.589843-3.015625c1.5-1.191406 3.367188-1.835937 5.285157-1.824219h.128906c1.875-.03125 3.707031.566406 5.199219 1.703125 1.023437.644531 1.648437 1.765625 1.664062 2.972657.011719 1.210937-.585937 2.34375-1.59375 3.015624zm-54.125 23.851563c-1.503906 1.195312-3.371093 1.839843-5.289062 1.824219h-.101562c-3.652344 0-6.859376-2.171876-6.886719-4.683594-.03125-2.527344 3.183593-4.789063 6.878906-4.839844h.101563c3.648437 0 6.859374 2.171875 6.886718 4.683594-.066406 1.1875-.648437 2.289062-1.589844 3.015625zm12.945313-58.445313-.101563-8.921875 42.277344-10.949219.101563 8.910157zm0 0"/></g></svg>