<svg height="390pt" viewBox="-44 0 390 390.27526" width="390pt" xmlns="http://www.w3.org/2000/svg"><path d="m86.878906 280.765625h-40.742187c-22.089844 0-40-17.90625-40-40v-91.257813c0-22.089843 17.910156-40 40-40h40.742187l2.117188-1.492187 150.402344 199.34375v72.917969c0 1.492187-.832032 2.859375-2.15625 3.546875-1.328126.6875-2.921876.582031-4.144532-.277344zm0 0" fill="#f8ec7d"/><path d="m239.398438 9.996094v297.363281l-150.402344-199.34375 144.101562-101.289063c1.222656-.855468 2.816406-.964843 4.144532-.277343 1.324218.6875 2.15625 2.054687 2.15625 3.546875zm0 0" fill="#f8ec7d"/><path d="m.136719 149.507812v91.257813c.03125 25.394531 20.609375 45.972656 46 46h38.84375l144.65625 101.683594c3.054687 2.152343 7.050781 2.421875 10.363281.703125 3.316406-1.71875 5.398438-5.140625 5.398438-8.875v-55.007813l46.328124 61.402344c1.996094 2.644531 5.757813 3.171875 8.40625 1.175781 2.644532-1.996094 3.167969-5.761718 1.171876-8.40625l-55.90625-74.097656v-295.347656c0-3.730469-2.082032-7.152344-5.390626-8.871094-3.3125-1.71875-7.308593-1.453125-10.359374.695312l-139.355469 97.953126-62.988281-83.480469c-1.992188-2.644531-5.757813-3.171875-8.402344-1.175781-2.644532 1.996093-3.171875 5.757812-1.175782 8.402343l60.351563 79.988281h-31.941406c-25.390625.027344-45.96875 20.605469-46 46zm92.789062 128.179688c-1.078125-1.808594-3.03125-2.917969-5.140625-2.921875h-41.648437c-18.769531-.019531-33.976563-15.230469-34-34v-91.257813c.023437-18.769531 15.230469-33.980468 34-34h40.992187l146.269532 193.859376v67.058593zm140.472657-263.835938v275.585938l-135.871094-180.078125zm0 0" fill="#63316d"/></svg>