<svg height="421pt" viewBox="0 -15 421.96545 421" width="421pt" xmlns="http://www.w3.org/2000/svg"><path d="m86.738281 281.25h-40.738281c-22.089844 0-40-17.910156-40-40v-91.261719c0-22.089843 17.910156-40 40-40h40.738281l146.222657-102.777343c1.21875-.859376 2.816406-.964844 4.140624-.277344 1.324219.6875 2.15625 2.054687 2.160157 3.546875v370.28125c-.003907 1.492187-.835938 2.859375-2.160157 3.546875-1.324218.6875-2.921874.578125-4.140624-.277344zm0 0" fill="#f8ec7d"/><g fill="#63316d"><path d="m362.074219 195.621094 58.167969-58.167969c2.3125-2.347656 2.296874-6.121094-.035157-8.449219-2.328125-2.332031-6.101562-2.347656-8.449219-.035156l-58.167968 58.167969-58.167969-58.167969c-2.347656-2.3125-6.121094-2.296875-8.449219.035156-2.332031 2.328125-2.34375 6.101563-.035156 8.449219l58.167969 58.167969-58.167969 58.167968c-1.535156 1.507813-2.144531 3.730469-1.59375 5.8125.554688 2.082032 2.179688 3.710938 4.265625 4.261719 2.082031.554688 4.300781-.054687 5.8125-1.589843l58.167969-58.167969 58.167968 58.167969c2.347657 2.308593 6.121094 2.292968 8.449219-.035157 2.332031-2.332031 2.347657-6.101562.035157-8.449219zm0 0"/><path d="m46 287.25h38.84375l144.65625 101.683594c3.050781 2.148437 7.046875 2.421875 10.363281.703125 3.3125-1.71875 5.394531-5.144531 5.394531-8.875v-370.28125c0-3.730469-2.078124-7.152344-5.390624-8.871094-3.3125-1.722656-7.304688-1.453125-10.359376.691406l-144.664062 101.6875h-38.84375c-25.394531.03125-45.9726562 20.609375-46 46v91.261719c.0273438 25.394531 20.605469 45.972656 46 46zm-34-137.261719c.023438-18.765625 15.230469-33.976562 34-34h41.648438c2.117187.003907 4.078124-1.109375 5.160156-2.929687l140.453125-98.726563v362.574219l-140.46875-98.734375c-1.082031-1.8125-3.035157-2.921875-5.144531-2.921875h-41.648438c-18.769531-.019531-33.976562-15.230469-34-34zm0 0"/></g></svg>