<svg height="359pt" viewBox="-23 0 359 359.89962" width="359pt" xmlns="http://www.w3.org/2000/svg"><g fill="#f8ec7d"><path d="m306.449219 6v79.519531l-203.308594 50.148438v-79.519531zm0 0"/><path d="m258.109375 186.730469c26.699219 0 48.339844 18 48.339844 40.210937 0 22.207032-21.640625 40.207032-48.339844 40.207032s-48.347656-18-48.347656-40.207032c0-22.210937 21.648437-40.210937 48.347656-40.210937zm0 0"/><path d="m54.789062 273.46875c26.699219 0 48.351563 18.011719 48.351563 40.210938 0 22.199218-21.652344 40.21875-48.351563 40.21875-26.699218 0-48.339843-18.007813-48.339843-40.21875 0-22.210938 21.640625-40.210938 48.339843-40.210938zm0 0"/></g><path d="m.449219 313.679688c0 25.484374 24.378906 46.21875 54.339843 46.21875 29.964844 0 54.351563-20.734376 54.351563-46.21875v-173.308594l191.308594-47.191406v104.84375c-9.96875-10.535157-25.238281-17.292969-42.339844-17.292969-29.96875 0-54.347656 20.730469-54.347656 46.210937 0 25.476563 24.378906 46.207032 54.347656 46.207032s54.339844-20.726563 54.339844-46.207032v-220.941406c0-1.84375-.847657-3.585938-2.300781-4.722656-1.449219-1.136719-3.34375-1.542969-5.136719-1.101563l-203.308594 50.148438c-2.679687.660156-4.5625 3.066406-4.5625 5.824219v228.613281c-9.972656-10.53125-25.246094-17.292969-42.351563-17.292969-29.960937 0-54.339843 20.730469-54.339843 46.210938zm257.660156-52.53125c-23.351563 0-42.347656-15.34375-42.347656-34.207032 0-18.867187 19-34.210937 42.347656-34.210937 23.351563 0 42.339844 15.34375 42.339844 34.210937 0 18.863282-18.992188 34.207032-42.339844 34.207032zm42.339844-247.488282v67.160156l-191.308594 47.191407v-67.160157zm-245.660157 265.808594c23.351563 0 42.351563 15.347656 42.351563 34.210938 0 18.863281-19 34.21875-42.351563 34.21875-23.347656 0-42.339843-15.347657-42.339843-34.21875 0-18.871094 18.996093-34.210938 42.339843-34.210938zm0 0" fill="#63316d"/></svg>