<svg height="432pt" viewBox="0 0 432 432" width="432pt" xmlns="http://www.w3.org/2000/svg"><path d="m299.421875 340.320312c0-17.082031-16.652344-30.929687-37.191406-30.929687-20.539063 0-37.191407 13.847656-37.191407 30.929687 0 17.078126 16.652344 30.941407 37.191407 30.941407 20.539062 0 37.191406-13.851563 37.191406-30.941407zm0-152.691406 90.71875 17.03125v-38.46875l-90.71875-17.03125zm126.578125-161.628906v380c.003906 11.046875-8.953125 20.003906-20 20h-380c-11.046875.003906-20.003906-8.953125-20-20v-380c-.003906-11.046875 8.953125-20.003906 20-20h380c11.046875-.003906 20.003906 8.953125 20 20zm0 0" fill="#e48e66"/><path d="m390.140625 166.191406v38.46875l-90.71875-17.03125v-38.46875zm0 0" fill="#f8ec7d"/><path d="m262.230469 309.390625c20.539062 0 37.191406 13.847656 37.191406 30.929687 0 17.078126-16.652344 30.941407-37.191406 30.941407-20.539063 0-37.191407-13.851563-37.191407-30.941407 0-17.089843 16.652344-30.929687 37.191407-30.929687zm0 0" fill="#f8ec7d"/><g fill="#63316d"><path d="m406 0h-380c-14.351562.015625-25.984375 11.648438-26 26v380c.015625 14.351562 11.648438 25.984375 26 26h380c14.351562-.015625 25.984375-11.648438 26-26v-380c-.015625-14.351562-11.648438-25.984375-26-26zm14 406c-.007812 7.726562-6.273438 13.992188-14 14h-380c-7.730469-.007812-13.992188-6.269531-14-14v-380c.007812-7.730469 6.269531-13.992188 14-14h380c7.726562.007812 13.992188 6.273438 14 14zm0 0"/><path d="m235.550781 80.910156c3.3125 0 6-2.6875 6-6v-33.160156c0-3.3125-2.6875-6-6-6-3.316406 0-6 2.6875-6 6v33.160156c0 3.3125 2.683594 6 6 6zm0 0"/><path d="m274.199219 80.910156c3.316406 0 6-2.6875 6-6v-33.160156c0-3.3125-2.683594-6-6-6-3.3125 0-6 2.6875-6 6v33.160156c0 3.3125 2.6875 6 6 6zm0 0"/><path d="m312.851562 80.910156c3.3125 0 6-2.6875 6-6v-33.160156c0-3.3125-2.6875-6-6-6-3.316406 0-6 2.6875-6 6v33.160156c0 3.3125 2.683594 6 6 6zm0 0"/><path d="m351.488281 80.910156c3.316407 0 6-2.6875 6-6v-33.160156c0-3.3125-2.683593-6-6-6-3.3125 0-6 2.6875-6 6v33.160156c0 3.3125 2.6875 6 6 6zm0 0"/><path d="m390.140625 35.75c-3.3125 0-6 2.6875-6 6v33.160156c0 3.3125 2.6875 6 6 6s6-2.6875 6-6v-33.160156c0-3.3125-2.6875-6-6-6zm0 0"/><path d="m158.261719 80.910156c3.3125 0 6-2.6875 6-6v-33.160156c0-3.3125-2.6875-6-6-6-3.316407 0-6 2.6875-6 6v33.160156c0 3.3125 2.683593 6 6 6zm0 0"/><path d="m80.96875 80.910156c3.316406 0 6-2.6875 6-6v-33.160156c0-3.3125-2.683594-6-6-6-3.3125 0-6 2.6875-6 6v33.160156c0 3.3125 2.6875 6 6 6zm0 0"/><path d="m42.328125 80.910156c3.316406 0 6-2.6875 6-6v-33.160156c0-3.3125-2.683594-6-6-6-3.3125 0-6 2.6875-6 6v33.160156c0 3.3125 2.6875 6 6 6zm0 0"/><path d="m119.621094 80.910156c3.3125 0 6-2.6875 6-6v-33.160156c0-3.3125-2.6875-6-6-6-3.316406 0-6 2.6875-6 6v33.160156c0 3.3125 2.683594 6 6 6zm0 0"/><path d="m196.910156 80.910156c3.3125 0 6-2.6875 6-6v-33.160156c0-3.3125-2.6875-6-6-6s-6 2.6875-6 6v33.160156c0 3.3125 2.6875 6 6 6zm0 0"/><path d="m42.328125 211.03125h.351563c3.3125 0 6-2.6875 6-6 0-3.316406-2.6875-6-6-6h-.351563c-3.3125 0-6 2.683594-6 6 0 3.3125 2.6875 6 6 6zm0 0"/><path d="m42.089844 302.480469h.238281c3.316406 0 6-2.6875 6-6s-2.683594-6-6-6h-.238281c-3.3125 0-6 2.6875-6 6s2.6875 6 6 6zm0 0"/><path d="m276.910156 153.308594c-3.3125 0-6 2.6875-6 6 0 3.316406 2.6875 6 6 6h.460938c3.3125 0 6-2.683594 6-6 0-3.3125-2.6875-6-6-6zm0 0"/><path d="m169.410156 165.308594h82.96875c3.316406 0 6-2.683594 6-6 0-3.3125-2.683594-6-6-6h-82.96875c-3.3125 0-6 2.6875-6 6 0 3.316406 2.6875 6 6 6zm0 0"/><path d="m42.328125 165.308594h105.382813c3.3125 0 6-2.683594 6-6 0-3.3125-2.6875-6-6-6h-105.382813c-3.3125 0-6 2.6875-6 6 0 3.316406 2.6875 6 6 6zm0 0"/><path d="m283.371094 205.03125c0-3.316406-2.6875-6-6-6h-157.832032c-3.3125 0-6 2.683594-6 6 0 3.3125 2.6875 6 6 6h157.832032c3.3125 0 6-2.6875 6-6zm0 0"/><path d="m104.648438 205.03125c0-3.316406-2.683594-6-6-6h-31.886719c-3.316407 0-6 2.683594-6 6 0 3.3125 2.683593 6 6 6h31.886719c3.316406 0 6-2.6875 6-6zm0 0"/><path d="m283.371094 250.761719c0-3.316407-2.6875-6-6-6h-63.449219c-3.316406 0-6 2.683593-6 6 0 3.3125 2.683594 6 6 6h63.449219c3.3125 0 6-2.6875 6-6zm0 0"/><path d="m190.058594 244.761719c-3.3125 0-6 2.683593-6 6 0 3.3125 2.6875 6 6 6h.140625c3.316406 0 6-2.6875 6-6 0-3.316407-2.683594-6-6-6zm0 0"/><path d="m166.421875 244.761719h-69.851563c-3.3125 0-6 2.683593-6 6 0 3.3125 2.6875 6 6 6h69.851563c3.3125 0 6-2.6875 6-6 0-3.316407-2.6875-6-6-6zm0 0"/><path d="m42.328125 256.761719h29.902344c3.3125 0 6-2.6875 6-6 0-3.316407-2.6875-6-6-6h-29.902344c-3.3125 0-6 2.683593-6 6 0 3.3125 2.6875 6 6 6zm0 0"/><path d="m200.738281 336.199219h-42.476562c-3.316407 0-6 2.6875-6 6 0 3.316406 2.683593 6 6 6h42.476562c3.316407 0 6-2.683594 6-6 0-3.3125-2.683593-6-6-6zm0 0"/><path d="m138.410156 336.199219h-.128906c-3.316406 0-6 2.6875-6 6 0 3.316406 2.683594 6 6 6h.128906c3.3125 0 6-2.683594 6-6 0-3.3125-2.6875-6-6-6zm0 0"/><path d="m114.128906 336.199219h-71.800781c-3.3125 0-6 2.6875-6 6 0 3.316406 2.6875 6 6 6h71.800781c3.316406 0 6-2.683594 6-6 0-3.3125-2.683594-6-6-6zm0 0"/><path d="m200.738281 290.480469h-11.316406c-3.316406 0-6 2.6875-6 6s2.683594 6 6 6h11.316406c3.316407 0 6-2.6875 6-6s-2.683593-6-6-6zm0 0"/><path d="m164.699219 290.480469h-97.777344c-3.316406 0-6 2.6875-6 6s2.683594 6 6 6h97.777344c3.316406 0 6-2.6875 6-6s-2.683594-6-6-6zm0 0"/><path d="m391.246094 160.292969-90.71875-17.03125c-1.753906-.328125-3.566406.140625-4.941406 1.28125-1.371094 1.140625-2.167969 2.835937-2.164063 4.621093v165.648438c-8.652344-7.492188-19.75-11.554688-31.191406-11.421875-23.816407 0-43.191407 16.566406-43.191407 36.929687 0 20.363282 19.375 36.941407 43.191407 36.941407 23.816406 0 43.191406-16.574219 43.191406-36.941407v-145.457031l83.609375 15.699219c.367188.066406.738281.101562 1.109375.097656 3.3125 0 6-2.683594 6-6v-38.46875c0-2.886718-2.054687-5.367187-4.894531-5.898437zm-129.015625 204.96875c-17.199219 0-31.191407-11.191407-31.191407-24.941407 0-13.753906 13.992188-24.929687 31.191407-24.929687s31.191406 11.183594 31.191406 24.929687c0 13.746094-13.992187 24.941407-31.191406 24.941407zm121.910156-167.832031-78.71875-14.777344v-26.261719l78.71875 14.777344zm0 0"/></g></svg>