<svg height="431pt" viewBox="-10 0 431 431.017" width="431pt" xmlns="http://www.w3.org/2000/svg"><path d="m365.136719 186.335938 40.871093 46.679687-76.300781 66.792969-1.128906.988281-15.070313 13.191406-38.371093 33.597657-51.347657 2.929687 10.480469-49.609375 80.480469-70.460938zm0 0" fill="#f8ec7d"/><path d="m99.660156 232.855469c0-8.847657-8.632812-16.027344-19.28125-16.027344-10.652344 0-19.28125 7.179687-19.28125 16.027344 0 8.851562 8.628906 16.042969 19.28125 16.042969 10.648438 0 19.28125-7.179688 19.28125-16.042969zm81.078125-22.628907c0-8.859374-8.628906-16.039062-19.28125-16.039062-10.648437 0-19.277343 7.179688-19.277343 16.039062 0 8.859376 8.640624 16.039063 19.277343 16.039063 10.640625 0 19.28125-7.179687 19.28125-16.039063zm0-56.398437v-31.710937l-81.078125 31.96875v31.710937zm132.851563 75.300781 1.160156 1.316406-80.480469 70.460938-10.480469 49.609375 51.347657-2.929687 38.371093-33.597657.082032.089844v70.9375c0 22.09375-17.910156 40-40 40h-227.582032c-22.089843 0-40-17.90625-40-40v-339.019531c0-22.089844 17.910157-40 40-40h157.378907l2.03125.199218v67.972657c0 22.089843 17.910156 40 40 40h68.171875zm0 0" fill="#e48e66"/><g fill="#f8ec7d"><path d="m313.589844 113.9375v.230469h-68.171875c-22.089844 0-40-17.910157-40-40v-67.972657l.21875.023438zm0 0"/><path d="m180.738281 122.117188v31.710937l-81.078125 31.96875v-31.710937zm0 0"/><path d="m180.738281 210.226562c0-8.859374-8.632812-16.039062-19.28125-16.039062-10.648437 0-19.277343 7.179688-19.277343 16.039062 0 8.859376 8.628906 16.039063 19.277343 16.039063 10.648438 0 19.28125-7.179687 19.28125-16.039063zm0 0"/><path d="m80.378906 216.828125c10.648438 0 19.28125 7.179687 19.28125 16.027344 0 8.851562-8.632812 16.042969-19.28125 16.042969-10.652344 0-19.28125-7.179688-19.28125-16.042969 0-8.859375 8.628906-16.027344 19.28125-16.027344zm0 0"/></g><path d="m319.589844 385.015625v-68.367187l90.371094-79.117188c2.492187-2.183594 2.746093-5.972656.5625-8.46875l-40.871094-46.679688c-2.183594-2.492187-5.972656-2.742187-8.464844-.5625l-41.601562 36.417969v-104.300781c0-1.59375-.632813-3.121094-1.761719-4.246094l-107.949219-107.722656c-.023438-.023438-.054688-.042969-.082031-.070312-1.132813-1.210938-2.714844-1.898438-4.375-1.898438-.3125.00390625-.621094.0273438-.929688.078125l-.511719-.0507812c-.195312-.0195313-.390624-.0273438-.589843-.0273438h-157.378907c-25.390624.0273438-45.9687495 20.605469-45.9999995 46v339.015625c.03125 25.394531 20.6093755 45.972656 45.9999995 46h227.582032c25.390625-.027344 45.96875-20.605469 46-46zm44.984375-190.207031 32.96875 37.648437-87.984375 77.019531-36.820313 32.242188-41.457031 2.363281 8.445312-39.976562zm-153.15625-174.347656 87.890625 87.707031h-53.890625c-18.769531-.023438-33.980469-15.230469-34-34zm-199.410157 364.554687v-339.019531c.023438-18.769532 15.230469-33.976563 34-34h153.410157v62.171875c.03125 25.390625 20.609375 45.96875 46 46h62.171875v108.578125l-77.273438 67.648437c-.976562.851563-1.648437 2.003907-1.917968 3.273438l-10.480469 49.609375c-.375 1.769531.070312 3.613281 1.210937 5.019531 1.136719 1.402344 2.851563 2.21875 4.660156 2.21875.113282 0 .226563 0 .339844-.007813l51.351563-2.929687c1.335937-.078125 2.605469-.597656 3.609375-1.476563l28.5-24.949218v57.863281c-.019532 18.769531-15.230469 33.980469-34 34h-227.582032c-18.769531-.019531-33.976562-15.230469-34-34zm0 0" fill="#63316d"/><path d="m192.699219 294.707031h-131.601563c-3.3125 0-6 2.6875-6 6s2.6875 6 6 6h131.601563c3.3125 0 6-2.6875 6-6s-2.6875-6-6-6zm0 0" fill="#63316d"/><path d="m192.699219 350.496094h-131.601563c-3.3125 0-6 2.6875-6 6 0 3.316406 2.6875 6 6 6h131.601563c3.3125 0 6-2.683594 6-6 0-3.3125-2.6875-6-6-6zm0 0" fill="#63316d"/><path d="m80.378906 254.898438c13.941406 0 25.28125-9.886719 25.28125-22.042969v-42.972657l69.078125-27.242187v28.84375c-4.085937-2.183594-8.648437-3.320313-13.28125-3.300781-13.9375 0-25.277343 9.886718-25.277343 22.039062 0 12.15625 11.339843 22.042969 25.277343 22.042969 13.941407 0 25.28125-9.886719 25.28125-22.042969v-88.105468c0-1.984376-.980469-3.84375-2.625-4.960938-1.640625-1.117188-3.726562-1.347656-5.574219-.621094l-81.082031 31.972656c-2.292969.902344-3.800781 3.117188-3.800781 5.582032v60.03125c-4.082031-2.183594-8.648438-3.316406-13.277344-3.296875-13.941406 0-25.28125 9.882812-25.28125 22.027343 0 12.148438 11.34375 22.046876 25.28125 22.046876zm81.078125-34.632813c-7.199219 0-13.277343-4.597656-13.277343-10.039063 0-5.441406 6.082031-10.039062 13.277343-10.039062 7.199219 0 13.28125 4.597656 13.28125 10.039062 0 5.441407-6.082031 10.039063-13.28125 10.039063zm13.28125-89.332031v18.808594l-69.078125 27.238281v-18.808594zm-94.359375 91.894531c7.199219 0 13.28125 4.59375 13.28125 10.027344 0 5.4375-6.082031 10.042969-13.28125 10.042969-7.199218 0-13.28125-4.601563-13.28125-10.042969 0-5.4375 6.082032-10.027344 13.28125-10.027344zm0 0" fill="#63316d"/></svg>