<svg height="491pt" viewBox="-10 0 491 491.99935" width="491pt" xmlns="http://www.w3.org/2000/svg"><path d="m371.539062 387.46875c1.5625-.53125 2.980469-1.414062 4.152344-2.578125l45.117188-45.121094c2.027344-2.019531 3.167968-4.765625 3.160156-7.628906v-246.050781c0-4.964844-4.023438-8.988282-8.988281-8.988282h-30.222657v-22.550781h-59.347656v-16.179687c.003906-3.675782-.621094-7.324219-1.839844-10.789063h124.121094c9.933594-.007812 17.988282 8.042969 17.988282 17.976563v374.03125c0 9.933594-8.054688 17.984375-17.988282 17.980468h-233.550781c10.410156-14.703124 17.160156-31.683593 19.6875-49.519531h134.230469c1.183594 0 2.359375-.195312 3.480468-.582031zm0 0" fill="#e48e66"/><path d="m423.96875 86.089844v246.050781c0 1.59375-.351562 3.167969-1.027344 4.609375l-1.132812-.371094h-32.289063c-9.929687 0-17.980469 8.050782-17.980469 17.980469v33.109375c-1.121093.386719-2.296874.582031-3.480468.582031h-134.230469c.785156-5.398437 1.179687-10.847656 1.171875-16.300781.003906-47.136719-28.941406-89.4375-72.878906-106.511719v-179.148437c.003906-4.960938 4.027344-8.984375 8.988281-8.988282h30.230469v20.609376h183.417968v-20.609376h30.222657c4.964843 0 8.988281 4.023438 8.988281 8.988282zm0 0" fill="#f8ec7d"/><path d="m421.808594 336.378906 1.132812.371094c-.535156 1.121094-1.253906 2.140625-2.132812 3.019531l-45.117188 45.121094c-1.171875 1.164063-2.589844 2.046875-4.152344 2.578125v-33.109375c0-9.929687 8.050782-17.980469 17.980469-17.980469zm0 0" fill="#6fe3ff"/><path d="m262.519531 27.582031c5.242188-14.878906 20.449219-23.8125 35.996094-21.144531 15.550781 2.667969 26.910156 16.15625 26.894531 31.933594v16.179687h59.347656v43.160157h-183.417968v-43.160157h59.339844v-16.179687c-.003907-3.675782.617187-7.324219 1.839843-10.789063zm0 0" fill="#6fe3ff"/><path d="m138.398438 27.582031h124.121093c-1.222656 3.464844-1.84375 7.113281-1.839843 10.789063v16.179687h-59.339844v22.550781h-30.230469c-4.960937.003907-8.984375 4.027344-8.988281 8.988282v179.148437c-13.191406-5.121093-27.222656-7.742187-41.371094-7.726562h-.320312l-.011719-.640625v-211.3125c0-9.929688 8.050781-17.976563 17.980469-17.976563zm0 0" fill="#e48e66"/><path d="m233.828125 388.050781c-8.6875 60.316407-63.1875 103.195313-123.855469 97.449219-60.667968-5.75-106.144531-58.101562-103.351562-118.976562 2.789062-60.875 52.871094-108.84375 113.808594-109.011719h.320312c30.304688-.019531 59.375 12.007812 80.804688 33.4375 21.429687 21.425781 33.460937 50.496093 33.445312 80.800781.007812 5.453125-.386719 10.902344-1.171875 16.300781zm-53.078125 14.847657c0-9.65625-7.832031-17.488282-17.492188-17.488282-9.65625 0-17.488281 7.832032-17.488281 17.488282 0 9.660156 7.832031 17.492187 17.488281 17.492187 9.660157 0 17.492188-7.832031 17.492188-17.492187zm-85.019531 20.691406c0-9.660156-7.832031-17.488282-17.492188-17.488282-9.65625 0-17.488281 7.828126-17.488281 17.488282s7.832031 17.492187 17.488281 17.492187c9.660157 0 17.492188-7.832031 17.492188-17.492187zm0 0" fill="#6fe3ff"/><path d="m180.75 402.898438c0 9.660156-7.832031 17.492187-17.492188 17.492187-9.65625 0-17.488281-7.832031-17.488281-17.492187 0-9.65625 7.832031-17.488282 17.488281-17.488282 9.660157 0 17.492188 7.832032 17.492188 17.488282zm0 0" fill="#e48e66"/><path d="m95.730469 423.589844c0 9.660156-7.832031 17.492187-17.492188 17.492187-9.65625 0-17.488281-7.832031-17.488281-17.492187s7.832031-17.488282 17.488281-17.488282c9.660157 0 17.492188 7.828126 17.492188 17.488282zm0 0" fill="#e48e66"/><g fill="#63316d"><path d="m447.691406 21.582031h-120.148437c-1.871094-3.832031-4.359375-7.324219-7.371094-10.34375-8.769531-8.773437-21.242187-12.761719-33.480469-10.710937-12.234375 2.054687-22.71875 9.898437-28.148437 21.054687h-120.144531c-13.238282.011719-23.964844 10.742188-23.980469 23.976563v206.117187c-63.34375 3.304688-113.917969 55.960938-113.917969 120.074219 0 51.835938 33.214844 97.835938 82.414062 114.144531 49.203126 16.304688 103.316407-.75 134.277344-42.324219h230.5c13.238282-.011718 23.96875-10.738281 23.988282-23.980468v-374.03125c-.019532-13.238282-10.75-23.964844-23.988282-23.976563zm-181.011718 32.96875v-16.179687c0-14.5625 11.804687-26.367188 26.363281-26.367188 14.5625 0 26.367187 11.804688 26.367187 26.367188v16.179687c0 3.3125 2.6875 6 6 6h53.347656v31.160157h-171.417968v-31.160157h53.339844c3.3125 0 6-2.6875 6-6zm124.078124 43.160157v-14.609376h24.222657c1.648437 0 2.988281 1.339844 2.988281 2.988282v244.289062h-28.449219c-13.238281.015625-23.964843 10.742188-23.980469 23.980469v27.691406h-125c.292969-3.402343.457032-6.839843.457032-10.300781.039062-22.511719-6.28125-44.574219-18.230469-63.648438h27.914063c3.3125 0 6-2.6875 6-6 0-3.316406-2.6875-6-6-6h-30.921876c-1.570312-.003906-3.078124.613282-4.199218 1.714844-12.460938-16.023437-28.785156-28.617187-47.441406-36.601562v-175.125c0-1.648438 1.339843-2.988282 2.988281-2.988282h24.230469v14.609376c0 3.3125 2.6875 6 6 6h183.421874c3.316407 0 6-2.6875 6-6zm18.957032 244.667968-32.175782 32.175782v-20.195313c.007813-6.613281 5.367188-11.972656 11.980469-11.980469zm-271.316406-308.796875h116.578124c-.199218 1.585938-.296874 3.1875-.300781 4.789063v10.179687h-53.335937c-3.3125 0-6 2.6875-6 6v16.550781h-24.230469c-8.273437.007813-14.980469 6.714844-14.988281 14.988282v170.714844c-9.644532-2.964844-19.625-4.703126-29.703125-5.164063v-206.082031c.007812-6.613282 5.367187-11.972656 11.980469-11.976563zm70.839843 400.527344c-29.53125 41.910156-84.410156 57.355469-131.460937 37.003906-47.054688-20.351562-73.378906-70.921875-63.0625-121.140625s54.449218-86.3125 105.714844-86.460937h.320312c40.421875 0 77.480469 22.519531 96.09375 58.40625 18.613281 35.882812 15.679688 79.148437-7.601562 112.191406zm250.441407-14.519531c-.011719 6.617187-5.375 11.976562-11.988282 11.980468h-222.621094c6.679688-11.644531 11.355469-24.328124 13.839844-37.519531h129.148438c.71875-.003906 1.4375-.054687 2.152344-.152343 2.15625.496093 4.410156-.242188 5.855468-1.917969 1.417969-.757813 2.71875-1.71875 3.867188-2.847657l45.117187-45.121093c3.152344-3.144531 4.925781-7.417969 4.917969-11.871094v-246.050781c-.007812-8.273438-6.714844-14.980469-14.988281-14.988282h-24.222657v-16.550781c0-3.3125-2.683593-6-6-6h-53.347656v-10.179687c0-1.601563-.101562-3.203125-.300781-4.789063h116.582031c6.613282.003907 11.976563 5.363281 11.988282 11.976563zm0 0"/><path d="m378 148.519531c-3.3125 0-6 2.6875-6 6s2.6875 6 6 6h6.757812c3.316407 0 6-2.6875 6-6s-2.683593-6-6-6zm0 0"/><path d="m257.851562 160.519531h99.089844c3.3125 0 6-2.6875 6-6s-2.6875-6-6-6h-99.089844c-3.316406 0-6 2.6875-6 6s2.683594 6 6 6zm0 0"/><path d="m201.339844 160.519531h35.03125c3.3125 0 6-2.6875 6-6s-2.6875-6-6-6h-35.03125c-3.3125 0-6 2.6875-6 6s2.6875 6 6 6zm0 0"/><path d="m384.757812 197h-18.949218c-3.3125 0-6 2.6875-6 6s2.6875 6 6 6h18.949218c3.316407 0 6-2.6875 6-6s-2.683593-6-6-6zm0 0"/><path d="m319.488281 197c-3.3125 0-6 2.6875-6 6s2.6875 6 6 6h25.8125c3.3125 0 6-2.6875 6-6s-2.6875-6-6-6zm0 0"/><path d="m201.339844 209h100.121094c3.3125 0 6-2.6875 6-6s-2.6875-6-6-6h-100.121094c-3.3125 0-6 2.6875-6 6s2.6875 6 6 6zm0 0"/><path d="m384.757812 248.5h-40.257812c-3.3125 0-6 2.6875-6 6s2.6875 6 6 6h40.257812c3.316407 0 6-2.6875 6-6s-2.683593-6-6-6zm0 0"/><path d="m329.988281 254.5c0-3.3125-2.683593-6-6-6h-122.648437c-3.3125 0-6 2.6875-6 6s2.6875 6 6 6h122.648437c3.316407 0 6-2.6875 6-6zm0 0"/><path d="m384.757812 296.101562h-113.566406c-3.316406 0-6 2.683594-6 6 0 3.3125 2.683594 6 6 6h113.566406c3.316407 0 6-2.6875 6-6 0-3.316406-2.683593-6-6-6zm0 0"/><path d="m179.050781 301.261719c-4.855469-4.011719-11.242187-5.644531-17.425781-4.453125l-54.652344 9.398437-.125.023438c-9.9375 1.941406-17.109375 10.644531-17.117187 20.769531v76.113281c-9.25-5.183593-20.824219-3.527343-28.246094 4.039063-7.425781 7.566406-8.859375 19.171875-3.5 28.316406 5.363281 9.148438 16.1875 13.570312 26.417969 10.789062 10.230468-2.777343 17.332031-12.066406 17.328125-22.667968 0-.242188-.011719-.484375-.019531-.726563.007812-.121093.019531-.238281.019531-.363281v-95.5c0-4.359375 3.074219-8.113281 7.347656-8.980469l54.636719-9.398437.128906-.023438c2.6875-.523437 5.464844.183594 7.574219 1.921875 2.109375 1.742188 3.328125 4.332031 3.328125 7.070313v64.832031c-9.246094-5.183594-20.820313-3.527344-28.246094 4.039063-7.421875 7.566406-8.855469 19.171874-3.496094 28.316406 5.359375 9.148437 16.183594 13.566406 26.414063 10.789062s17.332031-12.066406 17.328125-22.667968c0-.246094-.011719-.488282-.019532-.730469.007813-.125.019532-.246094.019532-.371094v-84.207031c.011718-6.320313-2.8125-12.316406-7.695313-16.328125zm-100.8125 133.820312c-6.34375 0-11.488281-5.144531-11.488281-11.492187 0-6.34375 5.144531-11.488282 11.488281-11.488282 6.347657 0 11.492188 5.144532 11.492188 11.488282-.007813 6.34375-5.148438 11.484375-11.492188 11.492187zm85.019531-20.691406c-6.34375 0-11.488281-5.144531-11.488281-11.492187 0-6.34375 5.144531-11.488282 11.488281-11.488282 6.347657 0 11.492188 5.144532 11.492188 11.488282-.003906 6.34375-5.148438 11.484374-11.492188 11.492187zm0 0"/></g></svg>