<svg height="446pt" viewBox="0 -10 446.37624 446" width="446pt" xmlns="http://www.w3.org/2000/svg"><path d="m325.570312 287.859375 9.46875-4.988281 57.019532-30.761719 6.851562-3.6875c14.632813-7.902344 32.894532-2.910156 41.46875 11.339844l-134.398437 92.28125c-18.117188 8.96875-38.640625 11.867187-58.53125 8.257812l-77.6875-14.300781c-7.148438-1.792969-14.710938-.792969-21.140625 2.800781l-42.070313 26.601563-29.390625-96.421875.238282-.070313c9.070312-1.671875 17.503906-5.796875 24.390624-11.929687l12.871094-11.460938c25.75-19.378906 60.167969-22.738281 89.179688-8.707031l5.332031 2.578125c8.339844 4.035156 17.484375 6.128906 26.75 6.128906h51.6875c18.871094.015625 34.949219 13.710938 37.960937 32.339844zm0 0" fill="#f7caa5"/><path d="m392.019531 252.03125.039063.078125-57.019532 30.761719-9.46875 4.988281c-1.410156-8.816406-5.855468-16.863281-12.570312-22.75l36.660156-19.757813 9.320313-5.019531c11.53125-5.839843 26.648437.46875 33.039062 11.699219zm0 0" fill="#edb288"/><path d="m363.191406 21.601562v61.949219l-82.082031-15.410156v-61.949219zm0 0" fill="#f8ec7d"/><path d="m349.210938 244.511719.449218.839843-36.660156 19.757813c-7.003906-6.195313-16.039062-9.609375-25.390625-9.589844h-11.460937l30.480468-16.578125c13.816406-8.003906 31.289063-5.71875 42.582032 5.570313zm0 0" fill="#edb288"/><path d="m247.46875 151.160156c18.582031 0 33.640625 12.53125 33.640625 27.992188 0 15.457031-15.058594 27.980468-33.640625 27.980468-18.578125 0-33.648438-12.53125-33.648438-27.980468 0-15.453125 15.058594-27.992188 33.648438-27.992188zm0 0" fill="#f8ec7d"/><path d="m106.550781 375.402344 13.558594 44.480468h-93.371094l-20.738281-170.140624h62.238281l8.921875 29.238281zm-25.570312 14.707031c-.003907-6.871094-5.574219-12.4375-12.445313-12.4375-6.875 0-12.445312 5.570313-12.445312 12.441406 0 6.875 5.570312 12.445313 12.441406 12.449219 6.875 0 12.453125-5.574219 12.449219-12.453125zm0 0" fill="#e48e66"/><path d="m68.53125 377.660156c6.875-.003906 12.457031 5.566406 12.457031 12.445313.003907 6.875-5.566406 12.453125-12.445312 12.457031-6.875 0-12.453125-5.574219-12.453125-12.453125-.003906-6.871094 5.566406-12.445313 12.441406-12.449219zm0 0" fill="#f8ec7d"/><g fill="#63316d"><path d="m20.785156 420.605469c.367188 3.011719 2.921875 5.277343 5.953125 5.277343h93.371094c1.902344 0 3.691406-.902343 4.824219-2.429687 1.128906-1.53125 1.46875-3.503906.914062-5.320313l-12.222656-40.101562 38.054688-24.0625c5.066406-2.796875 11.003906-3.5625 16.613281-2.148438.125.035157.253906.0625.382812.085938l77.699219 14.300781c21.160156 3.792969 42.980469.714844 62.265625-8.789062.253906-.125.5-.269531.734375-.429688l134.398438-92.28125c2.617187-1.796875 3.378906-5.316406 1.746093-8.035156-10.210937-17.019531-32.007812-22.984375-49.460937-13.53125l-2.144532 1.15625c-9.328124-11.199219-25.398437-15.523437-37.648437-9.316406-.046875.023437-.089844.042969-.132813.070312l-5.273437 2.839844c-13.285156-11.160156-32.128906-12.832031-47.167969-4.183594l-29.066406 15.8125h-38.699219c-8.359375-.011719-16.605469-1.902343-24.136719-5.527343l-5.332031-2.582032c-31.019531-15.09375-67.886719-11.492187-95.398437 9.316406-.132813.101563-.257813.199219-.382813.3125l-12.871093 11.460938c-4.785157 4.253906-10.4375 7.421875-16.566407 9.285156l-7.253906-23.800781c-.769531-2.523437-3.097656-4.246094-5.738281-4.246094h-62.246094c-1.71875 0-3.351562.734375-4.492188 2.019531-1.136718 1.289063-1.671874 3-1.4648432 4.707032zm340.96875-174.953125c6.90625-3.457032 15.582032-.691406 21.207032 4.554687l-50.71875 27.355469-2.777344 1.464844c-1.589844-4.441406-3.875-8.601563-6.769532-12.324219zm-52.253906-1.441406.136719-.078126c9.125-5.269531 20.378906-5.234374 29.46875.09375l-25.464844 13.722657c-4.792969-3.472657-10.234375-5.949219-16-7.285157zm-203.71875 27.25 12.679688-11.292969c23.910156-17.96875 55.871093-21.042969 82.765624-7.957031l5.332032 2.582031c9.160156 4.414062 19.195312 6.710937 29.363281 6.726562h51.6875c15.476563.015625 28.796875 10.949219 31.828125 26.125l-37.214844-1.675781c-13.628906-.617188-27.285156.011719-40.800781 1.878906-2.144531.269532-3.976563 1.671875-4.796875 3.671875-.824219 1.996094-.507812 4.285157.824219 5.984375 1.335937 1.699219 3.480469 2.550782 5.617187 2.230469 12.789063-1.765625 25.714844-2.359375 38.617188-1.777344l44.097656 1.988281c.09375 0 .183594.003907.269531.003907 3.316407 0 6-2.683594 6-6 0-.898438-.035156-1.785157-.085937-2.675781l5.925781-3.121094 63.871094-34.453125c9.925781-5.375 22.222656-3.464844 30.050781 4.667969l-128.871094 88.484374c-16.875 8.210938-35.925781 10.855469-54.398437 7.546876l-77.507813-14.265626c-8.574218-2.113281-17.628906-.886718-25.332031 3.425782-.097656.054687-.191406.113281-.285156.171875l-35.429688 22.394531-25.253906-82.847656c7.785156-2.371094 14.964844-6.402344 21.046875-11.816406zm-41.984375-15.71875 37.015625 121.40625 11.199219 36.734374h-79.957031l-19.28125-158.140624zm0 0"/><path d="m68.53125 408.5625c10.191406.003906 18.457031-8.253906 18.457031-18.445312.003907-10.191407-8.253906-18.453126-18.445312-18.457032-10.191407 0-18.453125 8.261719-18.453125 18.449219.011718 10.183594 8.257812 18.433594 18.441406 18.453125zm0-24.902344c3.5625-.003906 6.457031 2.878906 6.457031 6.445313.003907 3.5625-2.882812 6.453125-6.445312 6.457031-3.5625 0-6.453125-2.886719-6.453125-6.453125.003906-3.554687 2.882812-6.4375 6.441406-6.449219zm0 0"/><path d="m207.820312 179.152344c0 18.734375 17.785157 33.980468 39.648438 33.980468s39.640625-15.246093 39.640625-33.980468v-103.777344l74.972656 14.074219c1.757813.328125 3.566407-.140625 4.941407-1.28125 1.371093-1.140625 2.167968-2.835938 2.167968-4.621094v-61.945313c0-2.886718-2.054687-5.367187-4.894531-5.902343l-82.078125-15.40625c-1.757812-.3320315-3.566406.136719-4.941406 1.277343-1.375 1.140626-2.167969 2.835938-2.167969 4.621094v148.628906c-7.804687-6.347656-17.582031-9.761718-27.640625-9.660156-21.863281 0-39.648438 15.25-39.648438 33.992188zm79.289063-165.730469 70.082031 13.160156v49.738281l-70.082031-13.15625zm-12 165.730469c0 12.117187-12.398437 21.980468-27.640625 21.980468-15.238281 0-27.648438-9.863281-27.648438-21.980468 0-12.121094 12.398438-21.992188 27.648438-21.992188s27.640625 9.867188 27.640625 21.992188zm0 0"/><path d="m163.191406 31.371094h72.640625c3.3125 0 6-2.6875 6-6s-2.6875-6-6-6h-72.640625c-3.316406 0-6 2.6875-6 6s2.683594 6 6 6zm0 0"/><path d="m163.191406 69.109375h72.640625c3.3125 0 6-2.683594 6-6 0-3.3125-2.6875-6-6-6h-72.640625c-3.316406 0-6 2.6875-6 6 0 3.316406 2.683594 6 6 6zm0 0"/><path d="m163.191406 106.839844h72.640625c3.3125 0 6-2.683594 6-6 0-3.3125-2.6875-6-6-6h-72.640625c-3.316406 0-6 2.6875-6 6 0 3.316406 2.683594 6 6 6zm0 0"/></g></svg>