<svg height="337pt" viewBox="-17 0 337 337.43701" width="337pt" xmlns="http://www.w3.org/2000/svg"><g fill="#f8ec7d"><path d="m296.148438 279.148438c.285156 2.082031.429687 4.183593.429687 6.289062-.007813 24.78125-19.65625 45.101562-44.421875 45.941406-24.769531.839844-45.75-18.097656-47.441406-42.820312-1.6875-24.726563 16.519531-46.34375 41.171875-48.878906 24.652343-2.539063 46.878906 14.917968 50.261719 39.46875zm0 0"/><path d="m296.148438 25.996094v59.953125l-197.929688 40.089843v-68.050781c.003906-9.515625 6.707031-17.710937 16.027344-19.601562l157.929687-31.988281c5.882813-1.191407 11.988281.320312 16.632813 4.117187 4.644531 3.800781 7.339844 9.480469 7.339844 15.480469zm0 0"/><path d="m98.21875 227.199219c0 25.402343-20.597656 46-46 46-25.40625 0-46-20.597657-46-46 0-25.40625 20.59375-46 46-46 25.402344 0 46 20.59375 46 46zm0 0"/></g><path d="m52.21875 279.199219c28.703125-.035157 51.964844-23.296875 52-52v-96.253907l185.929688-37.660156v158.5c-16.339844-19.148437-44.054688-23.824218-65.769532-11.09375-21.71875 12.726563-31.179687 39.191406-22.460937 62.804688 8.722656 23.609375 33.117187 37.570312 57.894531 33.125 24.773438-4.445313 42.796875-26.015625 42.765625-51.183594-.003906-2.21875-.148437-4.4375-.429687-6.636719v-252.804687c0-7.796875-3.503907-15.1875-9.542969-20.125-6.039063-4.9375-13.972657-6.902344-21.617188-5.355469l-157.933593 31.992187c-12.105469 2.484376-20.804688 13.121094-20.835938 25.480469v136.023438c-15.410156-18.570313-41.570312-24.097657-63.175781-13.347657-21.601563 10.753907-32.96875 34.957032-27.445313 58.445313 5.527344 23.492187 26.488282 40.09375 50.621094 40.089844zm198.359375 46.238281c-21.335937.003906-38.917969-16.742188-39.957031-38.050781-1.039063-21.308594 14.828125-39.683594 36.0625-41.761719 21.234375-2.074219 40.359375 12.882812 43.464844 33.992188v4.980468c.003906.730469.136718 1.453125.398437 2.132813-.714844 21.5625-18.390625 38.683593-39.96875 38.707031zm-135.140625-281.171875 157.933594-31.988281c4.113281-.832032 8.386718.226562 11.636718 2.882812 3.253907 2.660156 5.140626 6.636719 5.140626 10.835938v55.046875l-185.929688 37.65625v-60.710938c.019531-6.65625 4.703125-12.382812 11.21875-13.722656zm-63.21875 142.933594c22.089844 0 40 17.90625 40 40 0 22.089843-17.910156 40-40 40-22.09375 0-40-17.910157-40-40 .023438-22.082031 17.917969-39.976563 40-40zm0 0" fill="#63316d"/></svg>