<svg height="472pt" viewBox="-46 0 472 472.175" width="472pt" xmlns="http://www.w3.org/2000/svg"><path d="m313.289062 154.53125c0-8.890625-8.660156-16.089844-19.339843-16.089844-10.683594 0-19.339844 7.199219-19.339844 16.089844s8.65625 16.078125 19.339844 16.078125c10.679687 0 19.339843-7.199219 19.339843-16.078125zm-81.332031 34.699219c0-8.890625-8.648437-16.089844-19.328125-16.089844-10.679687 0-19.339844 7.199219-19.339844 16.089844s8.660157 16.078125 19.339844 16.078125c10.679688 0 19.328125-7.199219 19.328125-16.078125zm0-71.210938 81.332031-20.058593v-31.8125l-81.332031 20.0625zm141.332031 9.890625c0 65.339844-50.582031 118.648438-114.121093 121.761719l-46.96875 63.417969 2.789062-69.609375c-47.5-16.230469-81.699219-61.839844-81.699219-115.570313 0-67.320312 53.71875-121.910156 120-121.910156 66.277344 0 120 54.589844 120 121.910156zm0 0" fill="#f8ec7d"/><path d="m327.96875 399.398438c8.660156 8.582031 8.660156 17.410156.078125 26.332031-.070313 0-.078125.058593-.03125.03125-2.027344 2.179687-4.089844 4.226562-6.21875 6.328125l-71.859375-71.871094-.21875-.21875 6.929688-6.929688c2.859374-2.859374 7.410156-6.308593 12.699218-6.308593 5.21875 0 9.511719 3.277343 12.109375 6.136719.0625.054687.117188.109374.171875.171874zm0 0" fill="#6fe3ff"/><path d="m249.9375 360.21875 71.859375 71.871094c-1.300781 1.269531-2.640625 2.558594-4.007813 3.898437-5.703124 5.320313-11.121093 10.933594-16.230468 16.820313-8.492188 9.082031-18.5 13.371094-31.621094 13.371094-1.261719 0-2.601562 0-3.871094-.089844-24.96875-1.589844-48.179687-11.351563-65.589844-19.667969-47.820312-23.210937-90.136718-56.355469-124.128906-97.222656-28.679687-34.570313-47.851562-66.519531-60.550781-100.839844-7.820313-20.9375-10.679687-37.25-9.417969-52.640625.660156-9.46875 4.792969-18.363281 11.597656-24.980469l21.242188-21.226562 71.898438 71.898437c-.101563.101563-.191407.199219-.289063.289063-7.070313 7.242187-13.789063 13.972656-21.109375 20.519531-.171875.171875-.339844.261719-.421875.429688-7.230469 7.230468-5.890625 14.292968-4.371094 19.089843.082031.25.160157.5.25.75 5.972657 14.472657 14.382813 28.089844 27.160157 44.320313l.089843.089844c23.210938 28.589843 47.683594 50.882812 74.683594 67.953124 3.347656 2.050782 6.796875 3.929688 10.339844 5.628907 3.027343 1.519531 5.886719 2.949219 8.328125 4.460937.332031.167969.671875.417969 1 .589844 2.570312 1.351562 5.425781 2.070312 8.332031 2.097656 6.976563 0 11.347656-4.367187 12.777344-5.800781l21.832031-21.828125zm0 0" fill="#e48e66"/><g fill="#6fe3ff"><path d="m313.289062 66.148438v31.8125l-81.332031 20.058593v-31.808593zm0 0"/><path d="m293.949219 138.441406c10.679687 0 19.339843 7.199219 19.339843 16.089844s-8.660156 16.078125-19.339843 16.078125c-10.683594 0-19.339844-7.199219-19.339844-16.078125 0-8.882812 8.65625-16.089844 19.339844-16.089844zm0 0"/><path d="m212.628906 173.140625c10.679688 0 19.328125 7.199219 19.328125 16.089844s-8.648437 16.078125-19.328125 16.078125c-10.679687 0-19.339844-7.199219-19.339844-16.078125 0-8.878907 8.660157-16.089844 19.339844-16.089844zm0 0"/><path d="m118.058594 188.398438c8.917968 8.921874 8.917968 17.160156 0 26.070312-2.339844 2.339844-4.601563 4.691406-6.941406 6.941406l-71.898438-71.898437 7.4375-7.453125c4.121094-3.859375 8.5-5.96875 12.78125-5.96875 5.300781 0 9.589844 3.199218 12.28125 5.890625.089844.078125.167969.167969.257812.25 5.132813 4.800781 10 9.757812 15.132813 15.058593 2.609375 2.691407 5.296875 5.382813 7.988281 8.152344zm0 0"/></g><path d="m286.003906 348.960938c-.101562-.117188-.210937-.230469-.328125-.335938-2.832031-3.046875-8.546875-7.863281-16.328125-7.863281-5.804687 0-11.664062 2.789062-16.941406 8.066406l-28.761719 28.761719c-1.105469 1.105468-4.042969 4.042968-8.535156 4.042968-1.929687-.027343-3.824219-.511718-5.527344-1.40625l-.113281-.070312c-.226562-.140625-.457031-.28125-.679688-.410156-2.585937-1.585938-5.453124-3.023438-8.484374-4.542969l-.175782-.089844c-3.359375-1.609375-6.636718-3.390625-9.816406-5.332031-26.421875-16.703125-50.371094-38.507812-73.226562-66.660156-.066407-.089844-.140626-.171875-.21875-.257813-12.386719-15.757812-20.445313-28.890625-26.082032-42.515625-.050781-.140625-.09375-.277344-.136718-.417968-1.507813-4.753907-1.546876-8.597657 2.890624-13.035157.085938-.085937.167969-.171875.25-.261719v-.007812c7.113282-6.367188 13.644532-12.867188 21.246094-20.648438.09375-.089843.191406-.1875.300782-.300781 1.589843-1.53125 3.148437-3.109375 4.65625-4.636719.761718-.773437 1.53125-1.550781 2.304687-2.324218 5.6875-5.679688 8.449219-11.332032 8.449219-17.277344s-2.761719-11.597656-8.445313-17.28125l-22.902343-22.898438c-1.347657-1.390624-2.691407-2.757812-4.03125-4.113281-1.332032-1.351562-2.652344-2.699219-3.949219-4.03125-4.535157-4.679687-9.832031-10.109375-15.34375-15.265625l-.003907-.007812c-.0625-.0625-.128906-.125-.191406-.1875-4.984375-4.949219-10.667968-7.566406-16.441406-7.566406-5.746094 0-11.582031 2.625-16.882812 7.59375-.050782.042968-.101563.089843-.144532.136718l-28.675781 28.679688c-7.824219 7.613281-12.574219 17.84375-13.335937 28.734375-1.351563 16.472656 1.667968 33.507812 9.773437 55.210937 12.9375 34.960938 32.5 67.558594 61.578125 102.613282 34.535156 41.527343 77.539062 75.203124 126.136719 98.777343 17.902343 8.558594 41.785156 18.589844 67.753906 20.242188 1.480469.101562 2.976563.101562 4.292969.101562 14.617187 0 26.394531-4.996093 36-15.273437.066406-.066406.128906-.140625.1875-.210938 5-5.742187 10.296875-11.222656 15.867187-16.414062.738281-.722656 1.46875-1.433594 2.1875-2.128906l1.835938-1.785157c2.035156-2 4.199219-4.152343 6.34375-6.453125l.019531-.019531c10.820312-11.25 10.753906-23.917969-.164062-34.734375zm-226.566406-206.871094c3.226562 0 6.152344 2.246094 8.039062 4.132812.046876.050782.097657.101563.148438.140625.089844.09375.1875.1875.28125.277344 4.769531 4.460937 9.402344 9.152344 14.894531 14.828125 1.324219 1.363281 2.664063 2.730469 4.023438 4.101562 1.316406 1.335938 2.640625 2.683594 4.03125 4.109376l22.960937 22.960937c3.269532 3.273437 4.929688 6.234375 4.929688 8.800781s-1.65625 5.519532-4.929688 8.789063c-.796875.792969-1.582031 1.585937-2.363281 2.382812l-.324219.324219-63.429687-63.433594 3.128906-3.132812c3.015625-2.800782 5.988281-4.28125 8.609375-4.28125zm237.648438 306.722656c-7.398438 7.859375-15.773438 11.367188-27.148438 11.367188-1.175781 0-2.386719 0-3.488281-.078126-23.957031-1.523437-46.457031-11.003906-63.355469-19.082031-47.050781-22.832031-88.6875-55.441406-122.128906-95.652343-28.167969-33.953126-47.089844-65.4375-59.546875-99.105469-7.464844-19.988281-10.257813-35.421875-9.0625-50.03125.527343-8.0625 4.042969-15.640625 9.863281-21.246094l16.992188-16.996094 63.457031 63.457031c-5.902344 5.96875-11.253907 11.207032-16.953125 16.300782l-.074219.070312c-.339844.28125-.648437.59375-.929687.9375-10.066407 10.382813-6.636719 21.210938-5.492188 24.832032.101562.3125.199219.625.3125.9375.03125.082031.066406.167968.101562.25 6.109376 14.8125 14.742188 28.917968 27.992188 45.746093.097656.128907.207031.253907.320312.371094 23.636719 29.078125 48.484376 51.660156 75.953126 69.023437 3.515624 2.160157 7.140624 4.136719 10.859374 5.925782l.167969.082031c2.839844 1.429687 5.527344 2.773437 7.699219 4.117187.109375.066407.222656.132813.335938.191407l.132812.085937c.3125.195313.625.378906 1 .578125 3.40625 1.769531 7.179688 2.707031 11.015625 2.734375 6.277344 0 12.007813-2.542968 17.023437-7.558594l17.585938-17.582031 63.53125 63.542969c-5.671875 5.3125-11.066406 10.914062-16.164062 16.78125zm26.671874-27.273438c-.042968.042969-.085937.085938-.125.132813-.605468.652344-1.222656 1.292969-1.835937 1.925781l-63.589844-63.601562 2.6875-2.6875c1.699219-1.699219 5.0625-4.550782 8.457031-4.550782 3.5 0 6.53125 2.921876 7.671876 4.175782.074218.082031.164062.171875.25.257812.039062.039063.078124.082032.117187.121094l46.359375 46.347656c6.324219 6.273438 6.328125 11.285156.003906 17.878906zm0 0" fill="#63316d"/><path d="m253.289062 0c-69.476562 0-126 57.378906-126 127.910156 0 53.46875 32.578126 101.011719 81.527344 119.71875l-2.613281 65.222656c-.105469 2.628907 1.515625 5.023438 4 5.898438s5.25.027344 6.816406-2.089844l45.300781-61.171875c65.824219-4.714843 116.96875-60.199219 116.96875-127.578125 0-70.53125-56.523437-127.910156-126-127.910156zm5.585938 243.675781c-1.796875.089844-3.460938.976563-4.53125 2.421875l-35.371094 47.761719 2.015625-50.140625c.105469-2.652344-1.542969-5.058594-4.054687-5.917969-46.445313-15.867187-77.644532-60.027343-77.644532-109.890625 0-63.914062 51.136719-115.910156 114-115.910156 62.859376 0 114 52 114 115.910156 0 61.941406-47.621093 112.789063-108.414062 115.765625zm0 0" fill="#63316d"/><path d="m316.988281 61.425781c-1.453125-1.136719-3.347656-1.542969-5.136719-1.101562l-81.332031 20.066406c-2.679687.660156-4.5625 3.0625-4.5625 5.824219v84.246094c-4.097656-2.195313-8.679687-3.335938-13.328125-3.316407-13.972656 0-25.339844 9.910157-25.339844 22.089844s11.367188 22.082031 25.339844 22.082031c13.96875 0 25.328125-9.90625 25.328125-22.082031v-66.515625l69.332031-17.101562v30.140624c-4.101562-2.199218-8.6875-3.339843-13.339843-3.320312-13.976563 0-25.339844 9.910156-25.339844 22.089844 0 12.183594 11.363281 22.082031 25.339844 22.082031 13.972656 0 25.339843-9.90625 25.339843-22.082031v-88.378906c0-1.84375-.847656-3.585938-2.300781-4.722657zm-104.359375 137.882813c-7.230468 0-13.339844-4.613282-13.339844-10.078125 0-5.464844 6.109376-10.089844 13.339844-10.089844 7.230469 0 13.328125 4.621094 13.328125 10.089844s-6.101562 10.078125-13.328125 10.078125zm25.328125-88.949219v-19.449219l69.332031-17.101562v19.453125zm55.992188 54.25c-7.234375 0-13.339844-4.617187-13.339844-10.078125 0-5.464844 6.105469-10.089844 13.339844-10.089844 7.230469 0 13.339843 4.621094 13.339843 10.089844s-6.109374 10.078125-13.339843 10.078125zm0 0" fill="#63316d"/></svg>