<svg height="492pt" viewBox="0 -89 492 491" width="492pt" xmlns="http://www.w3.org/2000/svg"><path d="m213.519531 211.960938h272.480469v72c0 13.253906-10.746094 24-24 24h-432c-13.253906 0-24-10.746094-24-24v-72zm0 0" fill="#f8ec7d"/><path d="m486 211.960938h-480v-136.902344c0-37.863282 30.695312-68.558594 68.558594-68.558594h182.882812c37.863282 0 68.558594 30.695312 68.558594 68.558594 0 37.867187 30.695312 68.5625 68.558594 68.5625h22.882812c37.777344-.003906 68.4375 30.558594 68.558594 68.339844zm0 0" fill="#cc7350"/><path d="m417.441406 137.621094h-22.882812c-34.550782 0-62.558594-28.011719-62.558594-62.5625-.046875-41.15625-33.402344-74.511719-74.558594-74.558594h-182.882812c-41.15625.046875-74.511719 33.402344-74.558594 74.558594v208.902344c.0195312 16.558593 13.4375 29.980468 30 30h432c16.5625-.019532 29.980469-13.441407 30-30v-72.019532c-.203125-41.054687-33.503906-74.25-74.558594-74.320312zm-342.882812-125.121094h182.882812c34.535156.039062 62.519532 28.023438 62.558594 62.558594 0 41.179687 33.382812 74.5625 74.558594 74.5625h22.882812c32.117188.0625 58.992188 24.386718 62.242188 56.339844h-467.683594v-130.902344c.039062-34.535156 28.023438-62.519532 62.558594-62.558594zm387.441406 289.460938h-432c-9.9375-.011719-17.988281-8.066407-18-18v-66h58.550781v42c0 3.3125 2.683594 6 6 6 3.3125 0 6-2.6875 6-6v-42h12v42c0 3.3125 2.683594 6 6 6 3.3125 0 6-2.6875 6-6v-42h52.96875v42c0 3.3125 2.6875 6 6 6s6-2.6875 6-6v-42h12v42c0 3.3125 2.6875 6 6 6s6-2.6875 6-6v-42h12v42c0 3.3125 2.6875 6 6 6s6-2.6875 6-6v-42h52.960938v42c0 3.3125 2.6875 6 6 6s6-2.6875 6-6v-42h12v42c0 3.3125 2.6875 6 6 6s6-2.6875 6-6v-42h52.96875v42c0 3.3125 2.6875 6 6 6 3.316406 0 6-2.6875 6-6v-42h12v42c0 3.3125 2.6875 6 6 6 3.316406 0 6-2.6875 6-6v-42h12v42c0 3.3125 2.6875 6 6 6 3.316406 0 6-2.6875 6-6v-42h58.550781v66c-.011719 9.933593-8.0625 17.988281-18 18zm0 0" fill="#63316d"/></svg>