<svg height="432pt" viewBox="0 -80 432 432" width="432pt" xmlns="http://www.w3.org/2000/svg"><path d="m70.550781 176h355.449219v90h-420v-90zm0 0" fill="#cc7350"/><path d="m426 26v150h-420v-150c-.003906-11.046875 8.953125-20.003906 20-20h380c11.046875-.003906 20.003906 8.953125 20 20zm-39.851562 103.351562c0-8.285156-6.714844-15-15-15-8.28125 0-15 6.714844-15 15 0 8.28125 6.71875 15 15 15 8.285156 0 15-6.71875 15-15zm-57.976563 0c0-8.285156-6.71875-15-15-15-8.285156 0-15 6.714844-15 15 0 8.28125 6.714844 15 15 15 8.28125-.003906 14.996094-6.71875 15-15zm-57.992187 0c0-8.285156-6.714844-15-15-15-8.285157 0-15 6.714844-15 15 0 8.28125 6.714843 15 15 15 8.285156 0 15-6.71875 15-15zm-90.179688 15v-101h-134.148438v101zm0 0" fill="#f8ec7d"/><path d="m386.148438 129.351562c0 8.28125-6.714844 15-15 15-8.28125 0-15-6.71875-15-15 0-8.285156 6.71875-15 15-15 8.285156 0 15 6.714844 15 15zm0 0" fill="#cc7350"/><path d="m328.171875 129.351562c0 8.28125-6.71875 15-15 15-8.285156 0-15-6.71875-15-15 0-8.285156 6.714844-15 15-15 8.28125 0 15 6.714844 15 15zm0 0" fill="#cc7350"/><path d="m270.179688 129.351562c0 8.28125-6.714844 15-15 15-8.285157 0-15-6.71875-15-15 0-8.285156 6.714843-15 15-15 8.285156 0 15 6.714844 15 15zm0 0" fill="#cc7350"/><path d="m45.851562 43.351562h134.148438v101h-134.148438zm0 0" fill="#6fe3ff"/><g fill="#63316d"><path d="m406 0h-380c-14.351562.015625-25.984375 11.648438-26 26v240c0 3.3125 2.6875 6 6 6h420c3.3125 0 6-2.6875 6-6v-240c-.015625-14.351562-11.648438-25.984375-26-26zm-380 12h380c7.730469.007812 13.992188 6.269531 14 14v144h-408v-144c.007812-7.730469 6.269531-13.992188 14-14zm-14 248v-78h28.550781v42c0 3.3125 2.683594 6 6 6 3.3125 0 6-2.6875 6-6v-42h12v42c0 3.3125 2.683594 6 6 6 3.3125 0 6-2.6875 6-6v-42h52.96875v42c0 3.3125 2.6875 6 6 6s6-2.6875 6-6v-42h12v42c0 3.3125 2.6875 6 6 6s6-2.6875 6-6v-42h12v42c0 3.3125 2.6875 6 6 6s6-2.6875 6-6v-42h52.960938v42c0 3.3125 2.6875 6 6 6s6-2.6875 6-6v-42h12v42c0 3.3125 2.6875 6 6 6s6-2.6875 6-6v-42h52.96875v42c0 3.3125 2.6875 6 6 6 3.316406 0 6-2.6875 6-6v-42h12v42c0 3.3125 2.6875 6 6 6 3.316406 0 6-2.6875 6-6v-42h12v42c0 3.3125 2.6875 6 6 6 3.316406 0 6-2.6875 6-6v-42h28.550781v78zm0 0"/><path d="m371.148438 150.351562c11.597656 0 21-9.402343 21-21 0-11.597656-9.402344-21-21-21-11.597657 0-21 9.402344-21 21 .015624 11.589844 9.410156 20.984376 21 21zm0-30c4.972656 0 9 4.027344 9 9 0 4.96875-4.027344 9-9 9-4.96875 0-9-4.03125-9-9 .007812-4.96875 4.035156-8.996093 9-9zm0 0"/><path d="m313.171875 150.351562c11.597656 0 21-9.402343 21-21 0-11.597656-9.402344-21-21-21-11.601563 0-21 9.402344-21 21 .011719 11.589844 9.40625 20.984376 21 21zm0-30c4.96875 0 9 4.027344 9 9 0 4.96875-4.03125 9-9 9-4.972656 0-9-4.03125-9-9 .003906-4.96875 4.03125-8.996093 9-9zm0 0"/><path d="m255.179688 150.351562c11.597656 0 21-9.402343 21-21 0-11.597656-9.402344-21-21-21-11.597657 0-21 9.402344-21 21 .011718 11.589844 9.40625 20.984376 21 21zm0-30c4.972656 0 9 4.027344 9 9 0 4.96875-4.027344 9-9 9-4.96875 0-9-4.03125-9-9 .003906-4.96875 4.03125-8.996093 9-9zm0 0"/><path d="m45.851562 150.351562h134.148438c3.3125 0 6-2.6875 6-6v-101c0-3.316406-2.6875-6-6-6h-134.148438c-3.316406 0-6 2.683594-6 6v101c0 3.3125 2.683594 6 6 6zm6-101h122.148438v89h-122.148438zm0 0"/><path d="m131.261719 83.519531h-10c-3.316407 0-6 2.6875-6 6s2.683593 6 6 6h10c3.3125 0 6-2.6875 6-6s-2.6875-6-6-6zm0 0"/><path d="m131.261719 100.179688h-10c-3.316407 0-6 2.6875-6 6s2.683593 6 6 6h10c3.3125 0 6-2.6875 6-6s-2.6875-6-6-6zm0 0"/><path d="m131.261719 116.851562h-10c-3.316407 0-6 2.683594-6 6 0 3.3125 2.683593 6 6 6h10c3.3125 0 6-2.6875 6-6 0-3.316406-2.6875-6-6-6zm0 0"/><path d="m157.921875 100.179688h-10c-3.316406 0-6 2.6875-6 6s2.683594 6 6 6h10c3.3125 0 6-2.6875 6-6s-2.6875-6-6-6zm0 0"/><path d="m157.921875 116.851562h-10c-3.316406 0-6 2.683594-6 6 0 3.3125 2.683594 6 6 6h10c3.3125 0 6-2.6875 6-6 0-3.316406-2.6875-6-6-6zm0 0"/><path d="m77.921875 83.519531h-10c-3.316406 0-6 2.6875-6 6s2.683594 6 6 6h10c3.3125 0 6-2.6875 6-6s-2.6875-6-6-6zm0 0"/><path d="m77.921875 100.179688h-10c-3.316406 0-6 2.6875-6 6s2.683594 6 6 6h10c3.3125 0 6-2.6875 6-6s-2.6875-6-6-6zm0 0"/><path d="m77.921875 116.851562h-10c-3.316406 0-6 2.683594-6 6 0 3.3125 2.683594 6 6 6h10c3.3125 0 6-2.6875 6-6 0-3.316406-2.6875-6-6-6zm0 0"/><path d="m77.921875 66.851562h-10c-3.316406 0-6 2.683594-6 6 0 3.3125 2.683594 6 6 6h10c3.3125 0 6-2.6875 6-6 0-3.316406-2.6875-6-6-6zm0 0"/><path d="m104.589844 100.179688h-10c-3.3125 0-6 2.6875-6 6s2.6875 6 6 6h10c3.3125 0 6-2.6875 6-6s-2.6875-6-6-6zm0 0"/><path d="m104.589844 116.851562h-10c-3.3125 0-6 2.683594-6 6 0 3.3125 2.6875 6 6 6h10c3.3125 0 6-2.6875 6-6 0-3.316406-2.6875-6-6-6zm0 0"/></g></svg>