<svg height="479pt" viewBox="-3 0 479 479.26" width="479pt" xmlns="http://www.w3.org/2000/svg"><path d="m431.480469 247.160156c7.964843-.003906 14.425781 6.449219 14.429687 14.414063.003906 7.964843-6.453125 14.425781-14.417968 14.425781-7.964844 0-14.421876-6.453125-14.421876-14.421875 0-7.957031 6.449219-14.414063 14.410157-14.417969zm0 0" fill="#6fe3ff"/><path d="m431.480469 374.769531c7.964843-.003906 14.425781 6.449219 14.429687 14.414063s-6.453125 14.425781-14.417968 14.425781c-7.964844.003906-14.421876-6.453125-14.421876-14.417969 0-7.960937 6.449219-14.417968 14.410157-14.421875zm0 0" fill="#6fe3ff"/><path d="m407.449219 73.28125v25.480469l-65.140625 16.066406v-25.476563zm0 0" fill="#6fe3ff"/><path d="m391.960938 131.191406c8.558593 0 15.488281 5.769532 15.488281 12.878906 0 7.109376-6.929688 12.890626-15.488281 12.890626-8.5625 0-15.492188-5.769532-15.492188-12.890626 0-7.121093 6.941406-12.878906 15.492188-12.878906zm0 0" fill="#6fe3ff"/><path d="m352.179688 261.640625v200.089844c-.003907 6.371093-5.167969 11.53125-11.539063 11.53125h-322.980469c-6.367187 0-11.53125-5.164063-11.53125-11.53125v-200.089844c0-6.371094 5.164063-11.53125 11.53125-11.53125h322.980469c6.371094 0 11.535156 5.160156 11.539063 11.53125zm-37.710938 113.128906c0-30.628906-24.828125-55.460937-55.457031-55.460937-30.632813 0-55.460938 24.832031-55.460938 55.460937 0 30.628907 24.828125 55.460938 55.460938 55.460938 30.628906.003906 55.464843-24.828125 55.457031-55.460938zm-159.71875 0c-.003906-30.625-24.832031-55.453125-55.460938-55.449219-30.625.003907-55.453124 24.832032-55.449218 55.460938.003906 30.625 24.832031 55.453125 55.460937 55.449219 30.628907 0 55.457031-24.832031 55.449219-55.460938zm0 0" fill="#f8ec7d"/><path d="m326.820312 158.980469c8.550782 0 15.488282 5.769531 15.488282 12.890625 0 7.117187-6.9375 12.878906-15.488282 12.878906-8.550781 0-15.492187-5.769531-15.492187-12.878906s6.933594-12.890625 15.492187-12.890625zm0 0" fill="#6fe3ff"/><path d="m259.011719 319.320312c30.625.003907 55.449219 24.832032 55.449219 55.460938-.003907 30.625-24.835938 55.453125-55.460938 55.449219-30.625-.003907-55.453125-24.832031-55.449219-55.460938 0-30.628906 24.832031-55.453125 55.460938-55.449219zm20.847656 55.449219c0-11.515625-9.335937-20.847656-20.847656-20.847656-11.515625 0-20.851563 9.332031-20.851563 20.847656s9.335938 20.851563 20.851563 20.851563c11.511719 0 20.847656-9.335938 20.847656-20.851563zm0 0" fill="#e48e66"/><path d="m279.859375 374.769531c0 11.515625-9.335937 20.851563-20.847656 20.851563-11.515625 0-20.851563-9.335938-20.851563-20.851563s9.335938-20.847656 20.851563-20.847656c11.511719 0 20.847656 9.332031 20.847656 20.847656zm0 0" fill="#6fe3ff"/><path d="m243.679688 60.089844c0 7.964844-6.457032 14.421875-14.417969 14.421875-7.964844 0-14.421875-6.457031-14.421875-14.421875s6.457031-14.417969 14.421875-14.417969c7.960937 0 14.417969 6.453125 14.417969 14.417969zm0 0" fill="#6fe3ff"/><path d="m99.300781 319.320312c30.625.003907 55.453125 24.832032 55.449219 55.460938-.003906 30.625-24.832031 55.453125-55.460938 55.449219-30.625-.003907-55.453124-24.832031-55.449218-55.460938 0-30.628906 24.832031-55.457031 55.460937-55.449219zm20.847657 55.449219c.003906-11.519531-9.332032-20.859375-20.851563-20.859375s-20.859375 9.335938-20.855469 20.855469c0 11.519531 9.339844 20.855469 20.859375 20.855469 11.511719-.003906 20.84375-9.335938 20.847657-20.851563zm0 0" fill="#e48e66"/><path d="m126.710938 114.601562c7.957031 0 14.410156 6.457032 14.410156 14.414063-.003906 7.960937-6.453125 14.414063-14.414063 14.414063-7.960937 0-14.414062-6.449219-14.417969-14.410157 0-3.824219 1.515626-7.492187 4.222657-10.199219 2.703125-2.703124 6.375-4.222656 10.199219-4.21875zm0 0" fill="#6fe3ff"/><path d="m99.300781 353.921875c11.511719.003906 20.84375 9.339844 20.839844 20.855469-.003906 11.511718-9.339844 20.84375-20.855469 20.84375-11.511718-.003906-20.84375-9.335938-20.84375-20.851563.003906-11.515625 9.339844-20.851562 20.859375-20.847656zm0 0" fill="#6fe3ff"/><path d="m107.488281 17.550781v20.378907l-52.117187 12.851562v-20.382812zm0 0" fill="#6fe3ff"/><path d="m95.101562 63.871094c6.839844 0 12.386719 4.617187 12.386719 10.308594 0 5.691406-5.546875 10.308593-12.386719 10.308593-6.839843 0-12.402343-4.617187-12.402343-10.308593 0-5.691407 5.550781-10.308594 12.402343-10.308594zm0 0" fill="#6fe3ff"/><path d="m42.980469 86.109375c6.847656 0 12.390625 4.609375 12.390625 10.300781s-5.542969 10.308594-12.390625 10.308594c-6.851563 0-12.390625-4.609375-12.390625-10.308594 0-5.699218 5.550781-10.300781 12.390625-10.300781zm0 0" fill="#6fe3ff"/><g fill="#63316d"><path d="m358.179688 461.730469v-200.089844c-.011719-9.679687-7.859376-17.523437-17.539063-17.53125h-66.761719v-47.238281c0-3.316406-2.683594-6-6-6h-168.578125c-3.316406 0-6 2.683594-6 6v47.238281h-75.640625c-9.675781.011719-17.519531 7.855469-17.53125 17.53125v200.089844c.011719 9.675781 7.855469 17.519531 17.53125 17.53125h322.980469c9.679687-.011719 17.527344-7.851563 17.539063-17.53125zm-252.878907-258.859375h156.578125v41.238281h-156.578125zm-93.171875 258.859375v-200.089844c.003906-3.054687 2.476563-5.527344 5.53125-5.53125h322.980469c3.054687 0 5.535156 2.476563 5.539063 5.53125v200.089844c-.007813 3.054687-2.484376 5.527343-5.539063 5.53125h-322.980469c-3.054687-.003907-5.527344-2.480469-5.53125-5.53125zm0 0"/><path d="m99.300781 313.320312c-33.941406-.003906-61.460937 27.511719-61.460937 61.453126 0 33.941406 27.515625 61.457031 61.457031 61.457031s61.457031-27.519531 61.453125-61.460938c-.039062-33.921875-27.527344-61.410156-61.449219-61.449219zm0 110.910157c-27.3125.003906-49.457031-22.136719-49.460937-49.449219-.003906-27.316406 22.136718-49.457031 49.449218-49.460938 27.3125-.003906 49.457032 22.136719 49.460938 49.449219-.03125 27.300781-22.152344 49.425781-49.449219 49.460938zm0 0"/><path d="m99.300781 347.921875c-14.828125 0-26.851562 12.019531-26.851562 26.847656s12.023437 26.851563 26.851562 26.851563 26.847657-12.023438 26.847657-26.851563c-.019532-14.820312-12.027344-26.832031-26.847657-26.847656zm0 41.699219c-8.203125 0-14.851562-6.648438-14.851562-14.851563 0-8.199219 6.648437-14.847656 14.851562-14.847656 8.199219 0 14.847657 6.648437 14.847657 14.847656-.011719 8.195313-6.652344 14.839844-14.847657 14.851563zm0 0"/><path d="m259.011719 313.320312c-33.941407.003907-61.453125 27.519532-61.453125 61.460938.003906 33.9375 27.519531 61.453125 61.460937 61.449219 33.941407-.003907 61.453125-27.519531 61.449219-61.460938-.039062-33.925781-27.535156-61.414062-61.457031-61.449219zm0 110.910157c-27.3125-.003907-49.453125-22.144531-49.453125-49.457031.003906-27.3125 22.144531-49.453126 49.453125-49.453126 27.3125 0 49.457031 22.136719 49.457031 49.449219-.027344 27.304688-22.15625 49.429688-49.457031 49.460938zm0 0"/><path d="m259.011719 347.921875c-14.832031 0-26.851563 12.019531-26.851563 26.847656s12.019532 26.851563 26.851563 26.851563c14.828125 0 26.847656-12.023438 26.847656-26.851563-.015625-14.820312-12.027344-26.832031-26.847656-26.847656zm0 41.699219c-8.203125 0-14.851563-6.648438-14.851563-14.851563 0-8.199219 6.648438-14.847656 14.851563-14.847656 8.199219 0 14.847656 6.648437 14.847656 14.847656-.007813 8.199219-6.652344 14.839844-14.847656 14.851563zm0 0"/><path d="m134.339844 296.480469h89.621094c3.3125 0 6-2.6875 6-6s-2.6875-6-6-6h-89.621094c-3.3125 0-6 2.6875-6 6s2.6875 6 6 6zm0 0"/><path d="m336.308594 89.351562v65.597657c-2.992188-1.300781-6.222656-1.96875-9.488282-1.964844-11.847656 0-21.492187 8.472656-21.492187 18.886719 0 10.417968 9.644531 18.882812 21.492187 18.882812 11.601563 0 21.050782-8.117187 21.453126-18.222656.023437-.21875.035156-.4375.035156-.660156v-52.339844l53.140625-13.109375v20.734375c-2.992188-1.300781-6.222657-1.96875-9.488281-1.964844-11.851563 0-21.492188 8.46875-21.492188 18.878906 0 10.410157 9.640625 18.890626 21.492188 18.890626 11.597656 0 21.050781-8.121094 21.449218-18.230469.027344-.21875.039063-.441407.039063-.660157v-70.789062c0-1.84375-.847657-3.585938-2.300781-4.722656-1.449219-1.140625-3.34375-1.546875-5.136719-1.105469l-65.140625 16.078125c-2.675782.660156-4.558594 3.0625-4.5625 5.820312zm-9.488282 89.398438c-5.144531 0-9.492187-3.148438-9.492187-6.878906 0-3.730469 4.347656-6.890625 9.492187-6.890625 5.144532 0 9.488282 3.15625 9.488282 6.890625s-4.34375 6.878906-9.488282 6.878906zm65.140626-27.789062c-5.144532 0-9.492188-3.15625-9.492188-6.890626 0-3.734374 4.347656-6.878906 9.492188-6.878906 5.144531 0 9.488281 3.148438 9.488281 6.878906 0 3.730469-4.34375 6.890626-9.488281 6.890626zm9.488281-70.019532v13.117188l-53.140625 13.113281v-13.121094zm0 0"/><path d="m42.980469 112.71875c9.890625 0 17.960937-6.964844 18.351562-15.652344.027344-.21875.039063-.4375.039063-.65625v-40.929687l40.117187-9.890625v13.316406c-2.058593-.683594-4.214843-1.035156-6.386719-1.035156-10.148437 0-18.402343 7.316406-18.402343 16.308594 0 8.992187 8.253906 16.308593 18.402343 16.308593 9.886719 0 17.960938-6.964843 18.351563-15.652343.023437-.21875.035156-.4375.035156-.65625v-56.628907c0-1.84375-.847656-3.585937-2.296875-4.722656-1.453125-1.140625-3.347656-1.546875-5.136718-1.105469l-52.125 12.851563c-2.679688.660156-4.558594 3.066406-4.558594 5.824219v50.746093c-2.0625-.683593-4.21875-1.03125-6.390625-1.035156-10.140625 0-18.390625 7.3125-18.390625 16.300781 0 8.988282 8.25 16.308594 18.390625 16.308594zm52.121093-34.230469c-3.773437 0-6.402343-2.269531-6.402343-4.308593 0-2.039063 2.628906-4.308594 6.402343-4.308594 3.769532 0 6.386719 2.269531 6.386719 4.308594 0 2.039062-2.625 4.308593-6.386719 4.308593zm6.386719-53.277343v8.019531l-40.117187 9.890625v-8.019532zm-58.507812 66.898437c3.765625 0 6.390625 2.265625 6.390625 4.300781 0 2.03125-2.625 4.308594-6.390625 4.308594s-6.390625-2.273438-6.390625-4.308594c0-2.039062 2.625-4.300781 6.390625-4.300781zm0 0"/><path d="m249.679688 60.089844c0-11.277344-9.140626-20.417969-20.417969-20.417969-11.28125 0-20.421875 9.140625-20.421875 20.417969s9.140625 20.421875 20.421875 20.421875c11.269531-.015625 20.40625-9.148438 20.417969-20.421875zm-20.417969 8.421875c-4.652344 0-8.421875-3.769531-8.421875-8.421875 0-4.648438 3.769531-8.417969 8.421875-8.417969 4.648437 0 8.417969 3.769531 8.417969 8.417969-.003907 4.648437-3.773438 8.414062-8.417969 8.421875zm0 0"/><path d="m431.480469 368.769531c-11.277344 0-20.421875 9.144531-20.421875 20.421875s9.144531 20.417969 20.421875 20.417969c11.277343 0 20.417969-9.140625 20.417969-20.417969-.007813-11.273437-9.144532-20.410156-20.417969-20.421875zm0 28.839844c-4.652344 0-8.421875-3.769531-8.421875-8.417969 0-4.652344 3.769531-8.421875 8.421875-8.421875 4.648437 0 8.417969 3.769531 8.417969 8.421875 0 4.648438-3.769532 8.414063-8.417969 8.417969zm0 0"/><path d="m431.480469 241.160156c-11.277344 0-20.421875 9.140625-20.421875 20.417969 0 11.28125 9.144531 20.421875 20.421875 20.421875 11.277343 0 20.417969-9.140625 20.417969-20.421875-.007813-11.273437-9.144532-20.40625-20.417969-20.417969zm0 28.839844c-4.652344 0-8.421875-3.769531-8.421875-8.421875 0-4.648437 3.769531-8.417969 8.421875-8.417969 4.648437 0 8.417969 3.769532 8.417969 8.417969 0 4.652344-3.769532 8.417969-8.417969 8.421875zm0 0"/><path d="m106.289062 129.019531c0 11.277344 9.144532 20.421875 20.421876 20.421875 11.277343 0 20.417968-9.144531 20.417968-20.421875 0-11.277343-9.140625-20.417969-20.417968-20.417969-11.273438.007813-20.410157 9.144532-20.421876 20.417969zm28.839844 0c0 4.652344-3.769531 8.421875-8.417968 8.421875-4.652344 0-8.421876-3.769531-8.421876-8.421875 0-4.648437 3.769532-8.417969 8.421876-8.417969 4.648437 0 8.417968 3.769532 8.417968 8.417969zm0 0"/><path d="m419.941406 54.851562h5.539063v5.546876c0 3.316406 2.6875 6 6 6s6-2.683594 6-6v-5.546876h5.550781c3.3125 0 6-2.6875 6-6 0-3.316406-2.6875-6-6-6h-5.550781v-5.550781c0-3.316406-2.6875-6-6-6s-6 2.683594-6 6v5.550781h-5.539063c-3.316406 0-6 2.683594-6 6 0 3.3125 2.683594 6 6 6zm0 0"/><path d="m223.960938 146.558594c3.3125 0 6-2.683594 6-6v-5.539063h5.550781c3.3125 0 6-2.6875 6-6s-2.6875-6-6-6h-5.550781v-5.550781c0-3.3125-2.6875-6-6-6-3.316407 0-6 2.6875-6 6v5.550781h-5.550782c-3.3125 0-6 2.6875-6 6s2.6875 6 6 6h5.550782v5.539063c0 3.316406 2.683593 6 6 6zm0 0"/><path d="m415.058594 337.101562c3.316406 0 6-2.6875 6-6 0-3.316406-2.683594-6-6-6h-5.546875v-5.550781c0-3.316406-2.6875-6-6-6-3.316407 0-6 2.683594-6 6v5.550781h-5.550781c-3.316407 0-6 2.683594-6 6 0 3.3125 2.683593 6 6 6h5.550781v5.546876c0 3.316406 2.683593 6 6 6 3.3125 0 6-2.683594 6-6v-5.546876zm0 0"/><path d="m466.128906 190.871094h-5.550781v-5.550782c0-3.3125-2.683594-6-6-6-3.3125 0-6 2.6875-6 6v5.550782h-5.546875c-3.316406 0-6 2.683594-6 6 0 3.3125 2.683594 6 6 6h5.546875v5.550781c0 3.3125 2.6875 6 6 6 3.316406 0 6-2.6875 6-6v-5.550781h5.550781c3.316406 0 6-2.6875 6-6 0-3.316406-2.683594-6-6-6zm0 0"/><path d="m299.78125 35.089844c3.3125 0 6-2.6875 6-6v-5.539063h5.546875c3.316406 0 6-2.6875 6-6 0-3.316406-2.683594-6-6-6h-5.546875v-5.550781c0-3.3125-2.6875-6-6-6-3.316406 0-6 2.6875-6 6v5.550781h-5.550781c-3.3125 0-6 2.683594-6 6 0 3.3125 2.6875 6 6 6h5.550781v5.539063c0 3.3125 2.683594 6 6 6zm0 0"/></g></svg>