<svg height="406pt" viewBox="-7 0 406 406.14745" width="406pt" xmlns="http://www.w3.org/2000/svg"><path d="m386.074219 156.265625v223.882813c.003906 11.046874-8.953125 20.003906-20 20h-340c-11.046875.003906-20.003907-8.953126-20-20v-223.882813c-.003907-11.046875 8.953125-20 20-20h340c11.046875 0 20.003906 8.953125 20 20zm-42.21875 74.441406v-52.78125h-295.5625v52.78125zm0 86.058594c0-3.066406-.265625-6.125-.792969-9.148437-4.445312-25.230469-26.367188-43.628907-51.988281-43.628907-25.621094 0-47.542969 18.398438-51.992188 43.628907-1.179687 6.761718-1.035156 13.691406.421875 20.398437 5.742188 26.347656 30.417969 44.132813 57.226563 41.242187 26.808593-2.890624 47.128906-25.527343 47.125-52.492187zm-190 0c0-3.066406-.265625-6.125-.792969-9.148437-4.445312-25.230469-26.367188-43.628907-51.988281-43.628907-25.621094 0-47.542969 18.398438-51.992188 43.628907-1.179687 6.761718-1.035156 13.691406.421875 20.398437 5.742188 26.347656 30.417969 44.132813 57.226563 41.242187 26.808593-2.890624 47.128906-25.527343 47.125-52.492187zm0 0" fill="#e48e66"/><path d="m165.332031 177.925781h178.523438v52.78125h-295.5625v-52.78125zm0 0" fill="#f8ec7d"/><path d="m343.0625 307.617188c1.179688 6.761718 1.039062 13.691406-.417969 20.398437h-103.140625c-1.457031-6.707031-1.601562-13.636719-.421875-20.398437zm0 0" fill="#f8ec7d"/><path d="m343.0625 307.617188h-103.980469c1.277344-7.3125 4.09375-14.269532 8.261719-20.410157h87.460938c4.167968 6.140625 6.984374 13.097657 8.257812 20.410157zm0 0" fill="#6fe3ff"/><path d="m239.503906 328.015625h103.140625c-1.605469 7.402344-4.792969 14.367187-9.351562 20.410156h-84.4375c-4.558594-6.042969-7.75-13.007812-9.351563-20.410156zm0 0" fill="#6fe3ff"/><g fill="#f8ec7d"><path d="m334.804688 287.207031h-87.460938c9.816406-14.519531 26.203125-23.21875 43.730469-23.21875 17.527343 0 33.910156 8.699219 43.730469 23.21875zm0 0"/><path d="m248.855469 348.425781h84.4375c-9.964844 13.289063-25.609375 21.113281-42.21875 21.113281-16.613281 0-32.253907-7.824218-42.21875-21.113281zm0 0"/><path d="m210.515625 135.199219v1.066406h-42.222656v-22.179687h42.222656zm0 0"/><path d="m153.0625 307.617188c1.179688 6.761718 1.039062 13.691406-.417969 20.398437h-103.140625c-1.457031-6.707031-1.601562-13.636719-.421875-20.398437zm0 0"/></g><path d="m153.0625 307.617188h-103.980469c1.277344-7.3125 4.09375-14.269532 8.261719-20.410157h87.460938c4.167968 6.140625 6.984374 13.097657 8.257812 20.410157zm0 0" fill="#6fe3ff"/><path d="m49.503906 328.015625h103.140625c-1.605469 7.402344-4.792969 14.367187-9.351562 20.410156h-84.4375c-4.558594-6.042969-7.75-13.007812-9.351563-20.410156zm0 0" fill="#6fe3ff"/><path d="m144.804688 287.207031h-87.460938c9.816406-14.519531 26.203125-23.21875 43.730469-23.21875 17.527343 0 33.910156 8.699219 43.730469 23.21875zm0 0" fill="#f8ec7d"/><path d="m58.855469 348.425781h84.4375c-9.964844 13.289063-25.609375 21.113281-42.21875 21.113281-16.613281 0-32.253907-7.824218-42.21875-21.113281zm0 0" fill="#f8ec7d"/><path d="m26.074219 406.148438h340c14.351562-.015626 25.984375-11.648438 26-26v-223.882813c-.015625-14.351563-11.648438-25.980469-26-26h-149.558594v-16.179687c-.003906-2.542969-1.609375-4.808594-4.011719-5.652344l131.660156-71.085938c7.652344 7.890625 19.949219 8.933594 28.816407 2.4375 8.871093-6.492187 11.59375-18.527344 6.378906-28.207031-5.210937-9.675781-16.757813-14.027344-27.058594-10.199219-10.304687 3.832032-16.203125 14.671875-13.824219 25.402344l-150.589843 81.300781h-19.59375c-3.3125 0-6 2.6875-6 6v16.179688h-136.21875c-14.351563.015625-25.9843752 11.648437-26.0000002 26v223.886719c.015625 14.351562 11.6484372 25.984374 26.0000002 26zm333.710937-393.882813c4.804688.003906 8.90625 3.476563 9.695313 8.21875.789062 4.738281-1.964844 9.355469-6.511719 10.914063-4.546875 1.554687-9.554688-.402344-11.835938-4.632813-.777343-1.429687-1.183593-3.035156-1.179687-4.667969.007813-5.425781 4.402344-9.824218 9.832031-9.832031zm-185.492187 107.820313h30.222656v10.179687h-30.222656zm-162.21875 36.179687c.007812-7.726563 6.269531-13.988281 14-14h340c7.726562.011719 13.992187 6.273437 14 14v223.882813c-.007813 7.726562-6.273438 13.992187-14 14h-340c-7.730469-.007813-13.992188-6.273438-14-14zm0 0" fill="#63316d"/><path d="m48.292969 236.707031h295.5625c3.3125 0 6-2.6875 6-6v-52.78125c0-3.3125-2.6875-6-6-6h-295.5625c-3.3125 0-6 2.6875-6 6v52.78125c0 3.3125 2.6875 6 6 6zm6-52.78125h11.222656v26.722657c0 3.3125 2.683594 6 6 6 3.3125 0 6-2.6875 6-6v-26.722657h19.277344v15.113281c0 3.3125 2.6875 6 6 6 3.316406 0 6-2.6875 6-6v-15.113281h19.269531v26.722657c0 3.3125 2.6875 6 6 6 3.316406 0 6-2.6875 6-6v-26.722657h19.269531v15.113281c0 3.3125 2.6875 6 6 6 3.316407 0 6-2.6875 6-6v-15.113281h19.273438v26.722657c0 3.3125 2.683593 6 6 6 3.3125 0 6-2.6875 6-6v-26.722657h19.269531v15.113281c0 3.3125 2.683594 6 6 6 3.3125 0 6-2.6875 6-6v-15.113281h19.269531v26.722657c0 3.3125 2.683594 6 6 6 3.3125 0 6-2.6875 6-6v-26.722657h19.269531v15.113281c0 3.3125 2.6875 6 6 6s6-2.6875 6-6v-15.113281h19.269532v26.722657c0 3.3125 2.6875 6 6 6s6-2.6875 6-6v-26.722657h10.171875v40.78125h-283.5625zm0 0" fill="#63316d"/><path d="m43.632812 329.261719v.027343c1.757813 8.144532 5.25 15.8125 10.242188 22.484376l.019531.03125c.054688.074218.101563.152343.160157.222656.042968.058594.089843.109375.132812.164062.015625.027344.035156.050782.054688.074219 11.109374 14.660156 28.441406 23.273437 46.835937 23.273437 18.394531-.003906 35.726563-8.617187 46.832031-23.28125l.039063-.046874c.042969-.058594.09375-.113282.136719-.175782.058593-.074218.113281-.15625.167968-.234375l.019532-.023437c4.988281-6.671875 8.476562-14.339844 10.230468-22.480469l.007813-.027344c.007812-.039062.015625-.082031.023437-.121093 1.59375-7.425782 1.746094-15.085938.4375-22.566407-.003906-.035156-.015625-.070312-.019531-.109375l-.027344-.121094c-1.425781-8.050781-4.535156-15.707031-9.128906-22.472656l-.023437-.035156c-10.933594-16.167969-29.179688-25.851562-48.695313-25.851562-19.519531 0-37.765625 9.683593-48.699219 25.851562-.007812.015625-.019531.03125-.027344.046875-4.59375 6.761719-7.703124 14.414063-9.128906 22.460937l-.023437.125c-.007813.035157-.015625.070313-.023438.109376-1.304687 7.484374-1.15625 15.152343.441407 22.578124.003906.03125.011718.066407.015624.097657zm17.027344-36.054688h80.824219c1.570313 2.667969 2.867187 5.484375 3.867187 8.410157h-88.558593c1.003906-2.925782 2.300781-5.742188 3.867187-8.410157zm87.078125 20.410157c.070313 1.046874.117188 2.101562.117188 3.148437-.003907 1.757813-.101563 3.507813-.300781 5.25h-92.960938c-.199219-1.742187-.296875-3.492187-.300781-5.25 0-1.050781.046875-2.097656.117187-3.148437zm-7.566406 28.808593h-78.199219c-1.75-2.640625-3.222656-5.460937-4.390625-8.410156h86.992188c-1.171875 2.949219-2.648438 5.769531-4.402344 8.410156zm-66.890625 12h55.582031c-16.539062 12.148438-39.046875 12.148438-55.582031 0zm58.15625-73.21875h-60.726562c17.476562-14.957031 43.246093-14.957031 60.726562 0zm0 0" fill="#63316d"/><path d="m349.855469 316.765625c0-3.410156-.296875-6.820313-.882813-10.183594-.003906-.035156-.015625-.070312-.019531-.109375l-.027344-.121094c-1.425781-8.050781-4.535156-15.707031-9.128906-22.472656l-.023437-.035156c-10.933594-16.167969-29.179688-25.851562-48.695313-25.851562-19.519531 0-37.765625 9.683593-48.699219 25.851562-.007812.015625-.019531.03125-.027344.046875-4.59375 6.761719-7.703124 14.414063-9.128906 22.460937l-.023437.125c-.007813.035157-.015625.070313-.023438.109376-1.304687 7.484374-1.15625 15.152343.441407 22.578124.007812.035157.011718.066407.019531.101563v.023437c1.757812 8.144532 5.246093 15.8125 10.238281 22.484376l.019531.03125c.054688.074218.101563.152343.160157.222656.042968.058594.089843.109375.132812.164062.015625.027344.035156.050782.054688.074219 11.109374 14.660156 28.441406 23.273437 46.835937 23.273437 18.394531-.003906 35.726563-8.617187 46.832031-23.28125l.039063-.046874c.042969-.058594.09375-.113282.136719-.175782.058593-.074218.113281-.15625.167968-.234375l.019532-.023437c4.988281-6.671875 8.476562-14.339844 10.230468-22.480469v-.027344c.011719-.039062.015625-.082031.023438-.121093.878906-4.070313 1.324218-8.21875 1.328125-12.382813zm-19.683594 25.660156h-78.199219c-1.75-2.640625-3.222656-5.460937-4.390625-8.410156h86.992188c-1.171875 2.949219-2.648438 5.769531-4.402344 8.410156zm-85.578125-20.410156c-.199219-1.742187-.296875-3.492187-.300781-5.25 0-1.050781.046875-2.097656.117187-3.148437h93.328125c.070313 1.046874.117188 2.101562.117188 3.148437-.003907 1.757813-.101563 3.507813-.300781 5.25zm6.066406-28.808594h80.824219c1.570313 2.667969 2.867187 5.484375 3.867187 8.410157h-88.558593c1.003906-2.925782 2.300781-5.742188 3.867187-8.410157zm70.777344-12h-60.726562c17.476562-14.957031 43.246093-14.957031 60.726562 0zm-58.152344 73.21875h55.578125c-16.535156 12.148438-39.042969 12.148438-55.578125 0zm0 0" fill="#63316d"/></svg>