<svg height="464pt" viewBox="0 -40 464.85698 464" width="464pt" xmlns="http://www.w3.org/2000/svg"><path d="m453.730469 348.828125c6.835937 6.835937 6.835937 17.914063 0 24.75-6.835938 6.835937-17.914063 6.835937-24.75 0l-31.742188-31.738281 24.75-24.75zm0 0" fill="#f8ec7d"/><path d="m381.070312 41.429688v65h-70v-65c-.003906-18.554688 14.476563-33.886719 33-34.941407.660157-.039062 1.328126-.058593 2-.058593 19.328126 0 35 15.667968 35 35zm0 0" fill="#e48e66"/><path d="m290.980469 262.4375c0-6.660156-6.5-12.058594-14.511719-12.058594-8.007812 0-14.5 5.398438-14.5 12.058594s6.492188 12.070312 14.5 12.070312c8.011719 0 14.511719-5.398437 14.511719-12.070312zm60.988281-17.019531c0-6.660157-6.488281-12.058594-14.5-12.058594-8.007812 0-14.507812 5.398437-14.507812 12.058594 0 6.660156 6.5 12.058593 14.507812 12.058593 8.011719 0 14.5-5.398437 14.5-12.058593zm0-42.429688v-23.851562l-60.988281 24.042969v23.859374zm-40.910156 116.671875c-44.671875 1.957032-84.402344-28.179687-94.5625-71.726562s12.140625-88.152344 53.066406-106.164063c40.929688-18.007812 88.878906-4.316406 114.125 32.59375 25.246094 36.90625 20.625 86.558594-10.996094 118.175781-16.425781 16.4375-38.417968 26.117188-61.632812 27.121094zm0 0" fill="#6fe3ff"/><path d="m351.96875 179.136719v23.851562l-60.988281 24.050781v-23.859374zm0 0" fill="#f8ec7d"/><path d="m337.46875 233.359375c8.011719 0 14.5 5.398437 14.5 12.058594 0 6.660156-6.488281 12.058593-14.5 12.058593-8.007812 0-14.507812-5.398437-14.507812-12.058593 0-6.660157 6.5-12.058594 14.507812-12.058594zm0 0" fill="#f8ec7d"/><path d="m344.070312 6.429688v.058593c-18.523437 1.054688-33.003906 16.386719-33 34.941407v92.359374l-.011718.199219c-34.15625-1.527343-66.394532 15.824219-83.929688 45.175781-17.539062 29.351563-17.539062 65.964844 0 95.320313 17.535156 29.351563 49.773438 46.703125 83.929688 45.175781-.320313 31.410156-25.339844 56.769532-56.148438 56.769532h-.03125c-1.160156 0-2.308594-.042969-3.449218-.109376-29.410157-1.820312-52.710938-26.773437-52.710938-57.292968v-37.167969h-136.378906l2.082031-235.832031c.222656-21.933594 18.0625-39.59375 40-39.597656zm0 0" fill="#f8ec7d"/><path d="m276.46875 250.378906c8.011719 0 14.511719 5.398438 14.511719 12.058594s-6.5 12.070312-14.511719 12.070312c-8.007812 0-14.5-5.398437-14.5-12.070312 0-6.667969 6.492188-12.058594 14.5-12.058594zm0 0" fill="#f8ec7d"/><path d="m251.429688 376.320312-.007813.109376h-189.25c-31.023437 0-56.171875-25.703126-56.171875-57.402344v-37.167969h192.71875v37.167969c0 30.519531 23.300781 55.472656 52.710938 57.292968zm0 0" fill="#e48e66"/><g fill="#63316d"><path d="m105.871094 96.738281h98.75c3.3125 0 6-2.6875 6-6s-2.6875-6-6-6h-98.75c-3.316406 0-6 2.6875-6 6s2.683594 6 6 6zm0 0"/><path d="m224.589844 136.609375c0-3.316406-2.6875-6-6-6h-61.800782c-3.3125 0-6 2.683594-6 6 0 3.3125 2.6875 6 6 6h61.800782c3.3125 0 6-2.6875 6-6zm0 0"/><path d="m105.871094 142.609375h26.878906c3.3125 0 6-2.6875 6-6 0-3.316406-2.6875-6-6-6h-26.878906c-3.316406 0-6 2.683594-6 6 0 3.3125 2.683594 6 6 6zm0 0"/><path d="m228.410156 96.738281h33.429688c3.3125 0 6-2.6875 6-6s-2.6875-6-6-6h-33.429688c-3.3125 0-6 2.6875-6 6s2.6875 6 6 6zm0 0"/><path d="m191.589844 180.609375h-54.800782c-3.3125 0-6 2.683594-6 6 0 3.3125 2.6875 6 6 6h54.800782c3.3125 0 6-2.6875 6-6 0-3.316406-2.6875-6-6-6zm0 0"/><path d="m105.871094 192.609375h6.878906c3.3125 0 6-2.6875 6-6 0-3.316406-2.6875-6-6-6h-6.878906c-3.316406 0-6 2.683594-6 6 0 3.3125 2.683594 6 6 6zm0 0"/><path d="m191.589844 230.609375h-4.800782c-3.3125 0-6 2.683594-6 6 0 3.3125 2.6875 6 6 6h4.800782c3.3125 0 6-2.6875 6-6 0-3.316406-2.6875-6-6-6zm0 0"/><path d="m162.75 230.609375h-56.878906c-3.316406 0-6 2.683594-6 6 0 3.3125 2.683594 6 6 6h56.878906c3.3125 0 6-2.6875 6-6 0-3.316406-2.6875-6-6-6zm0 0"/><path d="m392.996094 346.082031 31.734375 31.734375c4.394531 4.425782 10.382812 6.910156 16.621093 6.890625 9.507813.003907 18.078126-5.722656 21.714844-14.507812 3.640625-8.78125 1.628906-18.890625-5.097656-25.613281l-31.738281-31.742188c-2.34375-2.34375-6.144531-2.34375-8.488281 0l-8.128907 8.132812-28.582031-28.578124c24.601562-27.765626 31.597656-66.964844 18.117188-101.527344-13.480469-34.5625-45.171876-58.671875-82.078126-62.441406v-16h64c3.3125 0 6-2.6875 6-6v-65c0-22.644532-18.355468-41-41-41-.679687 0-1.351562.019531-2 .054687v-.054687h-239.648437c-25.199219.078124-45.671875 20.351562-46 45.546874l-2.027344 229.882813h-50.394531c-3.3125 0-6 2.683594-6 6v37.167969c0 34.0625 26.476562 61.921875 59.539062 63.332031v.070313h2.660157l-.027344-12c-27.664063 0-50.171875-23.058594-50.171875-51.402344v-31.167969h180.71875v31.167969c-.042969 20.257812 9.53125 39.332031 25.800781 51.402344h-156.320312v12h189.222656v-.105469c1.183594.066406 2.347656.105469 3.488281.105469 32.085938 0 58.753906-25.183594 61.839844-57.175782 20.707031-2.027344 40.238281-10.558594 55.800781-24.375l28.578125 28.589844-8.132812 8.132812c-2.339844 2.339844-2.339844 6.136719 0 8.480469zm-24.550782-57.785156c-27.816406 27.832031-70.863281 33.507813-104.945312 13.835937-34.082031-19.667968-50.703125-59.777343-40.519531-97.789062 10.179687-38.011719 44.621093-64.445312 83.972656-64.445312 1.277344 0 2.558594.027343 3.839844.085937h.007812c34.433594 1.507813 64.722657 23.222656 77.207031 55.347656 12.488282 32.125 4.8125 68.59375-19.5625 92.964844zm-22.375-275.867187c16.015626 0 29 12.984374 29 29v59h-58v-59c0-15.378907 12.007813-28.082032 27.359376-28.953126.542968-.03125 1.09375-.046874 1.640624-.046874zm-91.191406 358c-.980468 0-2.015625-.035157-3.078125-.101563-26.398437-1.632813-47.082031-24.167969-47.082031-51.300781v-37.167969c0-3.316406-2.683594-6-6-6h-130.324219l2.027344-229.769531c.242187-18.621094 15.375-33.601563 34-33.660156h212.679687c-7.707031 7.679687-12.039062 18.117187-12.03125 29v86.492187c-53.832031.984375-96.992187 44.839844-97.113281 98.679687-.121093 53.839844 42.84375 97.890626 96.667969 99.113282-3.21875 25.152344-24.371094 44.714844-49.746094 44.714844zm167.109375-44.855469 27.496094 27.496093c4.480469 4.496094 4.480469 11.769532 0 16.265626-2.15625 2.160156-5.082031 3.371093-8.132813 3.371093-3.046874 0-5.972656-1.210937-8.128906-3.371093l-27.5-27.5zm0 0"/><path d="m284.980469 203.179688v42.847656c-2.703125-1.089844-5.59375-1.652344-8.511719-1.648438-11.296875 0-20.5 8.097656-20.5 18.058594s9.203125 18.070312 20.5 18.070312c11.058594 0 20.074219-7.753906 20.472656-17.410156.027344-.21875.039063-.4375.039063-.660156v-31.316406l48.988281-19.316406v17.199218c-2.699219-1.089844-5.585938-1.648437-8.5-1.644531-11.308594 0-20.507812 8.097656-20.507812 18.058594 0 9.960937 9.199218 18.058593 20.507812 18.058593 11.054688 0 20.066406-7.746093 20.464844-17.398437.023437-.21875.035156-.4375.035156-.65625v-66.285156c0-1.984375-.980469-3.839844-2.621094-4.957031-1.644531-1.117188-3.730468-1.351563-5.578125-.625l-60.988281 24.042968c-2.292969.902344-3.800781 3.117188-3.800781 5.582032zm-8.511719 65.328124c-4.605469 0-8.5-2.78125-8.5-6.070312s3.894531-6.058594 8.5-6.058594c4.609375 0 8.511719 2.773438 8.511719 6.058594s-3.898438 6.070312-8.511719 6.070312zm61-17.03125c-4.613281 0-8.507812-2.773437-8.507812-6.058593 0-3.285157 3.898437-6.058594 8.507812-6.058594s8.5 2.773437 8.5 6.058594c0 3.285156-3.890625 6.058593-8.5 6.058593zm8.5-63.523437v10.953125l-48.988281 19.316406v-10.960937zm0 0"/></g></svg>