<svg height="486pt" viewBox="0 -9 486.2605 486" width="486pt" xmlns="http://www.w3.org/2000/svg"><path d="m470.671875 408.390625c12.289063 11.601563 12.84375 30.972656 1.238281 43.257813-.398437.421874-.808594.84375-1.238281 1.242187l-.03125.019531c-12.988281 12.289063-33.3125 12.289063-46.300781 0l-81.628906-78.449218 46.328124-44.53125zm0 0" fill="#6fe3ff"/><path d="m213.488281 144.21875 90.28125 16.953125v-68.152344l-90.28125-16.949219zm0 122.113281c0-17.011719-16.566406-30.792969-37.007812-30.792969-20.441407 0-37.011719 13.78125-37.011719 30.792969 0 17.007813 16.570312 30.777344 37.011719 30.777344 20.441406 0 37.007812-13.777344 37.007812-30.777344zm-19.71875-260.203125c103.710938 0 187.78125 80.800782 187.78125 180.460938s-84.070312 180.46875-187.78125 180.46875c-103.710937 0-187.769531-80.796875-187.769531-180.46875 0-99.667969 84.070312-180.460938 187.769531-180.460938zm0 0" fill="#e48e66"/><path d="m303.769531 93.019531v68.152344l-90.28125-16.953125v-68.148438zm0 0" fill="#f8ec7d"/><path d="m176.480469 235.539062c20.441406 0 37.007812 13.78125 37.007812 30.792969 0 17.007813-16.566406 30.777344-37.007812 30.777344-20.441407 0-37.011719-13.777344-37.011719-30.777344s16.570312-30.792969 37.011719-30.792969zm0 0" fill="#f8ec7d"/><g fill="#63316d"><path d="m384.882812 325.605469-18.902343 18.164062-30.914063-29.710937c32.527344-33.371094 52.484375-78.214844 52.484375-127.46875 0-102.8125-86.929687-186.460938-193.78125-186.460938-106.851562 0-193.769531 83.648438-193.769531 186.460938s86.929688 186.46875 193.769531 186.46875c48.972657.171875 96.257813-17.890625 132.648438-50.667969l30.898437 29.699219-18.765625 18.039062c-1.175781 1.132813-1.839843 2.695313-1.839843 4.328125 0 1.632813.664062 3.195313 1.839843 4.324219l81.664063 78.484375c15.230468 14.40625 39.042968 14.480469 54.363281.171875.058594-.050781.117187-.097656.175781-.15625.519532-.484375 1.019532-.988281 1.519532-1.515625 13.859374-14.683594 13.214843-37.816406-1.445313-51.703125l-81.628906-78.457031c-2.324219-2.234375-5.996094-2.234375-8.316407 0zm-191.113281 35.453125c-100.226562 0-181.769531-78.265625-181.769531-174.46875s81.542969-174.460938 181.769531-174.460938c100.226563 0 181.78125 78.261719 181.78125 174.460938 0 96.199218-81.546875 174.46875-181.78125 174.46875zm280.480469 68.871094c.207031 6.515624-2.199219 12.847656-6.683594 17.578124-.273437.289063-.550781.574219-.839844.847657-.070312.0625-.140624.128906-.210937.195312-10.660156 10.089844-27.34375 10.101563-38.019531.03125l-77.128906-74.121093 37.671874-36.207032 77.511719 74.5c4.757813 4.464844 7.53125 10.652344 7.699219 17.175782zm0 0"/><path d="m304.878906 87.125-90.28125-16.953125c-1.753906-.328125-3.566406.140625-4.941406 1.28125-1.371094 1.140625-2.167969 2.835937-2.167969 4.621094v164.800781c-8.605469-7.433594-19.632812-11.464844-31.007812-11.335938-23.714844 0-43.011719 16.5-43.011719 36.792969 0 20.289063 19.296875 36.777344 43.011719 36.777344 23.714843 0 43.007812-16.5 43.007812-36.777344v-114.878906l83.175781 15.613281c1.753907.332032 3.566407-.140625 4.9375-1.28125 1.375-1.140625 2.167969-2.832031 2.167969-4.617187v-68.148438c0-2.886719-2.054687-5.363281-4.890625-5.894531zm-128.398437 203.984375c-17.101563 0-31.011719-11.113281-31.011719-24.777344 0-13.664062 13.914062-24.792969 31.011719-24.792969 17.097656 0 31.007812 11.121094 31.007812 24.792969 0 13.667969-13.910156 24.777344-31.007812 24.777344zm121.289062-137.171875-78.28125-14.699219v-55.9375l78.28125 14.699219zm0 0"/><path d="m83.769531 103.171875h79.910157c3.3125 0 6-2.6875 6-6 0-3.316406-2.6875-6-6-6h-79.910157c-3.3125 0-6 2.683594-6 6 0 3.3125 2.6875 6 6 6zm0 0"/><path d="m83.769531 144.679688h79.910157c3.3125 0 6-2.6875 6-6s-2.6875-6-6-6h-79.910157c-3.3125 0-6 2.6875-6 6s2.6875 6 6 6zm0 0"/><path d="m169.679688 180.191406c0-3.316406-2.6875-6-6-6h-79.910157c-3.3125 0-6 2.683594-6 6 0 3.3125 2.6875 6 6 6h79.910157c3.3125 0 6-2.6875 6-6zm0 0"/></g></svg>