<svg height="492pt" viewBox="0 -26 492 492" width="492pt" xmlns="http://www.w3.org/2000/svg"><path d="m320.960938 350.550781h165.039062v42.160157c0 23.289062-18.878906 42.167968-42.171875 42.167968h-126.488281c-23.289063 0-42.167969-18.878906-42.167969-42.167968v-42.160157zm0 0" fill="#e48e66"/><path d="m486 104.929688v245.621093h-45.789062c-.191407-32.796875-26.832032-59.28125-59.625-59.28125-32.796876 0-59.4375 26.484375-59.625 59.28125h-45.789063v-135.839843h51.65625c10.988281.003906 19.894531-8.90625 19.890625-19.890626v-89.890624zm-73.238281 128.109374c0-18.292968-14.828125-33.128906-33.125-33.128906s-33.128907 14.832032-33.125 33.125c0 18.296875 14.832031 33.128906 33.128906 33.125 18.289063-.003906 33.117187-14.828125 33.121094-33.121094zm0 0" fill="#f8ec7d"/><path d="m486 97.550781v7.378907h-139.28125v-49.550782h97.109375c23.292969 0 42.171875 18.882813 42.171875 42.171875zm0 0" fill="#e48e66"/><path d="m440.210938 350.550781h-119.25c.1875-32.796875 26.828124-59.28125 59.625-59.28125 32.792968 0 59.433593 26.484375 59.625 59.28125zm0 0" fill="#6fe3ff"/><path d="m379.640625 199.910156c18.292969.003906 33.121094 14.832032 33.121094 33.125-.003907 18.292969-14.832031 33.125-33.125 33.125s-33.125-14.828125-33.125-33.121094c-.003907-18.296874 14.828125-33.132812 33.128906-33.128906zm0 0" fill="#6fe3ff"/><path d="m271.191406 108.539062c0-7.398437-7.222656-13.410156-16.121094-13.410156-8.898437 0-16.109374 6.011719-16.109374 13.410156 0 7.402344 7.210937 13.402344 16.109374 13.402344 8.898438 0 16.121094-6 16.121094-13.402344zm-57.78125 28.910157c0-7.398438-7.210937-13.398438-16.109375-13.398438-8.902343 0-16.109375 6-16.109375 13.398438 0 7.402343 7.207032 13.410156 16.109375 13.410156 8.898438 0 16.109375-6 16.109375-13.410156zm3.417969 77.261719h-1.128906l-31.308594 32.4375v-32.4375h-15.800781c-10.984375.003906-19.894532-8.90625-19.890625-19.890626v-168.929687c-.003907-10.988281 8.90625-19.894531 19.890625-19.890625h158.238281c10.988281-.003906 19.894531 8.902344 19.890625 19.890625v168.929687c.003906 10.984376-8.902344 19.894532-19.890625 19.890626zm-3.417969-133.589844 57.78125-16.722656v-19.507813l-57.78125 16.71875zm0 0" fill="#6fe3ff"/><path d="m271.191406 44.890625v19.507813l-57.78125 16.722656v-19.511719zm0 0" fill="#f8ec7d"/><path d="m255.070312 95.128906c8.898438 0 16.121094 6.011719 16.121094 13.410156 0 7.402344-7.222656 13.402344-16.121094 13.402344-8.898437 0-16.109374-6-16.109374-13.402344 0-7.398437 7.210937-13.410156 16.109374-13.410156zm0 0" fill="#f8ec7d"/><path d="m171.039062 350.550781h45.789063v42.160157c0 23.289062-18.878906 42.167968-42.167969 42.167968h-126.488281c-23.292969 0-42.171875-18.878906-42.171875-42.167968v-42.160157zm0 0" fill="#e48e66"/><path d="m216.828125 214.710938v135.839843h-45.789063c-.1875-32.796875-26.828124-59.28125-59.625-59.28125-32.792968 0-59.433593 26.484375-59.625 59.28125h-45.789062v-245.621093h142.699219v89.890624c-.003907 10.984376 8.90625 19.894532 19.890625 19.890626h15.800781v32.4375l31.308594-32.4375zm-71.339844 18.328124c.003907-18.292968-14.824219-33.125-33.117187-33.128906-18.296875-.003906-33.128906 14.824219-33.132813 33.121094 0 18.292969 14.828125 33.125 33.121094 33.128906s33.128906-14.824218 33.128906-33.121094zm0 0" fill="#f8ec7d"/><path d="m197.300781 124.050781c8.898438 0 16.109375 6 16.109375 13.398438 0 7.402343-7.210937 13.410156-16.109375 13.410156-8.902343 0-16.109375-6-16.109375-13.410156 0-7.410157 7.207032-13.398438 16.109375-13.398438zm0 0" fill="#f8ec7d"/><path d="m171.039062 350.550781h-119.25c.191407-32.796875 26.832032-59.28125 59.625-59.28125 32.796876 0 59.4375 26.484375 59.625 59.28125zm0 0" fill="#6fe3ff"/><path d="m148.699219 55.378906v49.550782h-142.699219v-7.378907c0-23.289062 18.878906-42.171875 42.171875-42.171875zm0 0" fill="#e48e66"/><path d="m112.359375 199.910156c18.296875-.003906 33.128906 14.824219 33.128906 33.121094.003907 18.292969-14.824219 33.125-33.117187 33.128906-18.296875.003906-33.128906-14.824218-33.132813-33.121094 0-18.292968 14.828125-33.125 33.121094-33.128906zm0 0" fill="#6fe3ff"/><g fill="#63316d"><path d="m130.921875 386.710938h-39.011719c-3.3125 0-6 2.683593-6 6 0 3.3125 2.6875 6 6 6h39.011719c3.3125 0 6-2.6875 6-6 0-3.316407-2.6875-6-6-6zm0 0"/><path d="m112.359375 193.910156c-21.605469.003906-39.121094 17.519532-39.121094 39.125.003907 21.609375 17.519531 39.125 39.125 39.125s39.125-17.511718 39.125-39.121094c-.019531-21.601562-17.527343-39.109374-39.128906-39.128906zm0 66.25c-14.980469-.003906-27.121094-12.148437-27.121094-27.128906.003907-14.980469 12.152344-27.125 27.132813-27.121094 14.980468.003906 27.121094 12.148438 27.117187 27.128906-.015625 14.976563-12.152343 27.109376-27.128906 27.121094zm0 0"/><path d="m443.828125 49.378906h-91.109375v-23.488281c-.015625-14.292969-11.597656-25.875-25.890625-25.890625h-158.238281c-14.292969.015625-25.875 11.597656-25.890625 25.890625v23.488281h-94.527344c-26.59375.03125-48.140625 21.582032-48.171875 48.171875v295.160157c.03125 26.589843 21.578125 48.140624 48.171875 48.167968h126.488281c26.589844-.027344 48.140625-21.578125 48.167969-48.167968v-172h46.34375v172c.027344 26.589843 21.578125 48.140624 48.167969 48.167968h126.488281c26.59375-.027344 48.140625-21.578125 48.171875-48.167968v-295.160157c-.03125-26.589843-21.578125-48.140625-48.171875-48.171875zm-289.128906-23.488281c.007812-7.667969 6.222656-13.882813 13.890625-13.890625h158.238281c7.667969.007812 13.882813 6.222656 13.890625 13.890625v168.929687c-.007812 7.667969-6.222656 13.882813-13.890625 13.890626h-111.128906c-1.628907 0-3.183594.660156-4.316407 1.832031l-20.992187 21.75v-17.582031c0-3.316407-2.6875-6-6-6h-15.800781c-7.667969-.007813-13.882813-6.222657-13.890625-13.890626zm13.890625 194.820313h9.800781v26.4375c0 2.449218 1.484375 4.648437 3.753906 5.566406 2.265625.914062 4.863281.363281 6.5625-1.398438l22.121094-22.921875v116.15625h-34.101563c-3.25-33.636719-31.515624-59.304687-65.3125-59.304687-33.792968 0-62.058593 25.667968-65.308593 59.304687h-34.105469v-233.621093h130.699219v83.890624c.015625 14.292969 11.597656 25.875 25.890625 25.890626zm-3.929688 123.839843h-106.488281c3.203125-26.980469 26.074219-47.300781 53.246094-47.300781 27.167969 0 50.042969 20.320312 53.242187 47.300781zm-116.488281-283.171875h94.527344v37.550782h-130.699219v-1.378907c.023438-19.96875 16.203125-36.148437 36.171875-36.171875zm126.488281 367.5h-126.488281c-19.96875-.023437-36.148437-16.203125-36.171875-36.167968v-36.160157h198.828125v36.160157c-.019531 19.964843-16.203125 36.144531-36.167969 36.167968zm152.167969-208.167968c14.292969-.015626 25.875-11.597657 25.890625-25.890626v-83.890624h127.28125v233.621093h-34.101562c-3.246094-33.636719-31.515626-59.304687-65.308594-59.304687-33.792969 0-62.058594 25.667968-65.308594 59.304687h-34.109375v-123.839843zm107 123.839843h-106.484375c3.199219-26.980469 26.074219-47.300781 53.242188-47.300781 27.167968 0 50.042968 20.320312 53.246093 47.300781zm10 84.328125h-126.488281c-19.964844-.023437-36.148438-16.203125-36.167969-36.167968v-36.160157h198.828125v36.160157c-.023438 19.964843-16.203125 36.144531-36.171875 36.167968zm36.171875-329.949218h-127.28125v-37.550782h91.109375c19.96875.023438 36.148437 16.203125 36.171875 36.171875zm0 0"/><path d="m400.089844 386.710938h-39.011719c-3.3125 0-6 2.683593-6 6 0 3.3125 2.6875 6 6 6h39.011719c3.3125 0 6-2.6875 6-6 0-3.316407-2.6875-6-6-6zm0 0"/><path d="m379.640625 272.160156c21.609375-.003906 39.121094-17.523437 39.121094-39.128906-.003907-21.609375-17.523438-39.125-39.132813-39.121094-21.605468.003906-39.121094 17.523438-39.117187 39.128906.023437 21.601563 17.527343 39.101563 39.128906 39.121094zm0-66.25c14.980469.003906 27.121094 12.148438 27.121094 27.125-.003907 14.980469-12.144531 27.125-27.125 27.125s-27.125-12.140625-27.125-27.121094c.011719-14.976562 12.152343-27.117187 27.128906-27.128906zm0 0"/><path d="m293.21875 115.128906h27.78125c3.3125 0 6-2.683594 6-6 0-3.3125-2.6875-6-6-6h-27.78125c-3.3125 0-6 2.6875-6 6 0 3.316406 2.6875 6 6 6zm0 0"/><path d="m321 135.128906h-62.859375c-3.3125 0-6 2.6875-6 6 0 3.316406 2.6875 6 6 6h62.859375c3.3125 0 6-2.683594 6-6 0-3.3125-2.6875-6-6-6zm0 0"/><path d="m321 167.128906h-12.859375c-3.3125 0-6 2.6875-6 6 0 3.316406 2.6875 6 6 6h12.859375c3.3125 0 6-2.683594 6-6 0-3.3125-2.6875-6-6-6zm0 0"/><path d="m286.539062 167.128906h-28.828124c-3.316407 0-6 2.6875-6 6 0 3.316406 2.683593 6 6 6h28.828124c3.316407 0 6-2.683594 6-6 0-3.3125-2.683593-6-6-6zm0 0"/><path d="m235.328125 167.128906h-53.328125c-3.3125 0-6 2.6875-6 6 0 3.316406 2.6875 6 6 6h53.328125c3.316406 0 6-2.683594 6-6 0-3.3125-2.683594-6-6-6zm0 0"/><path d="m293.21875 85.128906h27.78125c3.3125 0 6-2.683594 6-6 0-3.3125-2.6875-6-6-6h-27.78125c-3.3125 0-6 2.6875-6 6 0 3.316406 2.6875 6 6 6zm0 0"/><path d="m197.300781 156.859375c12.191407 0 22.109375-8.707031 22.109375-19.410156v-51.820313l45.78125-13.246094v18.90625c-3.183594-1.433593-6.632812-2.167968-10.121094-2.160156-12.191406 0-22.109374 8.707032-22.109374 19.410156 0 10.703126 9.917968 19.402344 22.109374 19.402344 12.191407 0 22.121094-8.703125 22.121094-19.402344v-63.648437c0-1.886719-.890625-3.664063-2.398437-4.796875-1.507813-1.132812-3.460938-1.492188-5.269531-.964844l-57.78125 16.71875c-2.566407.742188-4.332032 3.089844-4.332032 5.761719v58.601563c-3.179687-1.429688-6.625-2.167969-10.109375-2.15625-12.191406 0-22.109375 8.699218-22.109375 19.398437s9.917969 19.40625 22.109375 19.40625zm57.769531-40.917969c-5.480468 0-10.109374-3.390625-10.109374-7.402344 0-4.011718 4.628906-7.410156 10.109374-7.410156 5.480469 0 10.121094 3.394532 10.121094 7.410156 0 4.019532-4.636718 7.402344-10.121094 7.402344zm10.121094-63.070312v7.019531l-45.78125 13.25v-7.019531zm-67.890625 77.179687c5.480469 0 10.109375 3.386719 10.109375 7.398438s-4.628906 7.410156-10.109375 7.410156-10.109375-3.394531-10.109375-7.410156 4.628906-7.398438 10.109375-7.398438zm0 0"/></g></svg>