<svg height="433pt" viewBox="-14 0 433 433.34044" width="433pt" xmlns="http://www.w3.org/2000/svg"><path d="m273.820312 346.058594c3.929688-7.242188 2.53125-16.21875-3.410156-21.925782-5.941406-5.710937-14.964844-6.746093-22.042968-2.53125-7.082032 4.210938-10.476563 12.636719-8.292969 20.582032 2.183593 7.945312 9.40625 13.453125 17.644531 13.457031 6.726562.03125 12.921875-3.65625 16.101562-9.582031zm50.488282 24.242187c-3.925782 7.242188-2.53125 16.21875 3.410156 21.925781 5.941406 5.710938 14.964844 6.746094 22.046875 2.53125 7.078125-4.210937 10.472656-12.636718 8.289063-20.582031-2.183594-7.945312-9.40625-13.453125-17.644532-13.457031-6.722656-.015625-12.90625 3.667969-16.101562 9.582031zm.351562-65.320312c4.675782 7.878906 14.457032 11.089843 22.890625 7.511719 8.433594-3.582032 12.921875-12.847657 10.5-21.683594-2.421875-8.835938-11.007812-14.519532-20.089843-13.300782-9.078126 1.222657-15.859376 8.96875-15.859376 18.132813-.003906 3.285156.882813 6.511719 2.558594 9.339844zm-102.078125 57.339843c-10.015625-34.71875 1.699219-72.0625 29.75-94.839843 28.050781-22.777344 67.003907-26.578125 98.929688-9.652344.167969.082031.328125.171875.5.261719 35.898437 19.347656 54.304687 60.410156 44.863281 100.082031-9.445312 39.671875-44.378906 68.039063-85.140625 69.136719-40.765625 1.097656-77.175781-25.34375-88.746094-64.449219-.046875-.179687-.109375-.359375-.15625-.539063zm0 0" fill="#6fe3ff"/><path d="m154.191406 266.25c0-13.328125-12.992187-24.128906-29.011718-24.128906-16.019532 0-29.007813 10.800781-29.007813 24.128906s12.988281 24.121094 29.007813 24.121094c16.019531 0 29.011718-10.800782 29.011718-24.121094zm0-106.808594 121.980469-30.089844v-47.710937l-121.980469 30.089844zm121.980469 54.757813c0-13.328125-12.980469-24.128907-29-24.128907-16.023437 0-29.011719 10.800782-29.011719 24.128907 0 13.332031 12.988282 24.121093 29.011719 24.121093 16.019531 0 29-10.800781 29-24.121093zm90-28.199219c.03125 24.640625-5.007813 49.023438-14.8125 71.628906l-.097656.199219c-31.925781-16.898437-70.859375-13.085937-98.902344 9.683594s-39.765625 60.09375-29.777344 94.808593c-74.589843 15.414063-150.804687-17.777343-190.324219-82.882812-39.519531-65.105469-33.792968-148.039062 14.300782-207.09375s128.144531-81.457031 199.90625-55.9375c71.757812 25.515625 119.695312 93.429688 119.707031 169.59375zm0 0" fill="#f8ec7d"/><g fill="#e48e66"><path d="m340.410156 277.339844c10.105469.003906 18.292969 8.203125 18.289063 18.308594-.003907 10.105468-8.195313 18.292968-18.300781 18.292968-10.105469-.003906-18.296876-8.195312-18.296876-18.300781 0-10.113281 8.199219-18.304687 18.308594-18.300781zm0 0"/><path d="m340.410156 360.71875c8.234375.007812 15.453125 5.511719 17.636719 13.453125 2.179687 7.941406-1.210937 16.363281-8.289063 20.574219-7.078124 4.210937-16.097656 3.175781-22.035156-2.53125-5.941406-5.703125-7.335937-14.675782-3.414062-21.914063 3.203125-5.90625 9.382812-9.585937 16.101562-9.582031zm0 0"/><path d="m276.171875 81.640625v47.710937l-121.980469 30.089844v-47.710937zm0 0"/><path d="m276.03125 337.339844c-.003906 9.167968-6.785156 16.917968-15.867188 18.140625-9.085937 1.222656-17.671874-4.464844-20.097656-13.304688-2.421875-8.839843 2.066406-18.109375 10.503906-21.691406s18.226563-.367187 22.898438 7.515625c1.683594 2.824219 2.570312 6.050781 2.5625 9.339844zm0 0"/><path d="m247.171875 190.070312c16.019531 0 29 10.800782 29 24.128907 0 13.332031-12.980469 24.121093-29 24.121093-16.023437 0-29.011719-10.800781-29.011719-24.121093 0-13.320313 12.988282-24.128907 29.011719-24.128907zm0 0"/><path d="m125.179688 242.121094c16.019531 0 29.011718 10.800781 29.011718 24.128906s-12.992187 24.121094-29.011718 24.121094c-16.019532 0-29.007813-10.800782-29.007813-24.121094s12.988281-24.128906 29.007813-24.128906zm0 0"/></g><path d="m247.171875 184.070312c-19.308594 0-35.011719 13.515626-35.011719 30.128907s15.699219 30.121093 35.011719 30.121093c19.308594 0 35-13.511718 35-30.121093v-132.558594c0-1.84375-.851563-3.585937-2.300781-4.722656-1.453125-1.136719-3.347656-1.542969-5.136719-1.101563l-121.980469 30.089844c-2.679687.660156-4.5625 3.0625-4.5625 5.824219v131.839843c-6.664062-4.90625-14.738281-7.519531-23.011718-7.453124-19.304688 0-35.007813 13.519531-35.007813 30.132812s15.699219 30.117188 35.007813 30.117188c19.308593 0 35.011718-13.511719 35.011718-30.117188v-102.109375l109.980469-27.128906v54.507812c-6.660156-4.90625-14.730469-7.519531-23-7.449219zm0 48.25c-12.691406 0-23.011719-8.128906-23.011719-18.121093 0-9.988281 10.320313-18.128907 23.011719-18.128907 12.6875 0 23 8.132813 23 18.128907 0 9.996093-10.320313 18.121093-23 18.121093zm-121.992187 52.050782c-12.6875 0-23.007813-8.128906-23.007813-18.121094s10.320313-18.128906 23.007813-18.128906 23.011718 8.132812 23.011718 18.128906-10.324218 18.121094-23.011718 18.121094zm35.011718-132.589844v-35.351562l109.980469-27.128907v35.351563zm0 0" fill="#63316d"/><path d="m358.847656 255.257812c8.847656-22.015624 13.371094-45.53125 13.324219-69.257812 0-102.558594-83.441406-186-186-186-102.5625 0-186 83.441406-186 186s83.4375 186 186 186c10.835937 0 21.65625-.941406 32.332031-2.804688 6.296875 17.734376 17.617188 33.253907 32.589844 44.660157 16.652344 12.699219 37.03125 19.546875 57.976562 19.484375 43.0625 0 80.859376-28.679688 92.453126-70.15625 11.589843-41.472656-5.851563-85.59375-42.675782-107.925782zm-346.675781-69.257812c0-95.945312 78.054687-174 174-174 95.941406 0 174 78.054688 174 174 .039063 21.785156-4.039063 43.378906-12.015625 63.648438-33.03125-14.679688-71.503906-9.578126-99.566406 13.199218-28.0625 22.78125-40.964844 59.386719-33.382813 94.730469-9.597656 1.609375-19.308593 2.417969-29.035156 2.421875-95.953125 0-174-78.054688-174-174zm296.898437 235.339844c-18.324218.058594-36.152343-5.933594-50.722656-17.042969-14.226562-10.828125-24.660156-25.878906-29.808594-43-.074218-.445313-.199218-.878906-.371093-1.292969-9.050781-32.359375 2.042969-67 28.207031-88.078125 26.167969-21.078125 62.375-24.539062 92.0625-8.800781.085938.046875.144531.074219.234375.117188l.238281.125c33.875 18.253906 51.019532 57.191406 41.609375 94.503906-9.410156 37.3125-42.96875 63.460937-81.449219 63.46875zm0 0" fill="#63316d"/><path d="m340.410156 319.949219c10.421875.011719 19.695313-6.621094 23.054688-16.484375 3.359375-9.867188.0625-20.777344-8.199219-27.132813s-19.652344-6.742187-28.324219-.960937c-8.675781 5.777344-12.703125 16.4375-10.019531 26.511718l-41.609375 18.710938c-6.890625-7.242188-17.511719-9.527344-26.765625-5.757812-9.257813 3.769531-15.265625 12.820312-15.136719 22.816406.128906 9.992187 6.363282 18.890625 15.710938 22.421875 9.351562 3.53125 19.910156.976562 26.613281-6.4375l41.050781 19.707031c-2.882812 11.925781 3.566406 24.128906 15.042969 28.46875s24.386719-.542969 30.121094-11.386719c5.734375-10.847656 2.496093-24.265625-7.554688-31.304687-10.050781-7.039063-23.765625-5.492188-32 3.605468l-41.046875-19.707031c.953125-3.921875.90625-8.023437-.136718-11.921875l41.605468-18.710937c4.59375 4.8125 10.945313 7.542969 17.59375 7.5625zm0-36.609375c6.792969.003906 12.292969 5.515625 12.289063 12.308594-.003907 6.789062-5.511719 12.292968-12.300781 12.292968-6.792969-.003906-12.296876-5.507812-12.296876-12.300781.007813-6.792969 5.515626-12.296875 12.308594-12.300781zm-82.691406 66.300781c-5.953125-.003906-11.050781-4.265625-12.105469-10.125-1.054687-5.859375 2.238281-11.636719 7.816407-13.710937 5.578124-2.078126 11.847656.136718 14.878906 5.257812 1.128906 1.898438 1.71875 4.066406 1.71875 6.273438.007812 2.042968-.5 4.058593-1.480469 5.851562-2.152344 3.972656-6.308594 6.449219-10.828125 6.453125zm82.691406 17.078125c6.796875 0 12.308594 5.511719 12.308594 12.3125 0 6.796875-5.511719 12.308594-12.308594 12.308594s-12.308594-5.511719-12.308594-12.308594c-.007812-2.050781.5-4.066406 1.480469-5.863281 2.152344-3.972657 6.308594-6.445313 10.828125-6.449219zm0 0" fill="#63316d"/></svg>