<svg height="461pt" viewBox="-4 0 461 461.63978" width="461pt" xmlns="http://www.w3.org/2000/svg"><path d="m378.109375 5.886719c29.625.003906 55.976563 18.820312 65.59375 46.839843 9.617187 28.023438.375 59.054688-23.003906 77.25-.652344-23.050781-19.527344-41.402343-42.589844-41.402343s-41.9375 18.351562-42.589844 41.402343c-23.378906-18.195312-32.621093-49.226562-23.003906-77.25 9.617187-28.019531 35.96875-46.835937 65.59375-46.839843zm21.300781 42.21875c0-11.761719-9.535156-21.296875-21.300781-21.296875-11.761719 0-21.300781 9.535156-21.300781 21.296875 0 11.765625 9.539062 21.300781 21.300781 21.300781 11.765625 0 21.300781-9.535156 21.300781-21.300781zm0 0" fill="#e48e66"/><path d="m378.109375 316.90625c29.265625.003906 55.378906 18.378906 65.269531 45.921875s1.429688 58.328125-21.148437 76.949219l-1.519531-1.328125c0-23.527344-19.074219-42.601563-42.601563-42.601563s-42.597656 19.074219-42.597656 42.601563l-2.792969.25c-21.894531-18.957031-29.707031-49.519531-19.59375-76.65625s36.023438-45.132813 64.984375-45.136719zm21.300781 38.472656c0-11.765625-9.535156-21.300781-21.300781-21.300781-11.761719 0-21.300781 9.535156-21.300781 21.300781 0 11.761719 9.539062 21.296875 21.300781 21.296875 11.765625 0 21.300781-9.535156 21.300781-21.296875zm0 0" fill="#e48e66"/><path d="m420.710938 438.449219 1.519531 1.328125c-26.109375 21.507812-63.925781 21.050781-89.511719-1.078125l2.792969-.25c0-23.527344 19.070312-42.601563 42.597656-42.601563s42.601563 19.074219 42.601563 42.601563zm0 0" fill="#f8ec7d"/><path d="m378.109375 88.578125c23.0625 0 41.9375 18.347656 42.589844 41.398437-25.050781 19.480469-60.125 19.480469-85.179688 0 .65625-23.050781 19.53125-41.398437 42.589844-41.398437zm0 0" fill="#f8ec7d"/><path d="m399.410156 48.105469c0 11.765625-9.535156 21.300781-21.300781 21.300781-11.761719 0-21.300781-9.535156-21.300781-21.300781 0-11.761719 9.539062-21.296875 21.300781-21.296875 11.765625 0 21.300781 9.535156 21.300781 21.296875zm0 0" fill="#f8ec7d"/><path d="m399.410156 355.378906c0 11.761719-9.535156 21.296875-21.300781 21.296875-11.761719 0-21.300781-9.535156-21.300781-21.296875 0-11.765625 9.539062-21.300781 21.300781-21.300781 11.765625 0 21.300781 9.535156 21.300781 21.300781zm0 0" fill="#f8ec7d"/><path d="m129.011719 281.488281c0-10.820312-10.550781-19.589843-23.5625-19.589843-13.007813 0-23.550781 8.769531-23.550781 19.589843 0 10.820313 10.550781 19.589844 23.550781 19.589844s23.5625-8.769531 23.5625-19.589844zm0-77.710937 57.449219 10.789062v-43.359375l-57.449219-10.789062zm75.957031-38.351563c30.25 40.984375 28.402344 97.371094-4.460938 136.289063-32.859374 38.917968-88.144531 50.183594-133.613281 27.230468-45.472656-22.953124-69.234375-74.121093-57.441406-123.675781 11.796875-49.550781 56.070313-84.519531 107.007813-84.523437 34.945312-.089844 67.832031 16.511718 88.507812 44.679687zm0 0" fill="#f8ec7d"/><path d="m186.460938 171.207031v43.359375l-57.449219-10.789062v-43.359375zm0 0" fill="#6fe3ff"/><path d="m105.449219 261.898438c13.011719 0 23.5625 8.769531 23.5625 19.589843 0 10.820313-10.550781 19.589844-23.5625 19.589844-13.007813 0-23.550781-8.769531-23.550781-19.589844 0-10.820312 10.550781-19.589843 23.550781-19.589843zm0 0" fill="#6fe3ff"/><g fill="#63316d"><path d="m331.832031 134.710938c22.714844 17.675781 53.519531 20.871093 79.375 8.226562 25.859375-12.644531 42.257813-38.914062 42.253907-67.699219-.046876-31.003906-19.078126-58.8125-47.957032-70.082031s-61.714844-3.703125-82.75 19.074219c-21.03125 22.773437-25.96875 56.105469-12.441406 84l-103.578125 49.695312c-30.414063-37.769531-81.109375-52.640625-127.109375-37.289062-46 15.351562-77.601562 57.6875-79.238281 106.152343-1.636719 48.46875 27.035156 92.839844 71.894531 111.261719s96.441406 7.003907 129.335938-28.625l106.542968 48.863281c-11.949218 29.8125-3.667968 63.925782 20.625 84.941407 23.941406 20.746093 58.304688 24.304687 85.992188 8.90625 27.6875-15.402344 42.789062-46.472657 37.789062-77.757813s-29.03125-56.101562-60.136718-62.109375c-31.109376-6.003906-62.652344 8.085938-78.9375 35.261719l-103.933594-47.664062c28.867187-38.804688 30.589844-91.457032 4.328125-132.0625l102.558593-49.207032c4.308594 6.097656 9.492188 11.527344 15.386719 16.113282zm9.691407 303.257812c.253906-20.023438 16.5625-36.121094 36.585937-36.121094 20.027344 0 36.332031 16.097656 36.589844 36.121094-21.925781 15.515625-51.253907 15.515625-73.175781 0zm36.585937-115.0625c24.90625 0 47.503906 14.589844 57.746094 37.292969 10.246093 22.703125 6.234375 49.300781-10.246094 67.972656-4.832031-22.359375-24.605469-38.320313-47.484375-38.324219-22.875-.007812-42.660156 15.945313-47.503906 38.300782-16.484375-18.667969-20.496094-45.261719-10.253906-67.960938 10.242187-22.699219 32.839843-37.289062 57.742187-37.28125zm-261.648437 11.839844c-57.4375 0-104-46.5625-104-104s46.5625-104 104-104 104 46.5625 104 104c-.066407 57.410156-46.589844 103.9375-104 104zm225.273437-207.636719c2.066406-18.53125 17.730469-32.550781 36.375-32.550781s34.3125 14.019531 36.375 32.550781c-21.835937 15.304687-50.914063 15.304687-72.75 0zm36.375-115.222656c25.101563.003906 47.832031 14.828125 57.960937 37.792969 10.128907 22.964843 5.75 49.746093-11.171874 68.285156-5.925782-20.933594-25.035157-35.382813-46.789063-35.382813s-40.859375 14.449219-46.785156 35.382813c-16.921875-18.539063-21.304688-45.320313-11.175781-68.285156 10.128906-22.964844 32.859374-37.789063 57.960937-37.792969zm0 0"/><path d="m378.109375 75.40625c15.078125 0 27.300781-12.222656 27.300781-27.300781 0-15.074219-12.222656-27.296875-27.300781-27.296875s-27.300781 12.222656-27.300781 27.296875c.019531 15.070312 12.230468 27.285156 27.300781 27.300781zm0-42.597656c8.449219 0 15.300781 6.847656 15.300781 15.296875 0 8.453125-6.851562 15.300781-15.300781 15.300781s-15.300781-6.847656-15.300781-15.300781c.011718-8.445313 6.855468-15.289063 15.300781-15.296875zm0 0"/><path d="m378.109375 382.675781c15.078125 0 27.300781-12.222656 27.300781-27.296875 0-15.078125-12.222656-27.300781-27.300781-27.300781s-27.300781 12.222656-27.300781 27.300781c.019531 15.070313 12.230468 27.28125 27.300781 27.296875zm0-42.597656c8.449219 0 15.300781 6.847656 15.300781 15.300781 0 8.449219-6.851562 15.296875-15.300781 15.296875s-15.300781-6.847656-15.300781-15.296875c.011718-8.449218 6.855468-15.292968 15.300781-15.300781zm0 0"/><path d="m187.566406 165.308594-57.449218-10.789063c-1.753907-.328125-3.566407.140625-4.941407 1.28125-1.371093 1.140625-2.167969 2.832031-2.164062 4.621094v100.5c-5.253907-3.316406-11.347657-5.058594-17.5625-5.019531-16.292969 0-29.550781 11.480468-29.550781 25.589844 0 14.109374 13.257812 25.589843 29.550781 25.589843 16.296875 0 29.5625-11.480469 29.5625-25.589843v-70.484376l50.339843 9.457032c1.757813.328125 3.566407-.140625 4.941407-1.28125s2.167969-2.832032 2.167969-4.621094v-43.355469c0-2.886719-2.054688-5.363281-4.894532-5.898437zm-82.117187 129.769531c-9.675781 0-17.550781-6.101563-17.550781-13.589844 0-7.492187 7.875-13.589843 17.550781-13.589843 9.679687 0 17.5625 6.097656 17.5625 13.589843 0 7.488281-7.878907 13.589844-17.5625 13.589844zm75.011719-87.742187-45.449219-8.535157v-31.152343l45.449219 8.535156zm0 0"/><path d="m46.460938 179.847656h50.847656c3.316406 0 6-2.6875 6-6s-2.683594-6-6-6h-50.847656c-3.316407 0-6 2.6875-6 6s2.683593 6 6 6zm0 0"/><path d="m46.460938 206.257812h50.847656c3.316406 0 6-2.6875 6-6s-2.683594-6-6-6h-50.847656c-3.316407 0-6 2.6875-6 6s2.683593 6 6 6zm0 0"/><path d="m103.308594 226.675781c0-3.3125-2.683594-6-6-6h-50.847656c-3.316407 0-6 2.6875-6 6 0 3.316407 2.683593 6 6 6h50.847656c3.316406 0 6-2.683593 6-6zm0 0"/></g></svg>