<svg height="491pt" viewBox="0 -63 491.26178 491" width="491pt" xmlns="http://www.w3.org/2000/svg"><path d="m347.453125 163.242188c25.25.621093 45.398437 21.265624 45.398437 46.523437s-20.148437 45.90625-45.398437 46.527344zm0 0" fill="#f8ec7d"/><path d="m347.453125 256.292969v81.46875l-38.671875-18.039063.269531-.582031v-219.449219l38.402344-17.917968zm0 0" fill="#e48e66"/><path d="m309.050781 99.691406v219.449219l-.269531.582031-76.828125-35.851562c-22.152344-10.335938-45.503906-17.867188-69.519531-22.417969v-57.941406l-.351563-.640625c22.984375-12.828125 40.335938-33.796875 48.628907-58.777344l.703124.226562c6.9375-2.617187 13.785157-5.5 20.539063-8.648437zm0 0" fill="#f8ec7d"/><path d="m93.234375 155.691406c0-7.398437-7.222656-13.410156-16.121094-13.410156-8.902343 0-16.109375 6.011719-16.109375 13.410156 0 7.402344 7.207032 13.402344 16.109375 13.402344 8.898438 0 16.121094-6 16.121094-13.402344zm67.769531-28.917968c0-7.402344-7.222656-13.402344-16.121094-13.402344-8.898437 0-16.109374 6-16.109374 13.402344 0 7.398437 7.210937 13.410156 16.109374 13.410156 8.898438 0 16.121094-6.011719 16.121094-13.410156zm0-47.140626v-26.5l-67.769531 16.710938v26.507812zm55 31.480469c0 57.988281-47.011718 105-105 105-57.992187 0-105-47.011719-105-105 0-57.992187 47.007813-105 105-105 27.859375-.039062 54.585938 11.011719 74.289063 30.710938 19.699219 19.699219 30.75 46.429687 30.710937 74.289062zm0 0" fill="#6fe3ff"/><path d="m162.433594 261.453125v51.878906c0 25.703125-20.835938 46.542969-46.542969 46.539063v-103.449219c15.625.433594 31.1875 2.117187 46.542969 5.03125zm0 0" fill="#f8ec7d"/><path d="m115.890625 256.421875c-2.707031-.066406-5.421875-.101563-8.136719-.109375-12.855468-.003906-23.273437-10.417969-23.28125-23.269531v-19.550781l.191406-.71875c26.121094 6.738281 53.832032 3.195312 77.417969-9.902344l.351563.640625v57.941406c-15.355469-2.914063-30.917969-4.597656-46.542969-5.03125zm0 0" fill="#e48e66"/><path d="m161.003906 53.132812v26.5l-67.769531 16.71875v-26.507812zm0 0" fill="#f8ec7d"/><path d="m144.882812 113.371094c8.898438 0 16.121094 6 16.121094 13.402344 0 7.398437-7.222656 13.410156-16.121094 13.410156-8.898437 0-16.109374-6.011719-16.109374-13.410156 0-7.402344 7.210937-13.402344 16.109374-13.402344zm0 0" fill="#f8ec7d"/><path d="m77.113281 142.28125c8.898438 0 16.121094 6.011719 16.121094 13.410156 0 7.402344-7.222656 13.402344-16.121094 13.402344-8.902343 0-16.109375-6-16.109375-13.402344 0-7.398437 7.207032-13.410156 16.109375-13.410156zm0 0" fill="#f8ec7d"/><g fill="#63316d"><path d="m404.394531 267.480469c-3.050781 1.296875-4.46875 4.824219-3.171875 7.871093 1.296875 3.050782 4.820313 4.46875 7.871094 3.171876 27.566406-11.734376 45.460938-38.796876 45.460938-68.757813 0-29.957031-17.894532-57.019531-45.460938-68.753906-3.050781-1.296875-6.574219.121093-7.871094 3.171875-1.296875 3.046875.121094 6.570312 3.171875 7.871094 23.136719 9.847656 38.15625 32.5625 38.15625 57.710937s-15.019531 47.867187-38.15625 57.714844zm0 0"/><path d="m423.902344 107.882812c-1.976563-.855468-4.257813-.589843-5.980469.699219-1.726563 1.292969-2.625 3.40625-2.359375 5.542969s1.652344 3.96875 3.640625 4.796875c36.417969 15.503906 60.058594 51.261719 60.058594 90.84375 0 39.585937-23.640625 75.339844-60.058594 90.847656-1.988281.828125-3.375 2.660157-3.640625 4.796875-.265625 2.136719.632812 4.25 2.359375 5.542969 1.722656 1.289063 4.003906 1.554687 5.980469.699219 40.847656-17.386719 67.359375-57.492188 67.359375-101.886719 0-44.390625-26.511719-84.496094-67.359375-101.882813zm0 0"/><path d="m78.472656 217.257812v15.785157c.007813 16.164062 13.113282 29.265625 29.28125 29.269531.707032 0 1.417969.003906 2.136719.007812v97.550782c0 3.316406 2.6875 6 6 6 29.019531.003906 52.542969-23.519532 52.542969-52.539063v-44.535156c21.027344 4.539063 41.484375 11.417969 60.980468 20.511719l115.5 53.890625c1.859376.867187 4.03125.726562 5.761719-.375 1.730469-1.101563 2.777344-3.011719 2.777344-5.0625v-75.953125c26.003906-3.574219 45.378906-25.792969 45.378906-52.042969 0-26.246094-19.375-48.46875-45.378906-52.042969v-75.949218c0-2.050782-1.046875-3.960938-2.777344-5.0625-1.730469-1.101563-3.902343-1.242188-5.761719-.375l-115.5 53.898437c-3.246093 1.515625-6.554687 2.984375-9.933593 4.40625 12.730469-58.730469-23.589844-116.921875-81.941407-131.289063-58.351562-14.367187-117.539062 20.308594-133.535156 78.234376-15.996094 57.925781 17.011719 118.0625 74.46875 135.671874zm308.359375-7.484374c-.125 19.578124-14.128906 36.3125-33.378906 39.886718v-79.8125c19.386719 3.367188 33.5 20.25 33.378906 39.925782zm-291.300781 35.46875c-3.25-3.226563-5.070312-7.617188-5.054688-12.199219v-12.839844c22.265626 4.179687 45.28125 1.457031 65.957032-7.804687v41.90625c-13.355469-2.199219-26.847656-3.496094-40.382813-3.878907-2.914062-.078125-5.628906-.113281-8.300781-.113281-4.585938.011719-8.988281-1.8125-12.21875-5.070312zm49.03125 96.757812c-6.121094 6.15625-14.074219 10.167969-22.667969 11.433594v-90.769532c11.582031.574219 23.113281 1.84375 34.539063 3.808594v46.859375c.027344 10.757813-4.25 21.078125-11.875 28.667969zm196.890625-13.65625-26.402344-12.320312v-212.511719l26.402344-12.320313zm-106.964844-187.234375 68.5625-32v201.316406l-68.558593-31.992187c-21.097657-9.839844-43.265626-17.195313-66.058594-21.90625v-50.433594c21.617187-13.054688 38.128906-33.101562 46.800781-56.820312 6.570313-2.523438 13.042969-5.261719 19.253906-8.164063zm-123.484375-128.996094c38.359375.023438 73.253906 22.207031 89.550782 56.933594 16.300781 34.722656 11.074218 75.742187-13.417969 105.265625-24.488281 29.527344-63.828125 42.25-100.96875 32.652344-48.242188-12.507813-79.667969-58.925782-73.367188-108.363282 6.300781-49.433593 48.363281-86.484374 98.203125-86.488281zm0 0"/><path d="m77.113281 175.09375c12.199219 0 22.121094-8.703125 22.121094-19.402344v-54.640625l55.769531-13.757812v22.238281c-3.183594-1.433594-6.632812-2.167969-10.121094-2.160156-12.191406 0-22.109374 8.699218-22.109374 19.402344 0 10.699218 9.917968 19.410156 22.109374 19.410156 12.191407 0 22.121094-8.710938 22.121094-19.410156v-73.640626c0-1.84375-.847656-3.585937-2.300781-4.722656-1.453125-1.140625-3.347656-1.546875-5.136719-1.105468l-67.769531 16.710937c-2.679687.660156-4.566406 3.066406-4.5625 5.828125v68.597656c-3.183594-1.429687-6.632813-2.167968-10.121094-2.160156-12.191406 0-22.109375 8.710938-22.109375 19.410156 0 10.703125 9.917969 19.402344 22.109375 19.402344zm67.769531-40.910156c-5.480468 0-10.109374-3.394532-10.109374-7.410156 0-4.015626 4.628906-7.402344 10.109374-7.402344 5.480469 0 10.121094 3.390625 10.121094 7.402344 0 4.007812-4.636718 7.410156-10.121094 7.410156zm10.121094-73.390625v14.140625l-55.769531 13.757812v-14.148437zm-77.890625 87.488281c5.484375 0 10.121094 3.394531 10.121094 7.410156s-4.636719 7.402344-10.121094 7.402344c-5.488281 0-10.109375-3.390625-10.109375-7.402344 0-4.011718 4.628906-7.410156 10.109375-7.410156zm0 0"/></g></svg>