<svg height="491.99844pt" viewBox="1 1 491.99844 491.99844" width="491.99844pt" xmlns="http://www.w3.org/2000/svg"><path d="m346 130.039062v53.011719l-135.539062 33.429688v-53.011719zm0 0" fill="#f8ec7d"/><path d="m313.769531 250.519531c17.800781 0 32.230469 12 32.230469 26.808594 0 14.8125-14.429688 26.800781-32.230469 26.800781s-32.230469-12-32.230469-26.800781 14.429688-26.808594 32.230469-26.808594zm0 0" fill="#f8ec7d"/><path d="m178.230469 308.347656c17.800781 0 32.230469 12 32.230469 26.8125 0 14.808594-14.429688 26.800782-32.230469 26.800782s-32.230469-12-32.230469-26.800782c0-14.800781 14.429688-26.8125 32.230469-26.8125zm0 0" fill="#f8ec7d"/><g fill="#63316d"><path d="m276.761719 36.761719c2.34375-2.34375 2.34375-6.140625 0-8.484375l-26.519531-26.519532c-2.34375-2.34375-6.140626-2.34375-8.484376 0l-26.519531 26.515626c-2.34375 2.34375-2.34375 6.144531 0 8.488281 2.339844 2.34375 6.140625 2.34375 8.484375 0l15.335938-15.335938v49.261719c0 3.316406 2.6875 6 6 6 3.316406 0 6-2.683594 6-6v-50.628906c0-.183594-.011719-.363282-.027344-.542969l17.246094 17.246094c2.339844 2.34375 6.140625 2.34375 8.484375 0zm0 0"/><path d="m268.277344 455.238281-15.339844 15.335938v-49.265625c0-3.3125-2.683594-6-6-6-3.3125 0-6 2.6875-6 6v50.628906c0 .183594.011719.363281.027344.542969l-17.242188-17.242188c-2.34375-2.34375-6.144531-2.34375-8.488281 0s-2.34375 6.140625 0 8.484375l26.519531 26.519532c2.34375 2.34375 6.144532 2.34375 8.488282 0l26.519531-26.519532c2.308593-2.347656 2.292969-6.121094-.035157-8.449218-2.328124-2.332032-6.101562-2.347657-8.449218-.035157zm0 0"/><path d="m21.425781 252.9375h49.265625c3.3125 0 6-2.683594 6-6 0-3.3125-2.6875-6-6-6h-50.632812c-.183594 0-.363282.015625-.539063.03125l17.242188-17.246094c2.34375-2.34375 2.34375-6.140625 0-8.484375s-6.140625-2.34375-8.484375-.003906l-26.519532 26.523437c-2.34375 2.34375-2.34375 6.140626 0 8.484376l26.519532 26.519531c2.34375 2.34375 6.140625 2.34375 8.484375 0s2.34375-6.144531 0-8.488281zm0 0"/><path d="m463.722656 215.238281c-2.347656-2.3125-6.121094-2.296875-8.449218.035157-2.332032 2.328124-2.347657 6.101562-.035157 8.449218l15.335938 15.335938h-49.265625c-3.3125 0-6 2.6875-6 6s2.6875 6 6 6h50.632812c.183594 0 .363282-.011719.542969-.027344l-17.246094 17.246094c-1.535156 1.511718-2.144531 3.730468-1.59375 5.8125.554688 2.082031 2.179688 3.710937 4.265625 4.261718 2.082032.554688 4.300782-.054687 5.8125-1.589843l26.519532-26.519531c2.34375-2.34375 2.34375-6.140626 0-8.484376zm0 0"/><path d="m119.789062 76.289062c0-3.3125-2.6875-6-6-6h-37.5c-3.3125 0-6 2.6875-6 6v37.5c0 3.3125 2.6875 6 6 6s6-2.6875 6-6v-21.691406l34.835938 34.847656c2.351562 2.3125 6.121094 2.296876 8.453125-.035156 2.328125-2.328125 2.34375-6.101562.035156-8.449218l-35.789062-35.800782c-.140625-.140625-.300781-.242187-.453125-.367187h24.417968c3.316407 0 6.003907-2.6875 6-6.003907zm0 0"/><path d="m415.710938 372.210938c-3.316407 0-6 2.683593-6 6v21.6875l-34.839844-34.84375c-1.507813-1.539063-3.730469-2.144532-5.8125-1.59375-2.082032.550781-3.710938 2.179687-4.261719 4.261718-.554687 2.082032.054687 4.304688 1.589844 5.816406l35.789062 35.796876c.140625.140624.300781.246093.449219.371093h-24.414062c-3.316407 0-6 2.683594-6 6 0 3.3125 2.683593 6 6 6h37.5c3.3125 0 6-2.6875 6-6v-37.5c-.003907-3.3125-2.6875-5.996093-6-5.996093zm0 0"/><path d="m369.300781 127.371094c1.589844 0 3.117188-.632813 4.242188-1.757813l35.796875-35.792969c.140625-.136718.246094-.296874.371094-.449218v24.417968c0 3.3125 2.683593 6 6 6 3.3125 0 6-2.6875 6-6v-37.5c0-3.3125-2.6875-6-6-6h-37.5c-3.316407 0-6 2.6875-6 6s2.683593 6 6 6h21.6875l-34.84375 34.835938c-1.71875 1.71875-2.230469 4.300781-1.300782 6.542969.929688 2.242187 3.117188 3.703125 5.546875 3.703125zm0 0"/><path d="m118.457031 366.386719-35.800781 35.789062c-.128906.144531-.25.292969-.367188.449219v-24.414062c0-3.316407-2.6875-6-6-6s-6 2.683593-6 6v37.5c0 3.3125 2.6875 6 6 6h37.5c3.3125 0 6-2.6875 6-6 0-3.316407-2.6875-6-6-6h-21.6875l34.84375-34.839844c1.535157-1.511719 2.144532-3.730469 1.59375-5.8125-.554687-2.082032-2.179687-3.710938-4.261718-4.261719-2.085938-.554687-4.304688.054687-5.816406 1.589844zm0 0"/><path d="m349.699219 125.316406c-1.453125-1.136718-3.347657-1.542968-5.136719-1.101562l-135.539062 33.429687c-2.679688.660157-4.5625 3.066407-4.5625 5.824219v147.855469c-7.464844-5.898438-16.71875-9.066407-26.230469-8.976563-21.082031 0-38.230469 14.71875-38.230469 32.8125 0 18.089844 17.148438 32.800782 38.230469 32.800782 21.078125 0 38.230469-14.714844 38.230469-32.800782v-113.980468l123.539062-30.472657v62.785157c-7.460938-5.898438-16.71875-9.066407-26.230469-8.972657-21.082031 0-38.230469 14.71875-38.230469 32.808594 0 18.09375 17.148438 32.800781 38.230469 32.800781s38.230469-14.714844 38.230469-32.800781v-147.289063c0-1.84375-.847656-3.585937-2.300781-4.722656zm-171.46875 230.644532c-14.464844 0-26.230469-9.332032-26.230469-20.800782s11.765625-20.8125 26.230469-20.8125c14.460937 0 26.230469 9.335938 26.230469 20.8125 0 11.472656-11.769532 20.800782-26.230469 20.800782zm38.230469-147.140626v-40.652343l123.539062-30.46875v40.648437zm97.308593 89.308594c-14.460937 0-26.230469-9.332031-26.230469-20.800781s11.769532-20.808594 26.230469-20.808594c14.464844 0 26.230469 9.335938 26.230469 20.808594 0 11.476563-11.765625 20.800781-26.230469 20.800781zm0 0"/></g></svg>