<svg height="492pt" viewBox="-38 0 492 492.00486" width="492pt" xmlns="http://www.w3.org/2000/svg"><path d="m410.222656 127.679688-38.441406 5.589843-17.1875 34.832031-17.191406-34.832031-38.441406-5.589843 27.820312-27.109376-6.570312-38.289062 34.382812 18.078125 34.378906-18.078125-6.558594 38.289062zm0 0" fill="#6fe3ff"/><path d="m355.691406 337.429688c-.074218-44.785157-29.8125-84.101563-72.886718-96.359376-43.078126-12.253906-89.0625 5.511719-112.703126 43.550782v-133.269532c102.179688 0 185.589844 83.417969 185.589844 186.078126zm0 0" fill="#f8ec7d"/><path d="m263.742188 71.398438-38.441407 5.582031-17.1875 34.828125-17.191406-34.828125-38.4375-5.582031 27.808594-27.117188-6.558594-38.28125 34.378906 18.082031 34.378907-18.082031-6.558594 38.28125zm0 0" fill="#6fe3ff"/><path d="m115.324219 376.429688c30.253906.003906 54.78125 24.535156 54.777343 54.789062 0 30.257812-24.53125 54.785156-54.789062 54.78125s-54.78125-24.53125-54.78125-54.789062c-.003906-30.261719 24.53125-54.789063 54.792969-54.78125zm0 0" fill="#f8ec7d"/><path d="m117.261719 127.679688-38.4375 5.589843-17.191407 34.832031-17.191406-34.832031-38.4375-5.589843 27.808594-27.109376-6.558594-38.289062 34.378906 18.078125 34.378907-18.078125-6.570313 38.289062zm0 0" fill="#6fe3ff"/><g fill="#63316d"><path d="m146.777344 73.257812c.707031 2.171876 2.582031 3.753907 4.84375 4.082032l35.316406 5.125 15.796875 32c1.007813 2.046875 3.09375 3.34375 5.378906 3.34375 2.28125 0 4.367188-1.296875 5.378907-3.34375l15.792968-32 35.320313-5.125c2.261719-.328125 4.140625-1.910156 4.847656-4.085938.707031-2.171875.117187-4.558594-1.523437-6.152344l-25.550782-24.914062 6.027344-35.171875c.386719-2.253906-.539062-4.527344-2.386719-5.871094-1.847656-1.339843-4.296875-1.519531-6.320312-.457031l-31.585938 16.613281-31.585937-16.613281c-2.023438-1.0625-4.472656-.882812-6.320313.457031-1.847656 1.34375-2.773437 3.617188-2.386719 5.871094l6.027344 35.171875-25.554687 24.914062c-1.636719 1.59375-2.226563 3.980469-1.515625 6.15625zm37.703125-24.679687c1.414062-1.378906 2.058593-3.363281 1.726562-5.3125l-4.507812-26.296875 23.621093 12.421875c1.746094.917969 3.835938.917969 5.585938 0l23.621094-12.421875-4.507813 26.296875c-.335937 1.949219.3125 3.933594 1.722657 5.3125l19.109374 18.632813-26.410156 3.832031c-1.957031.285156-3.644531 1.511719-4.519531 3.28125l-11.808594 23.929687-11.8125-23.929687c-.871093-1.769531-2.5625-2.996094-4.515625-3.28125l-26.410156-3.832031zm0 0"/><path d="m.296875 129.535156c.707031 2.171875 2.582031 3.753906 4.84375 4.082032l35.316406 5.136718 15.796875 32c1.007813 2.046875 3.09375 3.34375 5.378906 3.34375 2.28125 0 4.367188-1.296875 5.378907-3.34375l15.792969-32 35.320312-5.136718c2.261719-.328126 4.136719-1.910157 4.84375-4.082032.703125-2.171875.117188-4.558594-1.519531-6.152344l-25.558594-24.90625 6.035156-35.175781c.386719-2.25-.539062-4.527343-2.386719-5.867187-1.847656-1.34375-4.296874-1.519532-6.320312-.457032l-31.585938 16.605469-31.585937-16.613281c-2.023437-1.0625-4.472656-.886719-6.320313.457031-1.847656 1.34375-2.773437 3.617188-2.386718 5.867188l6.027344 35.183593-25.554688 24.90625c-1.632812 1.59375-2.222656 3.980469-1.515625 6.152344zm37.699219-24.667968c1.414062-1.378907 2.058594-3.363282 1.726562-5.308594l-4.503906-26.308594 23.621094 12.421875c1.75.917969 3.835937.917969 5.585937 0l23.617188-12.421875-4.511719 26.300781c-.335938 1.945313.308594 3.933594 1.722656 5.3125l19.113282 18.625-26.40625 3.839844c-1.957032.285156-3.644532 1.511719-4.519532 3.28125l-11.808594 23.929687-11.808593-23.925781c-.875-1.769531-2.566407-2.996093-4.519531-3.28125l-26.410157-3.839843zm0 0"/><path d="m411.085938 133.617188c2.257812-.328126 4.136718-1.910157 4.84375-4.082032.703124-2.171875.117187-4.558594-1.519532-6.152344l-25.550781-24.90625 6.027344-35.183593c.386719-2.25-.539063-4.523438-2.386719-5.867188-1.851562-1.34375-4.300781-1.519531-6.320312-.457031l-31.585938 16.613281-31.589844-16.613281c-2.019531-1.0625-4.46875-.882812-6.316406.457031-1.847656 1.34375-2.773438 3.617188-2.386719 5.871094l6.035157 35.179687-25.558594 24.90625c-1.636719 1.59375-2.226563 3.980469-1.519532 6.152344.703126 2.171875 2.582032 3.753906 4.839844 4.082032l35.320313 5.136718 15.792969 32c1.011718 2.046875 3.097656 3.34375 5.382812 3.34375 2.28125 0 4.367188-1.296875 5.378906-3.34375l15.792969-32zm-44.683594-3-11.808594 23.929687-11.8125-23.929687c-.871094-1.769532-2.5625-2.996094-4.515625-3.28125l-26.40625-3.839844 19.109375-18.625c1.414062-1.378906 2.058594-3.363282 1.726562-5.3125l-4.511718-26.300782 23.617187 12.421876c1.746094.917968 3.835938.917968 5.582031 0l23.621094-12.421876-4.503906 26.308594c-.335938 1.945313.3125 3.929688 1.722656 5.308594l19.109375 18.625-26.414062 3.839844c-1.949219.28125-3.640625 1.507812-4.515625 3.273437zm0 0"/><path d="m176.101562 431.210938v-144.828126c22.6875-35.105468 65.761719-51.101562 105.863282-39.308593 40.097656 11.792969 67.65625 48.558593 67.726562 90.355469 0 3.3125 2.6875 6 6 6 3.316406 0 6-2.6875 6-6v-.042969c-.019531-105.898438-85.957031-192.035157-191.589844-192.035157-3.3125 0-6 2.683594-6 6v243.648438c-17.792968-23.933594-50.332031-31.410156-76.789062-17.648438-26.460938 13.765626-39.015625 44.699219-29.632812 73.007813 9.378906 28.3125 37.921874 45.625 67.363281 40.867187 29.445312-4.761718 51.078125-30.1875 51.058593-60.011718zm0-273.761719c71.945313 2.378906 133.3125 47.398437 159.730469 110.597656-20-23.117187-48.972656-36.523437-79.539062-36.800781-30.566407-.277344-59.777344 12.601562-80.191407 35.355468zm-109.570312 273.761719c.003906-26.941407 21.847656-48.78125 48.789062-48.78125 26.941407 0 48.78125 21.84375 48.78125 48.785156s-21.835937 48.78125-48.777343 48.785156c-26.9375-.027344-48.765625-21.855469-48.792969-48.789062zm0 0"/></g></svg>