<svg height="392pt" viewBox="0 -60 392 392" width="392pt" xmlns="http://www.w3.org/2000/svg"><path d="m386 26v220c.003906 11.046875-8.953125 20.003906-20 20h-70l-20-40h-160l-20 40h-70c-11.046875.003906-20.003906-8.953125-20-20v-220c-.003906-11.046875 8.953125-20.003906 20-20h340c11.046875-.003906 20.003906 8.953125 20 20zm-22.578125 6.371094c0-2.761719-2.242187-5-5-5-2.761719 0-5 2.238281-5 5 0 2.761718 2.238281 5 5 5 2.757813 0 5-2.238282 5-5zm-34.511719 103.628906c0-16.570312-13.429687-30-30-30h-205.820312c-16.570313 0-30 13.429688-30 30s13.429687 30 30 30h205.820312c16.570313 0 30-13.429688 30-30zm-291.621094-103.628906c0-2.761719-2.238281-5-5-5-2.761718 0-5 2.238281-5 5 0 2.761718 2.238282 5 5 5 2.761719 0 5-2.238282 5-5zm0 0" fill="#e48e66"/><path d="m328.910156 136c0 16.570312-13.429687 30-30 30-16.570312 0-30-13.429688-30-30s13.429688-30 30-30c16.570313 0 30 13.429688 30 30zm0 0" fill="#f8ec7d"/><path d="m93.089844 106h205.820312c-16.570312 0-30 13.429688-30 30s13.429688 30 30 30h-205.820312c16.570312 0 30-13.429688 30-30s-13.429688-30-30-30zm0 0" fill="#6fe3ff"/><path d="m276 226 20 40h-200l20-40zm0 0" fill="#f8ec7d"/><path d="m123.089844 136c0 16.570312-13.429688 30-30 30-16.570313 0-30-13.429688-30-30s13.429687-30 30-30c16.570312 0 30 13.429688 30 30zm0 0" fill="#f8ec7d"/><g fill="#63316d"><path d="m366 0h-340c-14.351562.015625-25.984375 11.648438-26 26v220c.015625 14.351562 11.648438 25.984375 26 26h340c14.351562-.015625 25.984375-11.648438 26-26v-220c-.015625-14.351562-11.648438-25.984375-26-26zm-260.292969 260 14-28h152.585938l14 28zm274.292969-14c-.007812 7.730469-6.269531 13.992188-14 14h-66.292969l-18.339843-36.683594c-1.015626-2.03125-3.09375-3.316406-5.367188-3.316406h-160c-2.273438 0-4.351562 1.285156-5.367188 3.316406l-18.339843 36.683594h-66.292969c-7.730469-.007812-13.992188-6.269531-14-14v-220c.007812-7.730469 6.269531-13.992188 14-14h340c7.730469.007812 13.992188 6.269531 14 14zm0 0"/><path d="m298.910156 100h-205.820312c-19.882813 0-36 16.117188-36 36s16.117187 36 36 36h205.820312c19.882813 0 36-16.117188 36-36s-16.117187-36-36-36zm-26.800781 12c-12.261719 13.652344-12.261719 34.347656 0 48h-152.214844c12.261719-13.652344 12.261719-34.347656 0-48zm-203.019531 24c0-13.253906 10.746094-24 24-24s24 10.746094 24 24-10.746094 24-24 24c-13.25-.015625-23.984375-10.75-24-24zm229.820312 24c-13.253906 0-24-10.746094-24-24s10.746094-24 24-24 24 10.746094 24 24c-.015625 13.25-10.75 23.984375-24 24zm0 0"/><path d="m32.289062 21.371094c-6.074218 0-11 4.921875-11 11 0 6.074218 4.925782 11 11 11 6.074219 0 11-4.925782 11-11-.007812-6.074219-4.925781-10.992188-11-11zm0 12c-.550781 0-1-.449219-1-1 0-.554688.449219-1 1-1 .554688 0 1 .445312 1 1 0 .550781-.445312 1-1 1zm0 0"/><path d="m358.421875 21.371094c-6.078125 0-11 4.921875-11 11 0 6.074218 4.921875 11 11 11 6.074219 0 11-4.925782 11-11-.007813-6.074219-4.929687-10.996094-11-11zm0 12c-.554687 0-1-.449219-1-1 0-.554688.445313-1 1-1 .550781 0 1 .445312 1 1 0 .550781-.449219 1-1 1zm0 0"/></g></svg>