<svg height="428.97844pt" viewBox="0 0 428.97844 428.97844" width="428.97844pt" xmlns="http://www.w3.org/2000/svg"><path d="m229.621094 213.9375c-5.53125-5.527344-15.402344-4.617188-22.042969 2.023438-6.636719 6.636718-7.558594 16.519531-2.027344 22.046874 5.527344 5.53125 15.398438 4.621094 22.050781-2.027343 6.648438-6.652344 7.546876-16.511719 2.019532-22.042969zm-29.019532 72.210938c-5.53125-5.527344-15.390624-4.628907-22.042968 2.019531-6.648438 6.652343-7.550782 16.519531-2.027344 22.050781 5.519531 5.53125 15.398438 4.621094 22.046875-2.03125 6.652344-6.648438 7.550781-16.519531 2.023437-22.039062zm-9.453124-216.027344 64.121093-64.121094 167.710938 167.710938-249.269531 249.269531-42.050782-42.050781c17.441406-23.082032 15.378906-56.421876-5.652344-77.960938-21.027343-21.539062-54.359374-23.089844-77.957031-5.648438l-42.050781-42.050781zm-34.859376 171.707031 38.128907-63.089844-14.589844-14.589843c-1.253906-1.253907-3.011719-1.859376-4.773437-1.648438-1.761719.214844-3.324219 1.222656-4.246094 2.738281l-31.980469 52.929688c-1.371094 2.273437-1.015625 5.1875.863281 7.0625zm0 0" fill="#f8ec7d"/><g fill="#e48e66"><path d="m229.621094 213.9375c5.527344 5.53125 4.617187 15.402344-2.019532 22.042969-6.640624 6.640625-16.523437 7.558593-22.050781 2.027343-5.53125-5.527343-4.621093-15.398437 2.027344-22.046874 6.652344-6.652344 16.511719-7.550782 22.042969-2.023438zm0 0"/><path d="m200.601562 286.148438c5.527344 5.519531 4.628907 15.390624-2.023437 22.039062-6.648437 6.652344-16.519531 7.550781-22.046875 2.03125-5.53125-5.519531-4.621094-15.398438 2.027344-22.050781 6.652344-6.648438 16.511718-7.546875 22.042968-2.019531zm0 0"/><path d="m194.417969 178.738281-38.128907 63.089844-16.597656-16.597656c-1.878906-1.875-2.234375-4.789063-.863281-7.0625l31.980469-52.929688c.921875-1.515625 2.484375-2.523437 4.246094-2.738281 1.761718-.210938 3.519531.394531 4.773437 1.648438zm0 0"/></g><path d="m259.511719 1.757812c-2.34375-2.34375-6.140625-2.34375-8.484375 0l-64.09375 64.09375-.050782.046876-185.125 185.128906c-2.34375 2.34375-2.34375 6.140625 0 8.484375l42.050782 42.050781c2.097656 2.097656 5.417968 2.347656 7.808594.582031 21.597656-15.964843 51.738281-13.808593 70.097656 5.015625 18.691406 19.144532 20.910156 49.300782 5.15625 70.152344-1.804688 2.386719-1.574219 5.742188.542968 7.859375l42.050782 42.050781c2.34375 2.339844 6.144531 2.339844 8.488281 0l249.269531-249.269531c2.339844-2.34375 2.339844-6.144531 0-8.484375zm99.320312 227.617188-34.21875-33.777344c-2.355469-2.328125-6.15625-2.300781-8.484375.054688-2.328125 2.359375-2.300781 6.160156.054688 8.488281l34.160156 33.71875-176.632812 176.636719-34.273438-34.273438c15.957031-25.242187 12.410156-59.378906-9.132812-81.441406-21.324219-21.867188-55.535157-25.449219-81.519532-9.214844l-34.296875-34.296875 176.632813-176.636719 34.230468 34.671876c2.335938 2.308593 6.09375 2.3125 8.433594.003906 2.335938-2.308594 2.386719-6.070313.105469-8.433594l-34.28125-34.730469 55.660156-55.65625 159.226563 159.222657zm0 0" fill="#63316d"/><path d="m251.027344 138.460938 40 40.011718c2.347656 2.308594 6.121094 2.292969 8.449218-.035156 2.332032-2.328125 2.347657-6.101562.035157-8.449219l-40-40.011719c-2.34375-2.34375-6.140625-2.34375-8.484375 0s-2.34375 6.140626 0 8.484376zm0 0" fill="#63316d"/><path d="m184.074219 159.90625c-2.558594-2.558594-6.152344-3.800781-9.742188-3.363281-3.59375.433593-6.785156 2.496093-8.660156 5.59375l-31.980469 52.933593c-2.8125 4.628907-2.085937 10.578126 1.753906 14.398438l48.402344 48.410156c-3.589844 1.277344-6.847656 3.34375-9.53125 6.046875-8.972656 8.96875-9.882812 22.664063-2.027344 30.539063 3.578126 3.496094 8.402344 5.417968 13.40625 5.335937 6.457032-.101562 12.613282-2.75 17.125-7.371093 4.128907-4.042969 6.714844-9.398438 7.3125-15.140626.613282-5.660156-1.324218-11.296874-5.289062-15.378906l-40.988281-40.996094 31.734375-52.515624 17.269531 17.269531c-3.585937 1.28125-6.839844 3.347656-9.527344 6.046875-4.125 4.042968-6.710937 9.394531-7.3125 15.136718-.621093 5.664063 1.316407 11.3125 5.28125 15.402344 3.59375 3.507813 8.433594 5.441406 13.453125 5.375.644532 0 1.292969-.03125 1.945313-.089844 5.746093-.601562 11.097656-3.1875 15.140625-7.316406 8.972656-8.972656 9.875-22.664062 2.019531-30.523437zm14.109375 136.292969c-.359375 2.945312-1.714844 5.679687-3.847656 7.746093-4.222657 4.222657-10.4375 5.152344-13.558594 2.035157-3.125-3.132813-2.199219-9.34375 2.023437-13.570313 4.222657-4.21875 10.429688-5.148437 13.5625-2.015625 1.429688 1.574219 2.09375 3.695313 1.820313 5.804688zm-43.066406-64.027344-11.058594-11.058594 31.730468-52.515625 11.0625 11.0625zm68.238281-.4375c-2.066407 2.132813-4.800781 3.492187-7.75 3.851563-2.121094.382812-4.289063-.296876-5.8125-1.820313-1.523438-1.519531-2.203125-3.691406-1.820313-5.808594.820313-6.03125 5.5625-10.773437 11.59375-11.601562 2.109375-.273438 4.234375.390625 5.808594 1.820312 3.128906 3.132813 2.203125 9.339844-2.019531 13.558594zm0 0" fill="#63316d"/></svg>