<svg height="417pt" viewBox="-2 0 417 417.99312" width="417pt" xmlns="http://www.w3.org/2000/svg"><path d="m406.496094 129.214844v230.679687c0 11.042969-8.953125 20-20 20h-360c-11.046875 0-20-8.957031-20-20v-230.679687c0-11.046875 8.953125-20 20-20h360c11.046875 0 20 8.953125 20 20zm-126.507813 198.429687v-166.191406c0-5.523437-4.480469-10-10-10h-211.191406c-5.523437 0-10 4.476563-10 10v166.191406c0 5.519531 4.476563 10 10 10h211.191406c5.519531 0 10-4.480469 10-10zm0 0" fill="#e48e66"/><path d="m328.835938 379.894531h42.101562v32.097657h-42.101562zm0 0" fill="#f8ec7d"/><path d="m352.097656 109.0625v.152344h-52.632812v-.152344c0-14.53125 11.785156-26.3125 26.316406-26.3125 14.535156 0 26.316406 11.78125 26.316406 26.3125zm0 0" fill="#f8ec7d"/><path d="m151.566406 257.375c0-6.125-4.964844-11.09375-11.089844-11.09375s-11.089843 4.96875-11.089843 11.09375c0 6.121094 4.964843 11.089844 11.089843 11.089844s11.089844-4.96875 11.089844-11.089844zm47.71875-31.640625v-13.671875c0-1.640625-.734375-3.191406-2.003906-4.226562-1.269531-1.039063-2.9375-1.449219-4.542969-1.121094l-36.78125 7.449218c-2.554687.511719-4.390625 2.753907-4.390625 5.359376v15.871093zm0 44.230469c-.800781-5.914063-6.144531-10.121094-12.078125-9.515625-5.933593.605469-10.316406 5.808593-9.90625 11.757812.410157 5.953125 5.464844 10.503907 11.425781 10.289063 5.960938-.214844 10.679688-5.117188 10.660157-11.082032.003906-.484374-.03125-.972656-.101563-1.449218zm80.703125-108.511719v166.191406c0 5.519531-4.480469 10-10 10h-211.191406c-5.523437 0-10-4.480469-10-10v-166.191406c0-5.523437 4.476563-10 10-10h211.191406c5.519531 0 10 4.476563 10 10zm0 0" fill="#f8ec7d"/><path d="m199.285156 269.964844c.070313.476562.105469.964844.101563 1.449218.019531 6.003907-4.726563 10.941407-10.726563 11.160157s-11.09375-4.367188-11.503906-10.355469c-.414062-5.992188 4-11.230469 9.972656-11.839844 5.976563-.605468 11.355469 3.632813 12.15625 9.585938zm0 0" fill="#6fe3ff"/><path d="m199.285156 212.0625v13.671875l-47.71875 9.660156v-15.871093c0-2.605469 1.835938-4.847657 4.390625-5.359376l36.78125-7.449218c1.605469-.328125 3.273438.082031 4.542969 1.121094 1.269531 1.035156 2.003906 2.585937 2.003906 4.226562zm0 0" fill="#6fe3ff"/><path d="m151.566406 257.375c0 6.121094-4.964844 11.089844-11.089844 11.089844s-11.089843-4.96875-11.089843-11.089844c0-6.125 4.964843-11.09375 11.089843-11.09375s11.089844 4.96875 11.089844 11.09375zm0 0" fill="#6fe3ff"/><path d="m42.054688 379.894531h42.101562v32.097657h-42.101562zm0 0" fill="#f8ec7d"/><g fill="#63316d"><path d="m26.496094 385.894531h9.558594v26.097657c0 3.316406 2.6875 6 6 6h42.101562c3.3125 0 6-2.683594 6-6v-26.097657h232.679688v26.097657c0 3.316406 2.6875 6 6 6h42.101562c3.3125 0 6-2.683594 6-6v-26.097657h9.558594c14.351562-.019531 25.984375-11.648437 26-26v-230.679687c-.015625-14.355469-11.648438-25.984375-26-26h-28.933594c-2.050781-11.089844-9.726562-20.3125-20.257812-24.347656l61.574218-68.792969c1.472656-1.589844 1.96875-3.851563 1.304688-5.914063-.664063-2.0625-2.390625-3.609375-4.515625-4.039062-2.121094-.433594-4.316407.316406-5.730469 1.953125l-64.664062 72.25-70.601563-62.0625c-2.496094-2.136719-6.242187-1.871094-8.40625.597656-2.167969 2.464844-1.953125 6.210937.484375 8.414063l66.160156 58.160156c-9.855468 4.300781-16.9375 13.207031-18.902344 23.78125h-267.511718c-14.351563.015625-25.984375 11.644531-26 26v230.679687c.015625 14.351563 11.648437 25.980469 26 26zm51.660156 20.097657h-30.101562v-20.097657h30.101562zm286.78125 0h-30.101562v-20.097657h30.101562zm-39.160156-317.238282c8.964844.007813 16.871094 5.878906 19.464844 14.460938h-38.910157c2.589844-8.578125 10.488281-14.449219 19.445313-14.460938zm-313.28125 40.460938c.007812-7.730469 6.273437-13.992188 14-14h360c7.730468.007812 13.992187 6.269531 14 14v230.679687c-.007813 7.726563-6.269532 13.988281-14 14h-360c-7.726563-.007812-13.992188-6.273437-14-14zm0 0"/><path d="m58.796875 343.644531h211.191406c8.832031-.011719 15.988281-7.167969 16-16v-166.191406c-.011719-8.832031-7.167969-15.988281-16-16h-211.191406c-8.832031.011719-15.988281 7.167969-16 16v166.191406c.011719 8.832031 7.167969 15.988281 16 16zm-4-182.191406c0-2.210937 1.789063-4 4-4h211.191406c2.207031 0 4 1.789063 4 4v166.191406c0 2.207031-1.792969 4-4 4h-211.191406c-2.210937 0-4-1.792969-4-4zm0 0"/><path d="m329.445312 293.644531c3.316407 0 6-2.6875 6-6v-15.992187c0-3.3125-2.683593-6-6-6-3.3125 0-6 2.6875-6 6v15.992187c0 3.3125 2.6875 6 6 6zm0 0"/><path d="m351.445312 293.644531c3.316407 0 6-2.6875 6-6v-15.992187c0-3.3125-2.683593-6-6-6-3.3125 0-6 2.6875-6 6v15.992187c0 3.3125 2.6875 6 6 6zm0 0"/><path d="m307.445312 293.644531c3.316407 0 6-2.6875 6-6v-15.992187c0-3.3125-2.683593-6-6-6-3.3125 0-6 2.6875-6 6v15.992187c0 3.3125 2.6875 6 6 6zm0 0"/><path d="m373.445312 293.644531c3.316407 0 6-2.6875 6-6v-15.992187c0-3.3125-2.683593-6-6-6-3.3125 0-6 2.6875-6 6v15.992187c0 3.3125 2.6875 6 6 6zm0 0"/><path d="m329.445312 243.644531c3.316407 0 6-2.6875 6-6v-15.992187c0-3.3125-2.683593-6-6-6-3.3125 0-6 2.6875-6 6v15.992187c0 3.3125 2.6875 6 6 6zm0 0"/><path d="m351.445312 243.644531c3.316407 0 6-2.6875 6-6v-15.992187c0-3.3125-2.683593-6-6-6-3.3125 0-6 2.6875-6 6v15.992187c0 3.3125 2.6875 6 6 6zm0 0"/><path d="m307.445312 243.644531c3.316407 0 6-2.6875 6-6v-15.992187c0-3.3125-2.683593-6-6-6-3.3125 0-6 2.6875-6 6v15.992187c0 3.3125 2.6875 6 6 6zm0 0"/><path d="m373.445312 243.644531c3.316407 0 6-2.6875 6-6v-15.992187c0-3.3125-2.683593-6-6-6-3.3125 0-6 2.6875-6 6v15.992187c0 3.3125 2.6875 6 6 6zm0 0"/><path d="m140.476562 274.464844c9.191407-.019532 16.722657-7.292969 17.058594-16.476563.019532-.199219.03125-.40625.03125-.613281v-17.074219l35.71875-7.230469v22.011719c-7.050781-2.148437-14.6875.464844-18.9375 6.488281-4.25 6.027344-4.15625 14.097657.230469 20.019532 4.390625 5.925781 12.085937 8.363281 19.085937 6.050781s11.726563-8.855469 11.722657-16.226563c-.003907-.582031-.035157-1.160156-.101563-1.738281v-57.613281c0-3.4375-1.542968-6.695312-4.207031-8.875-2.660156-2.175781-6.160156-3.039062-9.53125-2.355469l-36.765625 7.449219c-5.351562 1.082031-9.203125 5.78125-9.214844 11.242188v21.535156c-6.417968-2.003906-13.417968-.054688-17.878906 4.980468-4.460938 5.03125-5.554688 12.210938-2.792969 18.34375 2.757813 6.136719 8.855469 10.078126 15.582031 10.082032zm47.820313 2.039062c-2.695313.007813-4.933594-2.085937-5.101563-4.777344-.164062-2.691406 1.796876-5.042968 4.472657-5.367187s5.140625 1.5 5.617187 4.152344v.699219c.003906.242187.019532.480468.046875.722656-.257812 2.585937-2.433593 4.5625-5.035156 4.570312zm4.988281-63.78125v8.101563l-35.71875 7.230469v-8.101563zm-52.808594 39.558594c2.8125 0 5.089844 2.28125 5.089844 5.09375 0 2.808594-2.277344 5.089844-5.089844 5.089844s-5.089843-2.28125-5.089843-5.089844c.003906-2.8125 2.28125-5.085938 5.089843-5.09375zm0 0"/></g></svg>