<svg height="494pt" viewBox="-21 0 494 494.4173" width="494pt" xmlns="http://www.w3.org/2000/svg"><path d="m417.640625 400.269531c15.292969.007813 27.683594 12.40625 27.679687 27.695313-.003906 15.292968-12.402343 27.6875-27.691406 27.683594-15.292968 0-27.6875-12.398438-27.6875-27.6875-.003906-15.296876 12.402344-27.699219 27.699219-27.691407zm0 0" fill="#e48e66"/><path d="m310.710938 374.371094v84.628906h-.058594c-.925782-14.777344-13.316406-26.214844-28.121094-25.949219-14.804688.261719-26.78125 12.128907-27.179688 26.929688h-249.140624v-51.601563c-.03125-3.875.382812-7.746094 1.230468-11.527344.160156-.679687.328125-1.363281.519532-2.03125 4.769531-17.378906 18.378906-30.949218 35.53125-36.511718l75.558593-24.5c28.589844 15.460937 63.050781 15.460937 91.640625 0l75.550782 24.5c9.457031 3.042968 17.914062 8.59375 24.46875 16.0625zm0 0" fill="#f8ec7d"/><path d="m310.652344 459c.039062.570312.058594 1.148438.058594 1.730469 0 15.292969-12.398438 27.691406-27.691407 27.691406s-27.6875-12.398437-27.6875-27.691406c0-.25 0-.5.019531-.75.398438-14.800781 12.375-26.667969 27.179688-26.929688 14.804688-.265625 27.195312 11.171875 28.121094 25.949219zm0 0" fill="#e48e66"/><path d="m210.582031 292.339844c-26.902343 14.617187-59.167969 15.488281-86.816406 2.347656-27.652344-13.140625-47.351563-38.710938-53.003906-68.796875l-5.332031-18.3125v-.148437c-7.039063-1.246094-13.246094-5.347657-17.148438-11.335938-3.90625-5.984375-5.160156-13.320312-3.460938-20.265625 1.96875-8.152344 8.949219-14.117187 17.308594-14.796875v.597656c2.109375 1.261719 4.523438 1.929688 6.980469 1.929688 7.375.007812 13.441406-5.792969 13.769531-13.160156l1.703125-37.320313c12.125.40625 24.265625.097656 36.359375-.929687v.011718c58.898438 52.480469 146.710938 49.101563 146.710938 49.101563v-.222657c8.339844.691407 15.296875 6.652344 17.257812 14.789063 1.96875 8.046875-.035156 16.542969-5.390625 22.863281-3.894531 4.601563-9.28125 7.695313-15.21875 8.738282v.148437l-5.320312 18.3125c-5.308594 28.304687-23.089844 52.710937-48.398438 66.449219zm0 0" fill="#f7caa5"/><path d="m267.652344 161.039062v.222657s-87.8125 3.378906-146.710938-49.101563v-.011718c18.644532-1.375 37.121094-4.46875 55.199219-9.238282 0 0 28.96875 37.28125 91.511719 41.308594zm0 0" fill="#4b5d63"/><path d="m176.140625 102.910156c-18.078125 4.769532-36.554687 7.863282-55.199219 9.238282-12.09375 1.027343-24.234375 1.335937-36.359375.929687l-1.703125 37.320313c-.328125 7.367187-6.394531 13.167968-13.769531 13.160156-2.457031 0-4.871094-.667969-6.980469-1.929688v-52.867187c0-56.753907 46.007813-102.761719 102.761719-102.761719s102.761719 46.007812 102.761719 102.761719v35.457031c-62.542969-4.027344-91.511719-41.308594-91.511719-41.308594zm0 0" fill="#4b5d63"/><path d="m210.582031 333.769531.109375.039063c-28.589844 15.460937-63.050781 15.460937-91.640625 0l.109375-.039063v-41.429687c28.507813 15.480468 62.914063 15.480468 91.421875 0zm0 0" fill="#edb288"/><path d="m440.410156 269.730469c-6.886718-5.695313-15.960937-8.011719-24.738281-6.3125l-86.558594 14.890625c-.042969.003906-.085937.011718-.128906.019531-14.085937 2.761719-24.253906 15.097656-24.273437 29.453125v53.144531c-5.085938-3.601562-10.691407-6.40625-16.621094-8.324219l-71.507813-23.191406v-33.582031c25.21875-14.816406 42.804688-39.800781 48.242188-68.539063l4.316406-14.859374c13.371094-4.105469 22.503906-16.453126 22.511719-30.441407.003906-2.554687-.304688-5.101562-.914063-7.582031-2.070312-8.671875-8.566406-15.605469-17.085937-18.226562v-47.417969c0-60.066407-48.695313-108.761719-108.761719-108.761719s-108.761719 48.695312-108.761719 108.761719v47.398437c-8.542968 2.617188-15.0625 9.558594-17.136718 18.25-4.007813 16.394532 5.464843 33.066406 21.597656 38.023438l4.324218 14.855468c5.449219 28.730469 23.035157 53.707032 48.246094 68.519532v33.601562l-71.519531 23.191406c-19.460937 6.308594-34.214844 21.5-39.453125 40.582032-.214844.753906-.40625 1.523437-.589844 2.304687-.957031 4.230469-1.421875 8.554688-1.386718 12.890625v51.601563c0 3.3125 2.6875 6 6 6h243.53125c2.742187 17.367187 18.382812 29.707031 35.910156 28.332031 17.53125-1.371094 31.058594-16 31.058594-33.582031 0-.363281-.023438-.71875-.039063-1.078125.027344-.21875.039063-.433594.039063-.652344v-151.21875c.011718-8.589844 6.078124-15.976562 14.5-17.660156l86.558593-14.886719c.042969-.007813.085938-.015625.128907-.023437 5.277343-1.027344 10.738281.359374 14.882812 3.777343 4.148438 3.421875 6.550781 8.515625 6.550781 13.890625v109.332032c-12.085937-10.164063-29.613281-10.5625-42.152343-.957032-12.535157 9.605469-16.710938 26.632813-10.039063 40.949219s22.394531 22.070313 37.8125 18.648437c15.417969-3.417968 26.390625-17.097656 26.378906-32.890624 0-.386719-.015625-.769532-.027343-1.152344.019531-.191406.027343-.382813.027343-.578125v-133.351563c.015625-8.960937-3.996093-17.457031-10.921875-23.148437zm-315.25 32.148437c25.378906 10.761719 54.039063 10.761719 79.421875 0v28.320313c-25.042969 12.316406-54.378906 12.316406-79.421875 0zm48.902344-192.222656c8.378906 9.070312 36.574219 35.125 87.597656 40.089844v5.523437c-18.652344-.34375-78.757812-4.238281-125.589844-38.59375 12.800782-1.511719 25.488282-3.855469 37.984376-7.019531zm-105.925781-.898438c0-53.4375 43.320312-96.761718 96.757812-96.761718 53.441407 0 96.761719 43.324218 96.761719 96.761718v28.917969c-39.101562-4.148437-63.535156-21.957031-74.316406-31.824219 19.40625-6.199218 35.878906-14.425781 49.058594-24.535156 1.75-1.285156 2.667968-3.417968 2.402343-5.574218-.269531-2.15625-1.683593-4-3.695312-4.816407-2.011719-.820312-4.3125-.484375-6.007813.871094-14.050781 10.777344-32.382812 19.292969-54.484375 25.3125l-.039062.007813c-17.714844 4.691406-35.828125 7.71875-54.101563 9.050781-11.832031.996093-23.710937 1.304687-35.578125.917969-1.59375-.082032-3.15625.476562-4.339843 1.550781-1.183594 1.074219-1.886719 2.574219-1.960938 4.167969l-1.699219 37.324218c-.109375 2.167969-1.113281 4.191406-2.773437 5.589844-1.660156 1.394531-3.828125 2.039062-5.984375 1.777344zm8.527343 116.023438c-.039062-.191406-.082031-.382812-.136718-.570312l-5.171875-17.765626c-.417969-2.511718-2.375-4.484374-4.882813-4.925781-9.484375-1.65625-16.402344-9.898437-16.390625-19.53125 0-1.59375.1875-3.179687.566407-4.730469 1.105468-4.820312 4.828124-8.613281 9.632812-9.808593 5.980469 3.015625 13.085938 2.792969 18.867188-.597657 5.777343-3.390624 9.445312-9.484374 9.730468-16.175781l1.433594-31.441406c5.988281.074219 16.054688-.003906 28.5625-.910156 31.113281 26.824219 69.4375 38.699219 96.363281 43.953125 29.660157 5.785156 51.722657 5.015625 52.648438 4.976562.171875-.007812.34375-.023437.511719-.042968 5.273437.886718 9.492187 4.859374 10.695312 10.066406.378906 1.542968.566406 3.125.5625 4.710937-.003906 9.621094-6.910156 17.855469-16.386719 19.53125-2.511719.4375-4.472656 2.417969-4.886719 4.933594l-5.164062 17.761719c-.050781.1875-.097656.375-.132812.566406-7.976563 42.433594-45.035157 73.175781-88.214844 73.175781-43.175782 0-80.234375-30.742187-88.210938-73.175781zm173.355469 229.199219h-237.808593v-45.601563c-.035157-3.414062.324218-6.820312 1.070312-10.152344.136719-.59375.285156-1.1875.464844-1.820312 4.179687-15.21875 15.988281-27.328125 31.601562-32.390625l73.167969-23.722656c29.117187 14.878906 63.605469 14.878906 92.71875 0l73.164063 23.726562c7.722656 2.488281 14.703124 6.855469 20.316406 12.714844v58.238281c-9.082032-7.664062-21.535156-9.96875-32.761719-6.070312-11.226563 3.902344-19.5625 13.433594-21.9375 25.078125zm33.007813 28.441406c-11.976563-.015625-21.679688-9.71875-21.691406-21.691406 0-.101563 0-.199219 0-.273438.007812-.105469.011718-.214843.015624-.320312.316407-11.589844 9.695313-20.882813 21.289063-21.089844 11.589844-.207031 21.296875 8.746094 22.023437 20.316406v.058594c.03125.429687.046876.867187.046876 1.308594-.015626 11.972656-9.71875 21.675781-21.691407 21.691406zm134.617187-32.773437c-11.976562 0-21.6875-9.710938-21.6875-21.6875 0-11.980469 9.710938-21.691407 21.6875-21.691407 11.980469 0 21.691407 9.710938 21.691407 21.691407-.015626 11.972656-9.722657 21.675781-21.695313 21.6875zm0 0" fill="#63316d"/></svg>