<svg height="475pt" viewBox="-6 0 475 475.52" width="475pt" xmlns="http://www.w3.org/2000/svg"><path d="m424.863281 276.25v63.78125c0 26.777344-21.707031 48.484375-48.484375 48.484375-26.78125 0-48.488281-21.707031-48.488281-48.484375v-63.78125c0-26.777344 21.707031-48.484375 48.488281-48.484375 26.777344 0 48.484375 21.707031 48.484375 48.484375zm0 0" fill="#f8ec7d"/><path d="m323.582031 408.378906v51.601563h-317.320312v-51.601563c-.03125-3.875.378906-7.746094 1.230469-11.527344.160156-.679687.328124-1.363281.519531-2.03125 4.769531-17.378906 18.378906-30.960937 35.53125-36.511718l75.558593-24.5c28.589844 15.460937 63.050782 15.460937 91.640626 0l75.550781 24.5c4.25 1.378906 8.316406 3.257812 12.117187 5.601562l.433594-.109375c3.601562 13.582031 10.851562 25.921875 20.96875 35.679688 1.128906 1.097656 2.292969 2.15625 3.488281 3.167969.191407 1.902343.285157 3.8125.28125 5.730468zm0 0" fill="#e48e66"/><path d="m119.210938 292.339844c-25.300782-13.753906-43.074219-38.15625-48.398438-66.460938l-5.332031-18.300781v-.148437c-12.339844-2.183594-21.339844-12.90625-21.347657-25.441407 0-2.078125.246094-4.148437.738282-6.167969 1.976562-8.148437 8.953125-14.113281 17.3125-14.800781v.609375c4.15625 2.472656 9.308594 2.578125 13.566406.273438 4.253906-2.304688 6.980469-6.679688 7.183594-11.511719l1.699218-37.3125c12.128907.40625 24.269532.097656 36.359376-.929687 58.898437 52.492187 146.710937 49.113281 146.710937 49.113281v-.230469c8.335937.695312 15.292969 6.65625 17.257813 14.789062 1.699218 6.945313.445312 14.28125-3.457032 20.269532-3.90625 5.988281-10.113281 10.089844-17.152344 11.339844v.148437l-5.320312 18.300781c-5.65625 30.085938-25.355469 55.65625-53.003906 68.796875-27.648438 13.144531-59.914063 12.273438-86.816406-2.335937zm0 0" fill="#f7caa5"/><path d="m267.703125 161.03125v.230469s-87.8125 3.378906-146.710937-49.113281c18.644531-1.378907 37.125-4.472657 55.199218-9.25 0 0 28.96875 37.292968 91.511719 41.3125zm0 0" fill="#4b5d63"/><path d="m176.191406 102.898438c-18.074218 4.777343-36.554687 7.871093-55.199218 9.25-12.089844 1.027343-24.230469 1.335937-36.359376.929687l-1.699218 37.3125c-.203125 4.832031-2.929688 9.207031-7.183594 11.511719-4.257812 2.304687-9.410156 2.199218-13.566406-.273438v-52.867187c0-56.753907 46.003906-102.761719 102.757812-102.761719s102.761719 46.007812 102.761719 102.761719v35.449219c-62.542969-4.019532-91.511719-41.3125-91.511719-41.3125zm0 0" fill="#4b5d63"/><path d="m210.632812 333.769531.109376.039063c-28.589844 15.460937-63.050782 15.460937-91.640626 0l.109376-.039063v-41.429687c28.507812 15.480468 62.914062 15.480468 91.421874 0zm0 0" fill="#edb288"/><g fill="#63316d"><path d="m376.382812 221.769531c-30.078124.03125-54.453124 24.402344-54.492187 54.480469v63.78125c0 30.089844 24.394531 54.484375 54.488281 54.484375 30.089844 0 54.484375-24.394531 54.484375-54.484375v-63.78125c-.003906-30.085938-24.394531-54.476562-54.480469-54.480469zm42.480469 118.261719c0 23.460938-19.023437 42.484375-42.484375 42.484375-23.464844 0-42.488281-19.023437-42.488281-42.484375v-63.78125c0-23.464844 19.023437-42.484375 42.488281-42.484375 23.460938 0 42.484375 19.019531 42.484375 42.484375zm0 0"/><path d="m462.382812 344.628906c0-3.3125-2.6875-6-6-6-3.316406 0-6 2.6875-6 6 0 39.464844-33.199218 71.570313-74 71.570313-18.050781.046875-35.515624-6.390625-49.21875-18.140625-1.035156-.871094-2.097656-1.839844-3.175781-2.882813-9.328125-9-16.015625-20.375-19.34375-32.902343-1.507812-5.761719-2.265625-11.691407-2.261719-17.644532 0-3.316406-2.6875-6-6-6-3.316406 0-6 2.683594-6 6 .003907 2.988282.167969 5.976563.5 8.949219-.90625-.339844-1.816406-.679687-2.738281-.976563l-71.511719-23.191406v-33.585937c25.21875-14.816407 42.804688-39.804688 48.242188-68.542969l4.320312-14.859375c16.136719-4.953125 25.609376-21.628906 21.601563-38.027344-2.078125-8.667969-8.574219-15.59375-17.089844-18.21875v-47.414062c0-60.066407-48.695312-108.761719-108.761719-108.761719-60.066406 0-108.757812 48.695312-108.757812 108.761719v47.398437c-8.542969 2.621094-15.0625 9.5625-17.140625 18.25-.601563 2.484375-.910156 5.03125-.910156 7.585938-.019531 14 9.121093 26.363281 22.515625 30.441406l4.324218 14.847656c5.453126 28.726563 23.035157 53.703125 48.242188 68.527344v33.605469l-71.523438 23.183593c-19.460937 6.300782-34.214843 21.488282-39.457031 40.578126-.214843.757812-.40625 1.527343-.589843 2.308593-.957032 4.226563-1.421876 8.554688-1.386719 12.890625v51.601563c0 3.3125 2.6875 6 6 6h317.320312c3.3125 0 6-2.6875 6-6v-45.257813c12.289063 7.734375 26.308594 12.292969 40.800781 13.253906v35.542969h-27.941406c-3.3125 0-6 2.6875-6 6s2.6875 6 6 6h67.878906c3.316407 0 6-2.6875 6-6s-2.683593-6-6-6h-27.9375v-35.546875c44.628907-3.003906 80-39.222656 80-83.34375zm-337.171874-42.75c25.378906 10.761719 54.042968 10.761719 79.421874 0v28.320313c-25.042968 12.316406-54.378906 12.316406-79.421874 0zm48.894531-192.230468c8.382812 9.070312 36.578125 35.128906 87.601562 40.089843v5.523438c-18.660156-.363281-78.808593-4.300781-125.582031-38.59375 12.800781-1.511719 25.488281-3.855469 37.980469-7.019531zm-105.921875-.886719c0-53.441407 43.320312-96.761719 96.757812-96.761719 53.441406 0 96.761719 43.320312 96.761719 96.761719v28.90625c-39.101563-4.144531-63.539063-21.960938-74.320313-31.828125 19.425782-6.207032 35.898438-14.4375 49.0625-24.527344 2.628907-2.019531 3.125-5.785156 1.105469-8.414062-2.015625-2.628907-5.78125-3.125-8.410156-1.109376-14.027344 10.761719-32.363281 19.277344-54.492187 25.3125l-.019532.003907h-.015625c-17.707031 4.695312-35.8125 7.726562-54.082031 9.058593h-.023438c-11.828124.996094-23.707031 1.304688-35.570312.917969-1.59375-.082031-3.15625.476563-4.339844 1.550781-1.179687 1.070313-1.886718 2.574219-1.960937 4.167969l-1.699219 37.3125c-.105469 2.167969-1.109375 4.199219-2.769531 5.597657-1.660157 1.398437-3.828125 2.042968-5.984375 1.78125zm8.527344 116.011719c-.035157-.191407-.082032-.382813-.136719-.570313l-5.171875-17.753906c-.417969-2.511719-2.375-4.488281-4.882813-4.929688-9.484375-1.65625-16.402343-9.902343-16.386719-19.53125 0-1.597656.191407-3.1875.566407-4.742187 1.113281-4.8125 4.828125-8.597656 9.625-9.796875 5.984375 3.015625 13.089843 2.789062 18.871093-.605469 5.78125-3.390625 9.445313-9.488281 9.726563-16.183594l1.429687-31.425781c5.992188.070313 16.066407-.007813 28.578126-.914063 31.109374 26.824219 69.429687 38.703126 96.351562 43.953126 29.660156 5.785156 51.726562 5.019531 52.648438 4.980468.183593-.007812.363281-.027344.542968-.050781 5.253906.898437 9.457032 4.863281 10.664063 10.058594 1.296875 5.328125.335937 10.957031-2.664063 15.554687-2.996094 4.59375-7.761718 7.746094-13.164062 8.703125-2.503906.441407-4.460938 2.417969-4.875 4.929688l-5.164063 17.753906c-.050781.1875-.097656.375-.132812.566406-7.976563 42.4375-45.035157 73.179688-88.214844 73.179688-43.175781 0-80.234375-30.742188-88.210937-73.179688zm240.871093 229.207031h-305.320312v-45.601563c-.035157-3.414062.324219-6.820312 1.070312-10.152344.140625-.59375.285157-1.183593.46875-1.820312 4.175781-15.230469 15.988281-27.339844 31.589844-32.390625l73.171875-23.722656c29.113281 14.875 63.601562 14.875 92.71875 0l73.160156 23.726562c3.273438 1.066407 6.429688 2.46875 9.414063 4.1875 4.117187 13.511719 11.605469 25.753907 21.765625 35.570313.625.609375 1.253906 1.199218 1.875 1.765625.050781.9375.082031 1.882812.082031 2.835937zm0 0"/></g></svg>