<svg height="492pt" viewBox="-58 0 492 492" width="492pt" xmlns="http://www.w3.org/2000/svg"><path d="m369.398438 353.378906c.003906 10.222656-5.675782 19.601563-14.738282 24.332032-1.121094.585937-2.277344 1.09375-3.46875 1.519531-1.210937.433593-2.453125.78125-3.710937 1.039062-1.820313.367188-3.671875.550781-5.53125.550781-2.007813.003907-4.007813-.214843-5.96875-.648437-1.339844 10.21875-8.285157 18.832031-17.992188 22.308594-1.207031.425781-2.441406.769531-3.699219 1.03125-1.820312.371093-3.671874.558593-5.527343.558593-1.410157 0-2.820313-.105468-4.210938-.320312v-18.359375l-.0625-.179687c22.871094-8.058594 38.457031-29.316407 39.261719-53.550782h1.019531c3.199219.003906 6.3125-1.023437 8.878907-2.929687 8.222656 5.089843 15.75 14.839843 15.75 24.648437zm0 0" fill="#4b5d63"/><path d="m365.46875 449.230469v36.769531h-31.109375v-36.769531c.855469-10.238281 6.667969-19.40625 15.5625-24.550781 8.882813 5.148437 14.691406 14.316406 15.546875 24.550781zm0 0" fill="#6fe3ff"/><path d="m359.308594 313.109375c1.246094 5.089844-.253906 10.457031-3.957032 14.160156-2.8125 2.804688-6.613281 4.378907-10.582031 4.390625h-1.019531c-1.046875 31.710938-27.054688 56.875-58.785156 56.875-31.726563 0-57.738282-25.164062-58.785156-56.875h-1.050782c-4.601562-.003906-8.945312-2.117187-11.785156-5.738281s-3.859375-8.34375-2.765625-12.8125c1.507813-5.914063 7.410156-9.589844 13.382813-8.328125h.46875c4.691406-10.066406 14.777343-16.507812 25.878906-16.53125 15.425781.003906 30.003906-7.042969 39.582031-19.128906l15.800781-19.242188s-11.980468 51.722656 39.820313 54.820313h.417969c5.992187-1.222657 11.886718 2.480469 13.378906 8.410156zm0 0" fill="#f7caa5"/><path d="m284.949219 434.558594 19.601562-26.429688h.339844l43.347656 15.652344c.570313.277344 1.132813.589844 1.683594.898438-8.894531 5.144531-14.707031 14.3125-15.5625 24.550781v36.769531h-98.5v-36.769531c-.855469-10.234375-6.664063-19.402344-15.550781-24.550781.550781-.308594 1.113281-.621094 1.679687-.898438l43.351563-15.652344zm0 0" fill="#f8ec7d"/><path d="m347.191406 278.140625c0 1.449219-.050781 2.898437-.152344 4.359375l-1.527343 22.199219c-51.800781-3.097657-39.820313-54.820313-39.820313-54.820313l-15.800781 19.242188c-9.578125 12.085937-24.15625 19.132812-39.582031 19.128906-11.101563.023438-21.1875 6.464844-25.878906 16.53125l-1.539063-22.28125c-1.566406-22.679688 9.359375-44.410156 28.5-56.675781 19.140625-12.269531 43.445313-13.121094 63.398437-2.222657 19.953126 10.894532 32.375 31.804688 32.402344 54.539063zm0 0" fill="#4b5d63"/><path d="m304.550781 403.75v4.378906l-19.601562 26.429688-19.609375-26.429688v-22.738281l.070312-.191406c12.648438 4.4375 26.429688 4.441406 39.078125.011719l.0625.179687zm0 0" fill="#edb288"/><path d="m219.96875 379.640625c-.410156-.121094-.820312-.25-1.21875-.390625-10.433594-3.730469-17.605469-13.363281-18.191406-24.429688-.585938-11.0625 5.53125-21.398437 15.511718-26.210937 2.605469 1.980469 5.789063 3.050781 9.058594 3.050781h1.050782c.808593 24.21875 16.378906 45.46875 39.230468 53.539063l-.070312.191406v18.410156c-3.207032.484375-6.472656.398438-9.648438-.25-1.261718-.257812-2.5-.605469-3.710937-1.039062-1.195313-.417969-2.355469-.929688-3.46875-1.523438-7.949219-4.144531-13.375-11.910156-14.53125-20.796875-1.964844.429688-3.96875.648438-5.980469.648438-1.859375.003906-3.71875-.183594-5.539062-.558594-.839844-.171875-1.671876-.386719-2.492188-.640625zm0 0" fill="#4b5d63"/><path d="m220.308594 424.679688c-8.882813 5.148437-14.691406 14.316406-15.546875 24.550781v5.550781h-159.742188c-21.550781 0-39.019531-17.472656-39.019531-39.019531v-36.121094h213.96875c.820312.253906 1.652344.46875 2.492188.640625 1.820312.375 3.679687.5625 5.539062.558594 2.011719 0 4.015625-.21875 5.980469-.648438 1.15625 8.886719 6.582031 16.652344 14.53125 20.796875 1.113281.59375 2.273437 1.105469 3.46875 1.523438 1.210937.433593 2.449219.78125 3.710937 1.039062 3.175782.648438 6.441406.734375 9.648438.25v4.328125l-43.351563 15.652344c-.566406.277344-1.128906.589844-1.679687.898438zm-73.410156-7.46875c.003906-8.648438-7.003907-15.65625-15.648438-15.660157-8.644531-.003906-15.65625 7.003907-15.660156 15.648438-.003906 8.648437 7.003906 15.65625 15.648437 15.660156 8.648438 0 15.65625-7.003906 15.660157-15.648437zm0 0" fill="#e48e66"/><path d="m6 68.621094v-23.601563c0-21.550781 17.46875-39.019531 39.019531-39.019531h172.441407c21.550781 0 39.019531 17.46875 39.019531 39.019531v177.082031l.058593.75c-22.132812 11.367188-35.363281 34.828126-33.648437 59.648438l1.539063 22.28125h-.46875c-5.972657-1.261719-11.875 2.414062-13.382813 8.328125-1.417969 5.800781.738281 11.886719 5.492187 15.5-9.976562 4.816406-16.089843 15.148437-15.503906 26.210937.585938 11.0625 7.753906 20.695313 18.183594 24.429688.398438.140625.808594.269531 1.21875.390625h-213.96875zm211.949219 167.429687v-105.25c0-5.523437-4.476563-10-10-10h-153.410157c-5.523437 0-10 4.476563-10 10v105.25c0 5.523438 4.476563 10 10 10h153.410157c5.523437 0 10-4.476562 10-10zm0 0" fill="#f8ec7d"/><path d="m204.761719 454.78125v-5.550781c.855469-10.234375 6.664062-19.402344 15.546875-24.550781 8.886718 5.148437 14.695312 14.316406 15.550781 24.550781v36.769531h-31.097656zm0 0" fill="#6fe3ff"/><path d="m171.238281 199.949219c0-5.917969-5.769531-10.71875-12.886719-10.71875-7.121093 0-12.890624 4.800781-12.890624 10.71875 0 5.921875 5.769531 10.730469 12.890624 10.730469 7.117188 0 12.886719-4.800782 12.886719-10.730469zm0-37.710938v-21.199219l-54.21875 21.371094v21.210938zm-54.21875 52.851563c0-5.917969-5.769531-10.730469-12.890625-10.730469-7.117187 0-12.890625 4.8125-12.890625 10.730469 0 5.921875 5.773438 10.71875 12.890625 10.71875 7.121094 0 12.890625-4.796875 12.890625-10.71875zm100.929688-84.289063v105.25c0 5.523438-4.476563 10-10 10h-153.410157c-5.523437 0-10-4.476562-10-10v-105.25c0-5.523437 4.476563-10 10-10h153.410157c5.523437 0 10 4.476563 10 10zm0 0" fill="#6fe3ff"/><path d="m171.238281 141.039062v21.199219l-54.21875 21.382813v-21.210938zm0 0" fill="#f8ec7d"/><path d="m158.351562 189.230469c7.117188 0 12.886719 4.800781 12.886719 10.71875 0 5.921875-5.769531 10.730469-12.886719 10.730469-7.121093 0-12.890624-4.800782-12.890624-10.730469 0-5.929688 5.769531-10.71875 12.890624-10.71875zm0 0" fill="#f8ec7d"/><path d="m131.238281 401.550781c8.648438-.003906 15.660157 7.003907 15.660157 15.648438.003906 8.648437-7.003907 15.65625-15.648438 15.660156s-15.65625-7.003906-15.660156-15.648437c0-8.644532 7.003906-15.65625 15.648437-15.660157zm0 0" fill="#6fe3ff"/><path d="m104.128906 204.359375c7.121094 0 12.890625 4.8125 12.890625 10.730469 0 5.921875-5.769531 10.71875-12.890625 10.71875-7.117187 0-12.890625-4.796875-12.890625-10.71875 0-5.917969 5.773438-10.730469 12.890625-10.730469zm0 0" fill="#f8ec7d"/><g fill="#63316d"><path d="m202.941406 74.621094h11.597656c3.316407 0 6-2.6875 6-6 0-3.316406-2.683593-6-6-6h-11.597656c-3.316406 0-6 2.683594-6 6 0 3.3125 2.683594 6 6 6zm0 0"/><path d="m131.238281 395.550781c-11.957031.003907-21.648437 9.699219-21.648437 21.65625s9.695312 21.652344 21.652344 21.652344c11.960937 0 21.65625-9.691406 21.65625-21.648437-.007813-11.957032-9.699219-21.648438-21.660157-21.660157zm0 31.308594c-5.332031-.003906-9.652343-4.328125-9.648437-9.660156s4.328125-9.652344 9.660156-9.648438c5.332031.003907 9.652344 4.328125 9.648438 9.660157-.003907 5.328124-4.328126 9.648437-9.660157 9.648437zm0 0"/><path d="m190.058594 281.789062h-5.96875c-3.3125 0-6 2.6875-6 6 0 3.316407 2.6875 6 6 6h5.96875c3.316406 0 6-2.683593 6-6 0-3.3125-2.683594-6-6-6zm0 0"/><path d="m207.949219 114.800781h-153.410157c-8.832031.007813-15.988281 7.167969-16 16v105.25c.011719 8.832031 7.167969 15.988281 16 16h153.410157c8.832031-.011719 15.992187-7.167969 16-16v-105.25c-.007813-8.832031-7.167969-15.992187-16-16zm4 121.25c0 2.207031-1.789063 4-4 4h-153.410157c-2.207031 0-4-1.792969-4-4v-105.25c0-2.210937 1.792969-4 4-4h153.410157c2.210937 0 4 1.789063 4 4zm0 0"/><path d="m44.539062 293.789062h74.332032c3.3125 0 6-2.683593 6-6 0-3.3125-2.6875-6-6-6h-74.332032c-3.3125 0-6 2.6875-6 6 0 3.316407 2.6875 6 6 6zm0 0"/><path d="m163.230469 293.789062c3.3125 0 6-2.683593 6-6 0-3.3125-2.6875-6-6-6h-22.96875c-3.316407 0-6 2.6875-6 6 0 3.316407 2.683593 6 6 6zm0 0"/><path d="m66.691406 317.28125h-22.152344c-3.3125 0-6 2.683594-6 6 0 3.3125 2.6875 6 6 6h22.152344c3.3125 0 6-2.6875 6-6 0-3.316406-2.6875-6-6-6zm0 0"/><path d="m88.070312 317.28125h-.441406c-3.3125 0-6 2.683594-6 6 0 3.3125 2.6875 6 6 6h.441406c3.3125 0 6-2.6875 6-6 0-3.316406-2.6875-6-6-6zm0 0"/><path d="m188 317.28125h-78.421875c-3.3125 0-6 2.683594-6 6 0 3.3125 2.6875 6 6 6h78.421875c3.3125 0 6-2.6875 6-6 0-3.316406-2.6875-6-6-6zm0 0"/><path d="m340.628906 386.792969c2.699219.105469 5.40625-.109375 8.054688-.644531 1.539062-.316407 3.054687-.742188 4.53125-1.269532 1.449218-.515625 2.863281-1.136718 4.226562-1.851562 11.050782-5.753906 17.980469-17.1875 17.957032-29.648438 0-9.988281-5.875-19.230468-12.921876-25.488281 2.136719-3.34375 3.269532-7.230469 3.261719-11.199219.003907-1.6875-.199219-3.371094-.597656-5.011718-1.605469-6.433594-6.734375-11.390626-13.214844-12.78125l1.097657-15.988282c.109374-1.585937.164062-3.191406.164062-4.773437-.046875-22.078125-10.765625-42.769531-28.773438-55.546875-18.007812-12.773438-41.082031-16.054688-61.933593-8.804688v-168.765625c-.03125-24.851562-20.167969-44.9921872-45.019531-45.019531h-172.441407c-24.851562.0273438-44.9921872 20.167969-45.019531 45.019531v370.742188c.0273438 24.851562 20.167969 44.988281 45.019531 45.019531h153.742188v25.21875c0 3.3125 2.683593 6 6 6h160.707031c3.316406 0 6-2.6875 6-6v-36.769531c0-.167969-.003906-.335938-.019531-.5-1.027344-12.210938-7.96875-23.148438-18.582031-29.277344-.648438-.363281-1.308594-.726563-1.980469-1.058594-.199219-.097656-.402344-.183593-.609375-.257812l-29.054688-10.488281c1.027344-.414063 2.042969-.859376 3.019532-1.371094 7.8125-4.089844 13.695312-11.089844 16.386718-19.484375zm12.851563-72.265625c.171875.707031.261719 1.433594.257812 2.164062-.011719 4.949219-4.019531 8.957032-8.96875 8.96875h-1.019531c-3.238281-.003906-5.890625 2.566406-6 5.800782-.570312 16.816406-9.109375 32.355468-23 41.851562-13.894531 9.492188-31.476562 11.808594-47.351562 6.226562-20.515626-7.246093-34.496094-26.328124-35.222657-48.074218-.109375-3.238282-2.765625-5.804688-6-5.800782h-1.050781c-2.757812-.003906-5.363281-1.269531-7.0625-3.441406-1.703125-2.167968-2.316406-5-1.664062-7.675781.625-2.417969 2.847656-4.070313 5.339843-3.96875.371094 0 .742188.03125 1.109375.101563.363282.066406.734375.097656 1.105469.097656h.53125c.230469-.003906.460937-.019532.6875-.046875.078125-.011719.15625-.023438.230469-.039063.1875-.03125.371094-.070312.554687-.117187.066407-.019531.132813-.03125.199219-.050781.238281-.070313.472656-.15625.699219-.257813.042969-.019531.082031-.042969.125-.0625.183593-.085937.367187-.183594.542969-.289063.070312-.042968.136718-.085937.199218-.128906.164063-.105468.320313-.21875.46875-.34375.050782-.039062.101563-.074218.152344-.113281.164062-.144531.320312-.292969.46875-.453125.019531-.019531.035156-.042969.054688-.0625.050781-.054688.097656-.117188.148437-.175781.125-.148438.242187-.300781.351563-.460938.039062-.0625.082031-.121093.121093-.183593.140625-.21875.269531-.449219.378907-.683594 0-.007813.011718-.015625.015624-.027344 3.6875-7.953125 11.660157-13.039062 20.425782-13.03125 17.238281.003906 33.53125-7.863281 44.25-21.359375l4.160156-5.070313c.671875 8.019532 2.964844 17.289063 8.910156 25.25 7.980469 10.679688 20.601563 16.605469 37.523438 17.617188h.199218s.105469.007812.160157.007812h.421875c.371094.003907.742187-.03125 1.105468-.097656 2.855469-.628906 5.695313 1.105469 6.441407 3.929688zm-25.121094 134.699218v30.773438h-86.5v-30.769531c0-.167969-.007813-.335938-.019531-.5-.695313-8.285157-4.128906-16.097657-9.761719-22.210938l31.097656-11.230469 15.769531 21.253907v18.585937c0 3.316406 2.6875 6 6 6 3.316407 0 6-2.683594 6-6v-18.585937l15.832032-21.351563 31.363281 11.320313c-5.632813 6.117187-9.070313 13.933593-9.761719 22.21875-.011718.164062-.019531.332031-.019531.5zm-110.300781-76.816406c-6.707032-3.503906-11.078125-10.28125-11.507813-17.835937-.425781-7.558594 3.15625-14.785157 9.429688-19.019531 1.460937.714843 3.003906 1.253906 4.589843 1.605468 2.671876 23.050782 17.457032 42.917969 38.769532 52.089844v8.757812c-.820313-.066406-1.640625-.179687-2.449219-.335937-.992187-.207031-1.972656-.480469-2.929687-.824219-.917969-.324218-1.8125-.71875-2.675782-1.175781-6.210937-3.238281-10.449218-9.304687-11.355468-16.25-.214844-1.667969-1.121094-3.167969-2.492188-4.136719-1.375-.96875-3.089844-1.316406-4.734375-.957031-2.984375.65625-6.070313.679687-9.066406.066406-.667969-.136719-1.328125-.304687-1.976563-.511719-.3125-.089843-.625-.191406-.886718-.28125-.929688-.332031-1.835938-.730468-2.710938-1.1875zm66.886718 52.074219-13.605468-18.335937v-13.046876c8.96875 1.910157 18.238281 1.910157 27.210937.003907v13.046875zm56.246094-146.34375c0 1.308594-.046875 2.636719-.136718 3.945313l-1.101563 15.988281c-10.1875-1.589844-17.804687-5.652344-22.671875-12.136719-10.339844-13.769531-5.789062-34.507812-5.746094-34.699219.628906-2.714843-.691406-5.507812-3.191406-6.738281s-5.519531-.578125-7.289062 1.574219l-15.800782 19.242187-.0625.078125c-8.441406 10.652344-21.289062 16.859375-34.882812 16.855469-7.5625.007812-14.917969 2.496094-20.929688 7.082031l-.5-7.242187c-1.550781-22.429688 10.40625-43.628906 30.40625-53.902344 7.941406-4.09375 16.75-6.214844 25.683594-6.1875 31.015625.011719 56.164062 25.128906 56.222656 56.140625zm-296.171875-266.140625h172.441407c18.226562.019531 33 14.792969 33.019531 33.019531v17.601563h-14.871094c-3.3125 0-6 2.683594-6 6 0 3.3125 2.6875 6 6 6h14.871094v144.730468c-22.355469 13.09375-35.363281 37.71875-33.574219 63.5625l1.109375 16.050782c-6.496094 1.34375-11.652344 6.289062-13.265625 12.722656-.398438 1.636719-.597656 3.316406-.597656 5-.011719 3.734375.984375 7.398438 2.875 10.617188-14.144532 11.347656-16.660156 31.910156-5.664063 46.335937h-189.363281v-299.019531h170.378906c3.316406 0 6-2.6875 6-6 0-3.316406-2.683594-6-6-6h-170.378906v-17.601563c.019531-18.226562 14.792969-33 33.019531-33.019531zm153.761719 436.730469v.050781h-153.761719c-18.226562-.023438-33-14.792969-33.019531-33.019531v-30.121094h207.140625c.726563.199219 1.433594.378906 2.101563.515625 2.65625.546875 5.375.769531 8.085937.65625 2.675781 8.394531 8.5625 15.394531 16.371094 19.476562 1.015625.53125 2.0625 1.007813 3.132812 1.425782l-28.875 10.421875c-.207031.074219-.410156.160156-.609375.257812-.671875.332031-1.332031.695313-2.035156 1.089844-10.589844 6.132813-17.511719 17.050781-18.53125 29.246094zm11.980469.761719c.644531-6.914063 4.09375-13.265626 9.542969-17.570313 5.453124 4.304687 8.90625 10.65625 9.554687 17.570313v30.507812h-19.097656zm148.707031 30.507812h-19.109375v-30.507812c.644531-6.917969 4.097656-13.269532 9.554687-17.570313 5.453126 4.304687 8.90625 10.652344 9.554688 17.570313zm-40.789062-84.355469c-.863282.449219-1.753907.839844-2.671876 1.171875-.957031.339844-1.9375.613282-2.933593.816406-.832031.167969-1.675781.28125-2.523438.34375v-8.699218c21.261719-9.257813 36.027344-29.089844 38.800781-52.117188 1.359376-.304687 2.683594-.746094 3.953126-1.316406 5.371093 4.3125 10.09375 11.066406 10.09375 17.539062.011718 7.996094-4.4375 15.332032-11.535157 19.015626-.871093.457031-1.773437.851562-2.699219 1.183593-.9375.335938-1.898437.605469-2.875.804688-2.972656.597656-6.035156.570312-9-.074219-1.644531-.367188-3.371093-.027344-4.753906.941406-1.378906.96875-2.289062 2.472656-2.507812 4.144532-.910156 6.941406-5.144532 13.003906-11.347656 16.246093zm0 0"/><path d="m174.617188 136.078125c-1.640626-1.113281-3.730469-1.347656-5.578126-.621094l-54.21875 21.371094c-2.292968.902344-3.800781 3.117187-3.800781 5.582031v37.117188c-2.214843-.773438-4.542969-1.167969-6.890625-1.167969-10.414062 0-18.890625 7.5-18.890625 16.730469 0 9.230468 8.476563 16.71875 18.890625 16.71875 10.167969 0 18.460938-7.148438 18.855469-16.0625.023437-.21875.035156-.4375.035156-.65625v-27.390625l42.21875-16.648438v13.347657c-2.214843-.773438-4.542969-1.167969-6.886719-1.167969-10.417968 0-18.890624 7.5-18.890624 16.722656 0 9.21875 8.472656 16.730469 18.890624 16.730469 10.164063 0 18.457032-7.15625 18.851563-16.074219.023437-.21875.035156-.4375.035156-.65625v-58.914063c0-1.984374-.980469-3.839843-2.621093-4.960937zm-70.488282 83.730469c-3.667968 0-6.890625-2.203125-6.890625-4.71875s3.222657-4.730469 6.890625-4.730469c3.671875 0 6.890625 2.210937 6.890625 4.730469 0 2.519531-3.21875 4.71875-6.890625 4.71875zm18.890625-45v-8.308594l42.21875-16.640625v8.300781zm35.332031 29.875c-3.671874 0-6.890624-2.207032-6.890624-4.730469 0-2.519531 3.21875-4.71875 6.890624-4.71875 3.667969 0 6.886719 2.207031 6.886719 4.71875 0 2.515625-3.21875 4.726563-6.886719 4.726563zm0 0"/></g></svg>