<svg height="504pt" viewBox="-56 0 504 504.53873" width="504pt" xmlns="http://www.w3.org/2000/svg"><path d="m297.769531 322.5c42.3125-.003906 78.640625 30.105469 86.488281 71.683594 7.847657 41.582031-15.007812 82.859375-54.410156 98.277344-39.402344 15.421874-84.203125.617187-106.660156-35.246094-22.457031-35.859375-16.214844-82.628906 14.863281-111.34375 16.257813-15.027344 37.582031-23.371094 59.71875-23.371094zm50 113.949219c-.003906-8.046875-6.53125-14.570313-14.582031-14.570313-8.046875.003906-14.570312 6.53125-14.566406 14.582032 0 8.046874 6.527344 14.570312 14.578125 14.570312 8.050781-.003906 14.574219-6.53125 14.570312-14.582031zm-70.851562 17.25c0-8.046875-6.527344-14.570313-14.574219-14.570313-8.050781.003906-14.574219 6.527344-14.574219 14.574219s6.523438 14.574219 14.570313 14.578125c8.054687.003906 14.582031-6.527344 14.578125-14.582031zm0 0" fill="#6fe3ff"/><path d="m333.199219 421.878906c8.050781.003906 14.574219 6.53125 14.570312 14.582032-.003906 8.046874-6.53125 14.570312-14.582031 14.570312-8.046875-.003906-14.570312-6.53125-14.566406-14.582031 0-8.050781 6.527344-14.574219 14.578125-14.570313zm0 0" fill="#f8ec7d"/><path d="m286.269531 233.769531c.007813 16.953125-9.414062 32.503907-24.441406 40.351563-1.859375.96875-3.785156 1.808594-5.757813 2.519531-2.003906.714844-4.054687 1.285156-6.140624 1.710937-6.300782 1.289063-12.800782 1.234376-19.082032-.160156-1.921875 14.722656-10.898437 27.582032-24.058594 34.457032-3.75 1.960937-7.753906 3.386718-11.898437 4.242187-5.316406 1.078125-10.78125 1.210937-16.140625.390625v-30.429688l-.109375-.300781v-.011719c37.925781-13.34375 63.773437-48.597656 65.097656-88.777343h1.691407c5.304687.007812 10.46875-1.695313 14.730468-4.851563 13.621094 8.441406 26.109375 24.601563 26.109375 40.859375zm0 0" fill="#4b5d63"/><path d="m262.339844 439.128906c8.050781 0 14.578125 6.523438 14.578125 14.574219.003906 8.050781-6.523438 14.578125-14.574219 14.578125-8.050781-.003906-14.578125-6.53125-14.574219-14.582031.003907-8.046875 6.523438-14.566407 14.570313-14.570313zm0 0" fill="#f8ec7d"/><path d="m269.539062 167.011719c.472657 1.941406.710938 3.929687.710938 5.929687.003906 6.582032-2.609375 12.898438-7.269531 17.546875-.878907.878907-1.820313 1.6875-2.820313 2.421875-4.261718 3.15625-9.425781 4.859375-14.730468 4.851563h-1.691407c-1.324219 40.179687-27.171875 75.433593-65.097656 88.777343v.011719c-29.308594 10.296875-61.765625 6.019531-87.402344-11.515625-25.640625-17.535156-41.394531-46.230468-42.429687-77.273437h-1.75c-13.703125-.007813-24.8125-11.117188-24.820313-24.820313 0-2 .238281-3.988281.710938-5.929687 2.582031-10.53125 12.820312-15.582031 22.179687-13.8125h.78125c7.769532-16.6875 24.492188-27.371094 42.898438-27.410157 25.578125.007813 49.753906-11.675781 65.640625-31.71875l26.171875-31.878906c-.371094 1.667969-19 85.777344 66.039062 90.878906h.699219c9.359375-1.769531 19.601563 3.410157 22.179687 13.941407zm0 0" fill="#f7caa5"/><path d="m180.621094 62.191406-26.171875 31.878906c-15.886719 20.042969-40.0625 31.726563-65.640625 31.71875-18.40625.039063-35.128906 10.722657-42.898438 27.410157l-2.550781-36.9375c-2.589844-37.597657 15.527344-73.613281 47.253906-93.945313 31.726563-20.335937 72.019531-21.75 105.09375-3.695312 33.078125 18.058594 53.675781 52.714844 53.730469 90.398437 0 2.402344-.082031 4.8125-.25 7.242188l-2.527344 36.808593c-85.039062-5.101562-66.410156-89.210937-66.039062-90.878906zm0 0" fill="#4b5d63"/><path d="m146.238281 368.359375 32.511719-43.800781h.558594l58.582031 21.132812.160156.179688c-29.9375 27.664062-36.960937 72.261718-16.980469 107.789062h-156.199218v-60.96875c-1.421875-16.96875-11.050782-32.167968-25.78125-40.703125.910156-.527343 1.828125-1.027343 2.78125-1.5l71.867187-25.929687zm0 0" fill="#f8ec7d"/><path d="m178.75 317.28125v7.277344l-32.511719 43.800781-32.5-43.800781v-37.707032l.109375-.332031c20.96875 7.363281 43.816406 7.375 64.792969.03125l.109375.300781zm0 0" fill="#edb288"/><path d="m113.847656 286.519531-.109375.332031v30.519532c-12.105469 1.832031-24.441406-1.285156-34.226562-8.648438-9.78125-7.367187-16.1875-18.359375-17.773438-30.503906-3.257812.722656-6.582031 1.085938-9.917969 1.082031-3.082031 0-6.160156-.308593-9.179687-.921875-19.136719-3.945312-33.628906-19.648437-36.027344-39.039062-2.394531-19.394532 7.835938-38.15625 25.4375-46.640625 4.308594 3.292969 9.585938 5.070312 15.007813 5.0625h1.75c1.34375 40.152343 27.15625 75.378906 65.039062 88.757812zm0 0" fill="#4b5d63"/><path d="m64.871094 392.691406v60.96875h-51.570313v-60.96875c1.410157-16.972656 11.042969-32.179687 25.789063-40.703125 14.730468 8.535157 24.359375 23.734375 25.78125 40.703125zm0 0" fill="#e48e66"/><g fill="#63316d"><path d="m.269531 233.75c-.007812 24.480469 17.203125 45.585938 41.179688 50.511719 5.101562 1.027343 10.324219 1.292969 15.5.789062 4.84375 19.148438 20.230469 33.832031 39.585937 37.777344.96875.199219 1.945313.363281 2.929688.503906l-59.632813 21.519531c-.210937.074219-.421875.164063-.625.261719l-.121093.066407-.128907-.066407-.082031.175781c-.925781.464844-1.84375.960938-2.789062 1.511719-16.441407 9.507813-27.1875 26.46875-28.765626 45.398438-.015624.164062-.019531.332031-.019531.5v60.96875c0 3.316406 2.683594 6 6 6h204.347657c20.574218 33.554687 59.871093 50.738281 98.472656 43.066406 38.601562-7.671875 68.34375-38.578125 74.523437-77.449219 6.179688-38.867187-12.507812-77.472656-46.828125-96.742187-34.320312-19.265625-77.007812-15.117188-106.972656 10.402343l-43.5-15.695312c.917969-.136719 1.835938-.292969 2.742188-.476562 4.695312-.964844 9.234374-2.578126 13.484374-4.800782 12.972657-6.78125 22.449219-18.757812 26.070313-32.941406 5.171875.515625 10.394531.246094 15.484375-.800781 2.363281-.476563 4.6875-1.125 6.960938-1.9375 2.234374-.800781 4.417968-1.753907 6.523437-2.851563 17.027344-8.867187 27.691406-26.476562 27.660156-45.671875 0-16.574219-10.664062-31.910156-22.773437-41.582031 4.386718-5.457031 6.769531-12.25 6.753906-19.246094 0-2.480468-.296875-4.949218-.882812-7.359375-2.605469-10.398437-11.574219-17.960937-22.265626-18.773437l2.074219-30.128906c.175781-2.511719.261719-5.089844.261719-7.660157 0-60.113281-48.96875-109.019531-109.15625-109.019531-30.257812 0-59.15625 12.558594-79.804688 34.675781-20.644531 22.117188-31.183593 51.8125-29.101562 81.996094l2.082031 30.21875c-10.753906.632813-19.828125 8.230469-22.335937 18.707031-.582032 2.40625-.878906 4.871094-.878906 7.34375-.023438 6.667969 2.140624 13.164063 6.15625 18.492188-13.8125 9.671875-22.066407 25.453125-22.128907 42.316406zm93.351563 75.84375c-13.976563-5.023438-23.980469-17.421875-25.933594-32.144531-.214844-1.671875-1.125-3.175781-2.503906-4.144531-1.378906-.964844-3.101563-1.308594-4.75-.941407-5.460938 1.191407-11.109375 1.238281-16.59375.136719-16.015625-3.300781-28.351563-16.121094-31.035156-32.253906-2.679688-16.136719 4.847656-32.257813 18.9375-40.5625 3.503906 2.023437 7.382812 3.328125 11.398437 3.832031 2.113281 24.820313 13.152344 48.03125 31.070313 65.335937 9.667968 9.347657 21.054687 16.742188 33.527343 21.769532v21.25c-2.953125.058594-5.902343-.210938-8.800781-.800782-1.804688-.367187-3.582031-.859374-5.316406-1.476562zm-22.769532 82.597656c-1.257812-14.949218-8.257812-28.832031-19.53125-38.734375l60.257813-21.738281 28.660156 38.625v32.125c0 3.316406 2.683594 6 6 6 3.3125 0 6-2.683594 6-6v-32.125l28.785157-38.785156 46.3125 16.699218c-24.097657 27.261719-30.296876 65.980469-15.917969 99.398438h-140.546875v-54.964844c0-.167968-.007813-.335937-.023438-.5zm101.902344-69.613281-26.507812 35.714844-26.5-35.714844v-27.976563c17.367187 4.589844 35.632812 4.597657 53.007812.019532zm-153.453125 70.371094c1.21875-13.667969 8.472657-26.078125 19.785157-33.84375 11.308593 7.773437 18.558593 20.179687 19.785156 33.84375v54.710937h-39.570313zm360.46875 17.550781c0 37.515625-25.457031 70.246094-61.820312 79.480469-36.359375 9.230469-74.351563-7.390625-92.246094-40.359375-17.898437-32.972656-11.136719-73.886719 16.417969-99.34375 23.925781-22.109375 58.671875-27.957032 88.515625-14.902344 29.847656 13.058594 49.132812 42.546875 49.132812 75.125zm-99.5-176.730469c.023438 14.71875-8.148437 28.222657-21.199219 35.027344-1.625.84375-3.300781 1.578125-5.023437 2.199219-1.738281.621094-3.515625 1.113281-5.324219 1.480468-5.472656 1.113282-11.113281 1.066407-16.566406-.140624-1.644531-.363282-3.367188-.023438-4.746094.945312-1.382812.96875-2.289062 2.472656-2.507812 4.144531-1.667969 12.78125-9.46875 23.949219-20.898438 29.914063-3.25 1.695312-6.71875 2.933594-10.304687 3.671875-2.945313.59375-5.945313.855469-8.949219.785156v-21.148437c36.265625-14.523438 61.273438-48.222657 64.660156-87.140626 3.734375-.480468 7.347656-1.648437 10.65625-3.449218 13.851563 9.90625 20.203125 24.117187 20.203125 33.710937zm-205.019531-190.90625c18.308594-19.785156 44.074219-30.980469 71.03125-30.863281 53.59375.023438 97.058594 43.425781 97.15625 97.019531 0 2.292969-.078125 4.585938-.234375 6.828125l-2.109375 30.703125c-20.019531-2.261719-34.925781-9.679687-44.320312-22.125-17.699219-23.4375-11.007813-57.589843-10.335938-60.753906.015625-.066406.023438-.136719.039062-.203125.019532-.097656.039063-.199219.054688-.292969.023438-.136719.046875-.273437.058594-.410156 0-.023437 0-.046875 0-.070313.015625-.175781.035156-.351562.035156-.53125.007812-2.285156-1.289062-4.375-3.339844-5.382812-2.050781-1.011719-4.5-.761719-6.304687.640625-.070313.050781-.140625.105469-.207031.160156-.109376.09375-.214844.183594-.316407.28125-.101562.101563-.175781.183594-.261719.277344-.085937.09375-.164062.171875-.238281.265625l-26.207031 31.933594c-14.75 18.609375-37.195312 29.457031-60.941406 29.449218-14.332032.011719-28.054688 5.78125-38.089844 16.015626l-1.375-19.953126c-1.96875-26.886718 7.429688-53.363281 25.90625-72.988281zm-46.472656 125.574219c1.597656-6.53125 7.289062-9.582031 12.667968-9.582031.859376 0 1.722657.082031 2.570313.242187.367187.066406.738281.097656 1.113281.097656h.816406c.238282 0 .480469-.019531.714844-.050781.074219-.007812.144532-.023437.21875-.035156.195313-.03125.386719-.070313.574219-.121094.058594-.015625.121094-.027343.175781-.046875.242188-.070312.480469-.160156.710938-.261718.035156-.015626.070312-.035157.105468-.050782.191407-.089844.382813-.191406.5625-.300781.066407-.039063.128907-.078125.195313-.121094.164063-.109375.324219-.226562.480469-.351562.042968-.039063.09375-.070313.136718-.109375.167969-.140625.324219-.292969.476563-.453125.019531-.019531.035156-.042969.050781-.0625.050782-.058594.101563-.117188.148438-.175781.125-.148438.242187-.304688.351562-.460938.042969-.0625.082032-.121094.125-.183594.140625-.21875.265625-.445312.375-.683594.003906-.007812.011719-.015624.015625-.027343 6.757813-14.585938 21.371094-23.917969 37.445313-23.910157 27.375.007813 53.25-12.480468 70.277344-33.910156l13.535156-16.484375c-.171875 14.550781 2.410156 34.152344 14.574218 50.265625 12.515626 16.578125 32.402344 25.800782 59.101563 27.402344.117187.003906.234375.007812.351563.007812h.707031c.375 0 .75-.03125 1.117187-.097656 5.984375-1.136718 13.355469 1.796875 15.230469 9.457032.359375 1.476562.542969 2.992187.542969 4.515624.011718 4.992188-1.972656 9.78125-5.507813 13.304688-.667969.667969-1.386719 1.28125-2.148437 1.839844-3.226563 2.394531-7.140625 3.683594-11.160156 3.671875h-1.691407c-3.238281 0-5.894531 2.566406-6 5.804687-1.246093 37.710938-25.5 70.789063-61.089843 83.316406-.101563.035157-.199219.074219-.300782.113282-27.484375 9.546875-57.867187 5.464844-81.851562-11-23.988282-16.464844-38.71875-43.351563-39.6875-72.429688-.105469-3.238281-2.761719-5.804687-6-5.804687h-1.75c-10.390625-.007813-18.8125-8.429688-18.820313-18.820313 0-1.515625.179688-3.027344.539063-4.503906zm0 0"/><path d="m262.339844 474.28125c11.359375-.011719 20.570312-9.21875 20.578125-20.582031 0-.152344-.019531-.300781-.023438-.453125.015625-.152344.023438-.300782.023438-.457032v-79.589843c.007812-3.152344 2.230469-5.867188 5.316406-6.5l45.511719-7.824219.125-.023438c1.945312-.375 3.957031.132813 5.484375 1.394532 1.527343 1.257812 2.414062 3.132812 2.414062 5.113281v52.414063c-8.296875-3.800782-18.109375-1.671876-24.09375 5.222656-5.980469 6.894531-6.699219 16.910156-1.765625 24.589844 4.933594 7.679687 14.34375 11.1875 23.101563 8.609374 8.757812-2.574218 14.769531-10.617187 14.757812-19.746093 0-.152344-.019531-.296875-.019531-.453125-.003906-.152344.019531-.300782.019531-.457032v-70.179687c0-5.550781-2.476562-10.808594-6.753906-14.347656-4.273437-3.539063-9.90625-4.988281-15.355469-3.953125l-45.535156 7.832031-.132812.023437c-8.746094 1.71875-15.054688 9.375-15.074219 18.285157v61.828125c-7.644531-3.511719-16.65625-2.011719-22.753907 3.785156-6.097656 5.796875-8.046874 14.722656-4.925781 22.535156 3.121094 7.8125 10.6875 12.933594 19.101563 12.933594zm70.859375-29.25c-4.734375 0-8.578125-3.835938-8.578125-8.570312-.003906-4.738282 3.832031-8.578126 8.566406-8.582032 4.738281 0 8.578125 3.835938 8.582031 8.570313-.003906 4.734375-3.835937 8.570312-8.570312 8.582031zm-70.859375.097656c4.738281 0 8.578125 3.835938 8.578125 8.574219.003906 4.738281-3.839844 8.578125-8.574219 8.578125-4.738281-.003906-8.578125-3.84375-8.574219-8.582031.007813-4.730469 3.839844-8.5625 8.570313-8.570313zm0 0"/></g></svg>