<svg height="390pt" viewBox="-9 0 390 390.27526" width="390pt" xmlns="http://www.w3.org/2000/svg"><path d="m86.878906 280.765625h-40.742187c-22.089844 0-40-17.90625-40-40v-91.257813c0-22.089843 17.910156-40 40-40h40.742187l146.21875-102.78125c1.222656-.855468 2.816406-.964843 4.144532-.277343 1.324218.6875 2.15625 2.054687 2.15625 3.546875v370.28125c0 1.492187-.832032 2.859375-2.15625 3.546875-1.328126.6875-2.921876.582031-4.144532-.277344zm0 0" fill="#f8ec7d"/><g fill="#63316d"><path d="m286.347656 268.925781c-3.3125 0-6 2.6875-6 6 0 3.316407 2.6875 6 6 6 47.378906 0 85.789063-38.40625 85.789063-85.789062 0-47.378907-38.410157-85.789063-85.789063-85.789063-3.3125 0-6 2.6875-6 6s2.6875 6 6 6c40.753906 0 73.789063 33.035156 73.789063 73.789063 0 40.753906-33.035157 73.789062-73.789063 73.789062zm0 0"/><path d="m46.136719 286.765625h38.84375l144.65625 101.683594c3.054687 2.152343 7.050781 2.421875 10.363281.703125 3.316406-1.71875 5.394531-5.140625 5.398438-8.875v-370.28125c-.003907-3.730469-2.082032-7.152344-5.394532-8.871094-3.308594-1.71875-7.304687-1.453125-10.355468.695312l-144.667969 101.6875h-38.84375c-25.390625.027344-45.96875 20.605469-46 46v91.257813c.03125 25.394531 20.609375 45.972656 46 46zm-34-137.257813c.023437-18.769531 15.230469-33.980468 34-34h41.652343c2.113282 0 4.074219-1.113281 5.15625-2.929687l140.453126-98.726563v362.574219l-140.46875-98.738281c-1.078126-1.8125-3.035157-2.917969-5.140626-2.921875h-41.652343c-18.769531-.019531-33.976563-15.230469-34-34zm0 0"/></g></svg>