<svg height="476pt" viewBox="0 -28 476 475" width="476pt" xmlns="http://www.w3.org/2000/svg"><path d="m314.539062 345.558594c0-15.71875-15.320312-28.457032-34.21875-28.457032-18.898437 0-34.210937 12.738282-34.210937 28.457032 0 15.722656 15.320313 28.460937 34.210937 28.460937 18.890626 0 34.21875-12.75 34.21875-28.460937zm0-140.488282 83.460938 15.667969v-35.386719l-83.460938-15.671874zm155.460938-87.550781v256.5c0 22.09375-17.910156 40-40 40h-384c-22.089844 0-40-17.90625-40-40v-256.5zm0 0" fill="#f8ec7d"/><path d="m470 46.5v71.019531h-464v-71.019531c0-22.089844 17.910156-40 40-40h384c22.089844 0 40 17.910156 40 40zm-242.390625 16.25c.027344-9.472656-7.628906-17.171875-17.097656-17.199219-9.472657-.027343-17.175781 7.628907-17.203125 17.097657-.027344 9.472656 7.628906 17.175781 17.101562 17.203124 9.472656.023438 17.171875-7.628906 17.199219-17.101562zm-77.03125-.238281c.03125-9.46875-7.621094-17.171875-17.089844-17.203125-9.46875-.027344-17.167969 7.621094-17.199219 17.089844-.027343 9.46875 7.621094 17.171874 17.089844 17.203124s17.171875-7.621093 17.199219-17.089843zm-77.027344-.242188c.03125-9.46875-7.621093-17.167969-17.089843-17.199219s-17.171876 7.621094-17.199219 17.089844c-.03125 9.46875 7.621093 17.167969 17.089843 17.199219s17.167969-7.621094 17.199219-17.089844zm0 0" fill="#e48e66"/><path d="m398 185.351562v35.386719l-83.460938-15.667969v-35.390624zm0 0" fill="#6fe3ff"/><path d="m280.320312 317.101562c18.898438 0 34.21875 12.738282 34.21875 28.457032 0 15.722656-15.320312 28.460937-34.21875 28.460937-18.898437 0-34.210937-12.75-34.210937-28.460937 0-15.707032 15.320313-28.457032 34.210937-28.457032zm0 0" fill="#6fe3ff"/><path d="m210.511719 45.550781c9.472656.027344 17.128906 7.730469 17.097656 17.203125-.027344 9.472656-7.734375 17.128906-17.207031 17.097656s-17.125-7.738281-17.09375-17.210937c.035156-9.46875 7.734375-17.117187 17.203125-17.089844zm0 0" fill="#f8ec7d"/><path d="m133.488281 45.308594c9.46875.03125 17.121094 7.734375 17.089844 17.203125-.027344 9.46875-7.730469 17.117187-17.199219 17.089843-9.46875-.03125-17.121094-7.734374-17.089844-17.203124s7.730469-17.121094 17.199219-17.089844zm0 0" fill="#f8ec7d"/><path d="m56.460938 45.070312c9.46875.03125 17.121093 7.730469 17.089843 17.199219s-7.730469 17.121094-17.199219 17.089844-17.121093-7.730469-17.089843-17.199219c.027343-9.46875 7.730469-17.121094 17.199219-17.089844zm0 0" fill="#f8ec7d"/><g fill="#63316d"><path d="m46 420.019531h384c25.394531-.027343 45.972656-20.605469 46-46v-327.519531c-.027344-25.394531-20.605469-45.972656-46-46h-384c-25.394531.027344-45.9726562 20.605469-46 46v327.519531c.0273438 25.394531 20.605469 45.972657 46 46zm0-407.519531h384c18.769531.023438 33.976562 15.230469 34 34v65.019531h-452v-65.019531c.023438-18.769531 15.230469-33.976562 34-34zm-34 111.019531h452v250.5c-.023438 18.769531-15.230469 33.980469-34 34h-384c-18.769531-.019531-33.976562-15.230469-34-34zm0 0"/><path d="m133.359375 85.601562h.078125c12.78125.019532 23.160156-10.328124 23.179688-23.109374.019531-12.785157-10.324219-23.164063-23.109376-23.183594h-.074218c-12.78125-.019532-23.160156 10.328125-23.179688 23.109375-.019531 12.78125 10.324219 23.160156 23.105469 23.183593zm.078125-34.292968h.035156c4.507813.015625 8.5625 2.742187 10.273438 6.914062 1.710937 4.171875.742187 8.960938-2.457032 12.136719-4.363281 4.335937-11.410156 4.316406-15.753906-.039063-3.175781-3.191406-4.121094-7.980468-2.390625-12.140624 1.726563-4.160157 5.789063-6.867188 10.292969-6.871094zm0 0"/><path d="m56.332031 85.359375h.074219c12.78125.019531 23.160156-10.324219 23.179688-23.109375.023437-12.78125-10.324219-23.160156-23.105469-23.179688h-.082031c-12.78125-.019531-23.160157 10.324219-23.179688 23.109376-.019531 12.78125 10.328125 23.160156 23.109375 23.179687zm-7.78125-31.050781c2.082031-2.082032 4.90625-3.246094 7.847657-3.238282h.039062c6.15625.007813 11.136719 5.007813 11.125 11.164063-.007812 6.152344-5.007812 11.136719-11.160156 11.125h-.039063c-4.507812-.011719-8.5625-2.742187-10.273437-6.914063-1.710938-4.167968-.742188-8.960937 2.457031-12.136718zm0 0"/><path d="m210.390625 85.851562h.078125c12.785156.015626 23.164062-10.335937 23.179688-23.121093.015624-12.785157-10.335938-23.164063-23.121094-23.179688h-.074219c-12.785156-.019531-23.164063 10.332031-23.179687 23.117188-.019532 12.785156 10.332031 23.164062 23.117187 23.183593zm-7.789063-31.0625c2.082032-2.082031 4.910157-3.246093 7.851563-3.238281h.039063c5.316406.015625 9.878906 3.789063 10.898437 9.003907 1.019531 5.21875-1.785156 10.429687-6.703125 12.449218-4.917969 2.019532-10.578125.28125-13.519531-4.148437-2.9375-4.429688-2.339844-10.320313 1.433593-14.066407zm0 0"/><path d="m293.828125 185.019531h.421875c3.3125 0 6-2.6875 6-6s-2.6875-6-6-6h-.421875c-3.3125 0-6 2.6875-6 6s2.6875 6 6 6zm0 0"/><path d="m194.921875 185.019531h76.339844c3.3125 0 6-2.6875 6-6s-2.6875-6-6-6h-76.339844c-3.316406 0-6 2.6875-6 6s2.683594 6 6 6zm0 0"/><path d="m78 185.019531h96.960938c3.3125 0 6-2.6875 6-6s-2.6875-6-6-6h-96.960938c-3.3125 0-6 2.6875-6 6s2.6875 6 6 6zm0 0"/><path d="m300.25 221.078125c0-3.3125-2.6875-6-6-6h-145.210938c-3.3125 0-6 2.6875-6 6 0 3.316406 2.6875 6 6 6h145.210938c3.3125 0 6-2.683594 6-6zm0 0"/><path d="m78 227.078125h51.820312c3.3125 0 6-2.683594 6-6 0-3.3125-2.6875-6-6-6h-51.820312c-3.3125 0-6 2.6875-6 6 0 3.316406 2.6875 6 6 6zm0 0"/><path d="m300.25 263.148438c0-3.3125-2.6875-6-6-6h-58.371094c-3.3125 0-6 2.6875-6 6 0 3.316406 2.6875 6 6 6h58.371094c3.3125 0 6-2.683594 6-6zm0 0"/><path d="m213.921875 257.148438c-3.316406 0-6 2.6875-6 6 0 3.316406 2.683594 6 6 6h.128906c3.3125 0 6-2.683594 6-6 0-3.3125-2.6875-6-6-6zm0 0"/><path d="m121.910156 263.148438c0 3.316406 2.6875 6 6 6h64.261719c3.3125 0 6-2.683594 6-6 0-3.3125-2.6875-6-6-6h-64.261719c-3.3125 0-6 2.6875-6 6zm0 0"/><path d="m78 269.148438h27.511719c3.3125 0 6-2.683594 6-6 0-3.3125-2.6875-6-6-6h-27.511719c-3.3125 0-6 2.6875-6 6 0 3.316406 2.6875 6 6 6zm0 0"/><path d="m223.75 341.28125h-39.078125c-3.316406 0-6 2.683594-6 6 0 3.3125 2.683594 6 6 6h39.078125c3.3125 0 6-2.6875 6-6 0-3.316406-2.6875-6-6-6zm0 0"/><path d="m166.398438 341.28125h-.117188c-3.316406 0-6 2.683594-6 6 0 3.3125 2.683594 6 6 6h.117188c3.316406 0 6-2.6875 6-6 0-3.316406-2.683594-6-6-6zm0 0"/><path d="m78 353.28125h66.058594c3.316406 0 6-2.6875 6-6 0-3.316406-2.683594-6-6-6h-66.058594c-3.3125 0-6 2.683594-6 6 0 3.3125 2.6875 6 6 6zm0 0"/><path d="m223.75 299.21875h-10.421875c-3.3125 0-6 2.6875-6 6 0 3.316406 2.6875 6 6 6h10.421875c3.3125 0 6-2.683594 6-6 0-3.3125-2.6875-6-6-6zm0 0"/><path d="m78 311.21875h112.589844c3.3125 0 6-2.683594 6-6 0-3.3125-2.6875-6-6-6h-112.589844c-3.3125 0-6 2.6875-6 6 0 3.316406 2.6875 6 6 6zm0 0"/><path d="m280.320312 311.101562c-22.171874 0-40.210937 15.457032-40.210937 34.457032 0 19.003906 18.039063 34.460937 40.210937 34.460937 22.171876 0 40.21875-15.457031 40.21875-34.460937v-133.257813l76.355469 14.335938c1.753907.328125 3.5625-.140625 4.9375-1.28125s2.167969-2.832031 2.167969-4.617188v-35.386719c0-2.890624-2.054688-5.367187-4.894531-5.902343l-83.457031-15.667969c-1.757813-.332031-3.566407.136719-4.941407 1.277344s-2.167969 2.835937-2.167969 4.621094v151.355468c-7.945312-6.527344-17.9375-10.042968-28.21875-9.933594zm0 56.917969c-15.554687 0-28.210937-10.074219-28.210937-22.460937 0-12.382813 12.65625-22.457032 28.210937-22.457032 15.554688 0 28.21875 10.074219 28.21875 22.457032 0 12.386718-12.65625 22.460937-28.21875 22.460937zm40.21875-191.109375 71.460938 13.417969v23.179687l-71.460938-13.414062zm0 0"/></g></svg>