<svg height="484pt" viewBox="-118 0 484 484.435" width="484pt" xmlns="http://www.w3.org/2000/svg"><path d="m202.757812 108.949219h40v80h-40zm0 0" fill="#6fe3ff"/><path d="m242.757812 78.949219v30h-40v-30zm0 0" fill="#f8ec7d"/><path d="m6.21875 289.898438h40v80h-40zm0 0" fill="#6fe3ff"/><path d="m46.21875 259.898438v30h-40v-30zm0 0" fill="#f8ec7d"/><g fill="#63316d"><path d="m46.21875 375.898438c3.3125 0 6-2.683594 6-6v-110c0-3.3125-2.6875-6-6-6h-14v-27.410157c0-3.3125-2.6875-6-6-6-3.316406 0-6 2.6875-6 6v27.410157h-14c-3.316406 0-6 2.6875-6 6v110c0 3.316406 2.683594 6 6 6zm-34-12v-68h28v68zm28-98v18h-28v-18zm0 0"/><path d="m20.21875 209.308594c0 3.316406 2.683594 6 6 6 3.3125 0 6-2.683594 6-6v-.359375c0-3.3125-2.6875-6-6-6-3.316406 0-6 2.6875-6 6zm0 0"/><path d="m41.21875 395.898438c3.3125 0 6-2.683594 6-6 0-3.3125-2.6875-6-6-6h-30c-3.316406 0-6 2.6875-6 6 0 3.316406 2.683594 6 6 6zm0 0"/><path d="m26.21875 193.308594c3.3125 0 6-2.683594 6-6v-.359375c0-3.3125-2.6875-6-6-6-3.316406 0-6 2.6875-6 6v.359375c0 3.316406 2.683594 6 6 6zm0 0"/><path d="m242.757812 72.949219h-14v-27.410157c0-3.3125-2.6875-6-6-6s-6 2.6875-6 6v27.410157h-14c-3.3125 0-6 2.6875-6 6v110c0 3.316406 2.6875 6 6 6h40c3.3125 0 6-2.683594 6-6v-110c0-3.3125-2.6875-6-6-6zm-6 12v18h-28v-18zm-28 98v-68h28v68zm0 0"/><path d="m216.757812 28.359375c0 3.3125 2.6875 6 6 6s6-2.6875 6-6v-.359375c0-3.3125-2.6875-6-6-6s-6 2.6875-6 6zm0 0"/><path d="m237.757812 202.949219h-30c-3.3125 0-6 2.6875-6 6 0 3.316406 2.6875 6 6 6h30c3.3125 0 6-2.683594 6-6 0-3.3125-2.6875-6-6-6zm0 0"/><path d="m232.757812 222.949219h-20c-3.3125 0-6 2.6875-6 6 0 3.316406 2.6875 6 6 6h4v103.480469c0 14.066406-11.402343 25.46875-25.46875 25.46875-14.066406 0-25.472656-11.402344-25.472656-25.46875v-21.730469c.238282-15.445313-7.867187-29.816407-21.207031-37.609375-13.335937-7.792969-29.835937-7.792969-43.175781 0-13.335938 7.792968-21.441406 22.164062-21.207032 37.609375v131.730469c0 13.257812-10.746093 24.003906-24.003906 24.003906-13.257812 0-24.003906-10.746094-24.003906-24.003906v-32.53125h4c3.3125 0 6-2.683594 6-6 0-3.3125-2.6875-6-6-6h-20c-3.316406 0-6 2.6875-6 6 0 3.316406 2.683594 6 6 6h4v32.53125c0 19.886718 16.117188 36.003906 36.003906 36.003906 19.886719 0 36.003906-16.117188 36.003906-36.003906v-131.730469c-.199218-11.132813 5.625-21.507813 15.234376-27.136719 9.613281-5.625 21.511718-5.625 31.121093 0 9.609375 5.628906 15.4375 16.003906 15.234375 27.136719v21.730469c0 20.695312 16.777344 37.46875 37.472656 37.46875 20.691407 0 37.46875-16.773438 37.46875-37.46875v-103.480469h4c3.3125 0 6-2.683594 6-6 0-3.3125-2.6875-6-6-6zm0 0"/><path d="m222.757812 12.359375c3.3125 0 6-2.6875 6-6v-.359375c0-3.3125-2.6875-6-6-6s-6 2.6875-6 6v.359375c0 3.3125 2.6875 6 6 6zm0 0"/></g></svg>