<svg height="467pt" viewBox="-10 0 467 467.01713" width="467pt" xmlns="http://www.w3.org/2000/svg"><path d="m257.113281 268.929688c36.785157-32.796876 90.898438-37.117188 132.421875-10.574219 41.527344 26.542969 60.324219 77.464843 46.007813 124.625-14.320313 47.15625-58.257813 79.03125-107.53125 78.003906-49.273438-1.027344-91.847657-34.703125-104.1875-82.414063-.957031-3.707031-1.714844-7.457031-2.273438-11.242187-5.484375-36.695313 7.882813-73.6875 35.5625-98.398437zm85.78125 132.820312c0-10.820312-10.550781-19.601562-23.5625-19.601562-13.007812 0-23.550781 8.78125-23.550781 19.601562s10.550781 19.589844 23.550781 19.589844 23.5625-8.769532 23.5625-19.589844zm0-77.710938 57.449219 10.789063v-43.371094l-57.449219-10.777343zm0 0" fill="#6fe3ff"/><path d="m400.34375 291.457031v43.371094l-57.449219-10.789063v-43.359374zm0 0" fill="#e48e66"/><path d="m381.003906 193.5h-80.492187c0-31.5625-5.160157-61.5625-15.1875-88.382812 17.582031-9.945313 33.421875-22.707032 46.886719-37.769532 31.449218 34.480469 48.855468 79.484375 48.792968 126.152344zm0 0" fill="#f8ec7d"/><path d="m300.511719 193.5h80.492187c.015625 18.902344-2.824218 37.703125-8.429687 55.757812l-.050781.128907c-24.570313-10.15625-51.976563-11.113281-77.191407-2.6875 3.488281-17.519531 5.222657-35.339844 5.179688-53.199219zm0 0" fill="#e48e66"/><path d="m319.332031 382.148438c13.011719 0 23.5625 8.78125 23.5625 19.601562s-10.550781 19.589844-23.5625 19.589844c-13.007812 0-23.550781-8.769532-23.550781-19.589844s10.550781-19.601562 23.550781-19.601562zm0 0" fill="#e48e66"/><path d="m198.351562 6.058594c51.125 1.265625 99.5 23.414062 133.859376 61.289062-13.464844 15.0625-29.304688 27.824219-46.886719 37.769532-16.410157-43.949219-45.851563-79.347657-86.972657-99.058594zm0 0" fill="#e48e66"/><path d="m300.511719 193.5h-107.007813v-64.390625c32.167969.085937 63.804688-8.179687 91.820313-23.992187 10.027343 26.820312 15.1875 56.820312 15.1875 88.382812zm0 0" fill="#e48e66"/><path d="m193.503906 193.5h107.007813c.042969 17.859375-1.691407 35.679688-5.179688 53.199219-14.117187 4.738281-27.121093 12.304687-38.21875 22.230469-20.402343-7.339844-41.929687-11.070313-63.609375-11.03125zm0 0" fill="#f8ec7d"/><path d="m198.351562 6.058594c41.121094 19.710937 70.5625 55.109375 86.972657 99.058594-28.015625 15.8125-59.652344 24.078124-91.820313 23.992187v-123.109375c1.617188 0 3.230469.019531 4.839844.058594zm0 0" fill="#f8ec7d"/><path d="m257.113281 268.929688c-27.679687 24.710937-41.046875 61.703124-35.5625 98.398437-7.332031 5.179687-15.089843 9.730469-23.1875 13.609375-1.621093.039062-3.242187.0625-4.859375.0625v-123.101562c21.679688-.039063 43.207032 3.691406 63.609375 11.03125zm0 0" fill="#e48e66"/><path d="m193.503906 363.957031v17.042969c-1.621094 0-3.230468-.023438-4.839844-.0625h-.011718c-41.199219-19.75-70.691406-55.257812-87.078125-99.328125 28.125-15.601563 59.765625-23.761719 91.929687-23.710937zm0 0" fill="#f8ec7d"/><path d="m193.503906 193.5v64.398438c-32.164062-.050782-63.804687 8.109374-91.929687 23.710937-9.953125-26.75-15.082031-56.660156-15.082031-88.109375zm0 0" fill="#e48e66"/><path d="m193.503906 129.109375v64.390625h-107.011718c0-31.453125 5.128906-61.351562 15.082031-88.101562 28.125 15.597656 59.765625 23.761718 91.929687 23.710937zm0 0" fill="#f8ec7d"/><path d="m193.503906 23.046875v106.0625c-32.164062.050781-63.804687-8.113281-91.929687-23.710937 16.386719-44.078126 45.867187-79.578126 87.078125-99.339844h.011718c1.609376-.039063 3.21875-.058594 4.839844-.058594zm0 0" fill="#e48e66"/><path d="m188.652344 6.058594c-41.210938 19.761718-70.691406 55.261718-87.078125 99.339844-17.707031-9.832032-33.675781-22.511719-47.261719-37.53125 34.386719-38.183594 82.96875-60.535157 134.339844-61.808594zm0 0" fill="#f8ec7d"/><path d="m101.574219 281.609375c16.386719 44.070313 45.878906 79.578125 87.078125 99.328125-51.367188-1.269531-99.949219-23.625-134.328125-61.808594 13.578125-15.019531 29.542969-27.695312 47.25-37.519531zm0 0" fill="#e48e66"/><path d="m101.574219 105.398438c-9.953125 26.75-15.082031 56.648437-15.082031 88.101562h-80.488282c-.066406-46.425781 17.15625-91.210938 48.308594-125.632812 13.585938 15.019531 29.554688 27.699218 47.261719 37.53125zm0 0" fill="#e48e66"/><path d="m86.492188 193.5c0 31.449219 5.128906 61.359375 15.082031 88.109375-17.707031 9.824219-33.671875 22.5-47.25 37.519531-31.160157-34.417968-48.386719-79.203125-48.320313-125.628906zm0 0" fill="#f8ec7d"/><g fill="#63316d"><path d="m111.453125 368.789062c24.140625 11.339844 50.382813 17.523438 77.050781 18.148438h.054688c1.644531.042969 3.292968.0625 4.945312.0625 1.667969 0 3.339844-.019531 5.015625-.0625 7.015625-.183594 14.015625-.746094 20.972657-1.679688 15.695312 50.792969 63.90625 84.417969 116.996093 81.597657 53.085938-2.820313 97.464844-41.363281 107.691407-93.535157 10.226562-52.167968-16.316407-104.613281-64.410157-127.269531 16.25-57.492187 5.019531-119.265625-30.421875-167.363281s-91.121094-77.117188-150.84375-78.6289062h-.058594c-3.289062-.078125-6.601562-.078125-9.886718 0h-.054688c-75.535156 1.9570312-143.023437 47.6992182-172.816406 117.1367182s-16.445312 149.863282 34.183594 205.953126c17.265625 19.179687 38.207031 34.699218 61.582031 45.640624zm-56.96875-291.96875c11.796875 12.152344 25.164063 22.667969 39.75 31.273438-8.515625 24.550781-13.113281 51.210938-13.679687 79.402344h-68.441407c1.308594-40.601563 16.230469-79.582032 42.371094-110.675782zm277.59375-.511718c26.414063 31.167968 41.503906 70.355468 42.816406 111.191406h-68.441406c-.574219-28.339844-5.207031-55.101562-13.800781-79.722656 14.476562-8.695313 27.738281-19.277344 39.425781-31.46875zm-1.734375 158.703125c-9.230469-.003907-18.429688 1.089843-27.402344 3.265625 2.074219-12.828125 3.246094-25.785156 3.5-38.777344h68.460938c-.453125 14.191406-2.570313 28.277344-6.308594 41.972656-12.292969-4.296875-25.226562-6.484375-38.25-6.464844zm-74.527344 27.113281c-18.164062-6.164062-37.144531-9.574219-56.3125-10.125v-52.5h94.9375c-.289062 14.328125-1.746094 28.609375-4.367187 42.699219-12.488281 4.605469-24.078125 11.347656-34.257813 19.921875zm-68.3125-127.113281v52.488281h-94.945312c.363281-25 4.53125-49.796875 12.359375-73.539062 25.648437 12.996093 53.84375 20.183593 82.585937 21.050781zm94.5-21.292969c7.886719 23.816406 12.082032 48.695312 12.445313 73.78125h-94.945313v-52.488281c28.742188-.859375 56.929688-8.136719 82.5-21.292969zm-94.5 85.78125v52.5c-28.742187.867188-56.9375 8.054688-82.585937 21.050781-7.828125-23.746093-11.996094-48.546875-12.359375-73.546875zm0 64.5v109.667969c-35.230468-18.054688-62.207031-48.78125-78.417968-89.273438 24.292968-12.550781 51.085937-19.519531 78.417968-20.394531zm26.839844 87.007812c0 4.496094.261719 8.988282.785156 13.457032-5.027344 3.367187-10.242187 6.441406-15.625 9.199218v-109.660156c15.714844.484375 31.296875 3.019532 46.355469 7.535156-20.226563 21.519532-31.496094 49.933594-31.515625 79.46875zm-14.839844-228v-109.679687c35.148438 18.015625 62.09375 48.660156 78.3125 89.042969-24.207031 12.710937-50.984375 19.769531-78.3125 20.636718zm-12 0c-27.332031-.875-54.125-7.84375-78.417968-20.394531 16.207031-40.496093 43.1875-71.222656 78.417968-89.285156zm-106.949218 76.492188c.566406 28.199219 5.164062 54.859375 13.679687 79.410156-14.585937 8.601563-27.949219 19.117188-39.742187 31.265625-26.144532-31.09375-41.074219-70.074219-42.378907-110.675781zm-18.023438 119.628906c10.699219-11.128906 22.804688-20.816406 36.011719-28.816406 14.132812 34.601562 35.78125 62.464844 63.53125 81.976562-38-6.652343-72.878907-25.277343-99.542969-53.160156zm371.8125 31.878906c-.007812 52.363282-38.9375 96.558594-90.882812 103.171876-51.941407 6.609374-100.703126-26.421876-113.828126-77.109376-.902343-3.503906-1.621093-7.054687-2.148437-10.632812-4.996094-33.441406 6.5625-67.222656 30.996094-90.59375.109375.042969.222656.085938.335937.128906l.273438-.71875c.667968-.625 1.339844-1.242187 2.019531-1.851562 29.816406-26.578125 72.207031-33.753906 109.109375-18.472656 38.878906 16.0625 64.203125 54.015624 64.125 96.078124zm-110.332031-283.625c-10.597657 11.15625-22.59375 20.902344-35.6875 28.988282-14.140625-34.472656-35.753907-62.234375-63.421875-81.6875 37.820312 6.519531 72.554687 24.988281 99.109375 52.699218zm-207.46875-38.308593c14.472656-6.796875 29.785156-11.628907 45.535156-14.367188-27.753906 19.515625-49.402344 47.378907-63.539063 81.984375-13.207031-8.003906-25.3125-17.695312-36.015624-28.824218 15.453124-16.160157 33.769531-29.316407 54.019531-38.792969zm0 0"/><path d="m339.0625 276.0625c-1.375 1.136719-2.167969 2.832031-2.167969 4.617188v100.492187c-5.253906-3.320313-11.347656-5.0625-17.5625-5.023437-16.292969 0-29.550781 11.484374-29.550781 25.601562 0 14.113281 13.257812 25.589844 29.550781 25.589844s29.5625-11.480469 29.5625-25.589844v-70.480469l50.339844 9.457031c1.753906.328126 3.566406-.140624 4.941406-1.28125 1.375-1.140624 2.167969-2.835937 2.167969-4.621093v-43.367188c0-2.886719-2.054688-5.367187-4.894531-5.898437l-57.445313-10.777344c-1.757812-.332031-3.570312.136719-4.941406 1.28125zm-19.730469 139.277344c-9.675781 0-17.550781-6.101563-17.550781-13.589844 0-7.492188 7.875-13.601562 17.550781-13.601562s17.5625 6.101562 17.5625 13.601562-7.878906 13.589844-17.5625 13.589844zm29.5625-127.429688 45.449219 8.527344v31.160156l-45.449219-8.539062zm0 0"/><path d="m260.34375 300.097656h50.847656c3.316406 0 6-2.6875 6-6s-2.683594-6-6-6h-50.847656c-3.316406 0-6 2.6875-6 6s2.683594 6 6 6zm0 0"/><path d="m260.34375 326.519531h50.847656c3.316406 0 6-2.6875 6-6 0-3.316406-2.683594-6-6-6h-50.847656c-3.316406 0-6 2.683594-6 6 0 3.3125 2.683594 6 6 6zm0 0"/><path d="m317.191406 346.929688c0-3.316407-2.683594-6-6-6h-50.847656c-3.316406 0-6 2.683593-6 6 0 3.3125 2.683594 6 6 6h50.847656c3.316406 0 6-2.6875 6-6zm0 0"/></g></svg>