<svg height="492pt" viewBox="0 -70 492 492" width="492pt" xmlns="http://www.w3.org/2000/svg"><path d="m404.648438 167.589844c44.929687 0 81.351562 36.421875 81.351562 81.351562 0 44.925782-36.421875 81.347656-81.351562 81.347656h-5.269532v-162.699218zm0 0" fill="#6fe3ff"/><path d="m376.839844 167.589844h22.539062v162.699218h-22.539062zm0 0" fill="#f8ec7d"/><path d="m356 236.839844h-47.21875c.121094-16.792969-2.589844-33.488282-8.019531-49.378906 10.5625-6.066407 20.03125-13.863282 28.007812-23.070313 17.589844 20.03125 27.273438 45.789063 27.230469 72.449219zm0 0" fill="#f8ec7d"/><path d="m308.78125 236.839844h47.21875c.042969 26.660156-9.640625 52.417968-27.230469 72.449218-7.976562-9.203124-17.445312-17.003906-28.007812-23.070312 5.429687-15.890625 8.140625-32.585938 8.019531-49.378906zm0 0" fill="#e48e66"/><path d="m248.839844 126.878906c30.722656.757813 59.714844 14.363282 79.929687 37.511719-7.976562 9.207031-17.445312 17.003906-28.007812 23.070313-9.421875-26.929688-27.03125-48.652344-51.921875-60.582032zm0 0" fill="#e48e66"/><path d="m328.769531 309.289062c-20.210937 23.140626-49.195312 36.746094-79.910156 37.511719 24.878906-11.929687 42.480469-33.660156 51.902344-60.582031 10.5625 6.066406 20.03125 13.867188 28.007812 23.070312zm0 0" fill="#f8ec7d"/><path d="m308.78125 236.839844h-62.78125v-34.960938h.28125c19.109375.070313 37.902344-4.902344 54.480469-14.417968 5.429687 15.890624 8.140625 32.585937 8.019531 49.378906zm0 0" fill="#e48e66"/><path d="m246 236.839844h62.78125c.121094 16.792968-2.589844 33.488281-8.019531 49.378906-16.574219-9.523438-35.367188-14.5-54.480469-14.429688h-.28125zm0 0" fill="#f8ec7d"/><path d="m248.839844 126.878906c24.890625 11.929688 42.5 33.652344 51.921875 60.582032-16.578125 9.515624-35.371094 14.488281-54.480469 14.417968h-.28125v-75.039062c.949219 0 1.898438.011718 2.839844.039062zm0 0" fill="#f8ec7d"/><path d="m300.761719 286.21875c-9.421875 26.921875-27.023438 48.652344-51.902344 60.582031-.949219.027344-1.898437.039063-2.859375.039063v-75.050782h.28125c19.113281-.070312 37.90625 4.90625 54.480469 14.429688zm0 0" fill="#e48e66"/><path d="m246 336.839844v10c-.960938 0-1.910156-.011719-2.859375-.039063-24.851563-11.921875-42.429687-33.589843-51.859375-60.460937 16.652344-9.550782 35.519531-14.570313 54.71875-14.550782zm0 0" fill="#f8ec7d"/><path d="m246 236.839844v34.949218c-19.199219-.019531-38.066406 5-54.71875 14.550782-5.457031-15.929688-8.183594-32.664063-8.0625-49.5zm0 0" fill="#e48e66"/><path d="m246 201.878906v34.960938h-62.78125c-.121094-16.832032 2.605469-33.566406 8.0625-49.488282 16.652344 9.542969 35.523438 14.554688 54.71875 14.527344zm0 0" fill="#f8ec7d"/><path d="m246 136.839844v65.039062c-19.195312.027344-38.066406-4.984375-54.71875-14.527344 9.429688-26.882812 27.019531-48.5625 51.878906-60.472656.941406-.027344 1.890625-.039062 2.839844-.039062zm0 0" fill="#e48e66"/><path d="m243.160156 126.878906c-24.859375 11.910156-42.449218 33.589844-51.878906 60.472656-10.5625-6.042968-20.042969-13.804687-28.050781-22.960937 20.214843-23.148437 49.207031-36.753906 79.929687-37.511719zm0 0" fill="#f8ec7d"/><path d="m191.28125 286.339844c9.429688 26.871094 27.007812 48.539062 51.859375 60.460937-30.714844-.765625-59.699219-14.371093-79.910156-37.511719 8.007812-9.152343 17.488281-16.910156 28.050781-22.949218zm0 0" fill="#e48e66"/><path d="m191.28125 187.351562c-5.457031 15.921876-8.183594 32.65625-8.0625 49.488282h-47.21875c-.042969-26.660156 9.640625-52.417969 27.230469-72.449219 8.007812 9.15625 17.488281 16.917969 28.050781 22.960937zm0 0" fill="#e48e66"/><path d="m183.21875 236.839844c-.121094 16.835937 2.605469 33.570312 8.0625 49.5-10.5625 6.039062-20.042969 13.796875-28.050781 22.949218-17.589844-20.03125-27.273438-45.789062-27.230469-72.449218zm0 0" fill="#f8ec7d"/><path d="m92.621094 167.589844h22.539062v162.699218h-22.539062zm0 0" fill="#f8ec7d"/><path d="m92.621094 167.589844v162.699218h-5.269532c-44.929687 0-81.351562-36.421874-81.351562-81.347656 0-44.929687 36.421875-81.351562 81.351562-81.351562zm0 0" fill="#6fe3ff"/><g fill="#63316d"><path d="m404.648438 161.589844h-2.648438v-5.589844c-.011719-86.152344-69.847656-155.9882812-156-156-86.019531 0-156 69.980469-156 156v5.589844h-2.648438c-48.242187 0-87.351562 39.109375-87.351562 87.351562 0 48.242188 39.109375 87.347656 87.351562 87.347656h27.808594c3.3125 0 6-2.683593 6-6v-162.699218c0-3.3125-2.6875-6-6-6h-13.160156v-5.589844c0-79.398438 64.601562-144 144-144 79.523438.011719 143.988281 64.476562 144 144v5.589844h-13.160156c-3.3125 0-6 2.6875-6 6v162.699218c0 3.316407 2.6875 6 6 6h27.808594c48.242187 0 87.351562-39.105468 87.351562-87.347656 0-48.242187-39.109375-87.351562-87.351562-87.351562zm-392.648438 87.351562c.050781-41.308594 33.316406-74.890625 74.621094-75.332031v150.664063c-41.328125-.394532-74.621094-34.007813-74.621094-75.332032zm97.160156 75.347656h-10.539062v-150.699218h10.539062zm273.679688-150.699218h10.539062v150.699218h-10.539062zm75.089844 128.628906c-13.921876 13.996094-32.808594 21.921875-52.550782 22.054688v-150.664063c30.34375.285156 57.550782 18.75 69.027344 46.835937 11.476562 28.089844 4.980469 60.324219-16.476562 81.773438zm0 0"/><path d="m249.03125 120.882812c-2.007812-.066406-4.097656-.0625-6.019531 0-62.820313 1.683594-112.875 53.085938-112.894531 115.925782-.015626 62.84375 50.011718 114.273437 112.832031 115.988281 1.011719.03125 2.027343.042969 3.050781.042969s2.039062-.011719 3.011719-.039063c62.820312-1.699219 112.867187-53.105469 112.871093-115.949219.003907-62.84375-50.03125-114.261718-112.851562-115.96875zm58.921875 162.671876c4.050781-13.210938 6.3125-26.902344 6.71875-40.714844h35.136719c-1.195313 20.816406-8.628906 40.789062-21.335938 57.320312-6.175781-6.308594-13.058594-11.882812-20.519531-16.605468zm-144.40625 16.628906c-12.71875-16.535156-20.15625-36.519532-21.355469-57.34375h35.136719c.410156 13.851562 2.679687 27.582031 6.753906 40.824218-7.457031 4.703126-14.347656 10.246094-20.535156 16.519532zm20.535156-110.164063c-4.070312 13.242188-6.34375 26.972657-6.753906 40.820313h-35.136719c1.195313-20.828125 8.636719-40.808594 21.351563-57.34375 6.191406 6.277344 13.082031 11.820312 20.539062 16.523437zm67.917969 75.910157v-23.089844h50.667969c-.382813 11.75-2.210938 23.40625-5.4375 34.707031-14.121094-6.933594-29.515625-10.886719-45.230469-11.617187zm-57.191406 11.746093c-3.253906-11.34375-5.089844-23.042969-5.476563-34.835937h50.667969v23.117187c-15.703125.800781-31.078125 4.789063-45.191406 11.71875zm45.191406-69.957031v23.121094h-50.667969c.386719-11.789063 2.226563-23.488282 5.476563-34.828125 14.113281 6.925781 29.488281 10.910156 45.191406 11.707031zm12 23.125v-23.101562c15.710938-.730469 31.105469-4.683594 45.230469-11.613282 3.230469 11.304688 5.054687 22.960938 5.4375 34.710938zm0-35.113281v-60.386719c18.460938 10.5625 32.613281 27.425781 41.308594 49.316406-12.839844 6.542969-26.914063 10.316406-41.308594 11.066406zm-12-60.378907v60.355469c-14.378906-.820312-28.429688-4.621093-41.265625-11.15625 8.691406-21.816406 22.8125-38.628906 41.265625-49.203125zm0 142.621094v60.375c-18.425781-10.542968-32.566406-27.371094-41.265625-49.199218 12.832031-6.542969 26.886719-10.351563 41.265625-11.179688zm12 60.378906v-60.410156c14.394531.753906 28.46875 4.527344 41.308594 11.078125-8.695313 21.902344-22.851563 38.765625-41.308594 49.328125zm62.671875-107.511718c-.40625-13.8125-2.667969-27.503906-6.71875-40.714844 7.460937-4.722656 14.347656-10.296875 20.523437-16.605469 12.703126 16.53125 20.136719 36.503907 21.332032 57.320313zm5.945313-66.441406c-5.09375 5.300781-10.746094 10.035156-16.855469 14.121093-6.890625-16.675781-16.707031-30.707031-29.035157-41.609375 17.421876 5.023438 33.238282 14.496094 45.890626 27.488282zm-103.34375-27.492188c-12.308594 10.886719-22.109376 24.882812-29 41.515625-6.105469-4.066406-11.765626-8.773437-16.875-14.039063 12.648437-12.984374 28.457031-22.453124 45.875-27.476562zm-45.875 172.394531c5.113281-5.265625 10.769531-9.972656 16.875-14.035156 6.886718 16.625 16.691406 30.621094 28.996093 41.507813-17.414062-5.023438-33.222656-14.492188-45.871093-27.472657zm103.335937 27.464844c12.324219-10.90625 22.140625-24.933594 29.027344-41.601563 6.109375 4.089844 11.757812 8.820313 16.851562 14.117188-12.644531 12.988281-28.457031 22.460938-45.875 27.484375zm0 0"/></g></svg>